<svg id="Layer_1" data-name="Layer 1" xmlns="http://www.w3.org/2000/svg" xmlns:xlink="http://www.w3.org/1999/xlink" width="6.36mm" height="11.72mm" viewBox="0 0 18.03 33.22"><defs><style>.cls-1{fill:none;}.cls-2{clip-path:url(#clip-path);}.cls-3{fill:#fff;fill-rule:evenodd;}.cls-4{fill:#030c26;}</style><clipPath id="clip-path"><rect class="cls-1" x="0.31" y="0.32" width="17.01" height="32.57"/></clipPath></defs><title>facebook_blue</title><g class="cls-2"><g id="Component_2_1" data-name="Component 2 1"><path id="Path_38" data-name="Path 38" class="cls-3" d="M11.35,32.89V18.05h5.06l.73-5.79H11.35V8.64c0-1.62.54-2.89,2.89-2.89h3.08V.5C16.6.5,14.79.32,12.8.32,8.45.32,5.38,3,5.38,7.92v4.34H.31v5.79H5.38V32.89Z"/></g></g><path class="cls-4" d="M5.38,12.26C5.1,6.8,5.67,3.79,7,2.86,9.05-.07,12.59-.53,17.32.5V5.75c-2.71,0-4.7.2-5.48.93a19.05,19.05,0,0,0-.49,5.58h5.79l-.73,5.79H11.35V32.89h-6V18.05H.31V12.26Z"/></svg>
