<svg id="Layer_1" data-name="Layer 1" xmlns="http://www.w3.org/2000/svg" width="221.08mm" height="155.13mm" viewBox="0 0 626.67 439.73"><defs><style>.cls-1,.cls-2{fill:#fff;}.cls-2{fill-rule:evenodd;}</style></defs><title>hvidlogo2</title><path class="cls-1" d="M130.4,357.24h22.73v2H132.75V380.2h18.48v2.12H132.75v13.95H130.4Z"/><path class="cls-1" d="M166.38,354.83h2.24v41.44h-2.24Z"/><path class="cls-1" d="M194.73,396.73a11.73,11.73,0,0,1-4.79-1,12.66,12.66,0,0,1-3.87-2.64,12.23,12.23,0,0,1-2.61-3.87,12.28,12.28,0,0,1,0-9.47,12.36,12.36,0,0,1,16.06-6.49,11.69,11.69,0,0,1,3.85,2.62,12.34,12.34,0,0,1,0,17.21,12.22,12.22,0,0,1-3.85,2.64A11.73,11.73,0,0,1,194.73,396.73Zm0-2a9.87,9.87,0,0,0,4-.78,9,9,0,0,0,3.08-2.15,10.09,10.09,0,0,0,2-3.24,11.88,11.88,0,0,0,0-8.09,9.69,9.69,0,0,0-2-3.22,9.31,9.31,0,0,0-3.08-2.12,9.87,9.87,0,0,0-4-.78,10.07,10.07,0,0,0-4,.78,9.56,9.56,0,0,0-3.14,2.12,9.27,9.27,0,0,0-2,3.22,11.72,11.72,0,0,0,0,8.09,9.65,9.65,0,0,0,2,3.24,9.2,9.2,0,0,0,3.14,2.15A10.07,10.07,0,0,0,194.73,394.72Z"/><path class="cls-1" d="M217.12,372.85h2.41l6.19,16.87c.12.31.22.63.32.95s.18.64.26.95.21.67.28,1c.08-.3.18-.63.29-1s.16-.62.26-.95a6.91,6.91,0,0,1,.37-.95l7-17.1H235l7.12,17.05c.11.3.24.62.37.94a8.86,8.86,0,0,1,.32.95c.11.35.21.67.28,1a5.73,5.73,0,0,1,.23-1l.26-.95c.1-.32.2-.64.32-.94l6.2-16.82h2.29l-9.07,23.88h-.57l-7.12-17.45c-.11-.27-.23-.56-.34-.89s-.21-.62-.29-.89a4.28,4.28,0,0,1-.23-.92c-.08.31-.15.62-.23.92s-.16.57-.26.89a7.66,7.66,0,0,1-.31.89l-7.23,17.45h-.58Z"/><path class="cls-1" d="M265.09,385a11.15,11.15,0,0,0,.78,3.9A8.92,8.92,0,0,0,271,394a10.81,10.81,0,0,0,4,.72,10.65,10.65,0,0,0,4.91-1,10.52,10.52,0,0,0,3.3-2.64l1.49,1.32a11.41,11.41,0,0,1-4,3.15,12.77,12.77,0,0,1-5.71,1.21,12.94,12.94,0,0,1-5-1,11.54,11.54,0,0,1-3.88-2.61,11.71,11.71,0,0,1-2.5-3.88,13.11,13.11,0,0,1,0-9.47,11.93,11.93,0,0,1,2.5-3.87,12.16,12.16,0,0,1,3.73-2.64,11,11,0,0,1,4.65-1,11.49,11.49,0,0,1,4.79,1,10.44,10.44,0,0,1,3.64,2.7,12.11,12.11,0,0,1,2.3,4.05,14.17,14.17,0,0,1,.74,5Zm18.54-1.84a11.42,11.42,0,0,0-.74-3.39,8.54,8.54,0,0,0-1.77-2.82,8.29,8.29,0,0,0-2.79-1.91,10.4,10.4,0,0,0-7.45-.06,8.58,8.58,0,0,0-2.82,1.85,9.43,9.43,0,0,0-1.94,2.83,11.85,11.85,0,0,0-1,3.5Z"/><path class="cls-1" d="M299.36,372.85h2.23l0,4.71a8.21,8.21,0,0,1,2.78-3.88,6.78,6.78,0,0,1,4.05-1.29,7,7,0,0,1,4.24,1.17l-1.09,1.82a4.53,4.53,0,0,0-1.32-.69,6.44,6.44,0,0,0-2.12-.29,6.08,6.08,0,0,0-2.44.52,5.79,5.79,0,0,0-2.07,1.58,8.2,8.2,0,0,0-1.43,2.68,11.74,11.74,0,0,0-.55,3.74v13.35h-2.23Z"/><path class="cls-1" d="M351.64,396.73a11.77,11.77,0,0,1-3.36-.46,10.17,10.17,0,0,1-2.7-1.26,9.21,9.21,0,0,1-2-1.87,10,10,0,0,1-1.34-2.27l1.95-.86a9,9,0,0,0,2.72,3.39,7.71,7.71,0,0,0,4.74,1.32,6.7,6.7,0,0,0,4.27-1.24,3.89,3.89,0,0,0,1.58-3.24,4.21,4.21,0,0,0-.43-2,4.1,4.1,0,0,0-1.23-1.37,8.19,8.19,0,0,0-2-1c-.8-.29-1.74-.6-2.81-1a25,25,0,0,1-2.81-.91,8.78,8.78,0,0,1-2.3-1.3,5.36,5.36,0,0,1-2.12-4.5,5.2,5.2,0,0,1,.54-2.35,5.64,5.64,0,0,1,1.49-1.87,7,7,0,0,1,2.21-1.2,8.41,8.41,0,0,1,2.76-.43,7.81,7.81,0,0,1,4.53,1.23,9.75,9.75,0,0,1,2.93,3.24l-1.72,1a7.74,7.74,0,0,0-2.3-2.5,5.85,5.85,0,0,0-3.44-1,5.55,5.55,0,0,0-3.56,1.06,3.35,3.35,0,0,0-1.32,2.72,4.32,4.32,0,0,0,.29,1.72,3,3,0,0,0,1,1.23,7.89,7.89,0,0,0,1.87,1c.76.31,1.72.63,2.87,1a28.65,28.65,0,0,1,3,1,10.32,10.32,0,0,1,2.47,1.4,6.5,6.5,0,0,1,1.69,2,5.64,5.64,0,0,1,.63,2.75,6,6,0,0,1-2.07,4.67Q355.61,396.73,351.64,396.73Z"/><path class="cls-1" d="M379,396.73a5.25,5.25,0,0,1-3.81-1.55c-1.06-1-1.58-2.74-1.58-5.11V374.75H370v-1.9h3.67V360.63h2.24v12.22h6.77v1.9h-6.77V390a6,6,0,0,0,.83,3.65,2.77,2.77,0,0,0,2.32,1.06,4.19,4.19,0,0,0,2.33-.52,7.29,7.29,0,0,0,1.4-1.2l1.44,1.37a8.36,8.36,0,0,1-2,1.67A6.15,6.15,0,0,1,379,396.73Z"/><path class="cls-1" d="M406,396.73a9.48,9.48,0,0,1-7.15-2.76q-2.67-2.75-2.67-8V372.85h2.24v13c0,2.88.6,5.07,1.81,6.59s3.13,2.27,5.77,2.27,4.56-.76,5.77-2.27,1.8-3.71,1.8-6.59v-13h2.24V386q0,5.24-2.67,8A9.48,9.48,0,0,1,406,396.73Z"/><path class="cls-1" d="M440.71,396.73a11.31,11.31,0,0,1-8.32-3.53,11.41,11.41,0,0,1-2.41-3.88,13.14,13.14,0,0,1-.86-4.82,12.94,12.94,0,0,1,.86-4.79,11.53,11.53,0,0,1,2.41-3.84,11.21,11.21,0,0,1,8.32-3.53,10.47,10.47,0,0,1,6.11,1.72,11.44,11.44,0,0,1,3.82,4.36V354.83h2.23v41.44h-2.23l.11-5.86a10.93,10.93,0,0,1-10,6.32Zm.28-2a10.12,10.12,0,0,0,4.05-.78,8.94,8.94,0,0,0,3.1-2.15,9.55,9.55,0,0,0,2-3.24,12.2,12.2,0,0,0,0-8.09,9.18,9.18,0,0,0-2-3.22,9.29,9.29,0,0,0-3.1-2.12,10.12,10.12,0,0,0-4.05-.78,9.57,9.57,0,0,0-3.93.78,9.22,9.22,0,0,0-3,2.12,9.06,9.06,0,0,0-1.92,3.22,12.73,12.73,0,0,0,0,8.09,9.41,9.41,0,0,0,1.92,3.24,8.87,8.87,0,0,0,3,2.15A9.57,9.57,0,0,0,441,394.72Z"/><path class="cls-1" d="M469.46,364.65a1.93,1.93,0,0,1-1.32-.52,1.79,1.79,0,0,1-.57-1.38,1.81,1.81,0,0,1,.57-1.35,1.88,1.88,0,0,1,2.64,0,1.81,1.81,0,0,1,.57,1.35,1.79,1.79,0,0,1-.57,1.38A1.93,1.93,0,0,1,469.46,364.65Zm-1.09,8.2h2.24v23.42h-2.24Z"/><path class="cls-1" d="M496.32,396.73a11.73,11.73,0,0,1-4.79-1,12.59,12.59,0,0,1-3.88-2.64,12.23,12.23,0,0,1-2.61-3.87,12.4,12.4,0,0,1,0-9.47,12.37,12.37,0,0,1,16.07-6.49A11.8,11.8,0,0,1,505,375.9a12,12,0,0,1,2.55,3.87,12.64,12.64,0,0,1,0,9.47,12.07,12.07,0,0,1-2.55,3.87,12.33,12.33,0,0,1-3.85,2.64A11.73,11.73,0,0,1,496.32,396.73Zm0-2a9.85,9.85,0,0,0,4-.78,8.87,8.87,0,0,0,3.08-2.15,9.76,9.76,0,0,0,2-3.24,11.72,11.72,0,0,0,0-8.09,9.38,9.38,0,0,0-2-3.22,9.21,9.21,0,0,0-3.08-2.12,9.85,9.85,0,0,0-4-.78,10.08,10.08,0,0,0-4,.78,9.52,9.52,0,0,0-3.13,2.12,9.3,9.3,0,0,0-2,3.22,11.88,11.88,0,0,0,0,8.09,9.67,9.67,0,0,0,2,3.24,9.16,9.16,0,0,0,3.13,2.15A10.08,10.08,0,0,0,496.32,394.72Z"/><path class="cls-1" d="M3.27,286.8h26v2.3H6v24H27.13v2.43H6v16H3.27Z"/><path class="cls-1" d="M46.39,286.8h2.7v42.39H70.58v2.31H46.39Z"/><path class="cls-1" d="M103.51,332a23.79,23.79,0,0,1-8.9-1.67,22.3,22.3,0,0,1-7.27-4.67,21.76,21.76,0,0,1-4.89-7.2,25,25,0,0,1,0-18.67A21.6,21.6,0,0,1,94.61,288a24.44,24.44,0,0,1,17.81,0,21.6,21.6,0,0,1,12.16,11.86,25,25,0,0,1,0,18.67,21.91,21.91,0,0,1-4.89,7.2,22.51,22.51,0,0,1-7.27,4.67A23.81,23.81,0,0,1,103.51,332Zm0-2.43a20.45,20.45,0,0,0,8-1.55,19.19,19.19,0,0,0,10.62-10.74,22.61,22.61,0,0,0,0-16.3,19.17,19.17,0,0,0-10.62-10.75,21.65,21.65,0,0,0-16.09,0A19.17,19.17,0,0,0,84.85,301a22.61,22.61,0,0,0,0,16.3,19.54,19.54,0,0,0,4.22,6.47,19.31,19.31,0,0,0,6.4,4.27A20.43,20.43,0,0,0,103.51,329.59Z"/><path class="cls-1" d="M170.63,331.5h-3.16l-9.36-12.82a24.68,24.68,0,0,1-5.6.59h-6.33V331.5h-2.7V286.8h9a21.88,21.88,0,0,1,7.88,1.28,15.65,15.65,0,0,1,5.56,3.48,14,14,0,0,1,3.28,5.16,18.27,18.27,0,0,1,1.09,6.38,17.06,17.06,0,0,1-2.37,8.91,14,14,0,0,1-7.23,5.88ZM152.24,317a20.12,20.12,0,0,0,7.16-1.12,13,13,0,0,0,4.78-3.06,11.41,11.41,0,0,0,2.63-4.45,17.33,17.33,0,0,0,.79-5.27,17.64,17.64,0,0,0-.79-5.31,11,11,0,0,0-2.63-4.44,13.36,13.36,0,0,0-4.78-3.07,19.65,19.65,0,0,0-7.16-1.15h-6.06V317Z"/><path class="cls-1" d="M188.9,286.8h2.7v44.7h-2.7Z"/><path class="cls-1" d="M222.56,332a19.33,19.33,0,0,1-5.59-.73,15,15,0,0,1-4.27-2,13.68,13.68,0,0,1-3.09-2.85,15.63,15.63,0,0,1-2-3.28l2.3-1.12a20.44,20.44,0,0,0,1.84,2.89,11.41,11.41,0,0,0,2.56,2.43,13,13,0,0,0,3.52,1.71,15.06,15.06,0,0,0,4.7.66,13.49,13.49,0,0,0,4.11-.62,10.25,10.25,0,0,0,3.38-1.81,8.79,8.79,0,0,0,2.3-2.87,8.22,8.22,0,0,0,.86-3.78,9,9,0,0,0-2.23-6.32,21.67,21.67,0,0,0-6.88-4.61l-4.13-1.91a28.2,28.2,0,0,1-4.1-2.21,13.22,13.22,0,0,1-2.88-2.5,9.54,9.54,0,0,1-1.74-3,11.4,11.4,0,0,1-.59-3.78,10.1,10.1,0,0,1,.85-4.18,9,9,0,0,1,2.36-3.16,10.86,10.86,0,0,1,3.48-2,12.77,12.77,0,0,1,4.26-.69,14.48,14.48,0,0,1,4,.51,12.29,12.29,0,0,1,3.14,1.38,11.24,11.24,0,0,1,2.43,2.06,18.62,18.62,0,0,1,1.83,2.43L230.85,294a14.06,14.06,0,0,0-3.49-3.85,9.38,9.38,0,0,0-5.78-1.61,8.47,8.47,0,0,0-6.1,2.08,7.2,7.2,0,0,0-2.19,5.49,9.7,9.7,0,0,0,.42,3,6.83,6.83,0,0,0,1.38,2.34,11.47,11.47,0,0,0,2.39,2,32.54,32.54,0,0,0,3.54,1.91l4.13,1.91a23.31,23.31,0,0,1,8.06,5.56,11.46,11.46,0,0,1,2.62,7.74,10.61,10.61,0,0,1-3.77,8.33,12.78,12.78,0,0,1-4.18,2.3A16.49,16.49,0,0,1,222.56,332Z"/><path class="cls-1" d="M261.73,289.1h-14.2v-2.3h31.1v2.3h-14.2v42.4h-2.7Z"/><path class="cls-1" d="M306.57,286.8h2.7v42.39h21.49v2.31H306.57Z"/><path class="cls-1" d="M360.93,286.27h.79l18.14,45.23H377.1l-3.41-8.68H349l-3.42,8.68h-2.69Zm11.77,34.25L362.64,295c-.17-.4-.34-.83-.49-1.29s-.3-.91-.43-1.35a9.43,9.43,0,0,1-.39-1.45,8.45,8.45,0,0,1-.4,1.45q-.19.66-.42,1.35c-.16.46-.32.89-.5,1.29l-10.12,25.56Z"/><path class="cls-1" d="M423.25,331.5h-3.16l-9.36-12.82a24.71,24.71,0,0,1-5.61.59h-6.33V331.5H396.1V286.8h9a21.88,21.88,0,0,1,7.88,1.28,15.65,15.65,0,0,1,5.56,3.48,14,14,0,0,1,3.28,5.16,18.27,18.27,0,0,1,1.09,6.38,17.06,17.06,0,0,1-2.37,8.91,14.05,14.05,0,0,1-7.23,5.88ZM404.86,317a20,20,0,0,0,7.15-1.12,12.79,12.79,0,0,0,4.78-3.06,11.43,11.43,0,0,0,2.64-4.45,17.33,17.33,0,0,0,.79-5.27,17.64,17.64,0,0,0-.79-5.31,11,11,0,0,0-2.64-4.44,13.19,13.19,0,0,0-4.78-3.07,19.55,19.55,0,0,0-7.15-1.15h-6.07V317Z"/><path class="cls-1" d="M451.84,332a19.38,19.38,0,0,1-5.59-.73,15.17,15.17,0,0,1-4.27-2,13.68,13.68,0,0,1-3.09-2.85,16.51,16.51,0,0,1-2-3.28l2.3-1.12a19.65,19.65,0,0,0,1.85,2.89,11.2,11.2,0,0,0,2.56,2.43,13,13,0,0,0,3.52,1.71,15,15,0,0,0,4.7.66,13.47,13.47,0,0,0,4.1-.62,10.3,10.3,0,0,0,3.39-1.81,8.92,8.92,0,0,0,2.3-2.87,8.21,8.21,0,0,0,.85-3.78,9,9,0,0,0-2.22-6.32,21.73,21.73,0,0,0-6.89-4.61l-4.12-1.91a27.68,27.68,0,0,1-4.1-2.21,13.53,13.53,0,0,1-2.89-2.5,9.51,9.51,0,0,1-1.73-3,11.15,11.15,0,0,1-.59-3.78,10,10,0,0,1,.85-4.18,8.87,8.87,0,0,1,2.36-3.16,10.71,10.71,0,0,1,3.47-2,12.77,12.77,0,0,1,4.26-.69,14.43,14.43,0,0,1,4,.51,12.21,12.21,0,0,1,3.15,1.38,11.43,11.43,0,0,1,2.42,2.06,18.71,18.71,0,0,1,1.84,2.43L460.14,294a14.1,14.1,0,0,0-3.5-3.85,9.35,9.35,0,0,0-5.77-1.61,8.49,8.49,0,0,0-6.11,2.08,7.2,7.2,0,0,0-2.19,5.49,9.4,9.4,0,0,0,.43,3,6.52,6.52,0,0,0,1.38,2.34,11.47,11.47,0,0,0,2.39,2,32.54,32.54,0,0,0,3.54,1.91l4.13,1.91a23.41,23.41,0,0,1,8.06,5.56,11.46,11.46,0,0,1,2.62,7.74,10.61,10.61,0,0,1-3.77,8.33,12.88,12.88,0,0,1-4.18,2.3A16.55,16.55,0,0,1,451.84,332Z"/><path class="cls-1" d="M498.51,332a11.33,11.33,0,0,1-6.51-1.71,13.71,13.71,0,0,1-4-4.2l2.17-1.45a10.29,10.29,0,0,0,3.45,3.65,9,9,0,0,0,4.83,1.28,8.5,8.5,0,0,0,6.12-2.27c1.58-1.51,2.36-3.84,2.36-7V286.8h2.7v33.65a13.47,13.47,0,0,1-.86,5,10.55,10.55,0,0,1-2.33,3.62,9.38,9.38,0,0,1-3.52,2.2A13.06,13.06,0,0,1,498.51,332Z"/><path class="cls-1" d="M549.72,332a23.81,23.81,0,0,1-8.91-1.67,22.26,22.26,0,0,1-7.26-4.67,21.78,21.78,0,0,1-4.9-7.2,25,25,0,0,1,0-18.67A21.68,21.68,0,0,1,540.81,288a24.44,24.44,0,0,1,17.81,0,21.6,21.6,0,0,1,12.16,11.86,25,25,0,0,1,0,18.67,21.76,21.76,0,0,1-4.89,7.2,22.3,22.3,0,0,1-7.27,4.67A23.79,23.79,0,0,1,549.72,332Zm0-2.43a20.43,20.43,0,0,0,8-1.55,19.31,19.31,0,0,0,6.4-4.27,19.54,19.54,0,0,0,4.22-6.47,22.61,22.61,0,0,0,0-16.3,19.17,19.17,0,0,0-10.62-10.75,21.65,21.65,0,0,0-16.09,0A19.17,19.17,0,0,0,531.05,301a22.75,22.75,0,0,0,0,16.3A19.19,19.19,0,0,0,541.67,328,20.45,20.45,0,0,0,549.72,329.59Z"/><path class="cls-1" d="M594,295a8.14,8.14,0,0,1-.66-.92q-.33-.52-.66-1A10.92,10.92,0,0,0,592,292a9.34,9.34,0,0,0,.07,1.18c0,.36.07.72.1,1.09s0,.73,0,1.08V331.5h-2.5V286.27h.79l28.59,37.08c.22.3.44.62.66.95s.44.65.66.95.46.7.72,1.05c0-.39-.09-.79-.13-1.18a9.51,9.51,0,0,1-.07-1.09V286.8h2.5V332h-.79Z"/><path class="cls-2" d="M401.1,168.9c0-.41-.61-.57-1.08-.84-.08-.05-.16-.22-.25-.25s-.42,0-.64-.05-.19-.16-.3-.19a5.47,5.47,0,0,0-.69,0c-.24-.06-.38-.21-.54-.25a6,6,0,0,0-1.73-.1c0-.06.06-.07.05-.15a28.63,28.63,0,0,0-8.69-.2c-.85.1-1.56.67-2.42.6a4.93,4.93,0,0,0-1.58,1.08c-.32-.45-.32-1.17-.89-1.53-1.67,0-1.66,1.38-2.42,2-.52-.19-.51-1.27-1.13-1.34a2.3,2.3,0,0,0-.89.4c-.17.13-.38.59-.45.39-.17.45-.57,1.37-.39,1.68-.38.37-.34.82-.74.84-.16-.73-.24-2-1.09-2.37-.73.18-1.37.45-1.53,1.19-.09,0-.09.14-.25.1-.33.75-.61,1.56-1,2.27,0-.09-.06,0-.1.05a3.09,3.09,0,0,1-.1-.45c0,.06,0,.14,0,.15-.07-.28-.15-.87-.25-1.28,0,.07,0,.18-.05.19,0-.44-.44-1.18-.59-1-.61-.6-1.54.13-1.83.72a.27.27,0,0,1-.05.12l.05-.12c0-.06,0-.12-.05-.13-.12.28-.49,1.19-.59,1-.33.82-.64,1.92-1,2.57a.21.21,0,0,0-.14,0,10.23,10.23,0,0,0-.43-3.43s0,0,0,0c-.22-.28-.22-.5-.55-.54s-.95.61-.89.29c-.36.62-.66.46-1,1.29,0-.06,0-.14-.05-.15-.33.64-.49,1.44-.79,2.12,0-.07,0-.18,0-.2a4.61,4.61,0,0,1-.93,1.78c-.3,0-.22-.31-.4-.39-.06.12.14.2,0,.24a1.84,1.84,0,0,1-.15-.94c.07,0,.09-.06.15,0-.05-.13-.18-.29,0-.39,0,.09-.14.2,0,.25a2.8,2.8,0,0,1,.54-.94c0-.3.22-.46.29-.77,0-.07,0-.16,0-.17l.1.05c.25-.37,0-.88,0-1.28a3.28,3.28,0,0,0-3.11,1.18c-.05-.09.15-.16,0-.2-.9,1.15-1.64,1.89-2.42,2.92-.36-.28.19-.64,0-.74.06,0,.09.07.2,0,.07-.31.25-.42.24-.69.19-.06.3-.59.25-.84a2.35,2.35,0,0,0,.39-1.58,0,0,0,1,1-.09,0c.16-.05-.13-.59.09-.19a.85.85,0,0,0-.09-.5,6.14,6.14,0,0,0-2.23.3c-.19.09-.33.33-.54.44s-.68.65-.54.5c-.42.25-.65.86-.94.84a.22.22,0,0,0,0,.14A7.61,7.61,0,0,0,353,174c-.06-.12.2-.15.05-.19-.11.2-.21.18-.3.34,0-.16-.14,0-.24,0-.12-.26.08-.39,0-.64.09.11.55-.6.24-.3,0-.13.19-.11.25-.19s-.14,0-.15-.05c.27-.11.25-.59.5-.64-.11-.33.29-.42.15-.6.06,0,.06.07.14.05.2-1,1.08-2,.74-3,0-.1-.17-.16-.19-.25s.09,0,.05-.1-.28-.15-.15-.39c-.75-.55-1.07.11-1.78.49s-1.27.94-1.78,1.24c0,0,.1,0,.1.05-.32.06-.39.39-.59.44.1.17-.49.49-.64.84,0-.08.07-.13,0-.15-.22.27-.21.83-.5.94.1.09-.16.57-.24.35,0,.13.09.1.09.19s-.07.2-.19.2.27-.25.05-.25c-.45.82-.74,1.19-1.19,2-.63-.54-.2-1.53.05-2,.1-.31.16-.43.25-.69,0,.09-.07.13,0,.15.09-.14.12-.24,0-.24.07-.17,0-.24.15,0a8.8,8.8,0,0,1,.64-1.78,1.44,1.44,0,0,1,.34-.89c-.11-.1,0-.59.05-.25a3.94,3.94,0,0,0-.39-1.78c-2.6-.48-3.5,1.87-4.79,3.17.06,0,0,.07,0,.14a.58.58,0,0,0-.3.65c-.24,0-.5.62-.44.88-.21,0-.05.28-.25.25.16.3-.24.75-.25,1.19-.06-.15-.31.33-.34.54-.07,0-.07-.06-.15,0-.15.23-.19.82-.4.84,0,.2,0,.23-.19.54,0-.06.09-.11,0-.15a.88.88,0,0,1-.4.45c-.13-.09-.19-.6-.39-.59,0-.08.12,0,.1-.15-.18,0-.24-.19-.1-.35-.06,0-.14,0-.15-.05s0-.46.05-.74.32-.62.39-.94c.45-1.88.39-4.23-.39-5.43-.38-.21-.63-.43-1.14-.29-1,.27-1.57,2-2.12,2.42.05.44-.36.63-.44,1,0-.05-.09-.12-.1-.05a.82.82,0,0,1-.15.5c0-.08-.1-.22-.1-.1s0,.14-.1.2c-.1.47-.35,1.23-.35,1.48,0,0,0-.1.05-.1a2.68,2.68,0,0,0-.29,1.38c-.13,0-.3.36-.25.59-.33,0-.23.75-.54.89a1.41,1.41,0,0,1-.4,1.19c-.05-.16-.26-.48-.34-.3,0-.09.05-.11.05-.2-.37,0-.37-.56-.4-.84,0,0-.08-.37,0-.44s0,.1.05.1c0-.3,0-.09.1-.25a13.39,13.39,0,0,0,.2-1.73,18.55,18.55,0,0,0,.29-2.12c0-.21,0-.25,0-.49,0-1,0-2-.79-2.62s-1.75.3-2.12.79a6.12,6.12,0,0,0-.94,1.68c-.09,0-.11,0-.19,0,.13.36-.25.28-.05.54-.34.1-.27.85-.55.74,0,.09.06.11.05.2-.2.1-.4.89-.44,1.18a.33.33,0,0,0,.05.25c-.23,0-.14.22-.05.3-.16-.05-.16.07-.2.15.14,0-.18,1.4-.05,1.43-.57.4-.77,2.25-1.09,2.71,0,.1.07.1.1.15a.33.33,0,0,0-.24,0c0,.18-.08.16.05.25-.25.07-.35.23-.79.2-.2-.46-.07-1.26-.35-1.63a18,18,0,0,0,.4-4.3c-.08,0-.18,0-.15-.1.34-.13-.24-.74-.1-1-.15,0-.26-.21-.15-.39-.18,0-.23-.24-.3-.4-.31,0-.36-.35-.59-.44a1.46,1.46,0,0,0-1.73.74c0-.09.15-.16,0-.2-.1.33-.28.64-.44.64a1.94,1.94,0,0,1-.45.84c-.42.59-.45,2-1.08,2.37-.25-.06-.22-.67-.4-.64,0,.08.19.2.05.25-.15-.27-.23-.62-.64-.64a1.17,1.17,0,0,0-.1-.3,1.33,1.33,0,0,0-1.48.54c-.4,0-.28.54-.69.55,0,.24-.16.23-.1.49-.27,0-.21.31-.3.49-.15-.15-.06.19-.24.15a8.75,8.75,0,0,0-.5,2.47,3.84,3.84,0,0,0-.64,2.77c.08,0,.17,0,.15.1a6.24,6.24,0,0,1-2.24.35c.09-.07,0-.81.22-.7-.09-.28.1-.24,0-.49.17,0,.14-.23.09-.35a11.38,11.38,0,0,0,.55-2.07c.05,0,.06,0,.1.05s-.09-.11-.05-.25.07.07.1,0c.24-.77.71-3,.79-3.41,0,.05-.09-.37.09-.2a8.46,8.46,0,0,1,.65-2.37.44.44,0,0,1-.1.15,1.75,1.75,0,0,0,.29-1,1,1,0,0,0,.25-.89c.27-.13.08-1.44.15-2.32.13-1.59.51-3.3.69-5,.26-2.52.39-5.28.89-7.9a1.61,1.61,0,0,0,.49-.3c-.1,0-.1-.07-.05-.15s.11.1.25.05a2,2,0,0,0,.49,1.39c.48.76,1,.43,2,.69.85.21,1.29,1.45,2,1.58,1,1.15,4.87,2.13,5.68.54-.07-.21-.15.1-.25,0a1.49,1.49,0,0,0,.6-2.07c1.51.11,3,.37,3.85-.55-.11-.09.19-.18,0-.34.39-.08.33-.62.49-.94.12.07-.1.16.1.15a1.2,1.2,0,0,1,.3-.15c1.11.27,3.38,1.23,4-.15.33,0,.24-.51.49-.64a2.4,2.4,0,0,0-.35-1.63c.18,0,.14-.29.05-.2s.06.12-.05.15,0-.1-.09-.05.1-.12.09-.24-.28-.21-.14-.3c0,.18.17.37.34.3a5.58,5.58,0,0,0,2,1.18c.74.57,2.64.62,3-.2-.09,0-.21.15-.25,0,.12-.09.33-.1.45-.19-.3-.06.29-.11,0-.2h.14c0-.1-.05-.11-.05-.2.12.1.06,0,.15,0a4.36,4.36,0,0,0-.1-1.13s0,.09-.05.09c0-1-1.43-1.8-1.58-2.76.07,0,.09.06.15,0,0,.24,1,.41.94.89.15,0,.17.13.3.15a3.22,3.22,0,0,0,.54.69,6,6,0,0,0,1.48.94l.25.14a3.7,3.7,0,0,0,1.38.65c.68.08,1.52-.11,1.74-.58,0,0-.11.06-.11,0s.25-.21.4-.29a2.13,2.13,0,0,0-.1-1.24c0-.13,0-.44-.2-.39a.19.19,0,0,0,0-.3c-.16-.41-.77-1.3-1.24-2.37a1.59,1.59,0,0,1,1.44.89c.67.87,3,3.43,4.69,2.07,0-.2-.34.14-.4-.09.69-.06.81-.6.94-1.09a8,8,0,0,0-.94-2.72c.18,0,.34.26.45.2a18.54,18.54,0,0,0,1.18,1.58c.92.43,2.92,2.15,4,.89-.19-.05-.31.13-.34-.05.3,0,.54-.27.69-.25,0-.33.3-.79.05-1,.17-.64-.54-1.17,0-1.39-.13.17,0,0,.05.05s.17.3.29.4a7.34,7.34,0,0,0,2.47,1.23c.7.09,1.26-.13,1.28-.49,0,.06-.21.17-.24.05,1-.37,1-1.6.44-2.42.07.13.16.09.3.05-.11.11,0,.1.15.1a2.73,2.73,0,0,0,.44.54c.91.71,3.29,1.79,4.4.44-.21,0-.34.16-.55.05.49,0,.65-.37.94-.59a2.73,2.73,0,0,0-.15-1.33c.68.13,2.6.48,2.77-.35,0,.05-.09.06-.1,0,1.24-.44.33-2.13-.1-2.76.66.26,3,.61,3.49-.22t0,0a1.58,1.58,0,0,0,0-2.52,1.06,1.06,0,0,0,1.08-.49c0,.13.18,0,.2,0a4.6,4.6,0,0,1,.69-.79c.21-.15.71-.37.64-.59.33.23.36-.49.65-.3,0-.17.12-.22.19-.15a4.51,4.51,0,0,1,1-1.33s-.1,0-.1-.05c.28-.1.15,0,.35-.1-.06,0-.12,0-.1-.1s.07.06.15,0c.86-1,2.37-2.52,3.35-3.9v-.3a4.34,4.34,0,0,0,1-1.87h.2c.15-.67,1.07-2,.54-2.57.12,0,.12-.13,0-.15-.45.48-2.92,1.33-3.4,1.68-.32.41-.91.55-1.09,1.09a16.07,16.07,0,0,0-3.21,2.42c-.55.46-1.11.81-1.58,1.18a5.31,5.31,0,0,1-.79.54c-.14.08-.5.18-.35.3-.38-.09-.53.67-.59.3,0,.14-.18.16,0,.29-.07,0-.08-.06-.15,0-.07,1.06-1.15.74-1.77,1.19-.17.12-.29.43-.51.52,0,0,.06-.06,0-.08a1.93,1.93,0,0,0-.54.89c-.66.25-1.61.2-1.83.89-.11-.12-.09.07-.24,0-.06.38-.45.41-.55.74,0-.06-.05,0-.1,0,0-.27.11-1.22-.1-.84-.07-.56-.05-1.39-.39-1.53.05,0,.06,0,.1.05.05-.15-.11-.09-.2-.1v-.25a1,1,0,0,0-1.28.25c-.13-.23-.33.32-.5.49s-.21.06-.24.1c-.34.44-.48,1.14-.74,1.53h-.2c-.18-.3-.21-.77-.45-1.23-.07.21.22.27,0,.35-.05-.43-.34-.61-.59-.84-.68-.09-.88.46-1.28.49,0,.25-.37.4-.45.74-.06-.12.11-.24,0-.25s0,.53-.1.64c0-.07,0-.18,0-.19-.05.3-.22.47-.25.79-.31-.06-.25,1-.84.94-.18-.69-.45-1.34-.54-1.83-.22-.1-.45-.61-.84-.69a2.3,2.3,0,0,0-1.44,1.13s0-.09-.05-.1-.06.5-.14.3c-.16.55-.31.64-.45,1.19,0-.06.06-.08.1-.1-.54.78-.68,1.44-1.38,2-.2-.26,0-1.29-.1-1.58.16.09.13-.16.05-.24s.1.05.1,0a4.49,4.49,0,0,0-.05-2c-.11.06-.16-.37-.3-.54-.21,0-.28-.17-.44-.2-.88-.16-1.45.59-1.83.89,0,.38-.42.48-.39.79-.27,0-.47.72-.74.84-.05.3-.21.55-.25.79-.1-.06-.05,0-.1-.1-.16.36-.7,1-.54,1.23-.07.08-.22.08-.3.15a10.47,10.47,0,0,1-.1-1.83c-.2-.38-.24-.94-.44-1.33-.23-.1-.44-.56-1.09-.39-.33.12-.66.48-.89.54-.08.1,0,.06,0,.2-.32.11-.53.71-.69.69,0,.22,0,.2-.15.24a.94.94,0,0,1-.44.75c.13.32-.32.33-.1.44-.49.37-.59,1.56-1,1.88-.37-.14-.08-1.27-.29-1.73,0,0,0,0,.09-.1-.1,0-.1-.13-.09-.25s.06,0,.09.05c-.1-.22,0-.33,0-.49a3.48,3.48,0,0,0-.29-1.24c0-.13.06-.49-.1-.19-.06-.13.11-.24,0-.25-.49-.87-1.62-.48-2.27.3a4.26,4.26,0,0,0-.84,1.43c0-.06-.54.49-.4.59,0-.06,0-.14.05-.15,0,.2-.1.23-.14.35,0-.08,0-.18-.05-.2-.19.23-.52.7-.84.49-.1-.11,0-.05.05-.14s-.12.06-.15-.05a3.05,3.05,0,0,0-.74-2c-2.53.12-3.28,1.93-4,3.63,0-.14.13-.17.05-.32s.07-.06.1-.1c-.16-.06,0,.16-.2.1.15.31-.17.09-.1.2s.11.15,0,.05a.22.22,0,0,0,0,.14c-.08,0-.18,0-.1.1a1.2,1.2,0,0,1-.4.89c.12-.27-.29.2-.14.25s.12-.27.14-.15c-.16.24-.1.44-.34.64,0-.08-.17-.15,0-.19,0,0,0,0-.05.09.15,0,.17-.17.1-.24s-.29.56-.45.34c0,.12.09.11,0,.25-.2,0-.41.37-.59.2-.12.06.09.15-.05.19-.41,0-.06-.54-.25-.83,0,.07,0,.18,0,.19a9.93,9.93,0,0,0,.14-3.26c-.08-.72-.61-2.11-1.82-1.67-1.45,1-2.11,2.73-2.62,4.64,0-.34.21-.55.1-.69.12,0,.18-.24.1-.25,0,.24,0,0-.1,0s0,.55-.15.54a2.69,2.69,0,0,1-.15.94s0-.11,0-.1c-.22,1,.19,2.24-.34,2.82,0-.28-.41-.8-.25-.74a6.65,6.65,0,0,0-.41-.62v0a20.2,20.2,0,0,0-.68-2c-.08-.19-.15-.2-.26-.42-.44-.94-.88-1.84-1.86-2s-1.44,1-1.56,1.65a5.84,5.84,0,0,0-.1,1.92c-.09,0-.07.09-.15.13.28.27-.1.36.19.51-.25.24.13.87-.16.9,0,.07.07.08.1.11-.15.12-.43.72-.28.77a3.1,3.1,0,0,0,.54,1.68c-.36.17-.54.52-.89.69-1.33-1.42-3.33.33-3.7,1.29-.07,0-.09-.06-.15,0-.26.7-.36,1.22-1.43,1.33a22.16,22.16,0,0,1-1-5c-.06,0,0-.29,0-.37l0,.37,0,0c.08-.48-.22-.55-.1-.88,0,.05,0,.14,0,.14,0-.2-.17-.24,0-.44a26.51,26.51,0,0,1-.39-4.35c-.06-.71-.4-1.64-.35-2.07a3.36,3.36,0,0,0-.1-.69c-.18-2-.58-3.92-.64-5.83-.1-.07-.14-.35,0-.14,0-.31-.18-.93.05-1,.1.19.11,0,.2-.1.4,0,.57.36.84.49a8.9,8.9,0,0,0,3,1.29,3.72,3.72,0,0,0,3.14-1.29c-.08.06-.2.11-.23.05.47-.19.56-.77.84-.89.07-.18-.13-.09-.1-.24.26,0,.22-.74,0-.89.19,0,.13.2.25.25s0-.13.1-.1c1,.29,3.41,1.14,4.15-.15,0-.26-.25.22-.35,0,1.09-.24,1-2,.2-2.52,0,0,.05,0,.05-.1a5.89,5.89,0,0,0-.55-.44c-.17-.15-.14-.23-.19-.3-.34-.4-1.13-.59-1-1.09.14.08-.11.23.1.2,0-.06,0-.14,0-.15a9.12,9.12,0,0,0,5.23,1.93c.83,0,2,0,2.27-.69-.15.13.14-.11,0-.1s-.18.2-.2.1a1.39,1.39,0,0,0,.65-1.88c-.07-.12-.15.09-.2,0s.12,0,.1-.1a5.17,5.17,0,0,0-2.57-2c0-.1-.21-.21-.1-.25s.16.13.3.2a7.82,7.82,0,0,0,.79.34c.23,0,0,0,.1,0a6.72,6.72,0,0,0,2.07.55,3.12,3.12,0,0,0,2.82-.79c0-.21.15-.13.09-.3-.09.06-.3.25-.39.15a2.12,2.12,0,0,0,.84-.84c-.16-.05,0-.22-.05-.44a4,4,0,0,0-.79-1c-.73-.63-1.8-.81-2.47-1.48.27,0,.47-.07.54.1.6-.06,1.22.67,2.13.88,1.19.28,2.84-.14,3-.74.15.15.17-.11.15-.14-.24.13-.39.3-.69.19.67-.08,1.39-.73,1-1.43-.21-1.52-1.87-1.58-2.71-2.47,1.47,0,4.26,1.25,5.43,0,.05.11.49-.3.49-.49-.14.13-.51.47-.64.3,1.16-.29,1.26-1.39.44-2.13s-2.08-.73-2.36-1.38c1.5.25,4.51,1.06,5.62-.39-.14,0-.18.19-.24,0,1.67-.57-.09-2.3-.89-2.72.58-.07,1.26.09,1.87,0a5.1,5.1,0,0,0,1.49-.69c.11-.14-.16,0-.2-.15a1.3,1.3,0,0,0,.89-.94,4.44,4.44,0,0,0-1.29-1.53c1,0,1.64-.74,2.13-.94,0-.22-.14.08-.1-.15.34-.13.44-.51.69-.74.13-.89-.8-1.43-1.68-1.63a7.08,7.08,0,0,0,2.32-2.12A2,2,0,0,0,353.6,97h.15c-.11-.31.16-.37.25-.69.39-.19.69-1.13.74-1.54.16,0,.09-.51.2-.74a13.29,13.29,0,0,0,.59-1.38c-.18-.77.82-2.15.59-3.11.13,0,.16-.08.2-.15A17.61,17.61,0,0,1,357,87c-.06,0-.14,0-.15,0a.24.24,0,0,0,.2-.05c.3-1.58,1.19-3.29.89-5.18-2,.55-2.65,2.26-3.51,3.8-.53.75-.77,1.34-1.23,1.88,0,0,.1,0,.1.05-.39.21-.45,1-.69,1.28-.1.12-.15,0-.1.25-.19-.14-.28.41-.2.54-.3.08-.37,1-.69,1.19,0,.11.1.25-.05.14,0,.12.09.11.05.25-.28.15-.33,1-.69,1.19,0,0,0,.43-.1.24-.12.14.1.32,0,.45,0,0,0-.1-.05-.1a5.84,5.84,0,0,0-.25,1.18c-.33-.06-.59.82-.79.6-.16.28-.39,1.09-.49,1.08a2,2,0,0,1-.15,1.09c-.3-.41-2-1.33-2.44-.34,0-.06.06-.15,0-.15a4.46,4.46,0,0,0-.24,2.17c-.16-.06-.18,0-.1.1a5.15,5.15,0,0,0-1-.74c-.74-.1-1.24.64-1.09.74-.33.12-.4.7-.39.89-.35.16,0,2-.35,2.32a1.47,1.47,0,0,0-1.77-.74c-.41.55-.9.91-.84,1.82-.2.12-.17.07-.1.3-.09,0-.13-.07-.15,0,.2.23-.26.42,0,.54-.2.24,0,.66,0,1.19,0,0,0-.06,0,0s0,.42-.2.44.24.18.1.25c-.58-.48-.88-1.23-2-1.19a2.12,2.12,0,0,0-.89,1.83c-.12.05-.18,0-.2.2s.08,0,.1,0c-.14.05-.28.94-.1.69a3.3,3.3,0,0,0,0,1.71c0-.1-.05.18-.19.11s-.13-.51-.2-.29c-.51-.64-.6-1.92-1.63-2,0-.07.06-.08,0-.14-1.17,0-1.51,1.21-1.58,2-.15,0-.15.08-.19.15s.1-.07.14-.1a.93.93,0,0,1-.09.44c0-.07,0-.18-.05-.19-.13.29,0,.59-.05,1l-.1,0a3,3,0,0,0-.1.64,9.35,9.35,0,0,0,.44,2.47c.08.39,0,.76.15,1.08-.18,0-.18.14,0,.05-.12.06.05.24,0,.25s-.29-.27-.19-.15.25.17.09.25c-.5-.46-.25-1-.64-1.39.18.12.1,0,.1,0a10.67,10.67,0,0,0-.49-1.24c-.16-.31-.53-.58-.69-.84,0,0,0-.08,0-.1a1.48,1.48,0,0,0-2.08.1c-.28.36-.21,1-.39,1.19s-.21,0-.1.19a.28.28,0,0,1,.1-.14c-.14.38-.13.15-.05.44-.09,0-.15,0-.2,0,.14.12,0,.15,0,.3s0,.43-.05.74c0,.51.19,1.19.15,1.53,0,.06,0,.08,0,.24a3.89,3.89,0,0,1,.15,1.27s0-.07.05-.08c0,.18,0,.38-.15.44a2.34,2.34,0,0,0-.05-.64c0,.06,0,.14,0,.15,0-.41-.17-.62-.15-.84-.12.17-.07-.39-.2-.1-.21-.5-.36-1-.79-1.08.23,0-.24-.51-.29-.55a1.3,1.3,0,0,0-1.88.2c-.4.51-.38,1.19-.59,1.68,0,0-.08-.12-.1,0,.16,0-.06.1-.05.15s.18,0,.2,0h-.2c-.42,1.61.31,3.15,0,5.18,0,0,.1,0,.1,0s-.11,0-.2.1c0-.12-.09-.11-.05-.25-.16.08-.14,0-.24-.1s.09,0,.09,0c-.23,0-.22-.32-.34-.29.18-.2-.12-.39-.15-.64,0-.1.08-.2.05-.3s-.13,0-.15-.1.09-.66-.1-.39a5.49,5.49,0,0,0-.34-1.48s0,0,0,0a1.64,1.64,0,0,0-2.72-1.09c-.23.85-.59,1.39-.74,2.12,0-.06,0-.14,0-.15a.39.39,0,0,1-.15.35c.19,0-.22.63-.05.79-.09,0-.09.07-.14.1-.58-.1-.73-.71-1.29-.64-.23,0-.73.49-.94.74,0,0,.06.13.05.15s-.18.07-.24.14c-.22.27-.32.79-.45.74.13.09,0,.33-.1.35.11-.07.11-.39,0-.3-.08.37,0,.34-.09.65-.05-.1.14-.17,0-.2-.43.4-.36,1.29-.84,1.63.07-.3-.11-.11-.1-.1-.36-.39-.35-1.33-.45-2.12-.12,0-.21-.34-.05,0v-.3c-.34,0,0-.32-.14-.4s-.29-.64-.1-.74a1.91,1.91,0,0,1-.4-1.08s0-.37-.05-.45c0,.1-.14,0-.15,0h.2c0-.18-.26-.25,0-.34,0-.09-.23,0-.25-.1a18.89,18.89,0,0,1-.56-4.74h0l0,0v0c2.06.32,5.77,1.61,7.18-.25a.31.31,0,0,1-.15-.1,1.18,1.18,0,0,0,.4-1.77c.62-.14,1.48.14,2.12-.1.25-.1.42-.47.54-.4-.08,0,0,0,.05-.1s-.3.07-.34,0a1.26,1.26,0,0,0,.89-1.08c.05-1.1-1.31-1.59-1.73-2.27.33.3.62.11.74.49,0,0,.57.12.59.4h.2c.94,1,4.16,1.31,4.84.14-.1-.15-.24.22-.35,0a2.63,2.63,0,0,0,.79-.69c.12-1.56-1.16-2-1.87-2.86-.13,0-.16-.09-.25,0,.1-.11-.09-.21-.15-.3,1.05.5,3.79,1.9,4.89.4-.24-.09-.34.22-.49,0a2.3,2.3,0,0,0,.88-.5,2.32,2.32,0,0,0-.87-2.24.33.33,0,0,0,.13.07s.16-.11.2-.1,0,.13.05.15a4.69,4.69,0,0,0,1.88.49,3.09,3.09,0,0,0,2.66-.84c-.12-.15-.28.25-.44,0,1.08-.26,1-1.84.15-2.32,1.17.24,3.34.23,3.77-.69-.06,0-.19,0-.17,0a1.52,1.52,0,0,0,.94-1.48,4.31,4.31,0,0,0-1.48-1.28c-.47-.19-1.16-.15-1.38-.55,1.59.27,3.64.91,4.54-.29,0,0-.23.09-.3,0a1.35,1.35,0,0,1,.4-.1c0-.26.46-.36.49-.69s-.21-.42-.39-.74-.39-.77-.55-1c-.19,0-.27-.12-.39-.2,1,.31,2.62.59,3.55,0,0,0-.05,0-.05-.1.16.16.15-.1.3-.1.08-.17-.17,0-.15-.14.29-.31.85-.52.89-.94.08-.84-1.34-1.55-2-1.88.09,0,0-.16.14-.15a4.11,4.11,0,0,0,2.82-.69c.06-.16-.16,0-.1-.2.51-.09.62-.59.89-.93.08-1.15-1.12-1-1.53-1.68.09,0,.11,0,.2,0,0-.21-.14,0-.15-.15.08,0,.29.06.29,0-.3,0,0-.06.1-.15a3.37,3.37,0,0,0,.54-.54c.16-.2.23-.63.4-.59.12-.5.47-.78.59-1.29.23-.14.56-.41.5-.69.07,0,.08.06.14,0a19.07,19.07,0,0,1,1.78-3.06.25.25,0,0,0-.05-.2c.22,0,.42-.32.35-.49.43,0,.65-1,.69-1.14s.09.11.1.1,0-.33.15-.49c.2-.35.51-.62.69-.89a10.32,10.32,0,0,1,.94-1.83c.1-.21.2-.59.24-.69.43-.93,1-2.07.74-3-.07,0-.17,0-.14-.1a3,3,0,0,0-1.88,1.09,38.55,38.55,0,0,0-3.26,3.7c-1,.48-1.33,1.57-2.07,2.27-.36.14-.41.5-.6.79s-.62.86-.89,1.23c-.71.47-.76,1.4-1.18,2.23a1.17,1.17,0,0,0-1.27.76s0,0,0,0-.08.1-.15,0a7.15,7.15,0,0,1-.4,1.08c-.11.48,0,.89-.15,1.14s-.47.2-.69.39c0,0-.06.25-.19.25,0,0,.09,0,.09,0-.44.08-.46.94-.69.94.11.34,0,.17-.05.24s-.05.59-.34.6c0-.1,0-.11-.1,0-.11-.48-.19-.37-.3-.74-.14-.12-.78-1.18-1.58-1-.43.1-.71.8-.92,1.11,0,0,0,0,0,0-.36.23-.13,1.18-.34,1.39,0,.24.29,1.17.05,1.53-.17-.26-.6-.8-1.09-.84-.78-.67-1.74.35-1.63,1.13-.22,0-.24.44-.2.7-.05,0-.07-.08-.09,0a12.61,12.61,0,0,1,.09,3.2c-.33-.11-.45-.5-.39-.93-.43-.9-.41-2.17-1.88-2.13-.57.41-1.29.91-1.23,1.78-.21,0-.21.55-.15.69s-.12-.06-.15,0c-.1.81.2,2.51.1,3.16,0,0,0-.1-.05-.1s.06.2,0,.25c-1-.58-.74-2.89-2.32-2.77a2.22,2.22,0,0,0-.74.3c-.57.4-.62,1.33-.79,2.17,0,0,0-.09-.05-.09a2.1,2.1,0,0,1-.39,1.13c-.51-.72-1.54-1.87-2.52-1.09-.14.44-.51.63-.64,1a5.37,5.37,0,0,0-.2,1.34c-.06,0-.07-.07-.15-.05-.15.32.09.7.1,1s-.12.32-.1.5c.07.69.4,1.46.2,1.92-.42-.36-.68-1.24-1.14-1.68-.14-.13-.25-.41-.39-.54-1.25-1.13-2.12.36-2.18,1.48,0-.06,0-.14,0-.15-.24.81-.07,2-.4,2.28-.38-.58-.92-1.76-1.88-1.78-.36,0-.91.3-.88.74-.25.09-.37.71-.55,1,.06,0,.12,0,.1.09-.37.48-.06,1.34-.25,2.08a1,1,0,0,1-.39.15c-.31-1-1.28-2.4-2.47-1.58-.11.18-.24.53-.35.44,0,.25-.21.2-.09.4-.05-.06-.45.14-.25.19-.21,0-.18.33-.3.1,0,.25-.1.15-.15.4-.1-.14,0-.53-.14-.25,0-.19.11-.38-.05-.2,0-.13.1-.1.1-.2a.32.32,0,0,1-.15-.09,49.82,49.82,0,0,1-.94-6c-.07,0-.17-.25-.05-.29a.18.18,0,0,0,.2.19,11.82,11.82,0,0,1,3,.89c1.22.14,2.38-.17,2.67-.64-.08-.24-.23.16-.35,0,.16-.07.33-.22.45-.2,0-.26.46-.43.54-.79s-.19-.92-.3-1.33a1.3,1.3,0,0,0,1.19-.54c-.15-.07-.25.16-.3,0,1.22-.32.69-2,0-2.52,1.08.06,3.49,1.44,4.12,0-.06,0-.2,0-.17,0,1.14-.28.7-1.93,0-2.32v-.15c-.27.11-.33-.3-.59-.35,1-.06,2.19-.31,2.62-1,.41-.33,1.23.07,1.82.34a2.61,2.61,0,0,0,2.87,0c-.07-.12-.25,0-.25,0a1.5,1.5,0,0,0,.3-2.52,3.32,3.32,0,0,0,2.37-.59,23.18,23.18,0,0,0,2.32-.84c.06-.12-.15-.2,0-.24,0,.1,0,.15.14.14s.14-.09.15-.19-.12.06-.15,0c.2-.08.11,0,.25,0,.09-.19,0-.1-.1-.2.31,0,.5-.55.69-.35.42-.54,1.22-.73,1.68-1.13,0-.26.69-.63.94-.89-.11-.07-.18.13-.2,0,.4-.18,1.2-1,1.68-1.19a.34.34,0,0,1,.2-.34c0,.09,0,.1.1,0a3.41,3.41,0,0,1,.9-.86s0,0,0,0c.31-.12.66-.86.79-.69.19-.39.52-.52.64-.94.22,0-.12.25.1.15.32-.38.8-1,1.23-1.44-.11,0,.07-.12,0-.24.16-.21.55-.36.74-.69,0,0-.08-.06-.05-.1.28-.34.71-.63,1-1s.48-.81.74-1.18.75-.92,1-1.34.51-1.07.34-1.18c.3-.19.27-.9,0-1.14-.22,0-.3.09-.54,0-.19.24-.54.31-.74.55a22.49,22.49,0,0,0-4.44,3.16,34.24,34.24,0,0,0-3.31,2.51A3.36,3.36,0,0,0,336,77.8a8.47,8.47,0,0,0-1.88.94c0-.06.07-.08,0-.1-.35.19-.44.67-.84.84s-.86.08-1.23.29c-.19.11-.25.38-.45.3-.08.29-.71.67-.54.74a.74.74,0,0,0-.4.59c-.15,0-.15.1-.24,0,0,.1.06.1.1.15-.14,0-.1-.08-.2,0,.12-.39-.58-1-.5-1.08-.34-.09-.39-.38-.64-.4a3.13,3.13,0,0,0-1.13.54c-.1.1-.12.37-.2.45s-.13,0-.15,0,0,.38-.1.15c-.17.15-.15.72-.34.69a1.91,1.91,0,0,1-.35.89c.09-.17,0-.05-.1,0-.1-.26-.22-.67-.34-.74.13-.2-.11-.18,0-.4-.15,0,0-.09-.2-.15a1.22,1.22,0,0,0-2.08-.24c-.13.14-.15.41-.29.64s-.45.28-.3.54a.84.84,0,0,0-.24.74c-.07,0-.07-.06-.15-.05a.75.75,0,0,1-.35.74c-.3-.83-1.12-1.72-2-1.13a3.51,3.51,0,0,0-1.29,2.71c-.25.27-.12,1.1-.59,1.29a0,0,0,0,1,0,.09c-.33-.43-.38-1-.79-1.33a1.38,1.38,0,0,0-2.12,1.14c-.33.47-.16,1.45-.3,2.17-.17-.08,0,.17-.15.15-.46-.64-1-1.43-2-1.34a3,3,0,0,0-.69,1.83c0-.08,0-.45-.05-.29,0,.31-.17.72-.2,1,0,0-.09-.06-.1,0s.06.09,0,.1c-.33-.3-.81-1-1.23-1-1.07-.16-1.11,1.54-1.83,1.77,0,0,0,0-.05,0h.05s-.12-.14-.1,0,.12.15,0,.45c-.55-1.47-.86-3.64-1.28-4.79a9.18,9.18,0,0,0,2.17,0c.52-.4,1.46-.07,1.78-.64-.13,0-.31.14-.4,0a1.28,1.28,0,0,0,.79-.5c.13-.8-.55-1.21-1.08-1.73.06,0,0,0,0-.1a1.72,1.72,0,0,0,1.33-.59c.83-.47,2-1,2.81-1.63.05-.09-.14-.16,0-.19s.05.08.1.09c.66-.68,1.46-1,1.84-1.49-.05,0-.1,0-.11,0,.18,0,.21-.34.35-.19,0,.1-.15-.08,0,.09s.31-.19.15-.29c.21,0,.27-.36.44-.25-.06.13-.23.17-.3.3.43-.18.32-.79.89-.79,0-.09-.07-.13,0-.15s.05.09.1.1c.11-.3.11-.25.3-.35a.31.31,0,0,1-.15-.1c.11-.18.17.17.25,0-.25-.12.12-.19.24-.29.27-.23.51-.74.69-.74,0,0,0-.08,0-.15A19.48,19.48,0,0,0,322,74.44h.15c0-.24.2-.34.1-.54a16.09,16.09,0,0,0,1.83-4.64A9.2,9.2,0,0,0,325,67a5.5,5.5,0,0,0,.74-4.09.43.43,0,0,1-.2-.2,1.43,1.43,0,0,0-.54,0A20.06,20.06,0,0,0,322.6,65c-.51.44-.83,1.07-1.29,1.38,0,.12-.08.19-.05.35-.17.25-.48.37-.54.74a5.21,5.21,0,0,0-1,1.43c-.38.21-.55.89-.84,1,0,.66-.82,1.16-1,1.78-.3.2-.55.65-.88.93a4.63,4.63,0,0,0-.4.3c0,.23-.31.27-.25.49-.35.1-.43.88-.93,1-.11.07.06.12-.05.15-.31.1-.52.49-.65.64s-.26.15-.34.25c-.27.32-.37.74-.69,1s-1.23.39-1.58.88c-.08.11-.5.38-.64.55s0,0-.15.15-.52.46-.69.59-.6.58-.84.74a6.72,6.72,0,0,1-.6.44c0,.26-.12.2-.24.4-.05-.13-.16-.27-.2-.4-.13-.43-.59-1.23-1.19-1.18s-.49.58-.93.89a.42.42,0,0,1-.1.29c0-.14-.32-.08-.4,0-.06-.27-.08-.76-.19-.59,0-.2.1-.53,0-.25.09-.38-.05-1,.19-1.08,0,.24.29-.13.25.1.38-.31.35-.53.79-.74,0,0-.1,0-.1,0a2.56,2.56,0,0,0,.59-.4s-.09,0-.09-.05a5.35,5.35,0,0,0,1.13-1.23,14.77,14.77,0,0,0,2-1.14c0-.09-.07-.1-.1-.15a6,6,0,0,0,1.92-1c0-.09-.15-.08-.19-.15.22,0,.22,0,.24.1.14-.15,0-.11.25-.2.08-.18-.17,0-.15-.15a.43.43,0,0,1,.35,0c-.07-.37.56-.34.69-.74.12.13.07-.13.2,0,.13-.07-.09-.2,0-.25.1.2.3-.35.5-.49s0,.07.1,0,0-.32.19-.25-.19.12-.05.15.15-.12.2-.2-.24,0-.2-.09c.17,0,.51-.33.45-.5.09.07.17.13.25,0s-.14,0-.15,0c.27,0,.19-.36.44-.29.3-.63,1.05-1.48,1.43-2.32a.34.34,0,0,0,.2,0,.24.24,0,0,0-.05-.2c.31-.12.32-.55.55-.84.09-.11.26-.17.34-.3s.15-.42.3-.64.58-.69.39-.94c.14,0,.35-.25.15-.34a2.86,2.86,0,0,0,.49-3c-.59-.39-1.43.1-1.92.4a34,34,0,0,1-3.11,2.47c-1.18,1.19-2.83,1.91-3.71,3.41a20.87,20.87,0,0,0-2,1.67c-.18.16-.45.31-.69.5-.47.36-.84,1-1.33,1.13-.76.18-1.36-.17-1.93.25-.19-.09-.08-.29-.25-.3-.07-.58-.23-1.35.11-1.5a.16.16,0,0,1-.06-.08c.4-.14.71-.84,1.14-.93-.16-.19.26-.34.2-.45,0,.06.08.12.09.05.06-.32.45-.54.7-.74a.23.23,0,0,0-.15.05c.15-.19.3-.09.24-.3a.13.13,0,0,1-.09.1c.06-.25.61-.14.4-.38h0c0,.14-.1.06-.1,0h.11c.29,0,.62-.26.58-.51.23,0,.06.08.15.1s.44-.26.15-.34c.48.11.64-.38,1-.55.06-.12-.23-.12-.05-.19s-.05.13.15.14.07-.18.14-.24.79-.41.92-.67l0,0c.06-.31.21-.16.4-.45,0,0-.12.19,0,.2.11-.16.06-.22.1-.4.31-.12.63-.42.64-.69.82-.57.89-1.67,1.73-2.17.43-.74.88-1.45,1.28-2.22,0-.14-.1-.1-.1-.2.09.1.24-.12.3-.25a8.11,8.11,0,0,0,.59-2.71c-.06,0-.14,0-.15,0H315c-.09-.42-.09-.93-.39-1.14a2.83,2.83,0,0,0-2.23.89,14.19,14.19,0,0,0-1,1.14c-.36.38-.79.54-.89,1a1.52,1.52,0,0,0-.79.75c-.35.09-.48.4-.79.54-.85,1.21-2.29,2.07-3.06,3.16-.07,0-.07-.07-.15,0A2.47,2.47,0,0,1,303,63c0-.16-.12-.7.2-.79,0,0-.07.07,0,.09s-.05-.18.05-.19a.36.36,0,0,0,.25,0c0-.26.38-.25.34-.45-.16.08-.23.2-.34.15.25-.2.65-.17.34-.3.41-.25.63-.77.89-.79-.06,0-.06-.13,0-.14s-.07.14.1.05-.08,0-.1-.15c.33-.13.17-.1.4-.1.07-.18-.17,0-.15-.15s.21-.23.34-.1c0-.1-.06-.1-.1-.15a2.51,2.51,0,0,0,1.49-1.18.79.79,0,0,1-.4.34c.23-.17.54-.71.79-.54,0-.09-.06-.11-.05-.2.27.15.41-.2.64-.24s-.07-.21,0-.3c0,.12.11.12.15.2.11-.29.64-.42.64-.64-.08.08-.24.12-.29,0,.23,0,.29-.26.39-.05,0-.19.39-.22.5-.45-.07-.12-.19.06-.2-.05s.34.05.44-.24c-.09-.05-.16.14-.2,0a14.91,14.91,0,0,0,2.87-4.4s-.1,0-.1-.05a1.26,1.26,0,0,0,0-1.53c.23-.15-.08,0,0-.34-2.19-.77-3.25,1.15-4.64,1.82-.53.89-1.58,1.25-2.13,2.13-.65.41-1.16,1-1.77,1.43a10.78,10.78,0,0,1-1.93.19c.14-.07.23-.15.15-.34.1,0,.06.13.2.1.19-.33.51-.23.64-.59-.09,0-.21.14-.25,0,.74-.38,1.16-1.21,1.63-1.58,0,.06-.2.14-.05.19.21-.17,0-.21.15-.34,0,.21,1-.57.79-.64a10.19,10.19,0,0,1,1.09-1s-.06,0-.05-.1c.4-.09.38-.6.79-.69,0-.09-.06-.11,0-.2A6.25,6.25,0,0,0,308,48.62c.13,0,.06-.15.25-.2.3-.9,1.4-2,.64-3.21-.09,0-.13.07-.15,0s.09,0,.1-.1-.09-.17-.15-.25c-1.17-.38-1.82.22-2.67.84a18.71,18.71,0,0,0-1.62,1.58,22.73,22.73,0,0,1-2.47,2.18,2.63,2.63,0,0,1-1.73.19,1.08,1.08,0,0,0,.62-.53s0-.06,0-.11a.52.52,0,0,1,0,.11s0,0,.07,0c.13-.2.15-.1.05-.25.28-.29.82-.54.79-1,.36-.16.46-.57.79-.74a.08.08,0,0,1-.05-.1.18.18,0,0,1,.15,0c0-.25.2-.36.44-.55.31-.69,1.16-1,1.38-1.87a4.38,4.38,0,0,0,.94-1.44,8.18,8.18,0,0,1,.45-.69,5,5,0,0,0,.49-1.48,2.08,2.08,0,0,0,.1-.94c-.23-.32-.24-.92-.79-1s-.74.28-1.19.34c-.76,1.06-1.92,1.73-2.66,2.82-1,.66-1.47,2.06-3,2,0-.06-.09,0-.1-.1a.5.5,0,0,1,.54-.39c.06-.16,0-.13-.05-.25.55-.24.71-1.09,1.14-1.28,0,.1-.14.09-.15.19s.16-.17.25-.24-.14,0-.15,0c.19,0,.22,0,.1-.15a5.11,5.11,0,0,0,1.18-1.23c0-.06,0-.16,0-.2s.28-.22.35-.35,0-.18,0-.25c.15-.38.79-1,.49-1.23.27-.11.29-.57.45-1.09-.06,0-.15,0-.15,0a.33.33,0,0,0,.19-.05,3.23,3.23,0,0,0-.64-2.52c-.81-.18-1.18.23-1.68.49a19,19,0,0,0-1.33,2.12c-.76.5-1,1.73-2.47,1.39.33-.15.35-.22.45-.45.2.14.36-.23.29-.24.12-.1.06,0,.15,0V38.2c.56-.44.82-1.19,1.48-1.53a6.21,6.21,0,0,1,.84-1.38c.23-1.26.79-2.18-.05-3.26-.2,0-.2.11-.15-.1h-.64c-.62.23-.91.8-1.48,1.08-.63.56-1.29,1.58-2.38,1.4,0,0,0,0-.09,0h.09a.14.14,0,0,0,0-.11c.09,0,.13.07.15,0s0-.08,0-.15c.26-.27.61-.44.84-.84,0,0,0-.14,0-.15.21-.28.57-.46.79-.74,0,0-.06-.13-.05-.15s.17-.06.2-.1a4.28,4.28,0,0,0,.39-.74c.09-.21,0-.47.1-.69,0-.07.13-.07.15-.15.12-.47.14-2-.3-2.32a3,3,0,0,0-2.37.84c.2-.16,0-.25.15-.34-.11-.07-.18.13-.2,0a3.7,3.7,0,0,0,1.24-3.56c-.67-.46-1.79,0-2.37.4a.55.55,0,0,1-.74.29c0-.27.4-.78.34-1.48,0-.32-.19-1.07-.39-.79.15-.35-.53-.63-.74-.94a1.29,1.29,0,0,0,.1-.59s0,.1.05.1a1.49,1.49,0,0,0-.2-1.33c.29-.12-.28-.29,0-.45-.19-.14-.17-.48-.45-.54.25,0-.11-.18-.1-.3.27-.49-.1-1.12-.19-1.43,0,0,0,.06-.1.05.09-.24-.19-.49-.3-.69a5.74,5.74,0,0,0-.79-2.07,1.41,1.41,0,0,0-.29-1c.11-.12-.05-.24-.05-.4s-.19.13-.2,0l.15-.14c-.07-.13-.14-.12-.2-.15.1-.08,0-.29,0-.3s-.06.08-.1.1.1-.35-.05-.15c.13-.17.15-.22.15-.34s-.15-.23-.2-.5l.1,0c0-.26-.41-1.52-.25-1.58s-.8-1.18-.79-1.73c-.06-.12-.14.09-.19-.05h.1c-.3-.45-.33-1.35-.94-1.72-.7.35-.59,1.42-.79,1.82a4.61,4.61,0,0,1-.05,1.19c0,.27.13.5.15.79,0,.45-.3,1,0,1.48a31.63,31.63,0,0,0,.19,5.53c.17,0,.14.63.1.39a1.72,1.72,0,0,1,.1.6c-.05.56,0,1.29-.05,1.68a10.78,10.78,0,0,1,.64,2.37c-.08,0-.08.26,0,.24,0,.25.45.62.74,1-.7.33-2.11.58-1.63,1.63-.05,0-.14,0-.14.05.41,1.45,2.21,1.74,3.4,2.12-.51.31-1.08,0-1.58-.05a1.71,1.71,0,0,0-1.63,1c-.5,2.41,3.11,2.68,4.65,3.16-1.43.36-3.29-.83-4.55.2,0,.33-.23.79-.05,1-.08,1,.92,1.75,1.68,2.23a1,1,0,0,0,.84.54c-.12.2.08-.06.05.15,1,.23,2.49.32,3.46.49-.09,0-.11,0-.05.1-1.54.12-3.54-.74-4.89,0-.31.41-.22.86-.35,1.28.14,0,.17.13.2.25s-.12-.3-.2-.15c.09,1.14,1.45,2.07,2.62,2.62a2.08,2.08,0,0,0-1.58.59,2.4,2.4,0,0,1-.05.94c.24,1.44,1.29,2.08,2.12,2.91-.71,0-1.39-.34-1.77.1-.22.25-.14.69-.2,1,0,0,0-.1-.05-.1.09.44-.07,1.38.3,1.48a4.47,4.47,0,0,0,1.87,2.13,3,3,0,0,0,1.58,1c1.29.85,3,1,4.35,1.34.46.41,1.14.43,1.63.74a5.8,5.8,0,0,1-3.21-.45c-.45-.15-.94-.13-1.38-.29a9,9,0,0,0-2.18-.84c-.5-.33-1.7-1-2.47-.6-.36.22-.42.8-.54,1.19,0,0,.1,0,.1,0-.28.32.18.93,0,1.23.27.3.41.8.69,1.14.66.8,1.82,1.19,2.42,2,.5.16.79.53,1.38.6-.11,0,.3.21.45.24a23.37,23.37,0,0,1,2.86.64s-.11,0-.1,0a5.11,5.11,0,0,1,.74.15,10.27,10.27,0,0,0,1.68.89c.78.2,1.47.16,1.83.69-.67,0-1.19.39-1.78.3a6.09,6.09,0,0,1-.74-.35c-.41-.13-.89-.13-1.28-.24a4.61,4.61,0,0,0-2-.45c-.07-.14-.35-.07-.39-.25-1.28-.3-3-1.33-4.55-1.72-1.11-.29-1.76.17-1.58,1.38,0,0-.09,0-.1,0-.14.48.36,1.33.65,1.73-.37.1-.66-.11-.94,0s-.13.6-.4.69c.06.28-.23.59-.05,1a3.52,3.52,0,0,0,.45,2.22s0-.11.05-.1A10.27,10.27,0,0,0,290.25,68a7.24,7.24,0,0,0,.6.89A10.46,10.46,0,0,0,295,72a7.75,7.75,0,0,0,2,.55c.1.19.49.1.64.24,0,0,0-.11,0-.1.54.14,1.29.07,1.78.15,1,.17,1.89,1,3.26.94,0,.14.56.21.69.15a1.48,1.48,0,0,1,.44,1.28c-.34-.29-1.49-.65-2,0-2.08-.19-3.52-1-5.78-1a6.53,6.53,0,0,0-2-.94v-.15c-.79-.32-1.43-.89-2.17-1.14-.06,0-.24,0-.29,0s.05-.09,0-.1a3,3,0,0,0-1.38-.54c.1-.11,0,0-.05-.15-1.71-.53-3-1.49-4.64-2.12a3.17,3.17,0,0,0-1.83,0c-.27.32-.11.91-.09,1.28-.07,0-.05-.08-.1-.1a5.75,5.75,0,0,0,1.13,2.28A15.24,15.24,0,0,0,286,73.65c.61.6,1.05,1.4,1.92,1.68,0,.09.05.12.15.1a22.81,22.81,0,0,0,3.7,2.57c.28.16.53.43.74.54.48.24,1.12.31,1.44.64a13,13,0,0,0,3.6,1s0-.12.05-.1a13.44,13.44,0,0,0,2.22.64s0-.1.05-.1c1.48.13,2.67,1.33,4.5.84.13.22.49,0,.69.1.45.22.51.91.57,1.42h0c0,.05,0,.1,0,.14-.09-.14-.09-.1,0-.14v0c-.73-.6-2.17-.37-2.15.61-.21-.07-.14.52-.2.64a.14.14,0,0,0-.1-.15c0,.29-.23.4-.35.59-.29-.28-.43-.71-.83-.89,0,0,.05,0,0-.1-.34-.09-.68-.53-1.08-.59-.56-.08-.66.25-1,.55-.22.55-.23,1.19-.44,1.53-.16-.16-.43-.2-.55-.4a3.13,3.13,0,0,0-2.86.59c-.9-.27-2.37-.63-3.11-.1a8.06,8.06,0,0,0-1.63,0c-.83.1-1.33.74-2,.75-.44,0-1-.16-1.49-.2-1.44-.11-3.24.14-4.84,0-.2,0-.36,0-.54,0-1.26-.09-2.53-.25-3.65-.25-2,0-4.56,0-5.14,1.24,0,.1.11.16.15.24a.48.48,0,0,0-.2.2c.8,1.58,2.89,2.14,4.69,2.42a23.4,23.4,0,0,0,5.19,1.38s0,.06-.05.1a14.68,14.68,0,0,1,2.42.3,43.1,43.1,0,0,0,10,.15,5.39,5.39,0,0,1,1.58-.3c1.74-.26,2.93-1,5.24-.69-.08.17.16,0,.15.15-.2.19-.19.74-.3.89,0,0-.05-.16-.05-.15-.63,2.13,2.25,2.26,3.16,1.23-.06-.13.27-.29.35-.44a.33.33,0,0,1-.15-.1c.25,0,.19-.37.44-.4,0,.08-.18.21-.05.25,0-.17.16-.15.2-.2-.16,0-.16-.19,0-.29.12.06-.1.18,0,.24a1.6,1.6,0,0,1,1.23-.69c.49.25.67,1,.74,1.53.23.23.18.59.3.94.36,1,1.07,2.75.45,3.51-.09-.11,0-.32-.05-.35-.42-.32-1.37-1.54-2.13-.64a4.77,4.77,0,0,1-.44.94c.08.07.1.49-.05.49s.15-.16,0-.2c-.3.38-.28,1.08-.54,1.49a.29.29,0,0,0,.14,0c0,.08,0,.2-.09.24,0-.25-.21-.31-.3-.49,0,0,.08.07.1,0s-.05-.12-.05-.2c-.66-.73-1-2.63-2.27-2.71a.76.76,0,0,0-.89.59c-.12-.14-.2.17-.1.25-.13-.12-.2.35-.25.44s0-.12-.05-.1c-.21.46-.18,1-.49,1.19,0-.22-.17-.26-.15-.5-.42-.06-.26-.57-.54-.74,0,0,.11,0,.1,0-.29-.69-1-1.75-1.83-1.73-.62,0-1.05.5-1.28,1.24,0,0-.13,0-.15,0a1.17,1.17,0,0,1-.79.54c.2-.12-.15-.39.05-.34,0-.18-.22,0-.2-.2A.15.15,0,0,0,297,96c-.22-.2-.1-.41-.15-.59-.09-.34-.41-.66-.44-.89a3,3,0,0,0-1.88-.64c-1,.63-.93,1.91-1.63,2.81.06-.08-.22-.07-.25-.1a13.75,13.75,0,0,0-1.08-1.82c-.18-.13-.24.07-.1-.15a1.84,1.84,0,0,0-1.48-.45c-.29.09-.33.46-.6.55-.08.25-.07.4-.24.49v.35c-.42.07-.24.74-.5,1a2.08,2.08,0,0,0-.29-.19s.09,0,.1,0c-.8-.55-1-2.11-2.82-2-.41.54-.37.73-.74,1.24.06,0,.12,0,.1.09-.28.13-.35.64-.54.7-.42-.36-.46-.8-.94-1.09.06,0,.14,0,.15,0-.44-.68-1.93-1.73-2.62-.94-.24.28-.6,1.1-.4,1.33-.21,0-.18.16-.19.45-.12,0-.11.09-.25,0,.12-.13-.33-.13-.35-.4a3.93,3.93,0,0,0-1.72-.44c-1-.13-1.66-.94-2.82-.84a15.28,15.28,0,0,0-3.85-1.14c-2-.52-4.27-1.25-6.12-1.77-.88-.25-1.67-.63-2.32-.1,0,.62,0,1,.24,1.28a13.39,13.39,0,0,0,4.94,4c.23.42.72.44,1.09.64a18.26,18.26,0,0,0,2.47,1.34,15.55,15.55,0,0,0,3.55,1.08c.57.8,2.22.48,2.87,1-.07,0,0,.09-.1.1s-.07-.13-.1,0,.08.34-.05.34c.16.41.18.76.44.94.67.48,1.55-.11,2.37-.34s1.22.08,1.83.1,1-.22,1.53-.25,1.22.42,1.88.49c1.08.12,1.64-.29,2.71-.29a2.85,2.85,0,0,0,1,.29c.87.09,1.91-.51,2.17.1-.12,0-.11.31-.05.15a.14.14,0,0,1,.1-.15c.09.3-.27.31-.05.35a1.6,1.6,0,0,0-.34,1.18c0,1.09.83,1.34,1.92,1.19s2.1-1.23,2.92-1.63a.51.51,0,0,1,.24.44c-.05,0-.06,0-.1,0,.23.6.2,1.14.65,1.43a2,2,0,0,0,2-.19c.17-.12.47-.52.74-.64,0-.25,0-.36.1-.45.12.07-.09.15.05.2a2.49,2.49,0,0,1,.35-.5c0,.06-.09.12,0,.15.26-.42.73-1,1.23-.64,0,0,0,.06,0,.1s0,.29-.15.25a7.83,7.83,0,0,0-.05,1.28c.21,1.38,1.14,1.8,2.42,1.14a1.32,1.32,0,0,1,1-.5c0,.83-.11,2,.74,2.42,1.53.19,2.25-.76,2.86-1.18-.13-.26.25-.28.3-.5s-.12.06-.15,0,.24,0,.25,0c-.17-.22.32-.57.39-.88.06.12-.15.21.05.19-.09-.26.28-.16,0-.29.39-.16.84-.87,1.33-.4a10.05,10.05,0,0,1,.79,2.27,53.55,53.55,0,0,1,1.14,5.38c.21.24.25.64.44.89,0-.2-.1-.24,0-.39a22,22,0,0,1,.55,4.25,2.14,2.14,0,0,0-.2-.79c-.13.28-.18.6-.49.49,0-.2-.6-.69-.74-.89.14,0,0-.11,0-.2s-.12.06-.15,0a1.49,1.49,0,0,0-.5-.64c-.48-.38-1.19-1.47-2.56-1.43-.1.19-.24,0-.15.25-.63.37-.43,1.22-1.14,1.77-.48-.39-.8-1.06-1.53-1s-1.24,1-1.33,1.53c0-.07.06-.26-.05-.25-.22.44-.28,1.27-.59,1.58a.14.14,0,0,1,.1.15c-.12-.21-.22.11-.3-.1,0,0,.08-.11.1,0,0-.12-.27-.29-.35-.34s.06-.08.05-.15-.15,0-.2-.05c0-.6-.57-.81-.88-1.48-.12,0-.11-.09-.25,0-.27-.51-1-.56-1.78-.55-.22.21-.49.37-.54.74h-.15c-.13.38-.12,1.06-.3,1a3.07,3.07,0,0,0-.19,1.83c-.07,0-.15-.2-.2,0s.28.4.25.59c-.11-.1,0-.18-.1-.29s-.36-.34-.3-.25c-.2-.31-.09-.92-.25-.64-.08-.1,0-.36-.14-.15,0-1.4-1.41-3.14-2.87-2.12-.18.51-.57.81-.69,1.38,0-.06,0-.14-.05-.15-.48.48-.38,1.37-.69,1.93.1,0,.1-.07.15-.1-.09.24,0,.36-.05.49-.06-.19-.09-.41-.25-.49.06,0,.12,0,.1-.1-.33-.27-.14-.13-.35-.4.06,0,.12,0,.1-.1s0-.21-.19-.19c.05,0,.07-.06.09-.1s-.14,0-.14,0a15.33,15.33,0,0,0-.7-1.93.29.29,0,0,0-.14,0c-.08-.88-1.37-1.93-2.32-1.18a.18.18,0,0,0,0,.15c-.42.16-.45.71-.6,1.13-.11-.07.06-.12-.05-.15-.57.75-.25,2-.69,2.77-.06-.29-.23-.46-.2-.84-.2-.05-.09-.09-.19-.25a6.94,6.94,0,0,1-.69-1.43,8.89,8.89,0,0,0-.7-1.38,2.11,2.11,0,0,0-1.77-1c-1,.12-1,1.52-1.48,2.07-.14.17-.32,0-.15.25-.12.07-.21-.14-.25,0s.17.22.05.25c-.63-1.19-1.19-2.73-3.21-2.67-.55.36-.39,1.28-.64,1.53,0,0,0-.11-.05-.1a3.08,3.08,0,0,1-.54.94c-.05-.48-.63-.77-.84-1.43-.14,0-.19-.25-.3-.15.08-.26-.45-.5-.59-.54-.23-.47-1.22-.63-2.08-.5-.38.28-.45,1-.44,1.54-.08,0,0-.14-.1-.15-.12.31-.5.56-.44.89-.53-.63-1.05-1.89-2.27-1.68-.6.1-.68,1-.89,1.38-.17-.06-.43.16-.6.25,0-.27,0-.06-.09,0-.29-.47-.49-1.25-.89-1.44a1.49,1.49,0,0,0-2-.74,17.22,17.22,0,0,0-2.76-2.91c-.54-.19-.7-.75-1.14-1a.36.36,0,0,0-.25,0c-.08-.44-.82-.44-.79-.84-.18-.06-.36-.22-.49-.19.1-.06-.17-.35-.3-.2,0-.12-.07-.15-.09-.25a12.75,12.75,0,0,1-1.88-1.43,1.81,1.81,0,0,0-1.83-.89c-.27.38,0,1,.1,1.33-.11,0-.05-.14-.15-.14-.08.21-.14.49,0,.64-.08.58.71,1.66,1,2.07.82,1.21,1.75,2.73,2.42,3.85.13,0,.17.09.25.15-1.63-.44-3.15-.7-5-1-1.42-.47-3.26-.52-4.64-1-.58,0-1.56-.16-2,.25a.9.9,0,0,0,0,.39c.09,0,.11.16.15.25-.15,0-.13.13-.25.14,0,.75.71,1.22,1.19,1.49,3.28,1.78,6.78,3.7,11,4.34,1.19.18,2,1.07,3.16,1.19,0,.11-.1.29,0,.39-.25.1-.25.44-.25.79s.33.25.55.45a5.56,5.56,0,0,1,.39.54c.47.5,2,.19,2.42.49-.58,2.22,1.9,2.24,3.26,1.39a.26.26,0,0,1,.45-.1c-.21-.11,0,.06,0,.15-.27-.06-.25.24-.29.29-.2-.27,0,.32-.3.3,0,.39-.39.79-.2,1.48.18.07.12.13.25.29,1.49.84,2.75-.16,3.7-.64.1,0,.72-.27.65-.29s.1.15.1.14-.11-.13,0-.14.12.13.2.14a2.71,2.71,0,0,0-1.32,2.15c0-.1-.13-.18-.11,0-.14.11.08-.06.05,0-.22.28,0,.63.1.89a2.16,2.16,0,0,0,1.68.29c1.54.2,2.89-1.86,4.1-1.13-.4.5-1.58,1.15-1.53,2.27-.11-.11-.18.4-.1.59.13.35.67.55,1,.59a4.81,4.81,0,0,0,3.46-1.28c.28,0,.56-.26,1-.15a.64.64,0,0,1-.45.79c.1,0-.13.32-.2.2-.34.6-1.12,1-1.18,1.73a.2.2,0,0,0-.2.1c.06,0,.12,0,.1.09a.26.26,0,0,0-.2.1.18.18,0,0,0,.15-.05c0,.07-.06.09,0,.15-.22-.06-.14.6-.1.84,1,1,3.32.58,4.4-.05.3-.17.64-.62,1-.39,0-.13-.09-.16.05-.2,0,.21-.08.23,0,.39-.06,0-.07-.06-.14,0s-.18.27,0,.34c0-.17.1-.16.14-.25a.91.91,0,0,1-.19.35q0-.16-.15-.15a.8.8,0,0,0-.1.5c-.08,0,0-.14-.1-.15.13.53-.27.57-.34,1.13a.05.05,0,0,0-.1,0c.18,0,.11.33,0,.3.06-.16,0-.35-.1-.25.16.14-.09.19-.1.2s0,.17.1.2c-.25,0-.32,1-.1,1.43,1.14.87,2.94.37,4.2-.15a4.48,4.48,0,0,1,.59-.64c.15-.05.57-.12.34-.25.13,0,.2-.13.35-.15s0,.3.05.3.18-.2.2-.1a11.37,11.37,0,0,1-1.34,1c0-.07.21-.16,0-.15-.05.34-.24.14-.29.35s.14-.19.24,0c-.2,0-.15.21-.29.24s.2-.22,0-.19c-.09.6-.45.65-.45,1.28,0,.94.84,1.28,1.63,1.38,2.77.36,4.35-1.86,6.37-2.22,0,.08.14,0,.15.1,0,.24.14.43-.05.54,0-.07.06-.25-.05-.25.07.28-.29.36,0,.45h-.2c-.29.84-1.22,1.3-1.67,1.83.09.22-.29.1-.2.64-.21,0-.25.42-.2.69s.66.73,1,.84a4.59,4.59,0,0,0,3.31-.45,4.16,4.16,0,0,0,1.28-1.18c.22,0,.21-.19.3-.3-.07-.11-.12.07-.15-.05.53,0,.65-.91,1.38-1.08.19-.53.66-.56,1.09-.69.12.1.14.45,0,.29.17.2-.2.32-.1.44l0,0,0,0h0a6.83,6.83,0,0,1-.84,1.24c.09.11,0,.14,0,.3-.1-.08-.06,0-.2,0a3.6,3.6,0,0,0-.24,2.61,2.12,2.12,0,0,0,2.12.55c.59-.43,1.3-.45,1.83-.94,0,.24,0-.06.14,0,.07.67-1.09,1.9-.39,2.47a2.45,2.45,0,0,0,2.62,1c2.42-.28,4-2.26,5.08-3.5.05-.09-.15-.17,0-.2s0,.1.05.1c.35-.42,1.93-2,2.47-.79,0,.07-.07.09-.05.2a.3.3,0,0,0,.15,0,10.94,10.94,0,0,0,.44,2c-.06-.06-.18-.06-.19.05s.24-.05.19.1c-.28,0,0,0,0,.1a6.51,6.51,0,0,1,.05,1c.15,1.77.49,3.21.5,5,0,1.11,0,2.14-.05,3.26,0,.67.08,1.4,0,2.08a10.82,10.82,0,0,0-.25,1.53c0,.77-.05,1.63-.1,2.42a7.83,7.83,0,0,1-.69,3.4.26.26,0,0,1-.35-.1c.1-.11,0-.22,0-.39l-.06,0c.07-.59.15-1.32.15-1.57s-.07-.25-.07-.5c0-1,0-2-.87-2.59s-1.74.36-2.1.86a6,6,0,0,0-.88,1.71c-.1,0-.11,0-.2,0,.14.36-.24.29,0,.55-.33.11-.24.85-.52.75v0l-.06,0c.06-.21-.08-.22-.1-.35.16-.12.14-.68.1-.84-.3-.62.38-2.21-.2-3a2.93,2.93,0,0,1-.29-.05c-.7-.65-1.86.05-2.27.59,0-.06.2-.14.05-.19-.27.39-.57.66-.79,1-.05-.09.14-.16,0-.19a.7.7,0,0,0-.05.34c-.07,0-.07-.06-.15,0,0,.32-.23.32-.35.5s-.1.48-.19.59-.1-.08-.15,0-.26.72-.5.59a.57.57,0,0,1-.84.4c.11-.66-.08-2.1.05-3,0,0,.24-1,.3-.79,0-.48.23-.88.15-1.34a4.31,4.31,0,0,0-.35-1,2.55,2.55,0,0,0-1.68-.84,2.43,2.43,0,0,0-.69.29c-.22.16-.6.65-.54.69-.18-.09-.32.26-.35.35-.16-.09,0,0,0,.1-.24-.05-.18.21-.29.44s-.36.52-.5.79c-.25.51-.27,1.14-.54,1.48-.14.18-.41.17-.49.35s.09.15-.05.2-.47.21-.69.24c-.3-.43-.12-1.35-.35-1.68,0,0,0,.12-.05.1a14.47,14.47,0,0,1,.25-3.26c0-.1-.14-.18,0-.29-.31-.48-.24-1.5-.57-1.89h0c-.06-.53-.42-.64-.5-1.43-.11-.12-.24-.19-.34-.3-.94-1-2-.47-2.62.5V151a4.83,4.83,0,0,0-.79,2.23,14.77,14.77,0,0,0-.35,1.87c-.2.16,0,.34-.05.64s-.29.27-.34.5c0-.22-.21.08-.25.15a2.07,2.07,0,0,0-.3-.5,2.25,2.25,0,0,0-.09-1.33c0-.06-.14-.65-.22-.61l0,.07s0-.07,0-.07c.1-.22,0-.48.17-.53-.05-.17-.16,0-.25-.1.19-.07.37-.13.25-.39,0,.07,0,.18-.05.2,0-.22,0-.5.15-.3-.26-.39,0-.64-.05-1,.05,0,.07.08.09,0a.34.34,0,0,1-.14-.09,3.07,3.07,0,0,0-.15-1.63s0,.11-.05.09c0-.18.12-.38-.05-.19a3.68,3.68,0,0,0-.54-1.68c.08,0,.08-.23,0-.2,0,.25-.07-.1-.1-.15-.15-.24-.68-.81-1.09-.84-.93-.06-1.45,1.18-1.87,1.78,0-.09.14-.16,0-.2a10.47,10.47,0,0,0-1.24,2.67c-.09,0-.2.06-.25.15,0-.09,0-.11-.09,0,0-.18-.09-.21-.05-.4a1.31,1.31,0,0,0-.35-.19c.14,0,.06-.06.05-.1a9.83,9.83,0,0,0-.2-2c0-.06,0-.78-.29-.89a1.6,1.6,0,0,0-.45-1.23,1.85,1.85,0,0,0-1.38-1.24c-1-.06-1.46,1-1.78,1.63,0,0,0-.09-.05-.1s0,.28-.15.15c0,.1.15.17,0,.2s-.5.58-.79.74c0-.19-.25-.16-.19-.54-.05,0-.09,0-.1,0a20.5,20.5,0,0,0-.84-2.47c-.41-.87-2.07-1.32-2.22-.3-.37.11-.4.56-.55.74,0-.05.07-.07,0-.09s-.1.36-.24.44-.17-.15-.15-.05.21.13.1.15c-.21-.18-.31,0-.55.1a9.85,9.85,0,0,1-.29-1.63c-.09,0,0-.54-.25-.69a3.16,3.16,0,0,0-1.53-2.87c-.86.2-1.17.84-1.58,1.39-.05-.22-.27.21-.4,0s.09-.05.1-.1c-.21,0-.13-.18-.24,0v-.5c-.28-.61-.17-1.13-.65-1.58a1.3,1.3,0,0,0-2.12.35c-.26,0-.09.22-.25.1-.06,0,0,.19-.09.19s-.23-.09-.35.05a.42.42,0,0,0-.15-.44c0-1.61-.83-3.2-2.52-2.17-.13.15-.32.64-.44.49a.48.48,0,0,1-.15.3c-.21-.16-.14-.14-.29-.25,0,.12.09.15-.05.2.06-.39-.39-.72-.2-.69,0-.09-.05-.12-.15-.1a5.14,5.14,0,0,1-.35-.55c-.74-.52-2-.52-2.12-1.67a.47.47,0,0,1-.25-.3c-.05,0-.14,0-.14,0-.16-.49-1.34-1-1.73-1.38,0-.07-.06-.08-.05-.25-.48-.39-.94-1.22-1.73-1.68,0-.28-.56-.52-.74-.74,0,0,.06-.08.05-.1a2.61,2.61,0,0,0-.94-.59c.2-.2,0,0-.05-.05s-.54-.93-.69-.74c-.29-.52-.67-.55-.94-.94.06,0,.08.07.1,0-.29,0-.38-.43-.64-.59,0,.08.07.13,0,.15s0-.28-.1-.35-.22-.13-.3,0c0-.23-.37-.44-.49-.69.24.4-.21,0-.1-.15-.7-.27-.93-1-1.58-1.33a2.34,2.34,0,0,0-1.87-1.19,2.39,2.39,0,0,0-.15,1.39,1.82,1.82,0,0,0,0,1.58,2.81,2.81,0,0,0,.54.59,8.33,8.33,0,0,1,1,1.88c.89,1.81,2.32,3.4,3.06,5,.47.66,1,1.3,1.46,1.93-.91.46-1.14,1.51-1.48,2.15,0,0,0,.08-.05.09l.05-.09c0-.08-.18-.18-.18-.08-.09-.39.14-.87,0-1.13,0,0,0,.25-.08.16.11-.39.34-.94,0-1.22.3-.33-.32-1-.18-1.14a.65.65,0,0,0-.32-.39c.06,0,.13,0,.06-.09s-.08.13-.17,0c.07-.12,0-.32-.05-.09-.08-.16-.06-.32-.11-.11-.12-.07,0-.26-.12-.21s-.44-.32-.68-.31c-1,.22-1.11,1.1-1.29,1.55,0,0,0,.22,0,.28-.11-.09-.11.16-.24.08.08.1.14.12.07.24-.26-.15-.26-.51-.49-.69.22,0,.14-.4,0-.42,0,0,.12-.05.13-.07a5.37,5.37,0,0,0-1-2.33,2.07,2.07,0,0,0-.71-.68,1.9,1.9,0,0,0-1.47,1.64.61.61,0,0,1-.4,0c.19-.14-.31-.43,0-.33a2.64,2.64,0,0,0-2.82-1.89c-.11-.06-.21-.33-.41-.34.05-.21-.09-.22-.13-.33-.11.1-.45-.51-.58-.35-.25-.38-.9-.31-1.64-.74,0,0,.07,0,.11,0-.29-.07-.26-.19-.39-.4-.32.25-.15.45-.49.65,0-.05,0-.28-.07-.23s0,.3-.1.22a3.59,3.59,0,0,1,0-.93c-1.27-.14-2.33-1-3.55-1.27-.29-.31-.71-.35-1.09-.65-.06,0-.17.09-.22,0a2.93,2.93,0,0,0-.94-.5c0-.16-.5-.45-.48-.25-.08-.16-.14-.27-.15-.08-.07-.21-.05-.15-.21-.17,0,0,.09,0,.07-.09a4.72,4.72,0,0,1-1.46-.75s0,0,0,0l-.1-.06.05,0-.11-.07s0,0,0,0a6.14,6.14,0,0,1-1.06-.74c0,.06.08.12,0,.16s-.1-.43-.21-.17a.33.33,0,0,1-.05-.2c-.35.14-.7-.61-1.16-.49.07-.2-.17.09-.25-.15-.21.11-.06.62-.23.41,0,.43.07,1.24.38,1.42a.25.25,0,0,0-.11.12c.67,1,1.53,2.19,2,2.25.1.31.43.52.6.72a0,0,0,0,0-.05,0c.12.12.25.2.32.16a9.16,9.16,0,0,0,2.35,2.16,11.43,11.43,0,0,0,1.94,1.7c.8.12,1.4,1.06,2.32,1.48.16.08.33.08.47.14.54.26,1.36,1.07,1.72,1,.42.35,1,.1,1.39.59,0,.55.81,1.29,1.42,1.48a.3.3,0,0,0,.15-.14c.14.3.77.13,1,.26a3.92,3.92,0,0,0-1.18,1.21s0-.06,0-.05c-.07.27-.07.67-.14,1,1,2,3.11.36,4.81.08-.63.48-1.6.88-1.95,1.57-.05.09-.12.58-.07.49-.54,1,1.4,2,1.95,1.63-.93.36-.67.82-.55,1.37,0,.06-.07.13-.06.2a1.47,1.47,0,0,0,.7.86c-.1.1.13.1.14.26,1.53,1.06,3.44.48,5.12.53.43.28,1,.14,1.45.28-.7.55-1.47.09-2.39.68-.22-.22-.89.27-.88,0-.44.2-.5.51-.84.74a.94.94,0,0,1,0,.55c0-.06,0-.14-.07-.13.06.17.21.82.13.66a2,2,0,0,0,.47.64c1.08.92,2.56,1.6,3.82,1.13a9.18,9.18,0,0,0,2,.2c-.14.24-.91.29-.65.24-.48-.21-.79.08-1.3.2-1,.23-2.13-.07-3,.57-.33.24-.46.8-.67,1,.07.13.21.18.19.34-.18,0,.39,1.15.55,1.11.23.42.9.63,1.42.86a8.15,8.15,0,0,0,.83.39c.66.16,1.48-.11,2.26,0,.52.08,1,.34,1.5.19.57.21,1.48-.16,2-.18-.19.78-1,.59-1.71,1A24.14,24.14,0,0,1,259.6,159a2.55,2.55,0,0,0-1.53.89c-.15.4.16,1,.17,1.36.08.09.21,0,.29,0s-.25.07-.19.16a2.85,2.85,0,0,0,1.42,1,7.6,7.6,0,0,0,2.05.35,7.9,7.9,0,0,0,1.93-.26,7.33,7.33,0,0,0,2.13-.43,7.25,7.25,0,0,1,2.19-.52c-.05.62-.81.68-1.31.89-.16.06-.29.19-.44.23s-.27,0-.39,0c-.64.14-1.17.76-1.79.63a18.44,18.44,0,0,0-2.27,1,2,2,0,0,0-.08,2c.49.88,2.24,1.19,3.1,1.46-.3.27-.67.36-.84.63s0,.47-.17.31c-.05.31.17.65.05.82a5.7,5.7,0,0,0,4.76,2.75,6.88,6.88,0,0,0,2.5.27c1-.08,2.13-.47,3.21-.51a7.29,7.29,0,0,0,1.79-.13c.71-.2,1.2-.42,1.72-.15-.06-.1.14-.08.15,0-.46.31-.53.83-.95,1.13-1.13.8-2.85.65-3.82,1a.93.93,0,0,1-.24,0,.26.26,0,0,0-.15.14,10.37,10.37,0,0,0-3,.1,2.37,2.37,0,0,0-2,1.48c.34.85.28,1.15.63,1.57,0-.06,0-.3.1-.22l.07.13c-.06,0-.08-.06-.14,0,.54,1.17,2.31,1.66,3.43,2.07a4.58,4.58,0,0,0,1.62.07,1.49,1.49,0,0,1,.51.12,13.06,13.06,0,0,0,4.35-.9c.26-.11.7-.38.54-.13.21-.15.66-.07.8-.1.34-.06,1.15-.49.9-.2a2.58,2.58,0,0,1,1.88-.47c-.07.07,0,0,.09.07a10.59,10.59,0,0,1-1.57,1.13c-.33.14-.79.12-1.21.27a8.35,8.35,0,0,1-1.55.45l-.75.07c-.26,0-.9.1-.93-.06a1.29,1.29,0,0,1-.84.12c-1.06.35-2.29,0-3.41.45a3.57,3.57,0,0,0-1.37.89h0c-.45-.41-1.68,0-1.63.44-.28.1-.9,1-.79,1.09a4.85,4.85,0,0,0-.66.87l.06,0c-.24.33-.21.51-.49.74,0,0,.12-.19,0-.2-.13.26-.19.19-.15.5-.16,0-.55.59-.29.69-.27-.06,0,.12-.2.1,0,.13.1.1.1.19-.28,0-.22.33-.25.4s-.14-.06-.15,0,.12,0,.1.1-.11-.09-.15,0c.16,0-.17.31.1.29,0,.13-.21.15-.25.3a1.18,1.18,0,0,1-.44.64,14.57,14.57,0,0,1-1.83,2.27,5.31,5.31,0,0,1-1.43.55c-.05-.07-.13-.1-.15-.2.2,0,.26-.66.45-.89,0,0,.13,0,.15,0a18.33,18.33,0,0,1,1.33-2.32c.29-.32.61-.57.89-.89a3.64,3.64,0,0,1,.84-1.33,7.2,7.2,0,0,1,.69-1.68c-.1-.36.2-.45.15-.69a.56.56,0,0,1-.1.15c.06-.39.28-.22.2-.6.21.16.08-.41.14-.54s.18-.07.2-.15-.06-.2-.05-.29.26-.37.25-.6-.06-.07-.05-.14a2.79,2.79,0,0,0,.05-1.24c0,.06,0,.14-.05.15-.07-.15.15-.28,0-.35s0,.14-.05.15a3.66,3.66,0,0,0-.25-.74c-.64-.86-1.88.19-2.32.49.1.2-.07.09,0,.3a3.85,3.85,0,0,0-1.23,1.53c-.07.11-.12-.06-.15.05a2.76,2.76,0,0,1-1,1.19c.12.21-.16.21-.15.44-.89.81-1.47,2.21-3.16,1.78.13-.49.22-.89.45-1,0-.2,0-.29.2-.34,0-.2,0-.36.14-.35-.09-.34.4-.56.45-.84a11.48,11.48,0,0,0,1.9-2.34,0,0,0,0,1-.07,0c.39,0,.24-.57.49-.44a.61.61,0,0,1,.15-.45c0-.3-.19.27-.25.1.1-.1.2-.44.35-.2,0-.13-.1-.1-.1-.2.26-.26.46-.81.59-.93-.06,0-.08-.06-.1-.1s.14,0,.15-.05c.15-.7.78-1.49.79-2.42a2.17,2.17,0,0,0,.3-1.19,1.53,1.53,0,0,0-1.09-1.28c-.93.06-1.41.82-1.83,1.23-.52.13-.67.68-1,.89s-.52.77-.75.89a.3.3,0,0,0,.05.15c-.34-.08-.47.74-.79.74-.11.47-.73.82-.93,1.24,0-.06.08-.12,0-.15-.09.18-.22.45-.35.44-.16.46-1.47.69-2,.4.16-.91.66-1.18.83-2,.1,0,.1-.06.15-.1a3,3,0,0,1,1.29-2.12,3.23,3.23,0,0,0,.49-.39c.06-.09,0-.4.2-.3.05-.18-.17-.1-.2-.2.16,0,.15.08.25.1.16-.41.31-.41.19-.64.11,0,.14-.09.15-.1.21-.25.82-2.07.1-2.81-1.59-.51-2.41.6-3.41,1.38-.35.27-.78.56-.93.69-.45.35-.94.86-1.44.44.48-.84.86-2,1.54-2.51a1.42,1.42,0,0,0,.54-.7c-.06,0-.14,0-.15-.05.4.12.41-.51.49-.49-.11,0,.07-.41.2-.44.06.13-.17.3-.05.19s.25-.34.15-.44c0,.08,0,.17-.1.15.13-.27.12-.37.35-.55.31-.85,1-2.85-.5-3.16-1.35.06-1.93.91-2.66,1.58-.3.28-.67.5-.79,1A2,2,0,0,1,251,166c.35-.57.9-.94,1.09-1.67,0,0,0,.14,0,.14a13.37,13.37,0,0,0,.79-1.55s0,0,0,0a3.71,3.71,0,0,0,.54-2,2.58,2.58,0,0,0-.25-2.67,1.53,1.53,0,0,0-1.63.35c-.54.65-1.14,1.39-1.63,1.88-.11-.1-.11.13,0,.09-.43.11-.58.77-1.18.45.16-.24.4-.53.39-.79,0,0,0,.1,0,.1.12-.49.49-.88.64-1.34.07-.18,0-.58.25-.54a.52.52,0,0,1,.05-.35s0,.13,0,.1-.12-.32.05-.14c-.17-.44.24-.06,0-.5.18,0,.09-.21,0-.25.23,0,.11-.59,0-.74.26,0,.18-.44.34-.79-.21-.29,0-.88-.39-1.13a.6.6,0,0,0-.49-.64c-.69-.1-1.14.65-1.49.93a8.2,8.2,0,0,0-.84.79s.1,0,.1.05c-.22.08-.31.08-.24.25-.6,0-.38-1.2-.35-1.48,0,0,0,.13,0,.1.14-.29-.13-.75.1-.64a1.24,1.24,0,0,0-.05-.45c.05,0,.06,0,.1,0-.07-.64.05-1.3-.35-1.68.24,0,0-.17,0-.29-.12,0-.15.09-.19,0,.07,0,.12,0,.14-.05-.17-.11-.34-.63-.54-.4,0-.13.08-.1,0-.19a1.75,1.75,0,0,0-1.73,1c-.05,0-.4,0-.49-.1s0-.53-.1-.29c.08-.08.18-.59,0-.35.15-.24-.18-.57-.3-.79a1.05,1.05,0,0,0-1.13-.69,1.43,1.43,0,0,0-1,.69c0-.08.07-.13,0-.15s-.15.21-.25.3c0-.27,0-.14-.15-.1-.06-.16,0-.69-.14-.49,0-.16.14-.22,0-.35-.11.07.06.12,0,.15.1-.49-.27-.73-.6-1.09,0,0,.1,0,.1-.05-.33-.39-1.07-.33-1.38-.74-.17-.22-.14-.53-.3-.84-.27.08-.1-.46-.29-.24,0-.13-.05-.34-.1-.15a2,2,0,0,0-1.33-.94c-.29-.33-.5-.89-1-1.14,0-.07,0-.18-.05-.19-.39-.19-.57-.57-1-.79a.82.82,0,0,0-.59-.6c0-.23-.25-.27-.3-.49-1.51-.86-2.17-2-3.65-2.81-.08-.17-.23-.27-.3-.45-.13,0-.1-.08-.19,0,.08-.1,0-.06,0-.2-.83-.36-1-1.07-1.93-1.33-.14-.28-.47-.6-.79-.54.1-.18-.59-.52-.59-.3-.09-.09-.09,0-.05-.2-.18,0-.76-.06-.5.1-.13,0-.1-.09-.19-.1-.35.44-.09,1-.25,1.44a7.38,7.38,0,0,0,1.68,2.51,19.77,19.77,0,0,0,1.09,1.93,8.45,8.45,0,0,1,1.38,2.17,16.22,16.22,0,0,1,2.32,3.06c.65.43,1,1.56,1.73,2.08.44.31,1,.37,1.18.84a3.92,3.92,0,0,1,.05.59,2.22,2.22,0,0,0,1.88,1.68c-.09,0,0,.06,0,.15-.2.14-.5.14-.6.34s.06.14.05.15-.09-.07-.14,0-.12.46-.1.4a2.54,2.54,0,0,0-.15,1.43c.31.78,1.93.85,3,.69,0,0,0-.1,0-.1.28,0,.41-.08.69-.05.19-.22.73-.07.84.1s.09.17.05.35a1.89,1.89,0,0,0-2.32.83c-.1.27.18.41,0,.55,0-.11,0-.19-.1-.2-.44,1.19.73,1.85,1.83,2-.61.18-.76,1-1,1.38a2,2,0,0,0,.3,1.23,4.47,4.47,0,0,0,2.12.94c1.65.15,3.79-.39,5.19,0a2.12,2.12,0,0,0-.35.44c-1.43.56-5.14-.17-4.89,1.88-.06,0,0-.09-.1-.1a1,1,0,0,0,.05,1.19,4.73,4.73,0,0,0,3.36,1.43c1.36.1,3-.07,4.39.05.21.18-.08.52.1.49-1.62.44-3.93.13-5.63.84-.17.16-.22.44-.49.5-.16.28-.11.77-.4.93-.07,1.75,2.15,2.51,3.51,2.67,2.2.25,4.21-.4,6,0,.13,1.59-2.24,1-3.66,1a17.53,17.53,0,0,0-2.37.34c-.91.13-1.71.7-1.53,1.58,0-.17-.09,0-.15-.14,0,.2-.22.65-.1.88.65,1.18,2.66,2,4.55,2.18,2.2.22,3.77.39,5.72.54,0,.09.2,0,.15.2-2.12,1.2-5.69,1.17-8,2-.83.07-.85,1-1.23,1.48a1.77,1.77,0,0,0,.34,1.24,7.49,7.49,0,0,0,4.3,1.48c2.59.15,5.38-.53,7.75-.2-.12.2.06,0,.1.1-.4.27-.39.41-.74.69a15.67,15.67,0,0,1-2.91.25l-.5,0a17.26,17.26,0,0,0-6.17.39A2.26,2.26,0,0,0,247,189c-.5.24-.06,1.39.49,1.82a12.76,12.76,0,0,0,2.87,1.24,13.51,13.51,0,0,0,4.84.79c2.62-.08,4.55-.56,6.76.1-.14,0,0,.07,0,.19a3.21,3.21,0,0,1-1.63.74,8.86,8.86,0,0,0-1.23.4c-.95.26-1.58.31-2.47.64-1.5.55-3.45.57-4.45,1.43a6.45,6.45,0,0,0-1,1.83c.4,2.76,5.38,2,7.35,1.38,1.39-.11,2.46-.35,3.86-.34,1.18,0,3.72-.25,4.24.69-.45.21-.71.68-1,.94s-.69.24-1.33.39c-.45.11-.84.32-1.28.45a9.39,9.39,0,0,0-2.57.69c-.7,0-1.36.37-2,.44s-1.43.59-2.18.74a9.62,9.62,0,0,0-2,.69,1.93,1.93,0,0,0-1.33,1.68c-.12,0-.33.57-.3.69.25,1.19,1.52,1.73,3.31,1.78a16.45,16.45,0,0,0,3.7-.44,16.48,16.48,0,0,0,5.53-1,8.87,8.87,0,0,1,2.52-.54c1.73-.14,3.77-.51,4.25,1.33.14.05.16.15.24.15-.33.33-.92.45-1.23.79,0,0-.1.36-.15.39s-.09-.06-.1-.05.06.14,0,.15-.09-.06-.1-.05a5,5,0,0,1-.44.55c-.4.28-1,.41-1.43.74s-.53.64-1,.74c-.07,0,0,.19-.1.19a8.72,8.72,0,0,0-2.17,1.19c-1.76,1.05-4,1.59-5.39,3.06.09.26-.25.41-.19.79-.14-.13-.2.59-.2.64.1,1.21,2,1.51,3.11,1.48a8.67,8.67,0,0,0,1.38-.19,18.58,18.58,0,0,0,4.2-1.53,12,12,0,0,1,1.68-.84,11.69,11.69,0,0,0,1.88-.84,6.74,6.74,0,0,1,2.22-.69,15.61,15.61,0,0,1,1.73-.35c1.62-.11,1.67,1.06,2.56,1.78,0,.24.24.15.15.44.09,0,.21-.14.25,0a11,11,0,0,0-2.42,2.22.69.69,0,0,0-.59.3c-.21-.17-.94.43-.74.2-.15,0-.22.19-.35.24s0-.1.05-.09c-.24,0-.95.35-1.53.49-.23.05-.24.12-.35.15a10.75,10.75,0,0,1-1.08.15c-.05.14-.08.12-.1.19a6.53,6.53,0,0,0-2.37.4c-.55.13-1.11.24-1.58.39a4.63,4.63,0,0,0-1.09.74c-.19.15-.24.33-.39.5.08-.09-.14-.06,0,.1-.12-.1-.06,0-.15,0-.06.58-.06,1.35.44,1.63-.14,0,.15,0,.05.19,2.16,1.24,5.81,1.19,8.59.25a12.32,12.32,0,0,0,2.42-.94,5.11,5.11,0,0,1,.79-.44,14.9,14.9,0,0,1,2.23-.15c.75-.16,1.29-.83,2-.64.23.06.35.28.64.49.55.39,1.54,1.11,1.58,1.09-.1.14.72.86.94,1.1a.85.85,0,0,0-.1.33s-4.22,1.52-5,1.93c-.09-.2-.16.19-.17-.06-.13.05,0,.13-.1.19-.27-.2-.47.14-.64.22.16-.07-.52,0-.52.2.05-.2-.37,0-.07,0l-1.94.44s.29-.08.2,0c-.26,0-.45-.15-.47.1-.13,0-.22,0-.16-.13-.26,0-.18.14-.39.22-.19-.29-.49.15-.7,0-.08,0,0,.11-.06.16-.57,0-1.15.09-1.64.1-.14.3-.61,0-.64.29,0,0,0-.15-.09-.12.12.13,0,.21-.13.15s.12-.07.09-.12c-.32.14-.56.22-.8.33a2,2,0,0,0-1.28,2.1c.23.41.34.42.54.82a3.59,3.59,0,0,0,2,.67s-.08.06-.05.1a4.43,4.43,0,0,0,1.37,0c.46.38,1-.09,1.35.18.08-.05.06-.11.13-.16.32.3,1,0,1,0s1.24.12,1.41-.23c.2.15.57-.08.72-.28.12.23,2.08-.31,3.15-.48a19.6,19.6,0,0,0,3.17-.9c.59-.44,1.19-.76,1.34-1.39a.79.79,0,0,0,.35-.19c-.13-.09.14-.18.14-.3-.08,0-.21-.1-.09-.1s.16-.22.29-.34c.32,0,.38,0,.69-.05.18.13.29.34.6.34,0,.17.7.54.49.69.11,0,.55.3.54.6,0,0,0-.06.1,0,.3,1.39,1.58,2.47,1.14,4.49,0,0-.06,0-.1,0a40.24,40.24,0,0,0-.69,5.38c-.1,0-.1.07-.15.1-.13.59-.12,1.47-.25,2s-.1,1.41-.2,1.72c.05-.15-.26.58-.05.7-.24,0-.18.51-.09.39-.17.15,0,.27-.05.35s-.17.41-.2.59c-.41,2.3-.29,5.6-.64,7.46-.05,0-.06,0-.1-.05a6.18,6.18,0,0,1-.05,1.23s0-.1.05-.1a37.52,37.52,0,0,0-.23,4l1.62,1.75q0-.69.09-1.35c.1-1.31.31-2.35.39-3.56a22.29,22.29,0,0,0-.19-2.42,29.69,29.69,0,0,1,0-4.9,1.37,1.37,0,0,1,0-.34c0,.11,0,.23,0,.34a.17.17,0,0,0,.06.11c.1-.23,0-.55.14-.49,0-.14-.09-.1-.09-.2.26-.14.07-.39.09-.59.11-.8.34-1.75.5-2.72.18-1.12.38-2.26.49-3.21.1,0,.05-.18.15-.19a30.72,30.72,0,0,1,1-4.69c0,.07,0,.17.1.14.37-.72,1.39-.78,2-1.13a9.87,9.87,0,0,1,2.57-.3c.42.27-.64,1.1-.69,1.73-.07,0-.05-.09-.1-.1.13.13,0,.65-.2.45,0,.25,0,.49-.2.59,0,.09.07.1.1.15a1.24,1.24,0,0,0,.4,1.53,6.92,6.92,0,0,1,1.82.39,6.59,6.59,0,0,0,1,3.26c0-.06,0-.14.05-.15.07,1.66,1.45,2,2.12,3.06.44.08.63.4.84.7h.2c0,.15.21.15.2.34.92.49,2.15,1.43,3.46.74.68-.85.42-1.8.14-2.86-.09,0-.09.06-.14.1-.07-.13.14-.21,0-.25-.3-.18-.41-1-.75-1.28,0,.08.08.12,0,.14a11.42,11.42,0,0,0-.74-1.16v0s0-.06-.05-.1l.05.07c0-.2-.16,0-.19-.17.19,0,0-.25-.05-.05a1.27,1.27,0,0,0-.3-.44c0-.15.15-.44-.05-.5,0,0,0,.1-.05.1a.49.49,0,0,1-.05-.29c-.09,0-.1.06-.15.09a.7.7,0,0,0,.05-.34c-.09,0-.09.07-.14.1-.06-.19.06-.49-.1-.3,0-.09,0-.11,0-.2s-.13.08-.15,0c-.27-.58-.3-1.41-.54-2a.08.08,0,0,1-.1,0c0-.48-.73-.7-.6-1,0,.1.27-.11.35-.2s-.12,0-.1-.05.14,0,.15,0a1.46,1.46,0,0,0,.15-.24c.11-.17.3-.46.34-.45s.16-.33.25-.34c-.12-1-.86-1.41-1.58-1.83.93-.07,3-.9,3.85.15.47,1.44,2.27,1.55,2.77,3,.79,1,1.32,2.17,2.46,2.77,1.18,1.14,2.75,1.89,4,3a3.59,3.59,0,0,0,2.52.1,2,2,0,0,0,.6-2.27c-.26-.15-.13-.43-.3-.6,0,0,0,.1-.05.1-.13-.51-.52-.76-.64-1.28-.78-.59-1-1.21-1.73-1.83.05,0,.08.07.1,0a.36.36,0,0,1-.3-.34c-.52-.4-1.5-1-1.63-1.53-.22,0-.71-.65-.79-.45-.09-.27-.19.07-.29-.15.17,0,.08-.31.24-.15-.05-.33,0-.57-.14-.83,0,.07,0,.18-.05.19,0-.16,0-.3.09-.34-.05-.16-.14,0-.14-.15.27-.4-.35-1.07-.55-1.58a5.12,5.12,0,0,1,1.53-.2,2.45,2.45,0,0,1,1.24,1.58c.44.53,1.13.81,1.43,1.48,1.52,1.31,3,2.68,4.49,4a4.85,4.85,0,0,0,4.2,1.58,2,2,0,0,1,.64-.34c.16-.2.38-.28.35-.65s0-.28-.05-.69c0,.06,0,.14-.05.15-.08-.29,0-.31,0-.49-.13.08-.32-.79-.54-1.06v0s0,0-.06-.08l.06.06c0-.2-.27-.09,0-.23-.57-.22-.48-.68-.94-.93.19,0,0-.22,0-.25s0,.14-.05.15a4.51,4.51,0,0,0-.74-1c-.1-.14,0-.26-.15-.1a7.44,7.44,0,0,0-.64-.84s0,.1-.05.1c0-.16,0-.1.05-.2-.25.08-.33-.48-.64-.69-.05,0-.16,0-.2,0s-.13-.33-.05-.24c-.11-.12-.26-.08-.35-.25s-.32-.6-.39-.4c-.06-.2-.13-.6-.2-.29a3.24,3.24,0,0,0-.59-.94c.09-.22-.13-.82-.3-.79.08.09.24.35.15.44,0-.24-.31-.51-.2-.74,0,.08.1.22.1.1s-.08-.37,0-.39a1,1,0,0,1,1.09.69,15.61,15.61,0,0,1,2.66,3.11,7.33,7.33,0,0,0,.7,1,8,8,0,0,0,4.49,2.66,2.33,2.33,0,0,0,1.58-.34v-.2c.63-.09.67-1.35.54-2-.12.1-.15-.32-.1-.34s0,.14.1.15c.07-.16.1,0,.25-.1.62.37,2.19,1.2,3,.49-.09,0-.11,0-.1-.15.16,0,.21-.08.4-.05a4,4,0,0,0,.15-2.12c-.08,0-.26.06-.25,0,.45-.08-.06-.63.05-.84.37.13.64.68,1.13.94,0,.06-.06.07-.05.15a8.51,8.51,0,0,0,3,1.83c.35.11,1.41.33,1.48-.25,0,.12-.19,0-.2,0,.26,0,.36-.1.54-.15.74-1-.06-2.35-.44-3.26.08.05.18.34.3.2-.27-.11.15-.05.24,0,.37.2.88,1.34,1.14,1.68.19.09.41.15.44.39.61.41,2,.67,2.52.05-.06-.15-.12,0-.2-.1,1.07-.43.87-1.74.55-2.61a1.84,1.84,0,0,1-.4-1.14c0,.21.15.24.2.4,0-.08,0-.19.05-.2s.38.16.59.3a2.08,2.08,0,0,0,.69.83,4.41,4.41,0,0,0,1.29,1.09c.79.35,2.23.82,2.86.05-.06,0-.12,0-.1-.1.51.1.5-.86.79-1.18-.26-.25,0-.55-.15-.69.14.13.05-.08.15-.1.82.34,2.76.62,3.16-.15,0,.05-.07.08,0,.1a1.34,1.34,0,0,0,.25-1.48c.06,0,.1.07.1,0s-.23,0-.15-.15c.2.17,0-.22.1-.2.48.11,1.87.62,2.42,0,0-.1-.14.07-.15-.1.26,0,.31-.15.49-.2.1-.27,0-.66.3-.88s1,0,1.43-.1a9.41,9.41,0,0,0,1.48-.65,7,7,0,0,0,2.42-1c.21,0,.32-.14.55-.15.06-.2.26-.26.49-.3.07-.25-.06-.25,0-.39a1.77,1.77,0,0,0,1.13-.74c-.05,0-.14,0-.14-.05.17,0,.56-.2.44-.3.07,0,.18,0,.2-.05.81-1.29,2.12-2.17,3-3.4,0,.07-.08.08-.1.14.75-.82,2.29.73,3.11-.19-.12,0-.22.07-.29-.05,1.14-.13.54-1.49.89-2.08.73.38,1.75,1.21,2.76.69,0-.06-.19,0-.2-.09.22,0,.29-.14.5-.15.12-.37.13-1,.29-1.14a7.26,7.26,0,0,0,2.62.2c.48,0,1,.13,1.43.15,2.59.08,5.14-.79,7.85-.74,0,0,0-.1.05-.1s0,.11.05.1c1.58-.49,3.85-.32,5.19-1.19a.86.86,0,0,1-.45,0,1.64,1.64,0,0,0,1.43-1.33s-.05,0-.05-.1a14.63,14.63,0,0,0-2.32-.44c-.17-.05-.32-.2-.49-.25-.44-.13-.93-.05-1.38-.15-.11,0-.2-.17-.3-.2s-.48,0-.74-.05a21.8,21.8,0,0,0-3.7-.79,5.24,5.24,0,0,1-1.53-.05c-.12,0-.06.15-.15.15v-.19a22.32,22.32,0,0,0-2.87-.1c-.85.13-1.23.87-1.58.49a6.28,6.28,0,0,0-.05-1.93c-.11,0-.26,0-.24-.29-1.15-.43-1.87.53-2.47,1.18,0,0-.05,0-.1,0a2.89,2.89,0,0,0-.49.79c-.31,0-.23.33-.35.5-.5-.39.21-1.23,0-1.78,0,.06,0,.14-.05.15.09-1.51-1.18-1.95-2-1.29,0,0,0,.12,0,.15s-.41.2-.35.45c-.19-.09-.26.31-.29.54a1.55,1.55,0,0,0-.55,1.73.3.3,0,0,1-.15-.05c0,.38-.45.4-.69.59-.3-.52.26-.74.4-1.09,0,0,0-.5.15-.49-.08-.1-.05-.55.05-.39.06-.2-.12-.71,0-.55,0-.48-.13-.91-.19-1.38-.24-.06-.17-.21-.4-.44a4.25,4.25,0,0,0-2.37.83c-.15.4-.24.38-.54.25.1-.17,0,0,0-.1.22-.22-.12-.8-.05-1a3.08,3.08,0,0,1-.44-.35,4,4,0,0,0-3.81,1.68c-.42.5-1.36,1.23-2,1.83-.19.17-.37.35-.59.29.17,0,.09-.11.24-.15-.12-.09-.16.13-.34,0a1.26,1.26,0,0,1,.44-1.18c-.27-.1-.27.32-.44.15.39-.25.83-.81.74-1.24a6.38,6.38,0,0,0,1.18-2.71c0-.07-.08-.05-.09-.1-.18-2.22-2.69-.49-3.31.25,0-.06.07-.08,0-.1a3.35,3.35,0,0,1-.84.93c.05.16-.06.22-.2.3a2,2,0,0,0-.69.4c-.12.12-.17.31-.3.44-.43.44-.94.79-1.28,1.14.05-.21-.16-.11-.25-.3.11-.22.11-.62.2-.79-.12.13-.23.53-.4.44a7.21,7.21,0,0,0,1.34-4.29s0,.06.05.05c-.08-.18-.21-.19-.3-.45-2.05-.33-3.16,1-4,2.23.06-.24.21-.42.15-.55-.12.15,0,0-.1,0,0,.24-.12.23-.39,0,0-.31.12-.24,0-.49-.14.11-.11.38-.25.49a5.65,5.65,0,0,0,.64-2.12c-.22-.11-.09-.53-.3-.74a2.7,2.7,0,0,0-2.91.89c-1.35.55-2.15,1.8-3.06,2.71-.7.71-1.73,1.17-2.17,1.83.11-.2.25-.34.24-.44-.06.08-.28,0-.1.19-.08-.05-.26-.08-.14-.19-.1,0-.11,0-.2,0,0-.2,0-.31-.05-.45,0,.06,0,.12-.1.1a.15.15,0,0,1,.25-.1c0-.48.19.05.1-.34a1.83,1.83,0,0,0,.79-1.19.37.37,0,0,0,.29-.49c-.17-.07-.18.27-.24.14a12.38,12.38,0,0,1,1-1.33c.24-.88,1.19-1.58,1-2.37.31-.18-.09-.43,0-1-.25,0-.23-.36-.39-.49H346.1c-.31.33-1.08.43-1.19.74-.06,0-.06-.06-.14-.05-.3.56-1,.67-1.39,1.09,0,0,.12,0,.1.05-.56.09-.68.84-1,1,0,.08.15.2,0,.24s0-.14,0-.15c-.28.28-.35.65-.55.89,0,0-.09,0-.15,0s-.08.27-.14.35-.09-.06-.1,0-.24.36-.4.49-.92.51-.84.79a2.54,2.54,0,0,0-.71.66s0,0,0,0c-.35.21-.73.83-1.28.7-.37-.09-.36-.48-.43-.78,0,0,0,0,0,0-.16-.35.1-.7-.05-.93.15-.2.54-.22.25-.45.34.15.2-.34.44-.29a1.49,1.49,0,0,1,.4-.79,3,3,0,0,0,.3-.4c.23-.34.5-.23.24-.49.16-.05.07.16.2.15.1-.42.6-.83.49-.89.21-.08.15-.57.45-.55.05-.15-.08-.12-.1-.19a.25.25,0,0,1,.2.05c.11-.39.52-.66.49-1,.09.23.17-.25.2-.3s.15,0,.15,0A8.41,8.41,0,0,0,342,199a3.49,3.49,0,0,0,.15-1.93c-.27,0-.14,0-.1-.15a.3.3,0,0,0-.15.05l-.15-.29a1.79,1.79,0,0,0-1.82.44c-.77.43-1.79.58-2.23,1.38-.36,0-.66.51-.94.63,0,0,.06-.07,0-.08-.24.24-.7.94-.84.79-.15.31-.66.42-.6.79-.41.17-.62.78-.9,1,0,0,0-.07,0-.07s.05.22,0,.29,0-.09-.05-.1c-.1.53-.77,1-.6,1.09-.18.1,0,.1-.24.15-.42,1-1.33,1.28-1.58,2.22-.35,0-.35.52-.69.69a1.58,1.58,0,0,1-1.43-.15c0-.15,0-.55.14-.54-.14-.11,0-.2.05-.2-.12-.25,0-.77-.19-.93H330c.17-.51.52-.93.64-1.39.3.07.58-.7.55-1,.07,0,.08.05.15,0-.07-.3.29-.89.34-.79.07-.16.23-.3.05-.3,0-.1.08-.11.15-.05,0-.16,0-.1.05-.2s-.1,0-.1-.05.11,0,.2-.1-.15-.27,0-.34c0,.35.16-.25,0-.35.38-.07.46-1.34.19-1.77a.18.18,0,0,1,.15.05c0-.49-.15-.7-.2-1.19-.07,0-.18,0-.19-.05-.27-1.53-2-.5-2.32-.2.08.13-.1.4-.2.5,0-.13.2-.25.05-.35-.16.69-.84,1.09-.74,1.88a1.22,1.22,0,0,0-1,.84c0-.2.11-.26.15-.4a.5.5,0,0,0-.25.54c-.16-.1-.29.33-.44.25.13.05-.05.17-.05.25s-.1-.08-.2,0c.05.33-.55.57-.44.74-.32.4-.77.89-.74,1.23-.07,0-.05-.08-.1-.09s0,.24-.05.29-.14,0-.15,0,.09.11.1.2c-.2-.06-.41.49-.4.64-.09-.1-.38.21-.29.29h0s0-.09.05-.09a.41.41,0,0,0-.05.09h0a3.1,3.1,0,0,0-.55,1.14c0-.08-.06-.13-.1-.05s-.09.8-.29.65a.12.12,0,0,0,0,.19,1.79,1.79,0,0,1-.94.15c-.07-.11,0-.27-.15-.1-.09-.55-.41-1.52.1-2.07,0,0,.05.11.05.1.07-.19.06-.27-.05-.3.12,0,.06-.14.15-.15s-.14.16.05.15c0-.23-.05-.31.1-.44a.12.12,0,0,0,.1.14c.2-.27.31-1.13.39-.69.1-.12-.06-.31.1-.19-.13-.14,0-.29,0-.4,0,.06.05,0,.1,0,0,.12-.22.25,0,.25.13-.52,0-.46.39-.84-.12,0-.22-.16-.05-.2-.07.09,0,.11.1.1-.08-.11.22-.3,0-.35a5.48,5.48,0,0,0,.84-2.37c-.07-.28.09-1.22-.39-1.48,0-.06.08,0,.1-.1-.21-.1-.22-.13-.25-.39-.26,0-.4-.19-.64-.25-1-.24-1.53.32-2.08.64-.21.4-.3.92-.69,1.14v.44a7.46,7.46,0,0,0-2,2.77s-.08-.12-.1,0,.06.11.1.15c-.11-.07-.26.39-.2.49-.14-.08-.36.37-.25.54-.17-.17-.16.43-.29.15-.1.07.1.26-.1.3,0-.06.07-.08,0-.1-.13.29-.16.6-.5.79a.37.37,0,0,0,.05.2c-.42.17-.49.83-.79,1.18.1,0,0,.35-.09.2.17,1.06-2.13.84-2.77.49.21.08,0-.25.15-.24s0,.14.05.15c.05-.3.23-1.21.05-.89-.07-.15.17-.25.05-.3-.53-.64-.06-1.59-.1-2.47a4.6,4.6,0,0,1,0-1.92s0,.09.05.09c.08-.19-.13-.1-.15-.19s.05-.15.15-.15-.08.13,0,.15a8.25,8.25,0,0,1,.74-2.13c-.13-.06,0-.45.1-.29-.06-.31,0-1.09.14-.94.07-.21-.23-.33,0-.49,0,.41.12-.32,0-.35s0,.12-.1.1a1,1,0,0,0-.34-.86s.08.11,0,.12c-.06-.22-.25-.32-.3-.54-1.07-.39-1.79.57-2.37.83-.11.16,0,.26-.14.35,0-.06.07-.08,0-.1,0,.28-.38.33-.5.49s.06.14,0,.15-.09,0-.15,0c-.25.24-.23.59-.44.89,0,0-.1,0-.15,0a3.63,3.63,0,0,0-.59,1.29c-.17.56-.17,1.2-.35,1.72,0,0,0-.12-.05-.1-.2.31-.21,1.45-.44,1.44,0,.44-.21,1.17-.2,1.68-.14.11-.56.14-.59.69-.63.27-.32,2.34-.3,2.76a14.53,14.53,0,0,1-2.91.74,16.32,16.32,0,0,1-3.41.84c.29-.19.3-.92.3-1.23,0,.07,0,.18-.05.2a.37.37,0,0,1,.05-.2.61.61,0,0,0,.1-.5c.18.15,0-.13,0-.14.13-.63.46-1.42.69-2.13a19.69,19.69,0,0,1,1.43-3.6c.13-.38.64-1.29.89-2,.12-.31.63-1.19.79-1.53s.29-.88.44-1.13c0-.06.22-.06.25-.1a12.87,12.87,0,0,0,.59-1.33c.07,0,.07.06.15,0,.29-.36.37-.9.64-1.28.09-.12.26-.14.35-.25.26-.33.31-.77.54-1.08,0,0,.13,0,.15,0a5.93,5.93,0,0,0,.69-1.29s.13,0,.15,0,0-.14,0-.19.36-.38.49-.6.17-.31.25-.44,0,0,.15-.15a8.91,8.91,0,0,0,.39-.89c.16-.27.31-.34.35-.54.07,0,.08.08.15.1-.05-.22.1-.34-.05-.4a.3.3,0,0,0,.15-.39c.13,0,.1-.08.19,0a1.7,1.7,0,0,1,.4-.89c0,.09-.19.3-.1.34.32-.66.41-.95.74-1.58a1.07,1.07,0,0,1-.2.5c.26.13.09-.11.15-.2s.43-.27.35-.44c0,0,0,.09-.05.09.12-.4.45-.51.54-.78.25.08.45-.3.69-.35a4.81,4.81,0,0,0,.5,2.57c.55.46,1.33.33,1.87.69.28.19.45.68.79,1s.65.46.89.69c.58.55.94,1.15,1.78,1.43a2.58,2.58,0,0,0,1.33,1,.67.67,0,0,0,.59.29c.55.36,2.36.67,3.11,0-.12,0-.17.07-.24,0a1.16,1.16,0,0,1,.44-.05c.44-.48.21-1.72.2-2,0,.06,0,.14-.05.15-.19-.51-.27-1.57-.69-1.53-.05-.1.15-.17,0-.2-.41-.29-.52-.86-.94-1.24,0,0,0,.12-.05.1-.23-.15-.33-.55-.59-.79,0,0-.16,0-.2,0-.24-.15-.36-.49-.69-.54,0-.15-.05-.18-.05-.3-.15,0-.18,0-.3,0-.05-.48-.53-.59-.74-.79-.47-.44-.37-1.27-.59-1.72-.05.13.08.33,0,.34,0-.43-.29-.67-.39-1a4.17,4.17,0,0,1,1.28-.24c.81.5,1,1.6,1.63,2.27.26.26.65.33.89.64.05.07,0,.18.1.25.43.46,1,.84,1.38,1.28.15.16.23.42.39.59.46.51,1.33.8,1.83,1.29.26.25.79.67,1.14.54-.12.19.27.15.54.25.94.35,2.48.74,3.16-.2-.21-.18,0,0,.05,0s.3-.31.34-.4a2.24,2.24,0,0,0-.09-1.67.18.18,0,0,0-.15.05c.13-.17-.06-.34-.15-.45,0,.12.17.21.05.25-.11-.48-.55-.68-.79-1,0,0,.1,0,.1,0,0-.3-.63-.52-.84-1,0,.09.07.13,0,.15-.13-.41-.46-.42-.54-.79-.27,0,.14.15-.05.2a1.15,1.15,0,0,0-.74-.64c0-.07.05-.09,0-.15-.41,0-.29-.47-.7-.45.12-.06-.1-.27-.14-.2l0,0h0c-.28-.27-.84-.48-1-.69.36-.59.24-1.63.84-1.87a3.91,3.91,0,0,1,.94,1c-.06.23.18.18.15.39a20.88,20.88,0,0,1,3.55,4.94.92.92,0,0,1,.3.15c.12.11.19.32.34.44a5.28,5.28,0,0,0,3.06,1.23,2.14,2.14,0,0,0,1.39-.49c-.22-.11.15-.1,0-.35.84-.42.67-1.89.14-2.56-.12.09-.12-.29-.14-.35s0,.1-.05.1c-.07-.19,0-.15.05-.2-.49-.28-.49-.82-.73-1.09l0,.06s-.05-.05-.06-.09l-.08-.06s.07,0,.08.06l0,0a3.86,3.86,0,0,1-.66-1.13,5,5,0,0,1-1.18-1.43c-.42-.13-.49-1-.45-1.78,1.19-.22,1.86,1.33,2.28,2.08.13.23.17.52.29.74.25.41.66.66.84,1.08s.2.68.35,1c1,1.25,2.16,2.78,4.49,2.37.1-.22.53-.36.49-.54a.2.2,0,0,1-.14.14c.15-.23-.36.09-.4,0a1.11,1.11,0,0,0,.79-1.68c.08-.12,0-.31,0-.45a6.09,6.09,0,0,0-.89-2.12c0-.07.09-.05.1-.1a8.12,8.12,0,0,1-.84-1s0,.1,0,.1c.1-.2,0-.31-.05-.15-.06-.14-.06-.45-.15-.29,0,0-.14-.18-.06-.23-.15-.2-.26-.49-.43-.51.07-.18-.19-.69,0-.89,0,.06,0,.14.05.15a.52.52,0,0,1,.69-.35,11.49,11.49,0,0,1,1.33,1.28,2.9,2.9,0,0,1,.65,1.14c1.05,1.19,1.73,3.42,3.8,3.65a2.41,2.41,0,0,0,2.07-.59c-.22-.05,0-.07,0-.1-.25-.19-.35.26-.69.15a3.42,3.42,0,0,0,.84-.59c0,.13-.14.19-.2.29.21,0,.17-.23.35-.24s-.22.17-.05.24c.11-.2.14-.1.15,0,0-.1.21,0,.29-.05.93.51,2.32,1.45,3.46.84-.06-.08-.3,0-.3-.14,1.27.07.59-1.32,1.09-1.78,1.09.11,1.26,1.27,2.07,1.58a1.4,1.4,0,0,0,1.58-.3c-.28-.08-.24.12-.44-.05,1.67-.1.7-2.23.89-3,0-.06-.09,0-.1-.1s.13-.32,0-.39,0-.37-.1-.55c.13,0,.15-.14.3-.14.95.34.93,1.19,1.58,2.07.14.2.32.31.44.49.5.78,1.2,1.84,2,1.24,0,0-.06,0-.05-.1h.29a4.53,4.53,0,0,0,.84-1.58,10.61,10.61,0,0,0,0-2c.11,0,.28.1.5.1a9.07,9.07,0,0,1,1.13,1.53c.8,1.06,3.34,2.09,4.3,1.39-.2,0-.4.13-.5,0a1.07,1.07,0,0,0,.94-1.58c-.1-.24-.49-.72-.44-1-.18.24,0-.16-.25,0-.1-.46-.15-.28-.34-.74.06.12.24-.05.24,0s.31.34.3.64c.26,0-.14-.2,0-.25,0,.31.29.37.49.55a3.68,3.68,0,0,0,1.78,1c.74.11,1.65,0,1.83-.49-.09,0-.25.14-.3,0,1.4-.43.19-1.75,0-2.72.05,0,.06,0,.1-.05a13.14,13.14,0,0,0,2.47,1.14c.59.09,1.57,0,1.53-.41,0,.06-.23.07-.35,0a2.91,2.91,0,0,0,.94-.55,2.87,2.87,0,0,0-.69-2.22c.51.11,2.11,1,3,.25-.07,0-.25.06-.25-.05.49-.15,1.12-.47,1.14-1a1.56,1.56,0,0,0-.36-.85s0,0,0,0c-.14-.25-.25-.23-.15-.54a2.77,2.77,0,0,0,2.12-.55c.07.22.13-.07.35,0,2.16-1.14,4.68-1.39,7.35-1.92a26,26,0,0,1,4.05-.25,18.26,18.26,0,0,0,3.06-.24c.19-.08.79-.17.94-.45-.12,0-.19.08-.2-.1C400.67,169.34,401.09,169.22,401.1,168.9ZM333,150.28c-.16-.08-.16-.32-.39-.34C332.67,149.76,333,150.13,333,150.28Zm-6.76,1.24c.18,0,.19.11.34.1-.06.14-.17-.09-.29-.05.05.05.33.27.34.05.05.21.49.4.55.44.3.21.56.44.94.74-.57-.29-1.26-.85-1.93-1.2C326.23,151.6,326.25,151.58,326.25,151.52Zm-3.85-24.44s.13,0,.15-.1-.23.09-.05.2c.08-.05.08-.19.19-.2a4.88,4.88,0,0,1,2.08,1.23,1.47,1.47,0,0,0-1.53.1,2.63,2.63,0,0,0-1-.49C322.38,127.66,322.35,127.36,322.4,127.08ZM295,42c-.38.44-1.3-.13-1.58-.25C293.81,41.71,294.45,41.88,295,42Zm-1.23,4.89a13.2,13.2,0,0,1,3.46.64C296.12,48,294.94,47,293.81,46.84Zm6.12,20.79c-.68-.2-1.51-1-2.47-.69,0,0,0,0,0,0s.06,0,.1,0a3.31,3.31,0,0,0-1.68-.84c-.85-.91-2.4-1.12-3-2.27.69.16,1.34.56,2.12.79s1.71.12,2.28.54c1.24.3,2.26,1.21,3.55,1.53a6.77,6.77,0,0,1,1.78.49C301.36,67,301,67.94,299.93,67.63Zm-7.8,61.18c0,.07-.15,0-.15.09s.17-.06.15.15c-.16-.06-.57.29-.59.2-.33-.08,0-.05.24-.15a.19.19,0,0,0-.19-.2,9.52,9.52,0,0,0,0-1.38c-.11,0,0,.18-.05.25s.1-.65-.05-.89c.24-.14.37-.38.64-.49C293.29,126.78,291.93,128,292.13,128.81Zm19.16,11.25c-.07,0-.08-.08-.15-.1s.06.11.05.2c-.06-.13-.39.24-.15.25-.12,0-.3.07-.2.29-.16-.06-.36.09-.24.15-.33.29-.9.5-1.34.89-.28-.14-.33.22-.54.3,0-.07.09-.08.1-.15-.23,0-.38.28-.45.35-.26-.26.1-.67.3-.94a2,2,0,0,0,.45-.69c.33,0,.56-.71.84-.74v-.2c.61-.29.64-1.17,1.57-1.14A2.25,2.25,0,0,1,311.29,140.06Zm5.38-4.54c-.14-.19.09-.21.05-.39a.46.46,0,0,0-.15.49c-.18,0-.15-.27-.05-.35a.18.18,0,0,1-.15,0,4,4,0,0,0-.29-1c0-.07-.1,0-.15,0-.24-.24-.25-1.21-.44-1-.07-.09,0-.28-.05-.45-.05,0-.06.12-.15.1-.14-.26-.28-.71-.6-.64-.27-.68-1.85-.76-2,.1-.16-.29-.22.3-.3.49a2.28,2.28,0,0,0-.19,1.29c.21.94.47,1.38.1,1.92,0,.06.23.09,0,.1-.05,0-.05,0-.05.05a4.34,4.34,0,0,1-.3-.94c-.06,0,0,.09-.05.15s-.16-.36,0-.29c-.33-.42-.21-1.28-.49-1.73.18.34.05-.26.05-.45-.06,0-.05.09-.05.15,0-.27-.15-.37-.05-.64a9.64,9.64,0,0,0-.89-1.88c-.08-.1-.13,0-.2-.15s-.23-.51-.49-.44c-.61-.73-1.75.14-2.13.69,0,.07,0,.14.05.15s-.2,0-.15.3c0,0-.08,0-.09-.1-.15.26-.68.34-.74.39a7.78,7.78,0,0,1-.45-1.43c-.4-.92-1.18-1.68-2.12-1-.09.07-.1.22-.3.25,0,.06,0,.09.05.1-.27.36-.61.52-.69,1.13-.53.12-.39,1-.79,1.09,0,.07.12,0,.2.05a2.82,2.82,0,0,0-.74,1.78c-.08-.07-.19-.08-.15.1-.28-.05-.24-.42-.45-.55,0,0,.1,0,.1-.1s-.11-.18-.1-.34c-.16.59-.11-.55-.19-.79.19.21.09-1.13,0-1.48,0,0,0,.06.05.1a1.23,1.23,0,0,0-.05-.79c0-.29-.1-.27-.1-.6-.46-.79-.55-1.39-1.38-1.72a2,2,0,0,0-1.63,1.43c-.07-.07-.19-.07-.2.05s.05,0,.05-.05,0,.26-.15.15c0,.08,0,.09.1.09a2,2,0,0,0-.84,1.68h-.25c0-.76-.18-2.29-.24-3.35.46-.89,1.41-1.29,2-2.08a.28.28,0,0,0,.2,0,2,2,0,0,0,1.92,1.53,2.73,2.73,0,0,0,2-1.43c-.18.17,0,0,0-.15s0,.06,0,.1,0-.16.15-.15c-.19,0-.15-.1,0-.2.06.29.41-.82.65-.79,0-.16,0-.3.14-.19-.06-.24.32-.35.6-.4a10.37,10.37,0,0,0,.15,2.22c.36.9,2,1.26,2.56.4.14.12.29-.13.4-.35.32-.11.58-.27.89-.39s.87.46,1.33.59a2.35,2.35,0,0,0,2.47-.74c.21.07.1-.19.3-.15-.1-.16.19-.53.34-.44,0-.11-.14-.16-.05-.25s.06,0,0,.08c.49-.37.34-.75.77-1.12-.05-.16,0,.14-.15,0,.26-.18.33-.64.89-.64,1.31,2.18,1.29,5.24,2,8.05.05,0,0,.18.14.15-.07,0,0,.28,0,.34h0a12.71,12.71,0,0,1,.3,1.73c0,.28.27.7.05.64.07.13.18.34,0,.35,0,.06.09,0,.15.05A5.69,5.69,0,0,1,316.67,135.52Zm-61.79,7.74c-.46.11-1.14.34-1.38.13a16.07,16.07,0,0,1,1.75-.5c.07-.09.17.29.16.08C255.58,143.23,254.83,143.42,254.88,143.26Zm113.49,74.32c-.07.15-.34.09-.55.1,0-.07,0-.19,0-.19C368,217.45,368.14,217.65,368.37,217.58ZM352.81,214h-.24c0,.17.25,0,.34.15s-.09.26-.19.15.14,0,.14-.1-.21,0-.29-.05-.06-.11-.05-.2C352.7,214,352.78,213.7,352.81,214Zm-.79,5.78c.46,0,1-.2,1-.45,0-.1-.17,0-.25-.05.59-.12.82-1,.84-1.53,0-.13-.27.05-.19-.15h.19V217c-.08.19-.13,0-.19-.15s.08,0,.14,0-.11-.08-.19-.1c-.16-.24.24-.25,0-.49.15-.12.3.19.29.4.05,0,0-.06.05-.1.32.23.26.75.5,1.13a8.55,8.55,0,0,0,1,1.19s0,.08,0,.1c.65.7,2,1.44,2.87.74,0,0,0,0,.05.05s-.09-.14.14-.1c-.13-.11-.22-.07-.39-.05a1.27,1.27,0,0,0,.74-.59.25.25,0,0,0,0-.07c-.05-.05.05-.16,0,0l0,0s.29-.36.25-.3c.79,0,1.21,1,2.22,1.14.27,0,.86.13,1.13-.15,0,0,0-.13,0-.15s.31.09.2-.2a.23.23,0,0,0,.15,0c-.17-.09,0-.13.1,0s-.06-.09,0-.1c-.23-.12-.28.35-.64.25.4-.09.57-.49.83-.64-.13-.05,0-.16,0-.25.17.22,0-.06.19,0,0-.09-.06-.1-.05-.2.08.07.11.16.1-.05.25,0,.36.07.55.1.06.19.14.61.29.55-.05.16.13.38-.2.34v.25c-.45.07-.61.44-1.08.49a11.81,11.81,0,0,0-2.18,1.29,4.74,4.74,0,0,0-2.71,1.18c-.87-.07-1.73.11-2.37.1-.06,0,0,.05,0,.05-.23.1-.39-.11-.69,0,0-.07,0-.14-.05-.15.18.1.33-.83.05-.74.29-.16-.1-.45.1-.59,0-.06-.05,0-.05,0-.13-.12-.16-.34-.3-.45a.74.74,0,0,0-.3-.64c-1.18-.08-1.61.8-2.07,1.29.06-.2-.35-.23-.2-.65-.09,0,0,.17-.1.2C352,220.75,351.84,220,352,219.76Zm-.88-11.21h0a5.85,5.85,0,0,1,.54-.45,1,1,0,0,1-.54.45H351A.05.05,0,0,1,351.14,208.55Zm-3.95,8.34c0-.61-.2-1.68-.3-2.42,0-.11-.08.06-.15-.05.18-.12,0-.53-.1-.74a.34.34,0,0,0,.2,0c.49,0,1.06,1.12,1.09,2a17.75,17.75,0,0,0,2.66,3.5c.11-.1.14,0,.3,0-.06.11-.17,0-.25.05a2.18,2.18,0,0,0-1.13.84,9.41,9.41,0,0,0-1.29,1.24c-.19.29-.17.63-.44.84-.09-.19.17-.14.15-.4-.3.1-.27.53-.6.5-.18,0-.08-.22-.34-.25.1-.12.07-.45.2-.84-.28.06,0,.18-.4.15.7-.49.92-2.13-.2-2.32C347.63,218.53,347.19,217.69,347.19,216.89Zm-5.58-.19c.09,0,.25.13.34-.1.11.14.38.11.54.19a6.32,6.32,0,0,0,2.42,2.62c-.36.19-.41.67-.89.74,0,0,.05.09.1.1-.44.21-.48.66-1.13.69a.3.3,0,0,0,.05-.15c-.3,0-.16.37-.4.4a3.52,3.52,0,0,0-.05-2.67c-.26-.37-1.09-.35-1.53-.15A2.69,2.69,0,0,0,341.61,216.7Zm-6.57-6c0,.14-.06.3-.05.45,0,.41.34.74.44,1.18s0,1,.3,1.24c.38,1.06.52,2.56,1.38,3.35a13.63,13.63,0,0,0,.94,1.73,10.85,10.85,0,0,0,1.38.89c0,.18-.1.19-.1.35-.14-.07.09-.17.05-.3-.25.34-.42.66-.64.94,0,0-.06-.08-.05-.1-.15,0,.05.1,0,.2-.22,0,0,.08-.15.24s-.06-.09-.05-.1-.13.43-.29.65-.18.07-.2.1.11.25-.1.14c.05.18,0,.12.05.3a.63.63,0,0,0-.3.59,3.49,3.49,0,0,0-.5.59v0c-.06.32-.66.48-.68,1a0,0,0,0,1,0-.06,1,1,0,0,0-.36.75c-.07-.17-.29.06-.39.15-.07-.09-.14-.11-.2-.05s-.4-.68-.1-.94c0,0-.09,0-.14,0,.28-.28.19-.79.39-1.23,0,0,.13,0,.15,0a.26.26,0,0,1-.1-.3c.07-.06.08,0,.15,0-.09-.26.3-.52.15-.93a4.65,4.65,0,0,0,.29-2.92c-.31-.65-.75-.87-1.82-.59.11-1.18-.13-2.14.05-3-.05-2.13-1.05-3.5-1-5.24C334.09,208.71,334.94,209.72,335,210.67Zm-4.1,9.19c.43-.09.76.41.84.34-.08.68-.78,1.16-.69,2.17-.21-.07,0,.26-.15.25.17,0-.11.35-.15.54.42-.77.1.3-.29.35a.68.68,0,0,0-.15.39c-.1.09-.1,0-.2,0s.05,0,.05,0a1.12,1.12,0,0,1-.15.55c-.14,0,.07-.13,0-.25a9.81,9.81,0,0,0-.49,1.23c-.15-.06-.37,0-.35-.39a.14.14,0,0,0-.1.15,3.42,3.42,0,0,1-.14-.84c.1.2.14-.07.14-.25-.05.06-.12,0-.05,0s0-.05-.05-.05.08.08.15.05a8.08,8.08,0,0,1,.64-1.73c.16.05-.05.14,0,.2.31-.13.19-.17.34-.39,0,0-.16-.15-.15,0s0-.05,0-.05V222c.05,0,.05.11.15.1,0-.38.37-.78.25-1,.19,0,.19-.54.15-.54A2.65,2.65,0,0,1,330.94,219.86Zm-7.7,3.5c.65-1.08.55-3.41.79-4.84.58-.24,1.85,0,2.07-.69a.23.23,0,0,1-.15,0c0-.09.09-.11.2-.1.12-.21.3-.79.44-1.08,0,0,.08.06.1.05a.12.12,0,0,0-.1-.15c.07-.15.23,0,.05-.2.05-.07.17-.06.2-.15-.19-.09,0-.18.05-.3s-.11,0-.1-.14,0,.05.1.05c-.17-.79.09-.89-.15-1.68a.3.3,0,0,1-.15,0c.2-.11.08-.51-.09-.55.1-.14.08-.2.05-.39-.12.15-.09-.11-.16-.3a.34.34,0,0,1,0-.1.3.3,0,0,1,0,.1c.07.07.1-.15-.09-.15.08,0,.13-.13.1-.29-.07,0,0,.12,0,.2-.14-.19.07-.46,0-.75-.11,0,0,.21-.05.3s0-.38,0-.54c-.07.25-.17,0-.05-.1a1.77,1.77,0,0,1-.25-1.24c-.13,0-.16-.49-.24-.74-.05,0,0,.06-.05.1s-.08-.22.05-.15c-.05-.08-.14-.12-.1-.29a.3.3,0,0,1-.15,0c0-.11.09-.07.1-.15s-.08.06-.15-.05a2.13,2.13,0,0,1,.44-1.38c.08-.06.28,0,.25-.15,1.15-.28,1.17.83,1.48,1.73.25.7.79,1,.94,1.48a33.18,33.18,0,0,0,1.78,7c.06.18.26.41,0,.64-.34-.11-.13-.3-.35-.49-.71-.62-1.9.28-2.67,1-.28.27-.39.59-.69.69a1.12,1.12,0,0,1-.54.69c.15.08-.15.22,0,.29-.14-.05-.14.31-.25.45s-.09,0-.19.15-.06.37-.15.54-.18.09-.2.15c-.15.37-.07.84-.39.89,0,0,0,.09.09.1-.34.19-.4,1.33-.84,1.43.1.09,0,.18,0,.29s0-.06,0-.09c-.43.55-.31,1.36-.75,1.87,0,.1.11.13.1.25s-.12.1-.24.1,0-.19-.05-.2,0,.17-.05.25A5.71,5.71,0,0,1,323.24,223.36ZM315.19,226c.11,0,0,.21,0,.24.14-.06.11-.31.15-.49-.07,0,0,.12,0,.2s0-.4.1-.25c0-.32.22-.66.1-.94,0-.07,0,0,.09,0s-.13-.36.05-.24c0-.08,0-.19-.05-.2.31-.29.05-1.44.55-1.78-.1-.54.1-.25-.05-.59.05,0,0,.1.1.1s0-.25.09-.4c-.2.24,0-.4.1-.24,0-.11,0-.16-.14-.15a4.93,4.93,0,0,0,.39-2.42c-.07-.35-.48-.62-.35-1,.13.11.54-.1.5-.15,1.42-.52.74-3.62.59-5.23,0-.08-.09,0-.1-.05s0-.23-.1-.49h.15c0-.12-.17-.1-.15-.25.09.07.12,0,.1-.1s0-.13-.15-.15c.16-.15-.07-.15.1-.2,0-.07-.15,0-.1-.19.32.17-.15-.45.1-.45a3.91,3.91,0,0,1-.39-2.07c0,.14.08,0,.09-.08a0,0,0,0,0,0,0c.39-.82.08-1.72,1.33-1.58.62.07.94.72,1.23,1.48.22.55.56,1.15.79,1.73s.41,1.5.7,2.27c0,.09.16.16.19.25.14.38,0,.85.15,1.23s.57,1,.64,1.43c.2-.12-.05.08.15.05-.28.1-.5.26-.79.35-.07,0,0,.12-.05.2-.63.16-.79,1.05-1.18,1.28.11.12,0,.28-.15.3.07.1,0,.39,0,.09a2.61,2.61,0,0,0-.25.7c-.16-.16-.16.39-.34.59,0,.08.11,0,.1-.05.17.09-.09.23-.15.1a.33.33,0,0,1,0,.24c-.17-.26,0,.39-.2.2-.12,1.13-.68,2.59-.84,3.66.21.25-.75,2.48-.89,3.65-.05.45,0,1.15-.25,1.18.13.78-.72.86-1.43,1-.2-.14.07-.76-.24-.79,0,0,0-.09.09-.1s-.2-.33-.09-.44A1.45,1.45,0,0,1,315.19,226Zm-15-59.8c-.26-.16.3-.34.25-.44s0,0,0,0,.1-.17.25-.15a5.86,5.86,0,0,1,1.53-1.78c.71-.6,1-1.13,2-1.23.51.42,0,1.36-.25,1.63s-.33.09-.44.2-.28.54-.3.29a5.43,5.43,0,0,1-1.93.94c-.27.2-.49.38-.84.3,0,0,0,.11-.14.09s0,.07,0,.15-.13.08-.3.15a.23.23,0,0,0-.1-.2C300,166.07,300.11,166.24,300.18,166.23Zm-16.44-9.48c0-.13.22-.19.14-.2.64-.35,1.32-1.19,2.28-1.23,0,.13.1.13.19.15-.73.29-1.26.78-2,1,0-.11.09-.08.1-.15-.17,0-.19.14-.2.29-.27,0-.32.14-.44.25s0-.22-.15-.2C283.67,156.62,283.75,156.67,283.74,156.75Zm-22-15.12c-.76.74-1.19,1.91-2.07,2.08a4.05,4.05,0,0,0,.35-1.93c.33-.35.23-.45.27-.74l0,0c0-.18,0-.2.13-.29s-.23-.25.11-.4c0-.26.05-.56,0-1a2.21,2.21,0,0,0-.11-.46,6.21,6.21,0,0,1,1,.76,1.24,1.24,0,0,0,.65,1.64Zm.52,6.12c.42-.44.22-.85.33-1.36,0,0,.07.1.09.07a14.71,14.71,0,0,0,1.35-2.2,10.17,10.17,0,0,0,2.27.1c0-.06,0-.12.1-.1a9.27,9.27,0,0,0-1,1,5.69,5.69,0,0,0-1,.54C263.57,146.43,263.25,147.58,262.22,147.75Zm4.07,2.62c-.41.74-1.24,2-2,1.82.08,0,.07-.09,0-.11a14.89,14.89,0,0,0,2.55-4.3,6.85,6.85,0,0,0,2.08-.16,1.82,1.82,0,0,1,1-.35c.13,0,.27-.19.44-.05a5.83,5.83,0,0,0-1.67,1.07l-.08-.07C267.18,148.27,266.82,149.42,266.29,150.37Zm1.23,6.92c.47-.59.4-1.46.75-2.15s1-1.22,1-1.93c0,0,.06,0,.11,0-.13-.36.27-1,.21-1.47-.11-.07-.09.15-.2,0s.1-.1.22-.12.13-.24,0-.22c0,.06,0,.15-.06.09s.12-.23-.08-.35h0a8.05,8.05,0,0,0,4.76-.81c0,.16.12.1.14.2s-.29.09-.09.2c-.08,0-.19,0-.2.05a8,8,0,0,1-1.29.84,2.3,2.3,0,0,0-2.13,1.34,15.66,15.66,0,0,0-1.52,3.08c-.06.11,0,.34-.12.51A1.61,1.61,0,0,1,267.52,157.29Zm4.24,10.17a3.8,3.8,0,0,1-.46,0c-.29,0-.59.22-.88.26-.63.07-1.3-.25-1.74,0a2.42,2.42,0,0,0-1.58-.1c.1-.24.7-.34,1.2-.48s.72-.3,1.07-.42a14.37,14.37,0,0,1,3.63-.45C273.1,166.73,272.57,167.29,271.76,167.46Zm3-9.62c-.48,1.1-1,2.39-1.31,3.32,0,0,0,0,0,0a3.85,3.85,0,0,0-.22.52c0-.05,0-.1-.05-.09-.16.34-.86.71-1.18.53.27-.63.26-1.48.5-2.18a.21.21,0,0,0-.1.11c0-.16.05-.32.12-.18a11.89,11.89,0,0,1,.54-1.59s.1,0,.11,0c.12-.3.08-.65.17-.94a7.08,7.08,0,0,0,.31-1.18,3.47,3.47,0,0,1,.14-.47c.07-.19-.05-.42,0-.57-.06,0-.11,0-.14,0,.23,0,.17,0,0-.1a6.44,6.44,0,0,0,1,0c2-.14,3.57-1.39,5.23-1.67-.18.12,0,.25-.19.39,0-.11.14-.16-.05-.15a2.57,2.57,0,0,1-.94.94c0,.12-.09.15,0,.25-.1-.08-.06,0-.2,0-.09.45-.44.65-.64,1-.07-.13.19-.16.05-.2-.09.13-.29.41-.1.39-.27.19-.36.28-.41.39l0,0C276.54,155.5,274.88,157.12,274.79,157.84Zm1.39,41.67c-.72.88-1,2-1.88,2.67,0,.22-.08.38-.24.44.05,0-.18.43-.2.45-.3.22-.76.18-1.09.44s-.4.67-.69.84c-.49,0-.35-.23-.49-.39a1.71,1.71,0,0,1-.3-1.39c0,.07,0,.36,0,.2,0-1.05.88-2.38.84-3.31.23.07.05-.39.25-.44,0,.06-.09.11,0,.15.06-.24.23-.36.29-.6-.08,0-.12.08-.14,0,.13-.09.15-.3.34-.34,0-.12-.09-.11-.05-.25.4-.39.45-1,.74-1.48,0-.15.48-.83.4-1a11.75,11.75,0,0,0,1.08-2.66c0-.07-.08,0-.09-.1.22.08.27-.22.16-.32s0,0-.07,0a.15.15,0,0,1,.07,0s0,0,.13,0a12,12,0,0,0,.5-5.63c0,.06,0,.14-.05.15-.14-.9-.78-1.37-1.58-1s-1.08,1.58-1.48,2c.13.36-.26.63-.35.94-.11-.07.06-.12-.05-.15,0,.13.1.54-.25.79.07-.19.16-.32.1-.49-.12.28-.17.87-.39.88.19.68-.6,1.49-.84,2.32-.37.16-.32.74-.64.94-.06.55-.47.88-.65,1.43-.07,0-.08.06-.14,0,.09.16-.1.47-.1.25a1,1,0,0,1-.4.69c.09,0,.12.05.1.15s-.23.32-.39.45a4.23,4.23,0,0,1-1.78.69,1.39,1.39,0,0,1-.1-1.09c0,.07,0,.4.05.25s-.08-.26-.05-.45c.39-.15.1-.07.1-.39a.37.37,0,0,0,.25-.05c-.06-.18,0-.39.09-.2-.14-.29.15-.15-.05-.34.15,0,.3-.58.2-.79.21-.18.28-1,.55-1.34.13.13.76-1,.64-1.08a1.92,1.92,0,0,0,.44-.74,13.35,13.35,0,0,0,1.24-2.42s.16.15.14.05-.15-.17,0-.15.09.12.1.05.32-.58.1-.79a4,4,0,0,0,.5-1.34s-.1,0-.1,0c.34-.08.2-.65.44-.84-.19-.22.31-.8.05-.69a2.9,2.9,0,0,0,.2-1,1.27,1.27,0,0,1,0-.18.68.68,0,0,0,.38.23c.92,1,2.11.86,3.25,1.11.4.08.79.3,1.13.33a12.14,12.14,0,0,0,4-.66,14,14,0,0,0,2.44-.6s-.05-.08,0-.11c.5,0,.69-.29,1.25-.39s1.56-.19,2.24-.32,1.2-.15,1.63.4a5.12,5.12,0,0,1-1.65,1.52c.06-.21-.17,0-.23-.1-.61.28-1.09.08-1.73.43a10.72,10.72,0,0,0-4.53.56,1.78,1.78,0,0,0-1.43,2.12c.06,0,.11,0,.14,0s-.07,0-.11,0c.76,1.74,2.24,2,3.5,2.42,2.1.29,4.79-.41,7.15-.91,1.19-.24,3.13-1.24,3.84-.17.07.06.21-.12.27,0-.38.34-.77.41-1.13.72s-.39.82-.84,1.13a6.65,6.65,0,0,1-.78.43c-.39.23-.68.54-1,.79-.6.41-1.42.49-1.9,1.14-.12-.08-.32.09-.44,0s0,.06,0,.09c-.33,0-1.05.23-1.14.43-.09,0-.11-.06-.2-.05.1.27-.64.2-.74.54-.26-.2-.18.18-.55,0,0,.09-.06.1-.05.2a6,6,0,0,0-1.68.93,2.89,2.89,0,0,0-.53.49.5.5,0,0,1-.14-.1c.44-.23,0-1.5-.3-1.83-.35,0-.5-.23-.94-.15a3.35,3.35,0,0,0-1.13.79,4.19,4.19,0,0,0-.94.94,4.72,4.72,0,0,1-.15.45s-.14,0-.15,0c-.09.2,0,.47-.19.4-.14.48-.58.89-.7,1.23a.29.29,0,0,0-.14.05c-.41.32-.48.88-.74,1.29C276.52,199.28,276.3,199.37,276.18,199.51Zm32.34,7.75a10.85,10.85,0,0,1,1.44.15c.85.47,1.15,1.48,2.07,1.88a4.8,4.8,0,0,1-.22,2.68l0,0h0s0,0,0,0,0,0,0,0v0a.07.07,0,0,1,0-.06s0,.09-.1.09a.13.13,0,0,0,.15.1c-.21.14-.13-.07-.2-.14a6.58,6.58,0,0,0-.69-.55,1.31,1.31,0,0,1-.05-.15c-.17-.2-.52-.32-.69-.64.1.33-.32-.35-.24-.34a5.67,5.67,0,0,1-.7-1c.1.07-.16-.48-.05-.69-.07-.16-.2,0-.09-.25-.05,0,0,.06-.05.1s0-.32-.15-.44c-.12,0,.11.14.05.29C308.87,207.94,308.37,207.55,308.52,207.26Zm-6.22,1.83a1.89,1.89,0,0,1,1.14-.25v.4a.13.13,0,0,0-.2,0c0,.07.06,0,.15,0s0,.37-.15.3c0,.77-.56,1.87.05,2.66.35.47,1.42.13,2.17.45.59.24.38.91,1,1.08a2.57,2.57,0,0,0,.69.84,1.87,1.87,0,0,0,1,1.38,5.83,5.83,0,0,0,3.31,2.23,3.82,3.82,0,0,0,1.43,0,8.37,8.37,0,0,0,.84-.4c.24-.09.21-.23.44-.25-.15.18.17,0,.35.05-1.52.49-2.29,2.26-2.92,3.31,0,.13-.42,1.19-.19.35-.14,0-.6.63-.65,1,0,0,.1.06.1.05a13.69,13.69,0,0,0-.79,1.53c-.06.25.12.52-.05.79.15,0,.19.69.1,1-.21-.15-.35.12-.49.2a6.29,6.29,0,0,1-.44,3.95c0,.05.06,0,.09.05a3.63,3.63,0,0,1-2.81,1.23c.13-.23.16-.56.34-.74,0,0-.11,0-.09-.14.24-.31,0-1,.09-1.34,0,0-.06,0-.09-.05.23-.33.26-1.18.64-1.53-.24-.1.17-.37-.1-.44,0-.12.22,0,.15-.15.24,0-.14.15.05.25a7.38,7.38,0,0,0,.34-.69c-.15.07-.2.26-.29.39-.09-.24.24-.51.39-.54,0-.08-.06,0-.15,0,.07-.11.14-.39.25-.3a1.12,1.12,0,0,1,.39-1c-.06-.13-.28,0-.19.15-.22-.07,0-.22.05-.34.14.24.4-.21.29-.35s.2,0,.05-.1c.08-.1.14.06.2-.1s-.06,0-.15,0c.23-.18.28-.59.4-.74s-.07,0-.15,0,.09-.26.2-.15c0-.11-.09-.1-.05-.24-.16.14-.17.58-.45.44a.6.6,0,0,0,.35-.59c.14,0,.13-.07.25-.05s-.21-.09,0-.1c-.14-.2-.12.15-.25.1.14-.26.09-.57.39-.74,0-.12-.1.09-.14.1s.05-.64.24-.74c0-.09-.14-.13-.1-.3a2.09,2.09,0,0,0-.19-1.87c0-.1-.17,0-.2-.1-.16-.46-.93-.54-1.34-.5-1,.11-1.65,1.15-2.17,1.63-.8,1.36-2,2.35-2.32,4.15-.09.09-.09,0-.25,0,0,.09.17,0,.2.1s-.05.18-.1.25c-.07-.08,0-.16,0-.25-.31.14-.34,1-.24,1.08-.06.14-.13,0-.08-.07-.33.24.05.61-.22.57.21.16-.22.33,0,.69-.19-.29,0,.42-.25.39.1,0,.16.28,0,.15,0,.23,0,.39-.09.55.24.08-.16.22.14.19-.55.36-1.58.44-1.43,1.34a.18.18,0,0,0-.15,0c0,.13.1.17-.05.1-.4,1.06.21,1.81.5,2.71,0,.06.09,0,.15,0a6,6,0,0,1-2.42.59,16.42,16.42,0,0,0-2.08.7,14.22,14.22,0,0,1-2.37.39c-.31,0-.62.14-.74-.2.05,0,0,.06.05.1a13.8,13.8,0,0,1,.45-3.7c0-.08,0,0,.05,0,.31-1,.44-2.13.69-3.18h.14c-.22-.08.13-.13-.05-.25a11.45,11.45,0,0,0,.55-2.67c.05-.25.35-.57.24-.83a.14.14,0,0,0,.15-.1c-.12.13-.14-.12.05-.05-.05-.91.34-1,.25-1.83.35-.16.16-.86.54-1,.11-.92.68-1.91.74-2.61.21-.05.52-1.29.69-1.83.06,0,0,.09,0,.15.15-.06,0-.17,0-.3s0,.06.05.1a17.88,17.88,0,0,0,.74-2.07c.38-.41.43-1.14.84-1.63.18-.22.19-.8.3-1s.29-.17.15-.4c0,0,0,.06,0,.1.37-.24.48-.84.89-1.13A7.78,7.78,0,0,1,302.3,209.09Zm1.19-9.38c-.19-.17-.09.21-.1.25s-.14.07-.15.1a8.22,8.22,0,0,1-.54,1.28c-.27,1.28-.95,3.17-1.24,4.69-.31.15-.1.79-.44,1.28.19,0,0,0,.05.15s.15-.19.19-.05c-.44.35-.92.86-1.28,1.14a.93.93,0,0,0-.05.39c-.21,0-.39.26-.25.3-.36.14-.16.44-.44.49.06,0,.05.08.05.15-.17,0-.21.09-.3.15.12.09,0,.2-.05.05a.31.31,0,0,0,.05.2c-.21-.14-.47.6-.29.54-.14.05-.09.22-.2.05.05.36-.25.38-.2.74-.06,0-.07-.06-.15-.05-.09.84-.47,1.63-.59,2.37.17-.07.15-.4.2-.44s0,.58-.15.49a3.27,3.27,0,0,1-.39,1.23c0-.23.06-.25.09-.44-.23,0-.12.5-.29.4,0,.15.27.21.1.34,0-.11,0-.19-.1-.2s.09.17,0,.1c0,.17.2.06.15.25-.28.31-.3,1.24-.6,1.33.11,0,0,.29,0,.35-.07-.14.15-.27-.05-.25-.08.46-.2.5-.2.69s-.07.79-.4,1c.27,0,0,.17.15.35-.13,0-.1.08-.2,0a9.25,9.25,0,0,0-.54,2c-.17-.11,0,0-.05.1s-.17.17-.2.25.05.27,0,.39-.13.07-.14.1a4.54,4.54,0,0,0-.25.84,15.5,15.5,0,0,0-.35,1.78c-.28.07-.33.91-.44,1.43-.31,1.37-1.07,3.23-1.19,4-.16-.14-.13.23-.29.25,0,0,.21.13.1.14a26.85,26.85,0,0,1-3.61-3.8,1.72,1.72,0,0,0-.59-.54c-.55-1.21-2-2-2.22-3.66.69-.71,1.73-1,2.08-1.89a.1.1,0,0,0,.09.12c.73-.53,1.78-1,2.17-1.68a17.48,17.48,0,0,0,1.78-1.53c-.07-.19.27-.39.44-.5.06-.39.86-.78,1.19-1.33,0,0-.08,0-.05,0a2,2,0,0,1,.44-.39c.21-.16.43-.58.7-.79s.56-.89.88-1.24c0,0,.13,0,.15,0s.12-.26.2-.34a5.08,5.08,0,0,0,1.09-1.19h.14c0-.1-.06-.1-.09-.15.27,0,.34-.55.39-.69s.1.06.1.05a3.61,3.61,0,0,0,0-.79c0-.47.21-1-.2-1.53-.06-.83-1-.8-1.87-.79a3.31,3.31,0,0,0-1.93,1.48c-.62.66-1.5,1.07-2.12,1.73-.36.09-.5.39-.84.49a2.36,2.36,0,0,1-1.63,1.34c-.37.58-1.08,1-1.24,1.68-.07,0-.08-.06-.14,0-.28.66-1.12.76-1.34,1.48-.09,0-.11.05-.19.05a.21.21,0,0,0,0,.14c-.29.19-.1.27-.59.65-.16-.12-.4-.16-.54-.3-1.21-.18-1.17.63-1.48,1.28,0,0,0-.14,0-.14-.17.22-.26.52-.45.74-.1,0-.42,0-.24.09,0-.09,0,0,.06.09-.14,0-.25.08-.26-.13.07,0,0,.08.1.09-.48-1-1.71-1.3-1.38-2.56.17.05.24-.25.19-.25s-.12.27-.14.15.06-.23.14-.3-.11.14.1.1c.13-.3.39-.29.5-.79.1.07.12-.05.19-.05s-.2-.18-.1-.2.06,0,.1-.05,0,.14,0,.15-.07-.13,0-.24c.13.16,0-.36.3-.15.23-.56.25-1.29.54-1.43,0-.27.33-.37.25-.5.12-.16-.17.12-.15,0,.3-.13.47-.29.4-.59.36.06.1-.57.49-.44.07-.14-.05-.17-.05-.3s.1.07.2.05c.24-.48,1.07-1.4,1-1.73.28.08.06-.6.44-.59-.05,0,.06-.37.2-.35-.05,0-.06.09,0,.1.17-.39.06-.47.34-.69-.1-.4.73-1.05.55-1.33a15.76,15.76,0,0,0,1.28-2.57c-.06,0-.12,0-.1-.1.12.12.11-.06.2-.1s-.07-.1-.1-.15a3,3,0,0,0,.2-2.66c-.05-.09-.22-.07-.25-.2-.12-.47-.92-.6-1.43-.4a6.14,6.14,0,0,0-1.33,1.19,8.32,8.32,0,0,0-.89,1.53,1.28,1.28,0,0,0-.45.69s0-.06.05,0c-.25.08-.24.47-.39.64s-.09-.06-.1-.05.06.13.05.15-.2.08-.25.15-.15.46-.3.64-.24.1-.29.2a.58.58,0,0,0-.05.3c-.29,0-.31.5-.5.49,0,.39-.77,1-.87,1.41,0,0,0,0,0,0l0,.06a.06.06,0,0,0,0,0v0c-.37.52-.76,1.15-1.09,1.52a7.33,7.33,0,0,0-.83,1s0,0,0,0c-1.25.26-1.05,1.3-1.93,1.73a3.55,3.55,0,0,1-.89-1.29s0,.11,0,.1c0-.71-.16-1.91.39-2.22-.13-.07-.08-.52.05-.3-.12-.38.13,0,0-.39.05,0,.06,0,.1,0-.16-.4.34-.77.1-1.29.24,0,.23-.29.24-.54.18-.21.46-.56.4-.84.22-.15.4-.46.3-.59.09,0,.16,0,.19-.1-.29.1,0-.14.05-.1s-.06-.13,0-.15,0,.1.05.1a2.5,2.5,0,0,0,.15-.64c.17,0-.12.18.05.2,0-.24.26-.12.1-.3.22,0,.15-.27.34-.29-.15-.12-.14.09-.19,0a2,2,0,0,1,.64-.79c-.13-.07-.16,0-.2-.05s.08-.08.2,0c-.12-.16.12-.49.2-.3-.11-.24,0-.36.14-.3-.14-.28.35-1,.5-1-.07,0-.06-.11-.1-.15a3.47,3.47,0,0,0,.74-1.63,2.27,2.27,0,0,0,.59-1.38,1,1,0,0,0,.11-.15,1.14,1.14,0,0,0,.1.19c.58.82,1.58.82,2.62.81.24,0,.28.06.49.05a18.31,18.31,0,0,0,2.12-.28l.23,0a6.4,6.4,0,0,1,1.31,0c1.08.14,2.3-1.07,3.22-1.53,0,0-.09.05-.11,0a43,43,0,0,0,3.61-2.47c.72-.52,2-1.41,2.33-.77.06,0,.12-.07.16,0,.18.37.72.38,1,.87a.22.22,0,0,1,.22,0,4.68,4.68,0,0,0-1.11,1.17,1.59,1.59,0,0,1-.32.85c-1.08,1.37-3,2.46-4.25,3.88a5.68,5.68,0,0,0-.85,2,.58.58,0,0,0,0,.8c-.25.09.17.38-.14.46.42,1.31,2.31,1.21,3.16.65a8.12,8.12,0,0,0,3.55-2.78c.51-.43.95-1,1.5-1.38,1.05-.82,1.37-2,2.56-2.74a7.63,7.63,0,0,1,.95.2l-.05.07c.1.14.19,0,.25.15A19.09,19.09,0,0,0,303.49,199.71Zm10.91-21.53c0,.09.08.12,0,.2s0-.11,0-.1a21.86,21.86,0,0,1-1.23,3.41c.09,0,0,.16.09.2-.15,0-.1.29-.29.29.2,0,0,.37-.1.2-.05.09.15.16,0,.2,0-.08-.07-.14-.1-.05.12.45-.5,1.14-.49,1.63,0,0-.09-.07-.1,0-.46.6-.89,2.17-1.48,2.66-.08.56-.85,1.34-1,1.93-.1,0-.36.31-.2.34-.35.29-.49,1-.84,1.39,0,0,0-.1-.05-.1.14.26-.17.41-.29.59,0,0,.11,0,.1.05s-.19.09-.25.15-.22.54-.45.74c0,0-.2,0-.09.1,0-.06.08-.12.09-.05a3.84,3.84,0,0,0-.74,1.18c-.08-.14-.24.14-.14.15a.15.15,0,0,1,.09-.1,1.22,1.22,0,0,1-.24.4c-.06-.13.21-.18,0-.25a9.8,9.8,0,0,1-.65,1.09c0-.12.26-.24.1-.35a24.86,24.86,0,0,0-1.28,2.67h-.23c-.06-.1-.12-.18-.2-.16s.15-.1.05-.2c-.39.11-.79-.61-1.24-.73,0,.08.13.07.07.13-.21-.1-.28-.67-.53-.67,0,.06.08.12,0,.16-.32-.45-.93-.64-1.07-.94-.2.1-.11-.09-.24,0,0-.16,0-.17-.07,0-.05-.33-.59-.24-.93-.79a7.83,7.83,0,0,1,.6-1.68c-.14-.2-.11-.5.07-.49-.09-.09-.14-.15-.1-.28,0,0,.05.08.09.06a2.63,2.63,0,0,0-.21-1.12c.09-.32.41-.58.39-.94.07.15.25-.44.13-.47.06.07,0,.15-.06.09.17-.26.47-.76.24-.91.28-.18.26-.57.34-.81s.16-.16.19-.27c.08-.29,0-.63.24-.91-.16-.17-.06,0,0-.18s0-.1-.12-.22c.06,0,.09,0,.16,0-.1-.06,0-.22-.09-.22l0,.08s0,.11-.06.13a.49.49,0,0,0,.06-.13s0-.05,0-.07h0a2.24,2.24,0,0,0,0-.68c0-.29.11-.72.08-.88,0,0-.13,0-.13,0a2,2,0,0,1,0-.54,3.61,3.61,0,0,0-.41-1.17s0,.08,0,.11c-.09-.34-.5-.39-.7-.47a.36.36,0,0,1-.14-.15c-.64-.17-1.4.39-1.95,1.07a3.79,3.79,0,0,0-.81,2.63c-.2.28-.16.63-.41.9a11.18,11.18,0,0,1-1.51,3.85.23.23,0,0,0,.11-.11c.11.11-.32.24-.08.27,0,0,0-.07,0,0a.29.29,0,0,1-.19.16c-.07-.13-.15-.23-.25-.25s.1.15.05.19c-.16-.28-.43-.71-.54-.88.83-1.25,1.34-2.59,2.12-3.86.11,0,.22-.19.28-.31.13.11.06.23.2.17s-.13-.1.07-.09c-.09-.2-.15,0-.21-.06s.13,0,.25-.08c0-.33.07-.63,0-1-.4-.22-.62-.95-.26-1,.23-.42.24-1.14.43-1.58.12-.26.39-1.13.06-.82a.88.88,0,0,0,0-.86,8.81,8.81,0,0,0-3.14,1.25,15.37,15.37,0,0,0-1.31,1.11c-.62.62-.77,1.41-1.24,1.74-.12.09-.56.32-.93.57-.59.39-.87.26-1-.08-.12.18-.1-.29-.27-.3.08,0,.15-.52,0-.46a15.4,15.4,0,0,0,.93-1.91c.5-1.27,1.53-2.52,1.93-3.81a6.58,6.58,0,0,0,.55-2c-.07,0-.16.1-.2.05s.28,0,.26-.14c-.14,0,.05-.15,0-.22l-.2-.06c.28,0,0-.12.17-.21.12.08-.1.23,0,.2,0-.19.14-.62-.06-.53a2,2,0,0,1,.13-.58c0-.28-.24-.43,0-.84a3.61,3.61,0,0,1-.2-.67s.09.06.09.06c-.13-.39-.42-.69-.25-.88a1.91,1.91,0,0,0-1.16-.88c-.4.14-.75.08-1.07.3s-.53.85-.91,1.11c-.07.12.11.08,0,.16-.39.74-1.1,1.4-1.49,2.21-.13.27-.12.61-.26.87a17.28,17.28,0,0,1-1,1.74c-.09.05-.12-.09-.22,0s.15.09.05.19a15.25,15.25,0,0,0-1.69.81c-.36-.16-.1-.17-.38-.58.25-.6.57-1.19.76-1.81-.08-.13,0-.19-.06-.31.2-.1.16-.35.23-.52a15.91,15.91,0,0,0,1.11-2.4s0,.05,0,0a13.26,13.26,0,0,0,.46-1.54s-.09-.1-.08-.13c.19-.65.4-.85.2-1.4.37-.61-.05-1.54.16-2.28-.1-.22-.17-1.14-.5-1.25,0-.16.07-.28-.15-.37,0,0,.05.09,0,.11-.08-.14-.27-.16-.16-.3-.09.09-.28-.09-.21-.17s.05.08.1.06c-.27-.26-.75,0-.94-.16a5.46,5.46,0,0,0-2.09,2s.11,0,.11,0a7.54,7.54,0,0,0-1.33,2.52c.17-.06-.16.21,0,.16,0,0,0-.07,0,0a.24.24,0,0,1-.06.2s0-.1-.05-.08a6,6,0,0,1-.17.82c-.18-.34-.06.22-.07.27s-.13.07-.15.14,0,.21,0,.28a2.1,2.1,0,0,1-1.7,1.21c-.05-.08-.26-.41,0-.57a.68.68,0,0,1,.09-.67c.17-.34.06-.75.21-.85,0-.1-.2-.07-.09-.17.19.07.14-1,.12-1.13,0,0,.1,0,.08-.05.24-.92,1.18-1.81,1.07-3l.13-.07c0-.1-.21-.07-.09-.17.13.2,0-.1.17-.1a24.06,24.06,0,0,1-.08-2.93.58.58,0,0,1-.07-.64c-.14-.05-.22-.24,0-.15-.12-.29,0-.14-.19-.24.07-.1.12-.4-.08-.46,0,0,0,.07,0,0s0-.09.13-.07c-.12-.16,0-.29-.21-.28.19-.12-.1-.69-.2-.57-.05-.21,0-.09,0-.26s-.11-.05-.16-.08,0-.12-.05-.2c-.48-.41-.81-.74-1.52-.41-.92.43-1.54,2.26-1.72,3.24a5.14,5.14,0,0,1-.32.85c-.07.26-.13,1-.2,1.29s-.17.27,0,.33c-.21.58-.69,1.74-1.71,1.72,0-.17.1-.25-.05-.2,0-.18,0-.2.11-.12,0-.13-.09-.25.08-.15-.13-.34.35-.67.12-.91.32-.21.21-.66.25-1.09,0,0,.05.08.1.06s0-.33-.15-.26c0-.15.16,0,.2-.16.15-.93,1.11-2.09.95-3.11.09,0,.14-.6.13-.84a.11.11,0,0,1-.2,0s0,0,0-.06.09.1.15.08a2.26,2.26,0,0,0,.1-.45c-.24,0,0,.35-.19.28s.17-.32.25-.37c-.1,0-.27,0-.14-.15,0,.09,0,.14.12.11-.13-.11,0-.14,0-.22s-.12.1-.2,0,.33-.46,0-.4a5,5,0,0,0,.06-.54,3.62,3.62,0,0,0,1.3.09c.88-.09,2-.65,2.47-.35a.52.52,0,0,0,.1.49c-.07,1.91,2.18,1.94,3.85,1.78s2.58-1.66,4.2-1.88c.25-.26.75-.29,1.08-.49.25.09.35.13.4.25s-.12.35-.2.59c0,0,.1,0,.1,0s-.26.16-.2.1,0,.15-.05.2-.2,0-.25.09,0,.21-.05.25-.34.12-.44.2-.13.26-.3.39-.53.22-.59.55c0,0,0-.1-.05-.1-.09.21-.17.23-.29.49,0-.05,0-.06.05-.1-.52.26-.69.87-1,1.34,0,0,0-.1-.05-.1-1,2.38,1.35,2.85,3,2.37a10.31,10.31,0,0,0,3.7-2.13,1.36,1.36,0,0,1,.74-.69c.14-.29.86-.43,1.19-.69,0,.1.16,0,.15.15s-.05.22-.05.35c-.26.14-1.23.82-1.09,1-.12.07-.15,0-.2,0-.05.33-.65.61-1.08,1,0,0,0-.1,0-.1s0,.06,0,.2c-.47.1-.67.5-1,.84,0-.07.2-.15.05-.2a1.6,1.6,0,0,1-.34.44c-.08.1-.21.36-.15.2a2.05,2.05,0,0,0-.64,1.93c.55,1.92,4,.84,5.38.49.09.37-.16.63-.15,1,0,1.51,1.46,1.76,2.91,1.88a8.37,8.37,0,0,0,4.2-.89,5.54,5.54,0,0,1,1.68-1.14,4.67,4.67,0,0,1,.64-.69c.05,0,.15,0,.2,0,.36-.24.91-.72,1.48-1.09s1-.94,1.83-.64c.22.24,0,.65,0,.74a.23.23,0,0,1,.14-.15c-.19.12.07.2,0,.3,0-.17-.32.21-.25.3-.24,0-.2.22-.49.14-.51.7-1.51.9-2.23,1.39-1.33.44-2.76.86-3.21,1.68,0-.06-.08-.12-.1,0,0,.34-.24.73-.24,1.08,0,.54.44.75.64,1.19a4.78,4.78,0,0,0,2,.74A8.57,8.57,0,0,0,312,172.4c.06-.19.35-.27.35-.39.56-.5,1.5-.79,2.22-1.33.45-.35.8-1.06,1.33-1,0-.09-.07-.13,0-.15s.46.28.44.15c.19.2.34.91.05,1.14a35.79,35.79,0,0,1-1,4.09s0,.4-.2.35A15.76,15.76,0,0,1,314.4,178.18ZM351,180.7c-.11-.07,0-.14-.1-.2s0,.19.06.24c-.2-.06-.21-.36-.31-.53l-.25-.45a2.52,2.52,0,0,0-.29-.49c-.07-.07-.13,0-.2-.05a.75.75,0,0,0,0-.15c-.09-.11-.43-.4-.35-.64-.19,0-.17-.16-.29-.2.18-.28.05,0,.1-.34.08.06.29,0,.49,0a1.6,1.6,0,0,0,.89.69A3.38,3.38,0,0,1,351,180.7ZM260.26,141a.28.28,0,0,0,0,.09A.14.14,0,0,0,260.26,141Zm13.21,20.25v0S273.46,161.18,273.47,161.2Z"/></svg>