<svg xmlns="http://www.w3.org/2000/svg" xmlns:xlink="http://www.w3.org/1999/xlink" width="34.713" height="34.713" viewBox="0 0 34.713 34.713">
  <defs>
    <clipPath id="clip-path">
      <rect width="34.713" height="34.713" fill="none"/>
    </clipPath>
  </defs>
  <g id="Component_3_1" data-name="Component 3 – 1" clip-path="url(#clip-path)">
    <path id="Path_40" data-name="Path 40" d="M17.356,3.086a53.219,53.219,0,0,1,6.943.193,8.945,8.945,0,0,1,3.278.579,6.773,6.773,0,0,1,3.278,3.278,8.945,8.945,0,0,1,.579,3.278c0,1.736.193,2.314.193,6.943a53.218,53.218,0,0,1-.193,6.943,8.945,8.945,0,0,1-.579,3.278,6.773,6.773,0,0,1-3.278,3.278,8.945,8.945,0,0,1-3.278.579c-1.736,0-2.314.193-6.943.193a53.218,53.218,0,0,1-6.943-.193,8.945,8.945,0,0,1-3.278-.579,6.773,6.773,0,0,1-3.278-3.278A8.945,8.945,0,0,1,3.278,24.3c0-1.736-.193-2.314-.193-6.943a53.218,53.218,0,0,1,.193-6.943,8.945,8.945,0,0,1,.579-3.278,6.926,6.926,0,0,1,1.35-1.928,3.26,3.26,0,0,1,1.928-1.35,8.945,8.945,0,0,1,3.278-.579,53.218,53.218,0,0,1,6.943-.193m0-3.086a56.982,56.982,0,0,0-7.135.193A11.906,11.906,0,0,0,5.978.964,7.55,7.55,0,0,0,2.893,2.893,7.55,7.55,0,0,0,.964,5.978a8.787,8.787,0,0,0-.771,4.243A56.982,56.982,0,0,0,0,17.356a56.982,56.982,0,0,0,.193,7.135,11.906,11.906,0,0,0,.771,4.243A7.549,7.549,0,0,0,2.893,31.82a7.55,7.55,0,0,0,3.086,1.928,11.906,11.906,0,0,0,4.243.771,56.982,56.982,0,0,0,7.135.193,56.982,56.982,0,0,0,7.135-.193,11.906,11.906,0,0,0,4.243-.771,8.091,8.091,0,0,0,5.014-5.014,11.906,11.906,0,0,0,.771-4.243c0-1.928.193-2.507.193-7.135a56.982,56.982,0,0,0-.193-7.135,11.906,11.906,0,0,0-.771-4.243A7.55,7.55,0,0,0,31.82,2.893,7.549,7.549,0,0,0,28.735.964,11.906,11.906,0,0,0,24.492.193,56.982,56.982,0,0,0,17.356,0m0,8.485a8.728,8.728,0,0,0-8.871,8.871,8.871,8.871,0,1,0,8.871-8.871m0,14.657a5.682,5.682,0,0,1-5.785-5.785,5.682,5.682,0,0,1,5.785-5.785,5.682,5.682,0,0,1,5.785,5.785,5.682,5.682,0,0,1-5.785,5.785M26.613,5.978A2.121,2.121,0,1,0,28.735,8.1a2.14,2.14,0,0,0-2.121-2.121" fill="#fff" fill-rule="evenodd"/>
  </g>
</svg>
