<svg id="Layer_1" data-name="Layer 1" xmlns="http://www.w3.org/2000/svg" width="297mm" height="210mm" viewBox="0 0 841.89 595.28"><defs><style>.cls-1,.cls-2{fill:#061d41;}.cls-2{fill-rule:evenodd;}</style></defs><title>larsjonlogo</title><path class="cls-1" d="M303.68,394.08H315v1H304.85v10.47h9.23v1.06h-9.23v7h-1.17Z"/><path class="cls-1" d="M321.65,392.88h1.12v20.7h-1.12Z"/><path class="cls-1" d="M335.81,413.8a5.9,5.9,0,0,1-2.39-.48,6.53,6.53,0,0,1-1.94-1.32,6.12,6.12,0,0,1-1.3-1.94,5.82,5.82,0,0,1-.47-2.36,5.9,5.9,0,0,1,.47-2.37,6.08,6.08,0,0,1,1.3-1.93,6.15,6.15,0,0,1,1.94-1.31,6.07,6.07,0,0,1,2.39-.47,6.15,6.15,0,0,1,2.4.47,6.06,6.06,0,0,1,1.92,1.31,6,6,0,0,1,1.27,1.93,6.07,6.07,0,0,1,.46,2.37,6.14,6.14,0,0,1-1.73,4.3,6.44,6.44,0,0,1-1.92,1.32A6,6,0,0,1,335.81,413.8Zm0-1a4.93,4.93,0,0,0,2-.39,4.4,4.4,0,0,0,1.54-1.07,5,5,0,0,0,1-1.62,5.85,5.85,0,0,0,0-4,4.81,4.81,0,0,0-1-1.61,4.65,4.65,0,0,0-1.54-1.06,4.93,4.93,0,0,0-2-.39,5,5,0,0,0-2,.39,4.78,4.78,0,0,0-1.57,1.06,4.68,4.68,0,0,0-1,1.61,5.85,5.85,0,0,0,0,4,4.82,4.82,0,0,0,1,1.62,4.52,4.52,0,0,0,1.57,1.07A5,5,0,0,0,335.81,412.8Z"/><path class="cls-1" d="M347,401.88h1.21l3.09,8.43c.06.15.11.31.16.47s.09.32.13.47.1.34.14.49c0-.15.09-.32.15-.49a4.77,4.77,0,0,1,.13-.47,2.68,2.68,0,0,1,.18-.47l3.5-8.55h.26l3.55,8.52c.06.15.12.31.19.47a3.27,3.27,0,0,1,.16.47l.14.49a3.7,3.7,0,0,1,.11-.49c0-.15.09-.31.13-.47s.1-.32.16-.47l3.1-8.4h1.14l-4.53,11.92h-.28l-3.56-8.71-.17-.44c-.06-.17-.1-.32-.14-.45a1.83,1.83,0,0,1-.12-.46c0,.16-.07.31-.11.46l-.13.45a3.72,3.72,0,0,1-.16.44l-3.61,8.71h-.29Z"/><path class="cls-1" d="M371,408a5.64,5.64,0,0,0,.39,2,4.42,4.42,0,0,0,2.55,2.53,5.39,5.39,0,0,0,2,.36,5.32,5.32,0,0,0,2.45-.51A5.4,5.4,0,0,0,380,411l.74.66a5.67,5.67,0,0,1-2,1.57,7,7,0,0,1-5.36.13,5.67,5.67,0,0,1-3.18-3.24,6.16,6.16,0,0,1-.45-2.36,6.25,6.25,0,0,1,.45-2.37,6.08,6.08,0,0,1,3.11-3.25,5.42,5.42,0,0,1,2.32-.49,5.69,5.69,0,0,1,2.4.49,5.19,5.19,0,0,1,1.82,1.35,6.13,6.13,0,0,1,1.14,2,7.2,7.2,0,0,1,.38,2.48Zm9.26-.92a5.81,5.81,0,0,0-.37-1.7,4.26,4.26,0,0,0-.88-1.41,4.38,4.38,0,0,0-1.4-.95,5.19,5.19,0,0,0-3.72,0,4.23,4.23,0,0,0-1.41.93,4.85,4.85,0,0,0-1,1.41A5.88,5.88,0,0,0,371,407Z"/><path class="cls-1" d="M388.07,401.88h1.12l0,2.35a4.11,4.11,0,0,1,1.39-1.94,3.42,3.42,0,0,1,2-.64,3.54,3.54,0,0,1,2.12.58l-.55.91a2.26,2.26,0,0,0-.66-.34,3.1,3.1,0,0,0-1.06-.15,3,3,0,0,0-1.22.26,2.88,2.88,0,0,0-1,.79,4.26,4.26,0,0,0-.72,1.34,5.9,5.9,0,0,0-.27,1.87v6.67h-1.12Z"/><path class="cls-1" d="M414.19,413.8a5.94,5.94,0,0,1-1.68-.22,5,5,0,0,1-1.34-.64,4.09,4.09,0,0,1-1-.93,5.18,5.18,0,0,1-.67-1.13l1-.43a4.46,4.46,0,0,0,1.37,1.69,3.82,3.82,0,0,0,2.36.66,3.34,3.34,0,0,0,2.14-.62,2,2,0,0,0,.78-1.61,2.16,2.16,0,0,0-.21-1,1.94,1.94,0,0,0-.62-.69,4.23,4.23,0,0,0-1-.5l-1.4-.47a13,13,0,0,1-1.41-.46,4.41,4.41,0,0,1-1.15-.65,2.72,2.72,0,0,1-1.06-2.25,2.46,2.46,0,0,1,.28-1.17,2.9,2.9,0,0,1,.74-.93,3.44,3.44,0,0,1,1.1-.6,4.08,4.08,0,0,1,1.38-.22,3.92,3.92,0,0,1,2.27.62,5,5,0,0,1,1.46,1.62l-.86.51a3.89,3.89,0,0,0-1.15-1.24,2.89,2.89,0,0,0-1.72-.51,2.79,2.79,0,0,0-1.78.53,1.68,1.68,0,0,0-.66,1.36,2.17,2.17,0,0,0,.15.86,1.43,1.43,0,0,0,.5.61,3.66,3.66,0,0,0,.93.5,14.5,14.5,0,0,0,1.43.49,12.14,12.14,0,0,1,1.51.52,4.87,4.87,0,0,1,1.23.7,3.06,3.06,0,0,1,.85,1,2.8,2.8,0,0,1,.31,1.37,3,3,0,0,1-1,2.34A4.36,4.36,0,0,1,414.19,413.8Z"/><path class="cls-1" d="M427.87,413.8A2.59,2.59,0,0,1,426,413a3.46,3.46,0,0,1-.79-2.55v-7.66h-1.83v-.94h1.83v-6.11h1.12v6.11h3.38v.94h-3.38v7.63a3.07,3.07,0,0,0,.41,1.82,1.42,1.42,0,0,0,1.17.53,2.14,2.14,0,0,0,1.16-.26,3.64,3.64,0,0,0,.7-.6l.72.69a4.52,4.52,0,0,1-1,.83A3,3,0,0,1,427.87,413.8Z"/><path class="cls-1" d="M441.34,413.8a4.73,4.73,0,0,1-3.57-1.37,5.51,5.51,0,0,1-1.33-4v-6.56h1.11v6.5a5.22,5.22,0,0,0,.91,3.29,4.24,4.24,0,0,0,5.76,0,5.22,5.22,0,0,0,.9-3.29v-6.5h1.12v6.56a5.51,5.51,0,0,1-1.33,4A4.73,4.73,0,0,1,441.34,413.8Z"/><path class="cls-1" d="M458.68,413.8a5.56,5.56,0,0,1-2.32-.47,5.42,5.42,0,0,1-1.83-1.29,5.8,5.8,0,0,1-1.21-1.93,6.83,6.83,0,0,1-.43-2.41,6.73,6.73,0,0,1,.43-2.4,6,6,0,0,1,1.21-1.92,5.6,5.6,0,0,1,4.15-1.76,5.28,5.28,0,0,1,3.06.86,5.69,5.69,0,0,1,1.9,2.18V392.88h1.12v20.7h-1.12l.06-2.93a5.48,5.48,0,0,1-2,2.27A5.41,5.41,0,0,1,458.68,413.8Zm.15-1a5.05,5.05,0,0,0,2-.39,4.44,4.44,0,0,0,1.55-1.07,4.6,4.6,0,0,0,1-1.62,6,6,0,0,0,0-4,4.47,4.47,0,0,0-1-1.61,4.7,4.7,0,0,0-1.55-1.06,5.05,5.05,0,0,0-2-.39,4.81,4.81,0,0,0-2,.39,4.47,4.47,0,0,0-2.46,2.67,6.35,6.35,0,0,0,0,4,4.71,4.71,0,0,0,1,1.62,4.34,4.34,0,0,0,1.5,1.07A4.81,4.81,0,0,0,458.83,412.8Z"/><path class="cls-1" d="M473.05,397.78a1,1,0,0,1-.66-.26.88.88,0,0,1-.29-.69.9.9,0,0,1,.29-.67.93.93,0,0,1,.66-.27,1,1,0,0,1,.66.27.89.89,0,0,1,.28.67.88.88,0,0,1-.28.69A1,1,0,0,1,473.05,397.78Zm-.55,4.1h1.12v11.7H472.5Z"/><path class="cls-1" d="M486.46,413.8a5.9,5.9,0,0,1-2.39-.48,6.53,6.53,0,0,1-1.94-1.32,6.12,6.12,0,0,1-1.3-1.94,5.82,5.82,0,0,1-.47-2.36,5.9,5.9,0,0,1,.47-2.37,6.08,6.08,0,0,1,1.3-1.93,6.15,6.15,0,0,1,1.94-1.31,6.07,6.07,0,0,1,2.39-.47,6.15,6.15,0,0,1,2.4.47,6.06,6.06,0,0,1,1.92,1.31,6,6,0,0,1,1.27,1.93,6.07,6.07,0,0,1,.46,2.37,6.14,6.14,0,0,1-1.73,4.3,6.44,6.44,0,0,1-1.92,1.32A6,6,0,0,1,486.46,413.8Zm0-1a4.93,4.93,0,0,0,2-.39,4.4,4.4,0,0,0,1.54-1.07,5,5,0,0,0,1-1.62,5.85,5.85,0,0,0,0-4,4.81,4.81,0,0,0-1-1.61,4.65,4.65,0,0,0-1.54-1.06,4.93,4.93,0,0,0-2-.39,5,5,0,0,0-2,.39,4.78,4.78,0,0,0-1.57,1.06,4.54,4.54,0,0,0-1,1.61,5.85,5.85,0,0,0,0,4,4.67,4.67,0,0,0,1,1.62,4.52,4.52,0,0,0,1.57,1.07A5,5,0,0,0,486.46,412.8Z"/><path class="cls-1" d="M70.59,315.75H93.77v2.05H73v21.37H91.84v2.16H73v14.22h-2.4Z"/><path class="cls-1" d="M109,315.75h2.4V353.5h19.14v2.05H109Z"/><path class="cls-1" d="M159.85,356a21.18,21.18,0,0,1-7.93-1.49,19.71,19.71,0,0,1-6.46-4.16,19.5,19.5,0,0,1-4.37-6.41,22.25,22.25,0,0,1,0-16.62,19.36,19.36,0,0,1,10.83-10.56,21.71,21.71,0,0,1,15.86,0,19.73,19.73,0,0,1,6.47,4.15,19.42,19.42,0,0,1,4.36,6.41,22.25,22.25,0,0,1,0,16.62,19.32,19.32,0,0,1-4.36,6.41,19.76,19.76,0,0,1-6.47,4.16A21.14,21.14,0,0,1,159.85,356Zm0-2.16a18.33,18.33,0,0,0,7.17-1.38,17.09,17.09,0,0,0,9.45-9.57,20.17,20.17,0,0,0,0-14.51,17.09,17.09,0,0,0-9.45-9.57,19.29,19.29,0,0,0-14.33,0,17,17,0,0,0-9.45,9.57,20,20,0,0,0,0,14.51,17,17,0,0,0,9.45,9.57A18.31,18.31,0,0,0,159.85,353.86Z"/><path class="cls-1" d="M219.61,355.55H216.8l-8.33-11.41a21.83,21.83,0,0,1-5,.53h-5.64v10.88h-2.4v-39.8h8a19.64,19.64,0,0,1,7,1.14,14,14,0,0,1,5,3.11,12.3,12.3,0,0,1,2.92,4.59,16.25,16.25,0,0,1,1,5.68,15.15,15.15,0,0,1-2.11,7.93,12.49,12.49,0,0,1-6.43,5.24Zm-16.37-12.93a17.78,17.78,0,0,0,6.37-1,11.26,11.26,0,0,0,4.26-2.73,10.13,10.13,0,0,0,2.35-4,15.43,15.43,0,0,0,.7-4.69,15.72,15.72,0,0,0-.7-4.72,9.86,9.86,0,0,0-2.35-4,11.76,11.76,0,0,0-4.26-2.73,17.32,17.32,0,0,0-6.37-1h-5.4v24.82Z"/><path class="cls-1" d="M235.88,315.75h2.4v39.8h-2.4Z"/><path class="cls-1" d="M265.85,356a17.41,17.41,0,0,1-5-.65,13.41,13.41,0,0,1-3.81-1.79,12.66,12.66,0,0,1-2.75-2.53,14.6,14.6,0,0,1-1.81-2.93l2.05-1a17.47,17.47,0,0,0,1.63,2.58,10.31,10.31,0,0,0,2.29,2.17,12,12,0,0,0,3.13,1.52,13.44,13.44,0,0,0,4.18.58,11.88,11.88,0,0,0,3.66-.55,9.23,9.23,0,0,0,3-1.62,7.8,7.8,0,0,0,2-2.55,7.24,7.24,0,0,0,.77-3.37,8,8,0,0,0-2-5.62,19.24,19.24,0,0,0-6.13-4.11l-3.67-1.7a25.07,25.07,0,0,1-3.65-2,12.1,12.1,0,0,1-2.57-2.23,8.51,8.51,0,0,1-1.55-2.69,10.17,10.17,0,0,1-.52-3.38,8.87,8.87,0,0,1,.76-3.72,7.84,7.84,0,0,1,2.1-2.81,9.6,9.6,0,0,1,3.09-1.76,11.39,11.39,0,0,1,3.8-.62,13,13,0,0,1,3.56.46,10.65,10.65,0,0,1,2.8,1.23,10,10,0,0,1,2.16,1.83A17,17,0,0,1,275.1,321l-1.86,1.23a12.35,12.35,0,0,0-3.11-3.42,8.31,8.31,0,0,0-5.15-1.44,7.59,7.59,0,0,0-5.43,1.85,6.42,6.42,0,0,0-1.95,4.89,8.55,8.55,0,0,0,.38,2.67,5.79,5.79,0,0,0,1.22,2.08,10.63,10.63,0,0,0,2.13,1.76,27,27,0,0,0,3.16,1.7l3.67,1.7a20.94,20.94,0,0,1,7.18,4.95,10.22,10.22,0,0,1,2.34,6.89,9.46,9.46,0,0,1-3.36,7.42,11.29,11.29,0,0,1-3.73,2.05A14.64,14.64,0,0,1,265.85,356Z"/><path class="cls-1" d="M300.74,317.8H288.09v-2.05h27.69v2.05H303.14v37.75h-2.4Z"/><path class="cls-1" d="M490.66,315.75h2.4V353.5H512.2v2.05H490.66Z"/><path class="cls-1" d="M539.07,315.28h.7l16.15,40.27h-2.45l-3.05-7.72h-22l-3,7.72H523Zm10.47,30.5L540.59,323c-.16-.35-.3-.73-.44-1.14s-.26-.82-.38-1.21a7.73,7.73,0,0,1-.35-1.29,8.83,8.83,0,0,1-.35,1.29l-.38,1.21c-.14.41-.29.79-.44,1.14l-9,22.76Z"/><path class="cls-1" d="M594.55,355.55h-2.8l-8.34-11.41a21.83,21.83,0,0,1-5,.53h-5.64v10.88h-2.4v-39.8h8a19.64,19.64,0,0,1,7,1.14,14,14,0,0,1,5,3.11,12.45,12.45,0,0,1,2.93,4.59,16.48,16.48,0,0,1,1,5.68,15.15,15.15,0,0,1-2.11,7.93,12.49,12.49,0,0,1-6.43,5.24Zm-16.37-12.93a17.78,17.78,0,0,0,6.37-1,11.26,11.26,0,0,0,4.26-2.73,10.13,10.13,0,0,0,2.35-4,15.43,15.43,0,0,0,.7-4.69,15.72,15.72,0,0,0-.7-4.72,9.86,9.86,0,0,0-2.35-4,11.76,11.76,0,0,0-4.26-2.73,17.32,17.32,0,0,0-6.37-1h-5.4v24.82Z"/><path class="cls-1" d="M620,356a17.43,17.43,0,0,1-5-.65,13.48,13.48,0,0,1-3.8-1.79,12.43,12.43,0,0,1-2.75-2.53,14.21,14.21,0,0,1-1.82-2.93l2.05-1a17.54,17.54,0,0,0,1.64,2.58,10,10,0,0,0,2.28,2.17,12.15,12.15,0,0,0,3.13,1.52A13.51,13.51,0,0,0,620,354a11.92,11.92,0,0,0,3.66-.55,9.18,9.18,0,0,0,3-1.62,7.83,7.83,0,0,0,2-2.55,7.37,7.37,0,0,0,.76-3.37,8,8,0,0,0-2-5.62,19.47,19.47,0,0,0-6.13-4.11l-3.68-1.7a25.07,25.07,0,0,1-3.65-2,12.35,12.35,0,0,1-2.57-2.23,8.48,8.48,0,0,1-1.54-2.69,10.16,10.16,0,0,1-.53-3.38,9,9,0,0,1,.76-3.72,8.08,8.08,0,0,1,2.1-2.81,9.82,9.82,0,0,1,3.09-1.76,11.43,11.43,0,0,1,3.8-.62,13,13,0,0,1,3.56.46,10.65,10.65,0,0,1,2.8,1.23,9.53,9.53,0,0,1,2.16,1.83,16.1,16.1,0,0,1,1.63,2.16l-1.86,1.23a12.35,12.35,0,0,0-3.11-3.42,8.28,8.28,0,0,0-5.14-1.44,7.6,7.6,0,0,0-5.44,1.85,6.42,6.42,0,0,0-2,4.89,8.55,8.55,0,0,0,.38,2.67,5.68,5.68,0,0,0,1.23,2.08,10.09,10.09,0,0,0,2.13,1.76,26,26,0,0,0,3.15,1.7l3.68,1.7a20.89,20.89,0,0,1,7.17,4.95,10.22,10.22,0,0,1,2.34,6.89,9.46,9.46,0,0,1-3.36,7.42,11.34,11.34,0,0,1-3.72,2.05A14.72,14.72,0,0,1,620,356Z"/><path class="cls-1" d="M661.57,356a10,10,0,0,1-5.79-1.52,11.82,11.82,0,0,1-3.57-3.75l1.93-1.28a9.13,9.13,0,0,0,3.07,3.24,7.92,7.92,0,0,0,4.3,1.15,7.58,7.58,0,0,0,5.45-2q2.1-2,2.1-6.24V315.75h2.4v30a12,12,0,0,1-.76,4.48,9.47,9.47,0,0,1-2.08,3.22,8.32,8.32,0,0,1-3.13,2A11.6,11.6,0,0,1,661.57,356Z"/><path class="cls-1" d="M707.17,356a21.14,21.14,0,0,1-7.93-1.49,19.76,19.76,0,0,1-6.47-4.16,19.32,19.32,0,0,1-4.36-6.41,22.25,22.25,0,0,1,0-16.62,19.42,19.42,0,0,1,4.36-6.41,19.73,19.73,0,0,1,6.47-4.15,21.71,21.71,0,0,1,15.86,0,19.28,19.28,0,0,1,10.83,10.56,22.25,22.25,0,0,1,0,16.62,19.62,19.62,0,0,1-4.36,6.41,19.86,19.86,0,0,1-6.47,4.16A21.18,21.18,0,0,1,707.17,356Zm0-2.16a18.31,18.31,0,0,0,7.16-1.38,17.07,17.07,0,0,0,9.46-9.57,20.17,20.17,0,0,0,0-14.51,17.52,17.52,0,0,0-3.76-5.77,17.31,17.31,0,0,0-5.7-3.8,19.29,19.29,0,0,0-14.33,0,17.09,17.09,0,0,0-9.45,9.57,20.17,20.17,0,0,0,0,14.51,17.09,17.09,0,0,0,9.45,9.57A18.33,18.33,0,0,0,707.17,353.86Z"/><path class="cls-1" d="M746.62,323a7.27,7.27,0,0,1-.59-.82l-.58-.88c-.2-.31-.41-.62-.65-.93a9.24,9.24,0,0,0,.06,1.05c0,.31.07.63.09,1s0,.65,0,1v32.19h-2.23V315.28h.71l25.46,33c.19.27.39.55.58.84s.39.58.59.85a11.15,11.15,0,0,0,.64.94l-.12-1.05c0-.32-.05-.64-.05-1V315.75h2.22V356h-.7Z"/><path class="cls-2" d="M477.9,297.86c0-.37-.55-.51-1-.75-.07,0-.14-.19-.22-.22s-.37,0-.57,0-.17-.15-.26-.18-.44,0-.62,0a4.59,4.59,0,0,1-.48-.22,5,5,0,0,0-1.54-.09c0-.06.06-.06,0-.13a24.92,24.92,0,0,0-7.73-.18c-.76.08-1.39.59-2.16.53a4.54,4.54,0,0,0-1.41,1c-.28-.4-.28-1-.79-1.37-1.49,0-1.47,1.23-2.15,1.81-.46-.17-.46-1.14-1-1.19a1.87,1.87,0,0,0-.79.35c-.16.11-.34.53-.4.35-.15.4-.51,1.22-.35,1.5-.34.32-.31.73-.66.75-.14-.66-.21-1.82-1-2.12-.65.16-1.21.4-1.36,1.06-.09,0-.08.13-.22.09-.3.67-.55,1.39-.88,2,0-.08,0,0-.09,0-.06-.22,0-.12-.09-.39,0,0,0,.12,0,.13-.06-.25-.14-.78-.22-1.14,0,.06,0,.16,0,.17,0-.39-.4-1.05-.53-.92-.55-.54-1.37.12-1.63.64a.32.32,0,0,1,0,.11s0-.07,0-.11,0-.11,0-.11c-.12.24-.44,1.05-.53.88-.29.73-.57,1.71-.88,2.28a.17.17,0,0,0-.13.05,9.25,9.25,0,0,0-.38-3.06v0c-.19-.25-.19-.44-.49-.48s-.84.54-.79.26c-.32.55-.59.41-.88,1.14,0-.05,0-.12-.05-.13-.29.57-.44,1.29-.7,1.89,0-.06,0-.16,0-.17a4.16,4.16,0,0,1-.84,1.58c-.26,0-.19-.28-.35-.35-.06.11.13.18,0,.22a1.62,1.62,0,0,1-.13-.84c.06,0,.07-.05.13,0,0-.12-.16-.26,0-.35,0,.08-.13.18,0,.22a2.69,2.69,0,0,1,.48-.84c0-.26.2-.41.26-.68,0-.06,0-.14,0-.15l.09,0c.22-.33,0-.78,0-1.14a2.94,2.94,0,0,0-2.77,1.05c-.05-.08.13-.14,0-.17-.81,1-1.46,1.68-2.16,2.59-.32-.25.18-.56,0-.66.06,0,.09.07.18.05.06-.29.23-.38.22-.62.17,0,.26-.53.22-.75a2.12,2.12,0,0,0,.35-1.4s-.08.05-.09,0c.15-.05-.11-.53.09-.18a.74.74,0,0,0-.09-.44,5.16,5.16,0,0,0-2,.27c-.17.08-.3.29-.48.39s-.61.57-.48.44c-.38.23-.58.77-.84.75a.22.22,0,0,0,0,.13,6.5,6.5,0,0,0-1.62,1.45c-.06-.11.17-.14,0-.17-.1.18-.19.16-.26.3,0-.14-.13,0-.22,0-.11-.23.07-.34,0-.57.08.1.49-.53.22-.26,0-.12.16-.1.22-.18s-.13,0-.14,0c.24-.09.23-.52.44-.57-.09-.29.26-.37.14-.53.05,0,.06.06.13,0,.17-.9,1-1.82.66-2.68,0-.08-.16-.14-.18-.22s.09,0,.05-.09-.25-.14-.14-.35c-.67-.49-1,.1-1.58.44s-1.13.83-1.58,1.1c0,0,.08,0,.09,0-.29.06-.35.36-.53.4.09.15-.44.44-.57.75,0-.08.06-.12,0-.13-.2.23-.18.73-.44.83.08.08-.15.51-.22.31,0,.12.09.09.09.17s-.07.18-.18.18.24-.22,0-.22c-.4.72-.65,1-1.05,1.76-.56-.49-.18-1.36,0-1.81.09-.28.15-.38.22-.61,0,.08-.06.11,0,.13s.11-.21,0-.22c.07-.15.05-.2.13,0a7.42,7.42,0,0,1,.58-1.58,1.22,1.22,0,0,1,.3-.79c-.1-.09,0-.53.05-.23a3.65,3.65,0,0,0-.35-1.58c-2.32-.43-3.12,1.66-4.27,2.82.05,0,.05.07,0,.13a.5.5,0,0,0-.26.57c-.21,0-.44.55-.39.79-.19,0-.05.25-.22.22.14.27-.21.66-.22,1.06-.06-.14-.28.29-.31.48-.06,0-.06-.06-.13,0-.14.2-.17.73-.36.74,0,.19,0,.21-.17.49,0,0,.08-.1,0-.14a.77.77,0,0,1-.35.4c-.12-.08-.17-.53-.35-.53,0-.07.11,0,.08-.13s-.21-.17-.08-.31c-.06,0-.13,0-.14,0s0-.42.05-.66.28-.55.35-.84c.4-1.68.35-3.76-.35-4.83-.34-.19-.56-.39-1-.27-.88.24-1.4,1.78-1.9,2.16.05.39-.32.57-.39.92,0-.05-.07-.1-.09,0a.73.73,0,0,1-.13.44c0-.07-.09-.19-.09-.09s0,.12-.09.18c-.08.42-.31,1.09-.3,1.31,0,0,0-.08,0-.08a2.41,2.41,0,0,0-.26,1.23c-.12,0-.27.31-.22.53-.3,0-.21.66-.49.79a1.22,1.22,0,0,1-.35,1.05c0-.14-.23-.42-.31-.26,0-.09,0-.1,0-.18-.33-.05-.33-.5-.35-.75,0,0-.08-.33,0-.39s0,.09,0,.09c0-.26,0-.08.09-.22a13.11,13.11,0,0,0,.17-1.54c.1-.5.26-1.58.27-1.89s-.05-.22-.05-.44c0-.93,0-1.81-.7-2.33s-1.56.26-1.89.7a5.63,5.63,0,0,0-.84,1.5c-.08,0-.09.05-.17,0,.12.33-.22.25,0,.48-.29.1-.24.76-.48.66,0,.09.05.1,0,.18-.18.09-.35.79-.39,1a.3.3,0,0,0,0,.22c-.2,0-.12.2,0,.27-.14,0-.14.07-.18.13.13,0-.16,1.25,0,1.28-.51.35-.69,2-1,2.41,0,.09.06.09.09.14-.14,0-.09,0-.22,0s-.07.14,0,.21c-.22.07-.3.21-.7.18-.18-.41-.06-1.11-.31-1.45a15.21,15.21,0,0,0,.35-3.83c-.06,0-.15,0-.13-.08.31-.12-.21-.66-.09-.88-.13,0-.23-.19-.13-.35-.16,0-.2-.21-.26-.36-.28,0-.32-.31-.53-.39a1.31,1.31,0,0,0-1.54.66c0-.08.13-.15,0-.18-.09.3-.25.57-.39.57a1.92,1.92,0,0,1-.4.75c-.37.52-.41,1.74-1,2.11-.21-.06-.19-.59-.35-.57,0,.07.16.18.05.22-.14-.24-.22-.55-.58-.57a1.2,1.2,0,0,0-.08-.27,1.17,1.17,0,0,0-1.32.49c-.36,0-.26.48-.62.48,0,.22-.14.21-.09.44-.24,0-.19.28-.26.44-.14-.14-.06.17-.22.13a7.89,7.89,0,0,0-.44,2.2,3.38,3.38,0,0,0-.57,2.46c.07,0,.15,0,.13.09a5.31,5.31,0,0,1-2,.31c.07,0,0-.71.19-.62-.07-.25.09-.21,0-.44.15,0,.12-.2.09-.3a11.11,11.11,0,0,0,.48-1.85s.05,0,.09,0-.08-.09,0-.22.07.07.09,0c.22-.68.63-2.65.71-3,0,.05-.08-.33.08-.18a8.05,8.05,0,0,1,.57-2.11.32.32,0,0,1-.08.14,1.67,1.67,0,0,0,.26-.88.89.89,0,0,0,.22-.8c.24-.11.07-1.28.13-2.06.12-1.41.46-2.94.62-4.49.23-2.24.34-4.7.79-7a1.89,1.89,0,0,0,.44-.26c-.09,0-.09-.07-.05-.14s.1.08.22.05a1.8,1.8,0,0,0,.44,1.23c.43.68.87.38,1.81.61.76.19,1.15,1.29,1.8,1.41.9,1,4.33,1.9,5.06.48-.07-.19-.14.09-.22,0a1.33,1.33,0,0,0,.52-1.85c1.35.1,2.72.34,3.43-.48-.1-.08.17-.17.05-.31.35-.07.29-.55.44-.83.1.06-.09.14.08.13a1.13,1.13,0,0,1,.27-.13c1,.24,3,1.09,3.56-.13.3,0,.22-.46.44-.58a2.23,2.23,0,0,0-.31-1.45c.16,0,.12-.26,0-.17s0,.1,0,.13,0-.09-.09-.05.1-.11.09-.21-.25-.19-.13-.27c0,.16.15.33.31.27a5,5,0,0,0,1.8,1.05c.66.51,2.36.55,2.68-.18-.08,0-.18.13-.22,0s.29-.09.4-.17c-.26-.05.26-.09,0-.18h.13c0-.08-.05-.09,0-.17.1.08,0,0,.13,0a4,4,0,0,0-.09-1s0,.09,0,.09c0-.86-1.29-1.61-1.41-2.46.06,0,.07.05.13,0,0,.22.9.36.84.79.13,0,.15.11.26.13a3.55,3.55,0,0,0,.48.62,5.84,5.84,0,0,0,1.32.83l.22.13a3.29,3.29,0,0,0,1.23.58c.6.07,1.35-.1,1.55-.52,0,0-.09.06-.1,0s.23-.19.36-.27a1.84,1.84,0,0,0-.09-1.1c0-.11,0-.39-.18-.35a.16.16,0,0,0,0-.26c-.14-.37-.68-1.16-1.1-2.11a1.4,1.4,0,0,1,1.28.79c.6.77,2.7,3.06,4.18,1.85,0-.18-.3.12-.36-.09.61-.05.72-.53.84-1a7.29,7.29,0,0,0-.84-2.42c.16,0,.31.23.4.18.29.53.73.91,1,1.41.83.38,2.61,1.91,3.52.79-.17,0-.27.11-.31,0,.28,0,.48-.23.62-.22,0-.3.27-.7,0-.92.16-.57-.47-1,0-1.23-.11.14,0,0,.05,0s.15.27.26.35a6.41,6.41,0,0,0,2.2,1.1c.62.09,1.12-.11,1.14-.44,0,0-.19.16-.22,0,.92-.33.87-1.42.4-2.16,0,.12.14.09.26.05-.09.09,0,.09.13.09a3.1,3.1,0,0,0,.4.48c.81.63,2.93,1.6,3.91.4-.18,0-.3.13-.48,0,.43,0,.58-.33.83-.53a2.56,2.56,0,0,0-.13-1.19c.6.12,2.31.43,2.46-.3,0,0-.07.05-.08,0,1.1-.39.29-1.9-.09-2.47.58.24,2.7.55,3.1-.19,0,0,0,0,0,0a1.41,1.41,0,0,0,0-2.24.94.94,0,0,0,1-.44c0,.12.16,0,.18,0s.29-.48.62-.7.63-.33.57-.53c.29.21.31-.43.57-.26,0-.16.11-.2.17-.13a4.06,4.06,0,0,1,.88-1.19s-.08,0-.08-.05c.25-.08.13,0,.3-.08-.05,0-.1,0-.08-.09s.06.06.13,0c.77-.91,2.11-2.24,3-3.47v-.26a4,4,0,0,0,.92-1.68h.18c.13-.59.95-1.77.48-2.28.1,0,.1-.12,0-.13-.4.42-2.6,1.18-3,1.49s-.81.49-1,1a14.85,14.85,0,0,0-2.86,2.15c-.49.42-1,.73-1.41,1.06a4.89,4.89,0,0,1-.7.48c-.12.07-.44.16-.31.27-.34-.09-.47.59-.53.26,0,.13-.16.15,0,.26-.06,0-.07-.05-.13,0-.07.94-1,.66-1.58,1.06-.15.11-.26.38-.45.47,0,0,.05-.06,0-.08a1.82,1.82,0,0,0-.49.8c-.59.21-1.43.18-1.62.79-.11-.11-.09.06-.22,0-.05.34-.4.37-.49.66,0,0-.05,0-.08,0-.05-.24.09-1.08-.09-.75-.07-.5-.05-1.24-.35-1.36,0,0,.05,0,.08,0s-.09-.07-.17-.08v-.22a.87.87,0,0,0-1.15.22c-.11-.21-.29.28-.44.44s-.19.05-.22.08c-.29.39-.42,1-.65,1.37h-.18c-.16-.27-.19-.69-.4-1.1-.06.19.2.24,0,.31,0-.38-.31-.54-.52-.75-.61-.08-.78.41-1.15.44,0,.22-.32.35-.39.66-.06-.11.1-.22,0-.22s0,.47-.09.57c0-.07,0-.16,0-.18a5.83,5.83,0,0,0-.22.71c-.28-.06-.22.86-.75.83-.17-.61-.4-1.19-.49-1.62-.18-.1-.39-.55-.74-.62a2,2,0,0,0-1.28,1s0-.09,0-.09-.06.44-.13.27c-.14.49-.27.57-.4,1.05,0-.05,0-.07.09-.09-.48.7-.6,1.28-1.23,1.76-.18-.23,0-1.15-.09-1.4.14.08.12-.15,0-.22s.09,0,.09,0a3.86,3.86,0,0,0,0-1.76c-.1.06-.14-.33-.27-.48-.19,0-.25-.15-.39-.18-.79-.14-1.3.53-1.63.79,0,.34-.37.43-.35.71-.24,0-.42.64-.66.74,0,.28-.18.5-.22.71-.09-.05,0,0-.09-.09-.14.32-.62.92-.48,1.1-.06.07-.2.07-.27.13a9.08,9.08,0,0,1-.08-1.63c-.19-.34-.22-.83-.4-1.18-.2-.1-.38-.5-1-.35-.29.1-.58.43-.79.48s0,.05,0,.17c-.29.11-.47.64-.61.62,0,.2,0,.18-.14.22a.82.82,0,0,1-.39.66c.12.29-.28.3-.09.4-.43.33-.52,1.39-.92,1.67-.34-.13-.08-1.13-.26-1.54,0,0,0,0,.08-.09-.09,0-.09-.11-.09-.22s.06,0,.09,0c-.1-.19,0-.29,0-.44a3.29,3.29,0,0,0-.26-1.1c0-.12.06-.44-.09-.17-.06-.11.1-.21,0-.22-.43-.78-1.44-.42-2,.26a3.89,3.89,0,0,0-.75,1.28c0-.05-.48.44-.35.53s0-.13,0-.14c0,.18-.09.21-.13.31,0-.06,0-.16,0-.17-.17.2-.46.62-.75.44-.09-.11,0-.05,0-.14s-.1.06-.13,0a2.65,2.65,0,0,0-.66-1.8c-2.24.1-2.92,1.71-3.56,3.23,0-.13.12-.15,0-.29s.07,0,.09-.09c-.14-.05,0,.15-.17.09.13.28-.15.09-.09.18s.1.13,0,0a.25.25,0,0,0,0,.13c-.07,0-.15,0-.09.09a1.1,1.1,0,0,1-.35.79c.11-.24-.26.18-.13.22s.11-.23.13-.13c-.14.22-.09.39-.31.57,0-.07-.14-.13,0-.17s0,.05,0,.08.16-.15.09-.22-.26.5-.4.31c0,.11.08.1.05.22-.18,0-.37.33-.53.18-.11.06.08.13,0,.17-.37,0-.06-.48-.22-.74,0,.06,0,.16-.05.17a8.6,8.6,0,0,0,.13-2.9c-.07-.64-.54-1.88-1.62-1.49-1.29.86-1.88,2.43-2.33,4.13,0-.3.19-.49.08-.62.11,0,.17-.21.09-.22,0,.22,0,0-.09,0s0,.49-.13.48a2.38,2.38,0,0,1-.13.84s0-.1,0-.09c-.2.93.16,2-.31,2.51,0-.25-.37-.71-.22-.66a4.4,4.4,0,0,0-.37-.55v0a15.31,15.31,0,0,0-.6-1.81c-.08-.17-.14-.18-.23-.38-.4-.84-.78-1.63-1.66-1.78s-1.28.93-1.39,1.47a5.7,5.7,0,0,0-.09,1.71c-.08,0-.06.08-.13.11.25.24-.09.33.17.46-.23.21.12.78-.14.8,0,.06.06.07.09.1-.14.11-.39.64-.26.69a2.79,2.79,0,0,0,.49,1.49c-.32.15-.48.46-.79.62-1.19-1.27-3,.29-3.3,1.14-.07,0-.08,0-.13,0-.24.63-.33,1.09-1.28,1.19a19.93,19.93,0,0,1-.85-4.47s0-.25,0-.32l0,.32,0,0c.06-.43-.2-.49-.09-.79,0,.05,0,.13,0,.14,0-.19-.15-.22,0-.4a23.25,23.25,0,0,1-.35-3.87c-.05-.64-.36-1.47-.31-1.85a4.09,4.09,0,0,0-.09-.61c-.16-1.8-.52-3.49-.57-5.19-.09-.06-.13-.32,0-.13,0-.27-.16-.83,0-.92.1.16.1,0,.18-.09.36,0,.51.31.75.44a8.12,8.12,0,0,0,2.63,1.14,3.3,3.3,0,0,0,2.8-1.15c-.07.06-.18.1-.2.05.41-.17.5-.69.75-.79.06-.17-.13-.09-.09-.22.23,0,.19-.66,0-.79.17,0,.11.18.22.22s0-.11.08-.09c.9.26,3,1,3.7-.13,0-.23-.22.19-.31,0,1-.21.92-1.77.18-2.24,0,0,.05,0,0-.09-.19-.19-.27-.22-.48-.4s-.13-.2-.18-.26c-.3-.36-1-.53-.92-1,.12.07-.1.2.09.18,0-.05,0-.13,0-.14a8.15,8.15,0,0,0,4.66,1.72c.73,0,1.81,0,2-.62-.13.12.12-.1,0-.08s-.16.18-.17.08a1.23,1.23,0,0,0,.57-1.67c-.06-.1-.13.08-.18,0s.11,0,.09-.09a4.63,4.63,0,0,0-2.29-1.76c0-.08-.18-.18-.08-.22s.14.11.26.18l.7.31c.21-.05,0,0,.09,0a5.73,5.73,0,0,0,1.85.48,2.75,2.75,0,0,0,2.5-.7c0-.18.14-.11.09-.26-.08.05-.27.22-.35.13a1.81,1.81,0,0,0,.75-.75c-.14-.05,0-.2,0-.39a3.49,3.49,0,0,0-.7-.93c-.65-.56-1.6-.72-2.2-1.32.24,0,.42-.06.49.09.53-.05,1.08.6,1.89.79,1.06.25,2.53-.13,2.63-.66.14.13.15-.1.14-.13-.22.12-.35.28-.62.18.6-.08,1.25-.66.88-1.28-.19-1.35-1.67-1.4-2.42-2.2,1.31,0,3.8,1.11,4.84,0,0,.1.44-.27.44-.44-.13.11-.46.42-.57.26,1-.25,1.11-1.23.39-1.89s-1.85-.65-2.11-1.23c1.34.23,4,.95,5-.35-.13,0-.16.18-.22,0,1.49-.51-.08-2-.79-2.42.52-.06,1.12.08,1.67,0a4.31,4.31,0,0,0,1.32-.61c.1-.13-.14,0-.17-.14a1.16,1.16,0,0,0,.79-.83,3.91,3.91,0,0,0-1.15-1.36c.88,0,1.46-.66,1.89-.84,0-.2-.12.07-.08-.13.3-.12.39-.46.61-.66.12-.79-.71-1.28-1.49-1.45a6.49,6.49,0,0,0,2.06-1.89,1.88,1.88,0,0,0-.22-1.06h.14c-.11-.27.14-.32.22-.61.35-.17.61-1,.66-1.37.14,0,.08-.46.17-.65a10.73,10.73,0,0,0,.53-1.24c-.17-.68.73-1.91.53-2.77.11,0,.13-.06.17-.13a15.81,15.81,0,0,1,.62-2.15c-.05,0-.13,0-.13,0a.23.23,0,0,0,.17,0c.27-1.41,1.06-2.93.79-4.62-1.74.49-2.36,2-3.12,3.39-.48.66-.68,1.19-1.1,1.67,0,0,.09,0,.09,0-.35.19-.4.88-.62,1.15-.08.1-.13,0-.08.22-.17-.13-.25.36-.18.48-.27.07-.33.94-.61,1.06,0,.1.09.22-.05.13,0,.1.08.09.05.22-.26.13-.3.85-.62,1.05,0,0,0,.39-.09.22-.1.12.09.28,0,.4,0,0,0-.09-.05-.09a5.57,5.57,0,0,0-.22,1.06c-.29-.06-.53.72-.7.52-.14.25-.35,1-.44,1a1.77,1.77,0,0,1-.13,1c-.27-.37-1.76-1.18-2.18-.31,0-.05.06-.13,0-.13a4,4,0,0,0-.22,1.93c-.14,0-.16,0-.09.09a5.67,5.67,0,0,0-.92-.66c-.66-.08-1.1.58-1,.66-.29.11-.36.63-.35.79-.31.15,0,1.82-.31,2.07a1.31,1.31,0,0,0-1.58-.66c-.36.49-.8.81-.75,1.63-.17.1-.14.06-.08.26-.08,0-.12-.07-.14,0,.18.2-.23.38,0,.48-.18.22,0,.59,0,1.06,0,0,0,0,0,0s0,.37-.17.39.21.17.09.22c-.52-.42-.79-1.09-1.76-1.05a1.88,1.88,0,0,0-.79,1.62c-.1.05-.16,0-.18.18s.07,0,.09,0c-.13.05-.25.84-.09.62a3,3,0,0,0,0,1.52c0-.08-.05.17-.17.11s-.12-.46-.17-.27c-.46-.56-.54-1.7-1.45-1.76,0-.06.05-.07,0-.13-1,0-1.36,1.08-1.41,1.76-.14,0-.14.07-.18.13s.09-.06.14-.08a1.07,1.07,0,0,1-.09.39c0-.06,0-.16-.05-.17-.11.25,0,.52,0,.87l-.09,0a3.25,3.25,0,0,0-.09.57,8.47,8.47,0,0,0,.4,2.2c.07.35,0,.68.13,1-.16,0-.16.12,0,0-.11.06,0,.22,0,.22s-.26-.24-.18-.13.23.15.09.22c-.45-.4-.23-.86-.57-1.23.15.1.09,0,.09-.05A8.84,8.84,0,0,0,417,247a6.87,6.87,0,0,0-.62-.75s0-.08,0-.09a1.31,1.31,0,0,0-1.85.09c-.25.31-.19.85-.35,1.05s-.18,0-.09.18a.43.43,0,0,1,.09-.13c-.12.34-.11.13,0,.39-.08,0-.14-.05-.18,0,.13.11,0,.14,0,.27s0,.38,0,.66c0,.46.17,1.06.13,1.36,0,.05,0,.07,0,.22a3.25,3.25,0,0,1,.14,1.12.07.07,0,0,1,0-.07c0,.16,0,.34-.13.4a2.2,2.2,0,0,0,0-.57s0,.12,0,.13c0-.37-.15-.55-.13-.75-.11.16-.06-.35-.18-.09-.19-.44-.32-.91-.7-1,.2,0-.21-.45-.26-.49a1.15,1.15,0,0,0-1.67.18c-.36.45-.34,1.05-.53,1.49,0,0-.08-.1-.09,0s-.05.09,0,.13.16,0,.17,0h-.17c-.38,1.43.27,2.81,0,4.61,0,0,.08,0,.08,0s-.1,0-.17.09c0-.11-.08-.1-.05-.22-.14.06-.12,0-.22-.09s.09,0,.09,0c-.2,0-.19-.29-.31-.26.17-.17-.1-.35-.13-.57s.07-.17.05-.27-.12,0-.14-.08.08-.59-.08-.36a5.48,5.48,0,0,0-.31-1.31s0,0,0,0a1.45,1.45,0,0,0-2.41-1c-.21.75-.53,1.24-.66,1.89,0-.05,0-.13,0-.13a.32.32,0,0,1-.13.3c.16,0-.2.56,0,.71-.09,0-.09.06-.14.09-.51-.09-.64-.63-1.14-.58a2.26,2.26,0,0,0-.83.66s.05.12,0,.14-.17.06-.22.13c-.19.23-.29.7-.4.66.12.07,0,.29-.08.31.09-.07.09-.35,0-.27-.08.33,0,.3-.09.57,0-.08.13-.14,0-.17-.38.35-.32,1.15-.75,1.45.07-.26-.09-.1-.09-.09-.31-.35-.3-1.18-.39-1.89-.11,0-.19-.3,0,0v-.27c-.3,0,0-.29-.13-.35s-.25-.58-.09-.66a1.85,1.85,0,0,1-.35-1s0-.33,0-.39c0,.09-.13,0-.13-.05h.17c0-.16-.23-.23,0-.3,0-.08-.21,0-.22-.09a16.61,16.61,0,0,1-.5-4.22h0s0,0,0-.05v.05c1.83.29,5.13,1.43,6.39-.22a.3.3,0,0,1-.13-.09,1,1,0,0,0,.35-1.58c.55-.12,1.32.13,1.89-.09.22-.08.38-.42.49-.35-.08,0,0,0,0-.09s-.27.06-.31,0a1.12,1.12,0,0,0,.8-1c.05-1-1.17-1.41-1.54-2,.29.27.55.11.66.44,0,0,.5.11.52.36h.18c.84.9,3.71,1.17,4.31.13-.09-.14-.21.19-.31,0a2.6,2.6,0,0,0,.7-.61c.11-1.39-1-1.78-1.67-2.55-.11,0-.13-.09-.22,0,.1-.1-.07-.18-.13-.27.94.44,3.37,1.69,4.35.35-.21-.08-.29.2-.44.05a2.21,2.21,0,0,0,.8-.44,2.08,2.08,0,0,0-.78-2,.23.23,0,0,0,.12.06s.14-.1.17-.08,0,.11.05.13a4.19,4.19,0,0,0,1.67.44,2.77,2.77,0,0,0,2.37-.75c-.11-.14-.25.22-.39,0,1-.23.85-1.63.13-2.06,1,.21,3,.2,3.36-.62-.05,0-.18,0-.15,0a1.36,1.36,0,0,0,.83-1.32,3.78,3.78,0,0,0-1.32-1.14c-.41-.17-1-.14-1.23-.49,1.42.24,3.24.81,4.05-.26,0,0-.21.08-.27,0a1.33,1.33,0,0,1,.36-.09c0-.23.41-.32.43-.61s-.18-.38-.35-.66-.34-.69-.48-.93c-.17,0-.24-.11-.35-.17a4.36,4.36,0,0,0,3.16,0s-.05,0,0-.09c.14.14.13-.09.26-.09.07-.16-.15,0-.13-.13.26-.27.75-.46.79-.84.08-.74-1.19-1.38-1.76-1.67.09,0,0-.14.14-.13a3.73,3.73,0,0,0,2.5-.61c.06-.15-.14,0-.09-.18.46-.08.56-.53.8-.84.07-1-1-.91-1.37-1.49.09,0,.1.05.18,0,0-.18-.12.05-.13-.13.07,0,.26.05.26,0-.27,0,0-.06.09-.13a4.52,4.52,0,0,0,.48-.49c.14-.18.21-.56.35-.53.12-.44.42-.69.53-1.14.2-.13.5-.37.44-.61.06,0,.08.05.13,0a16.6,16.6,0,0,1,1.59-2.73.24.24,0,0,0-.05-.18c.19,0,.37-.28.31-.44.39,0,.58-.93.62-1s.08.1.08.09.05-.29.13-.44.46-.55.62-.79a9.44,9.44,0,0,1,.84-1.63c.09-.18.17-.52.22-.61.37-.83.91-1.85.66-2.64-.07,0-.16,0-.14-.09a2.63,2.63,0,0,0-1.67,1,35.49,35.49,0,0,0-2.9,3.3c-.86.42-1.18,1.39-1.85,2-.31.12-.36.44-.52.7s-.56.77-.8,1.1c-.63.42-.68,1.25-1.05,2a1,1,0,0,0-1.13.68s0,0,0,0-.07.1-.13,0a6,6,0,0,1-.35,1c-.1.43,0,.8-.13,1s-.42.18-.62.35c0,0-.05.21-.18.22,0,0,.09,0,.09,0-.39.08-.41.84-.61.84.09.3,0,.15-.05.22s-.05.52-.31.52c0-.08,0-.09-.08,0-.1-.42-.17-.32-.27-.66-.13-.11-.7-1-1.4-.88-.39.09-.64.71-.82,1,0,0,0,0,0,0-.32.21-.12,1-.3,1.23,0,.22.26,1.05,0,1.37a1.61,1.61,0,0,0-1-.75c-.7-.6-1.55.31-1.45,1-.19,0-.21.39-.17.62,0,0-.07-.07-.09,0a11.24,11.24,0,0,1,.09,2.85c-.3-.1-.41-.45-.36-.83-.37-.8-.36-1.93-1.67-1.89-.5.36-1.15.81-1.1,1.58-.18,0-.18.49-.13.62s-.1-.06-.13,0c-.09.72.17,2.23.09,2.81,0,0,0-.08,0-.08s0,.17,0,.22c-.87-.52-.66-2.58-2.07-2.47a2,2,0,0,0-.66.27c-.51.35-.55,1.19-.7,1.93,0,0,0-.08-.05-.09a2,2,0,0,1-.35,1c-.45-.65-1.37-1.67-2.24-1-.12.39-.46.56-.57.88a5,5,0,0,0-.18,1.18c-.06,0-.06,0-.13,0-.14.29.07.62.09.88s-.11.28-.09.44c.06.62.35,1.3.17,1.71-.37-.32-.6-1.1-1-1.49-.12-.12-.22-.37-.35-.48-1.11-1-1.88.32-1.93,1.31,0-.05,0-.12-.05-.13-.21.72-.06,1.79-.35,2-.34-.51-.82-1.57-1.67-1.59-.32,0-.81.27-.79.66-.22.08-.33.64-.49.93.06,0,.11,0,.09.08-.33.43-.05,1.19-.22,1.85a.71.71,0,0,1-.35.13c-.28-.87-1.14-2.13-2.2-1.4-.1.16-.21.47-.3.39,0,.23-.2.18-.09.35-.05,0-.4.13-.22.18-.19,0-.16.29-.27.09,0,.22-.09.13-.13.35-.09-.13,0-.47-.13-.22,0-.17.1-.34,0-.18,0-.12.08-.09.08-.17a.3.3,0,0,1-.13-.09,44.81,44.81,0,0,1-.83-5.32c-.07,0-.15-.23,0-.27q0,.18.18.18a10.48,10.48,0,0,1,2.64.79A2.76,2.76,0,0,0,403,235c-.06-.22-.2.15-.31,0,.15-.07.29-.2.4-.18,0-.23.41-.38.48-.7s-.17-.82-.26-1.19a1.11,1.11,0,0,0,1-.48c-.13-.06-.22.15-.26,0,1.09-.28.61-1.76,0-2.24,1,.06,3.1,1.29,3.67,0-.05,0-.18,0-.15,0,1-.25.62-1.72-.05-2.06v-.14c-.23.1-.29-.26-.52-.3.91-.06,2-.28,2.33-.93.37-.28,1.09.07,1.62.31a2.35,2.35,0,0,0,2.55,0c0-.12-.21,0-.22-.05a1.33,1.33,0,0,0,.27-2.24,2.94,2.94,0,0,0,2.11-.53,18.19,18.19,0,0,0,2.06-.75c.06-.1-.13-.18,0-.21s0,.14.14.13.11-.09.13-.18-.11.06-.13,0c.17-.07.09,0,.22,0,.07-.16,0-.08-.09-.17.27,0,.44-.49.61-.31.37-.49,1.08-.66,1.5-1,0-.23.61-.56.83-.79-.1-.07-.16.11-.17,0,.35-.17,1.06-.89,1.49-1.06a.32.32,0,0,1,.18-.31c0,.08,0,.09.09.05a2.89,2.89,0,0,1,.8-.77s0,0,0,0c.28-.1.59-.76.7-.61.17-.35.46-.46.57-.84.19.05-.11.23.09.14.28-.34.72-.9,1.1-1.28-.1,0,.06-.11,0-.22.14-.18.49-.32.66-.61,0,0-.08-.06,0-.09.24-.3.63-.57.92-.93s.42-.72.66-1,.66-.82.88-1.19.45-1,.3-1.05c.27-.17.24-.8,0-1-.2,0-.27.07-.48,0-.17.21-.48.28-.66.48a20,20,0,0,0-4,2.82,29.7,29.7,0,0,0-2.95,2.24,3,3,0,0,0-1.19,1,7.91,7.91,0,0,0-1.67.84c0-.05.07-.07,0-.09-.31.17-.39.59-.75.75s-.76.07-1.1.26c-.16.09-.21.34-.39.26-.08.26-.64.6-.48.66a.66.66,0,0,0-.36.53c-.14,0-.13.08-.22,0,0,.09.06.09.09.13s-.09-.07-.17,0c.11-.35-.52-.93-.44-1-.31-.07-.35-.33-.58-.35a2.88,2.88,0,0,0-1,.49c-.08.08-.1.33-.17.39s-.12,0-.13,0,0,.34-.09.13c-.15.14-.14.64-.31.62a1.56,1.56,0,0,1-.31.79c.08-.15,0,0-.09,0-.09-.22-.19-.59-.3-.66.11-.17-.1-.15,0-.35-.13,0,0-.08-.18-.13a1.08,1.08,0,0,0-1.85-.22c-.12.12-.13.37-.26.57s-.4.25-.26.48a.77.77,0,0,0-.22.66c-.06,0-.06-.05-.14,0a.68.68,0,0,1-.3.66c-.27-.74-1-1.54-1.81-1a3.15,3.15,0,0,0-1.14,2.41c-.23.24-.11,1-.53,1.15a0,0,0,0,1,0,.09c-.29-.39-.34-.94-.7-1.19a1.23,1.23,0,0,0-1.89,1c-.29.42-.14,1.3-.26,1.93-.16-.06,0,.15-.14.14-.41-.57-.88-1.27-1.8-1.19a2.58,2.58,0,0,0-.61,1.63c0-.08,0-.4-.05-.27,0,.28-.15.65-.17.88,0,0-.08,0-.09,0s.05.08,0,.09c-.29-.27-.72-.87-1.1-.92-1-.15-1,1.36-1.63,1.56,0,0,0,0,0,0l0,0s-.1-.12-.09,0,.11.13,0,.39c-.49-1.31-.76-3.24-1.14-4.26a7.81,7.81,0,0,0,1.94,0c.45-.36,1.29-.06,1.58-.57-.12,0-.28.13-.35,0a1.17,1.17,0,0,0,.7-.44c.11-.72-.49-1.08-1-1.54.06,0,0-.05,0-.09a1.56,1.56,0,0,0,1.19-.53c.74-.42,1.75-.93,2.51-1.45,0-.08-.14-.14,0-.17s0,.08.08.09c.59-.62,1.3-.86,1.64-1.34-.05,0-.09,0-.1,0,.16,0,.19-.31.31-.17s-.13-.07,0,.08.28-.17.13-.26c.19,0,.24-.31.39-.22-.05.12-.2.15-.26.27.38-.16.28-.71.79-.71,0-.07-.06-.11,0-.13s0,.08.09.09c.1-.27.09-.22.26-.31a.3.3,0,0,1-.13-.09c.1-.16.15.15.22,0-.22-.11.11-.17.22-.26s.45-.66.62-.66c-.05,0-.05-.07-.05-.13a17.6,17.6,0,0,0,1.59-2.29h.13c0-.21.18-.31.09-.48a14.43,14.43,0,0,0,1.62-4.14,7.45,7.45,0,0,0,.79-2,4.85,4.85,0,0,0,.66-3.65.42.42,0,0,1-.17-.18,1.4,1.4,0,0,0-.49,0,19.23,19.23,0,0,0-2.11,1.94c-.45.39-.74.95-1.14,1.23,0,.1-.07.16,0,.31-.16.22-.44.33-.49.66a5,5,0,0,0-.88,1.27c-.34.19-.49.79-.74.93,0,.58-.74,1-.88,1.58-.28.18-.5.58-.79.83a3.75,3.75,0,0,0-.36.27c0,.21-.27.23-.22.44-.31.08-.39.78-.83.88-.1.06.05.1-.05.13-.27.09-.46.43-.57.57s-.24.14-.31.22c-.23.29-.32.66-.61.88s-1.09.35-1.41.79c-.06.09-.44.33-.57.48s0,0-.13.14-.46.41-.62.52-.52.52-.74.66-.35.3-.53.4c0,.22-.11.18-.22.35-.05-.11-.14-.24-.18-.35-.11-.39-.52-1.1-1.05-1.06s-.44.52-.84.8a.32.32,0,0,1-.09.26c0-.13-.28-.08-.35,0-.06-.24-.07-.68-.17-.53,0-.18.09-.47-.05-.22.09-.34,0-.86.18-1,0,.22.26-.11.22.09.34-.27.31-.46.7-.66,0,0-.09,0-.09,0a2.29,2.29,0,0,0,.53-.35s-.09,0-.09,0a4.68,4.68,0,0,0,1-1.1,11.72,11.72,0,0,0,1.81-1c0-.08-.06-.08-.09-.13a5.33,5.33,0,0,0,1.71-.88c0-.07-.13-.07-.17-.13.2,0,.2,0,.22.09.12-.13,0-.1.22-.18s-.15,0-.13-.13a.32.32,0,0,1,.3,0c0-.33.5-.3.62-.66.11.12.06-.12.17,0,.13-.07-.07-.18.05-.22.08.17.26-.31.44-.44s0,.06.09,0,0-.29.17-.22-.17.11,0,.13l.17-.17c-.07,0-.22,0-.17-.09.14.05.45-.29.39-.44.08.06.15.12.22,0s-.12,0-.13,0c.24,0,.17-.33.4-.27.26-.56.93-1.31,1.27-2.07a.21.21,0,0,0,.18,0,.24.24,0,0,0-.05-.18c.28-.1.28-.49.49-.74.08-.1.23-.16.31-.27s.13-.37.26-.57.52-.61.35-.83c.12-.05.31-.23.13-.31a2.52,2.52,0,0,0,.44-2.64c-.53-.35-1.27.08-1.71.35a27,27,0,0,1-2.77,2.2c-1.05,1.06-2.52,1.71-3.3,3a18.29,18.29,0,0,0-1.8,1.5c-.17.14-.4.27-.62.44-.41.32-.75.91-1.18,1-.68.15-1.21-.16-1.72.22-.17-.08-.07-.26-.22-.26-.06-.52-.21-1.21.09-1.34a.1.1,0,0,1,0-.07c.35-.13.62-.75,1-.84-.14-.16.23-.29.17-.39s.07.1.09,0c0-.28.4-.48.62-.66a.22.22,0,0,0-.14,0c.14-.17.27-.09.22-.27,0,0-.05.07-.08.09.05-.22.55-.12.35-.34h0c0,.12-.09,0-.09,0h.09c.26,0,.56-.23.52-.45.21,0,.05.07.14.09s.39-.24.13-.31c.43.1.56-.34.88-.48.06-.11-.21-.11-.05-.18s0,.12.14.13.06-.16.13-.22c.11.09.7-.36.81-.59a0,0,0,0,1,0,0c.05-.27.18-.14.35-.39,0,0-.11.16,0,.17.1-.14.06-.2.09-.35.27-.11.56-.38.57-.62.74-.51.8-1.49,1.54-1.93.38-.66.79-1.29,1.14-2,0-.12-.08-.09-.09-.18.09.09.22-.1.27-.21a7.38,7.38,0,0,0,.53-2.42c-.06,0-.13,0-.14-.05h.14c-.08-.37-.09-.82-.36-1a2.51,2.51,0,0,0-2,.79,12.94,12.94,0,0,0-.88,1c-.32.35-.7.49-.79.88a1.39,1.39,0,0,0-.71.66c-.31.09-.43.37-.7.49-.75,1.08-2,1.84-2.73,2.81-.05,0-.06-.06-.13,0a2.21,2.21,0,0,1-2.42.92c.05-.14-.11-.62.18-.7,0,.05-.07.06,0,.08s-.05-.16,0-.17a.25.25,0,0,0,.22,0c0-.22.34-.21.31-.39-.14.07-.21.17-.31.13.23-.18.58-.15.31-.26.36-.23.56-.7.79-.71-.06,0-.06-.12,0-.13s-.06.13.09,0-.07,0-.09-.13c.29-.11.15-.08.35-.09s-.15,0-.13-.13.19-.2.31-.09c0-.08-.06-.08-.09-.13a2.23,2.23,0,0,0,1.32-1,.65.65,0,0,1-.35.3c.2-.15.48-.63.7-.48,0-.08-.05-.1,0-.17.23.13.36-.19.57-.22s-.07-.19,0-.27c0,.11.1.11.13.18.1-.26.57-.37.58-.57-.08.08-.22.11-.27,0,.21,0,.26-.24.35,0,0-.17.35-.19.44-.39s-.16,0-.17-.05.31.05.39-.22c-.08,0-.14.13-.17,0a13.39,13.39,0,0,0,2.55-3.91s-.09,0-.09,0a1.13,1.13,0,0,0,0-1.37c.21-.14-.07,0,0-.31-1.94-.68-2.89,1-4.13,1.63-.47.79-1.4,1.12-1.89,1.89-.58.37-1,.87-1.58,1.28a9.28,9.28,0,0,1-1.72.17c.13-.06.21-.13.14-.3.08,0,.05.11.17.08.17-.29.46-.2.57-.52-.08,0-.18.12-.22,0,.66-.34,1-1.08,1.45-1.41,0,.06-.18.13,0,.17.18-.15,0-.19.13-.3,0,.18.88-.51.7-.57a13.29,13.29,0,0,1,1-.93s-.05,0,0-.09c.35-.08.34-.53.7-.61,0-.08-.05-.1,0-.18a5.61,5.61,0,0,0,1.23-1.84c.12,0,0-.13.22-.18.27-.8,1.25-1.79.57-2.86-.08,0-.11.07-.13,0s.08,0,.09-.09-.08-.15-.14-.22c-1-.33-1.62.2-2.37.75a17.7,17.7,0,0,0-1.45,1.41,19,19,0,0,1-2.2,1.93,2.32,2.32,0,0,1-1.54.18,1,1,0,0,0,.55-.48.08.08,0,0,1,0-.09.1.1,0,0,1,0,.09s0,0,.07,0c.11-.18.13-.09,0-.22.25-.26.74-.48.71-.88.31-.14.4-.5.7-.66,0,0-.05,0-.05-.09a.22.22,0,0,1,.14.05c0-.22.18-.32.39-.49.28-.61,1-.91,1.23-1.67a4.08,4.08,0,0,0,.84-1.27,6.49,6.49,0,0,1,.39-.62,4,4,0,0,0,.44-1.32,1.76,1.76,0,0,0,.09-.83c-.21-.29-.21-.82-.7-.88s-.66.25-1.06.31c-.68.94-1.71,1.53-2.37,2.5-.89.59-1.31,1.84-2.68,1.8,0-.05-.08,0-.09-.08a.44.44,0,0,1,.48-.35c.05-.14,0-.12,0-.22.48-.22.63-1,1-1.15,0,.09-.12.09-.13.18s.14-.15.22-.22-.13,0-.13,0c.17,0,.19,0,.08-.13a4.44,4.44,0,0,0,1.06-1.1s0-.14,0-.17.24-.2.31-.31,0-.16,0-.22c.14-.34.7-.88.44-1.1.23-.1.26-.51.39-1-.05,0-.12,0-.13,0a.3.3,0,0,0,.18,0,3,3,0,0,0-.58-2.25c-.72-.15-1,.21-1.49.44a17.24,17.24,0,0,0-1.19,1.89c-.67.44-.93,1.54-2.2,1.23.3-.13.31-.19.4-.39.18.12.33-.21.26-.22.11-.09.05,0,.14,0v-.26c.5-.39.73-1.06,1.31-1.36a6.2,6.2,0,0,1,.75-1.24c.2-1.11.7-1.93,0-2.9-.18,0-.18.11-.13-.09h-.58c-.55.21-.81.71-1.31,1-.56.5-1.15,1.4-2.12,1.25,0,0,0,0-.08,0l.08,0a.14.14,0,0,0,0-.1c.08,0,.11.06.13,0s0-.07,0-.14c.23-.24.54-.39.75-.74,0,0,0-.13,0-.14.18-.24.51-.4.7-.66,0,0-.05-.11,0-.13s.15,0,.17-.09a4,4,0,0,0,.35-.65c.08-.19,0-.43.09-.62s.12-.06.13-.13c.11-.42.13-1.76-.26-2.07a2.65,2.65,0,0,0-2.11.75c.18-.15,0-.23.13-.31-.1-.06-.16.11-.17,0a3.26,3.26,0,0,0,1.09-3.16c-.59-.42-1.59,0-2.11.35a.49.49,0,0,1-.66.26c0-.25.36-.7.31-1.32,0-.29-.17-1-.35-.7.14-.31-.47-.56-.66-.84a1,1,0,0,0,.09-.52s0,.08,0,.08a1.34,1.34,0,0,0-.17-1.18c.25-.11-.25-.26,0-.4-.17-.13-.16-.43-.4-.48.22,0-.1-.16-.09-.27.24-.43-.09-1-.17-1.27,0,0,0,.05-.09,0,.08-.21-.17-.44-.26-.61a5.11,5.11,0,0,0-.71-1.85,1.23,1.23,0,0,0-.26-.88c.1-.11,0-.21,0-.35s-.16.11-.17,0l.13-.13c-.06-.11-.12-.11-.17-.14s0-.25,0-.26-.05.07-.09.09.09-.31-.05-.13a.46.46,0,0,0,.14-.31c0-.12-.14-.2-.18-.44l.09,0c0-.23-.37-1.35-.22-1.4s-.72-1.05-.71-1.54c-.05-.11-.13.08-.17,0h.09c-.27-.4-.29-1.2-.84-1.53-.62.31-.53,1.27-.7,1.62a4.06,4.06,0,0,1-.05,1.06c0,.24.12.44.14.7,0,.41-.27.88,0,1.32a27.59,27.59,0,0,0,.17,4.92c.15,0,.12.56.09.36a1.77,1.77,0,0,1,.09.52c-.05.5,0,1.15-.05,1.5a9.65,9.65,0,0,1,.57,2.11c-.07,0-.07.24,0,.22,0,.22.4.55.66.88-.63.29-1.88.51-1.45,1.45-.05,0-.12,0-.13,0,.37,1.29,2,1.55,3,1.89-.45.27-1,0-1.4,0a1.51,1.51,0,0,0-1.45.88c-.45,2.15,2.77,2.38,4.13,2.81-1.27.32-2.92-.74-4.05.18,0,.3-.2.71,0,.92-.08.89.82,1.55,1.5,2a.89.89,0,0,0,.74.48c-.1.18.07,0,.05.14.93.2,2.21.28,3.07.44-.08,0-.09,0,0,.08-1.37.11-3.15-.65-4.35,0-.28.36-.19.76-.31,1.14.12,0,.15.12.18.22s-.11-.26-.18-.13c.08,1,1.29,1.84,2.33,2.33a1.85,1.85,0,0,0-1.41.53c0,.36.08.54,0,.83.22,1.28,1.14,1.85,1.89,2.6-.63,0-1.25-.3-1.58.09-.19.22-.12.61-.18.92,0,0,0-.09,0-.09.08.39-.06,1.23.26,1.32a4,4,0,0,0,1.67,1.89,2.69,2.69,0,0,0,1.41.92,12.36,12.36,0,0,0,3.87,1.19c.41.37,1,.39,1.45.66a5.12,5.12,0,0,1-2.86-.39c-.4-.14-.84-.13-1.23-.27a8.65,8.65,0,0,0-1.93-.75c-.45-.28-1.52-.93-2.2-.52-.33.19-.38.7-.49,1,0,0,.09,0,.09.05-.24.28.17.82.05,1.09.24.27.36.71.61,1,.59.71,1.62,1.06,2.16,1.8.44.14.7.47,1.23.53-.1,0,.26.19.39.22a18.58,18.58,0,0,1,2.55.57s-.09,0-.09,0a5.49,5.49,0,0,1,.66.13,8.52,8.52,0,0,0,1.5.79c.69.18,1.31.15,1.63.62-.6,0-1.06.35-1.59.26-.22,0-.43-.23-.66-.3s-.79-.12-1.14-.22a4.06,4.06,0,0,0-1.76-.4c-.07-.12-.31-.07-.35-.22-1.13-.27-2.68-1.19-4.05-1.54-1-.25-1.56.16-1.4,1.23,0,0-.09,0-.09,0-.13.42.31,1.18.57,1.54-.32.08-.58-.1-.83,0s-.12.53-.36.61c.05.26-.21.53,0,.88a3.07,3.07,0,0,0,.4,2s0-.1,0-.09a9,9,0,0,0,1.71,3.34,9.26,9.26,0,0,0,.53.8,9.42,9.42,0,0,0,3.7,2.72,6.51,6.51,0,0,0,1.8.49c.09.17.43.09.57.22,0,0,0-.1,0-.09.48.12,1.15.05,1.59.13.86.15,1.68.85,2.9.83,0,.13.5.2.61.14a1.3,1.3,0,0,1,.4,1.14c-.3-.26-1.33-.58-1.76,0-1.85-.17-3.13-.91-5.14-.92a5.93,5.93,0,0,0-1.76-.84v-.13c-.71-.28-1.28-.79-1.94-1-.05,0-.21,0-.26,0s0-.08,0-.09a2.53,2.53,0,0,0-1.23-.48c.09-.1,0-.05,0-.14-1.53-.47-2.69-1.33-4.13-1.89a2.91,2.91,0,0,0-1.63,0c-.24.29-.1.81-.09,1.15-.06,0,0-.08-.09-.09a5.13,5.13,0,0,0,1,2c.33.4.76.72,1.1,1.06.55.53.94,1.24,1.72,1.49,0,.08,0,.1.13.09a20.2,20.2,0,0,0,3.3,2.29c.25.14.46.38.66.48.42.21,1,.28,1.27.57a11.65,11.65,0,0,0,3.21.88s0-.1.05-.09a11.29,11.29,0,0,0,2,.57s0-.09,0-.08c1.31.11,2.38,1.17,4,.74.12.2.44,0,.62.09.4.2.46.81.51,1.26v0h0s0,.09,0,.13c-.08-.13-.08-.09,0-.13v0c-.66-.53-1.94-.33-1.92.54-.19,0-.13.47-.18.58a.13.13,0,0,0-.09-.14c0,.27-.2.36-.3.53-.27-.25-.39-.63-.75-.79,0,0,0,0,0-.09-.3-.08-.61-.47-1-.53-.5-.07-.59.23-.93.49a12.63,12.63,0,0,1-.39,1.36c-.14-.14-.39-.17-.49-.35a2.77,2.77,0,0,0-2.55.53c-.8-.25-2.11-.57-2.77-.09a6.38,6.38,0,0,0-1.45,0c-.74.09-1.19.65-1.8.66-.39,0-.85-.14-1.32-.18-1.28-.1-2.89.13-4.31,0l-.48,0c-1.13-.07-2.25-.22-3.26-.22-1.75,0-4.05,0-4.57,1.1a.91.91,0,0,0,.13.22.42.42,0,0,0-.17.18c.71,1.41,2.57,1.9,4.17,2.15a20.63,20.63,0,0,0,4.62,1.24s0,.05,0,.08a13.71,13.71,0,0,1,2.15.27,38.15,38.15,0,0,0,8.88.13,4.56,4.56,0,0,1,1.41-.26c1.55-.24,2.61-.89,4.66-.62-.07.16.15,0,.13.13-.17.17-.16.66-.26.79,0,0,0-.14-.05-.13-.56,1.9,2,2,2.82,1.1-.06-.11.23-.26.31-.4a.32.32,0,0,1-.14-.08c.23,0,.18-.33.4-.36,0,.07-.16.18,0,.22,0-.15.14-.13.17-.17-.14,0-.14-.17,0-.26s-.09.16,0,.21a1.44,1.44,0,0,1,1.1-.61c.43.22.59.93.66,1.36.2.2.15.52.26.84.33.91,1,2.44.4,3.12-.08-.1,0-.28,0-.31-.37-.28-1.22-1.37-1.89-.57a5,5,0,0,1-.4.84c.07.06.09.43,0,.43s.13-.14,0-.17c-.27.33-.25,1-.49,1.32a.17.17,0,0,0,.13-.05c0,.08,0,.19-.08.22,0-.22-.19-.28-.27-.44,0,0,.07.07.09,0s0-.1,0-.17c-.59-.66-.9-2.34-2-2.42a.69.69,0,0,0-.79.53c-.1-.12-.18.15-.09.22-.11-.11-.17.31-.22.39s0-.1,0-.08c-.19.4-.16.87-.44,1.05,0-.2-.15-.23-.13-.44-.37-.06-.23-.51-.48-.66,0,0,.1,0,.08,0-.25-.62-.85-1.56-1.62-1.54-.55,0-.94.44-1.15,1.1,0,0-.11,0-.13,0a1.06,1.06,0,0,1-.7.48c.18-.1-.14-.34,0-.31,0-.16-.2,0-.17-.17a.13.13,0,0,0,.13-.09c-.19-.18-.09-.36-.13-.53s-.37-.58-.4-.79A2.67,2.67,0,0,0,383,231c-.88.56-.83,1.71-1.45,2.51.05-.08-.2-.07-.22-.09a12.45,12.45,0,0,0-1-1.63c-.16-.11-.21.07-.09-.13a1.62,1.62,0,0,0-1.32-.4c-.25.08-.28.41-.52.49-.08.22-.07.36-.22.44v.3c-.38.07-.21.67-.44.88a1.78,1.78,0,0,0-.27-.17s.09,0,.09,0c-.7-.48-.86-1.87-2.5-1.75-.37.47-.34.64-.66,1.09.05,0,.1,0,.08.09-.24.11-.31.57-.48.62-.37-.32-.4-.71-.83-1,0,0,.12,0,.13,0-.39-.61-1.72-1.54-2.33-.84-.22.25-.53,1-.35,1.19-.19,0-.17.14-.18.39-.11,0-.1.08-.22,0,.1-.11-.29-.11-.31-.35a3.64,3.64,0,0,0-1.54-.4c-.9-.12-1.47-.84-2.5-.75a13.56,13.56,0,0,0-3.43-1c-1.81-.47-3.8-1.11-5.45-1.58-.78-.22-1.49-.56-2.07-.09,0,.55,0,.88.22,1.14a12,12,0,0,0,4.4,3.57c.2.36.63.38,1,.57a16.52,16.52,0,0,0,2.2,1.18,13.56,13.56,0,0,0,3.17,1c.5.71,2,.43,2.55.88-.06,0,0,.08-.09.09s-.06-.12-.09,0,.07.31,0,.31c.14.36.16.67.39.84.6.42,1.38-.1,2.11-.31s1.08.07,1.63.09.86-.19,1.36-.22,1.09.38,1.67.44a17.74,17.74,0,0,0,2.42-.27,2.51,2.51,0,0,0,.88.27c.78.08,1.7-.46,1.94.09-.12,0-.11.27,0,.13a.12.12,0,0,1,.09-.13c.07.26-.25.27,0,.3a1.42,1.42,0,0,0-.31,1.06c.05,1,.74,1.19,1.71,1.05s1.87-1.09,2.6-1.45a.49.49,0,0,1,.22.4c-.05,0-.06,0-.09-.05.2.54.17,1,.57,1.28a1.72,1.72,0,0,0,1.8-.18c.16-.1.42-.46.66-.57,0-.22,0-.31.09-.39s-.08.13,0,.17a3.47,3.47,0,0,1,.31-.44c0,.05-.08.1,0,.13.24-.37.66-.89,1.1-.57,0,.05,0,.06,0,.09s0,.26-.14.22a6.24,6.24,0,0,0,0,1.14c.18,1.23,1,1.61,2.15,1a1.16,1.16,0,0,1,.93-.44c0,.74-.1,1.8.66,2.15a3.2,3.2,0,0,0,2.55-1.06c-.12-.22.21-.24.26-.43s-.11.05-.13,0,.21,0,.22,0c-.15-.2.29-.52.35-.79.05.11-.14.18,0,.17-.08-.24.25-.14.05-.26.34-.14.75-.78,1.19-.35a9.52,9.52,0,0,1,.7,2,45.64,45.64,0,0,1,1,4.79c.19.21.22.57.4.79,0-.18-.1-.21,0-.35a20,20,0,0,1,.48,3.78,1.81,1.81,0,0,0-.18-.7c-.12.26-.16.54-.44.44,0-.18-.53-.62-.66-.79.14,0,0-.1,0-.18s-.1.06-.13,0a1.23,1.23,0,0,0-.44-.57c-.43-.35-1.06-1.31-2.28-1.28-.09.17-.22,0-.14.22-.56.33-.38,1.09-1,1.58-.42-.35-.71-.94-1.36-.92s-1.11.88-1.19,1.36c0-.06.05-.22,0-.22-.2.39-.25,1.13-.53,1.41a.12.12,0,0,1,.09.13c-.11-.18-.2.1-.26-.09,0,0,.07-.1.08,0,0-.1-.23-.26-.3-.31s0-.07,0-.13-.14,0-.18,0c0-.54-.51-.72-.79-1.32-.1,0-.09-.08-.22,0-.23-.45-.88-.49-1.58-.48-.2.19-.44.32-.48.66h-.14c-.11.33-.1.94-.26.88a2.72,2.72,0,0,0-.18,1.63c-.05,0-.13-.18-.17-.05s.25.36.22.53c-.09-.09,0-.16-.09-.27s-.32-.3-.26-.21c-.18-.28-.09-.82-.22-.58-.07-.08,0-.31-.13-.13,0-1.24-1.26-2.79-2.55-1.89-.16.46-.51.72-.62,1.23,0-.05,0-.12,0-.13-.43.43-.34,1.22-.62,1.71.09,0,.09,0,.13-.08-.08.22,0,.32,0,.44-.05-.17-.08-.37-.22-.44.05,0,.1,0,.09-.09-.3-.24-.13-.12-.31-.35.05,0,.1,0,.09-.09s0-.19-.18-.18c.05,0,.07,0,.09-.08s-.13,0-.13-.05a16.5,16.5,0,0,0-.62-1.71.17.17,0,0,0-.13,0c-.07-.78-1.21-1.72-2.07-1.05a.19.19,0,0,0,0,.13c-.37.14-.4.63-.53,1-.1-.06.05-.11-.05-.13-.51.66-.22,1.79-.61,2.46a1.84,1.84,0,0,1-.18-.75c-.18,0-.08-.08-.17-.22a7.08,7.08,0,0,1-.62-1.27,8.29,8.29,0,0,0-.61-1.23,1.91,1.91,0,0,0-1.59-.88c-.88.1-.89,1.35-1.32,1.84-.12.15-.28,0-.13.22-.11.06-.18-.13-.22,0s.15.19.05.22c-.57-1.05-1.06-2.42-2.86-2.37-.49.31-.35,1.13-.57,1.36,0,0,0-.1-.05-.09a2.43,2.43,0,0,1-.48.84c-.05-.43-.56-.69-.75-1.28-.12,0-.16-.22-.26-.13.07-.23-.4-.45-.53-.48-.2-.42-1.08-.56-1.85-.44-.33.24-.4.91-.39,1.36-.07,0,0-.12-.09-.13-.1.28-.44.5-.39.79-.48-.55-.94-1.68-2-1.49-.53.09-.6.85-.79,1.23-.15-.06-.37.14-.53.22,0-.24,0-.06-.08,0-.26-.42-.44-1.12-.8-1.28a1.32,1.32,0,0,0-1.8-.66,15.07,15.07,0,0,0-2.46-2.59c-.48-.17-.62-.67-1-.92-.14,0-.09,0-.22,0-.08-.4-.74-.4-.71-.75-.16-.06-.32-.2-.43-.18.08-.05-.16-.31-.27-.17,0-.11-.07-.14-.09-.22a12.5,12.5,0,0,1-1.67-1.28,1.6,1.6,0,0,0-1.62-.79c-.25.34,0,.84.08,1.19-.1,0,0-.13-.13-.14-.07.19-.13.45.05.58-.07.52.63,1.48.88,1.84.72,1.08,1.55,2.43,2.15,3.43.11,0,.15.08.22.13-1.45-.39-2.8-.62-4.44-.92-1.26-.42-2.9-.47-4.13-.92-.52,0-1.39-.14-1.76.22a.74.74,0,0,0-.05.35c.08,0,.1.14.14.22-.14,0-.12.12-.22.13,0,.67.62,1.09,1,1.32,2.92,1.59,6,3.3,9.76,3.87,1.06.16,1.78.95,2.82,1.05,0,.1-.09.27,0,.36-.23.08-.23.39-.22.7s.29.22.48.4a4.85,4.85,0,0,1,.35.48c.41.44,1.76.17,2.16.44-.52,2,1.68,2,2.9,1.23a.22.22,0,0,1,.39-.09c-.18-.09,0,.06,0,.13-.25,0-.23.23-.27.27-.17-.25,0,.28-.26.26,0,.36-.35.71-.18,1.32.16.07.11.12.22.26,1.32.75,2.45-.14,3.3-.57.09,0,.64-.24.57-.26s.09.13.09.13-.09-.12,0-.13.11.11.18.13a2.41,2.41,0,0,0-1.18,1.91c0-.09-.11-.16-.1,0s.07,0,.05,0c-.2.26,0,.57.09.8a2,2,0,0,0,1.49.26c1.37.17,2.57-1.66,3.65-1-.35.45-1.4,1-1.36,2-.1-.09-.16.36-.09.53s.6.49.92.53a4.3,4.3,0,0,0,3.08-1.15c.25,0,.5-.23.92-.13a.58.58,0,0,1-.39.71c.08,0-.12.28-.18.17-.3.53-1,.91-1.05,1.54-.08,0-.15,0-.18.09s.11,0,.09.09a.19.19,0,0,0-.18.08.21.21,0,0,0,.14,0c0,.06-.06.07,0,.13-.2-.05-.13.54-.09.75.86.89,2.95.51,3.91,0,.27-.16.57-.56.92-.36,0-.11-.08-.13.05-.17,0,.18-.07.21,0,.35s-.06-.06-.13,0-.16.24-.05.3c0-.14.09-.14.13-.22a.78.78,0,0,1-.17.31c0-.1,0-.14-.13-.13a.7.7,0,0,0-.09.44c-.07,0,0-.12-.09-.13.12.47-.24.5-.31,1,0-.05-.07-.06-.09,0,.16,0,.11.29,0,.26.07-.14,0-.31-.08-.22.14.12-.08.17-.09.18s0,.15.09.17c-.23,0-.29.86-.09,1.28,1,.77,2.61.33,3.74-.13a4,4,0,0,1,.52-.57c.14-.05.51-.11.31-.22.11,0,.17-.13.31-.14s0,.27,0,.27.16-.18.18-.09a9.12,9.12,0,0,1-1.19.92c0-.06.19-.14,0-.13-.05.3-.22.12-.26.31s.13-.17.22,0c-.18,0-.14.19-.27.22s.18-.2,0-.18c-.08.54-.4.59-.39,1.15,0,.83.74,1.14,1.45,1.23,2.47.31,3.87-1.66,5.67-2,0,.07.12,0,.13.09s.13.38,0,.48c0-.06.05-.23-.05-.22.06.25-.25.32,0,.4h-.17c-.27.74-1.1,1.15-1.5,1.62.08.2-.25.1-.17.57-.18,0-.23.38-.18.62s.59.65.88.75a4.13,4.13,0,0,0,2.95-.4,3.84,3.84,0,0,0,1.14-1.05c.19,0,.18-.17.26-.27s-.1.06-.13,0c.47,0,.59-.82,1.23-1,.17-.47.59-.5,1-.61.11.08.13.4,0,.26.15.18-.18.28-.09.39l0,0,0,0h0a5.53,5.53,0,0,1-.75,1.1c.08.1,0,.13,0,.27-.09-.08,0,0-.17,0a3.21,3.21,0,0,0-.22,2.33,1.89,1.89,0,0,0,1.89.48c.53-.38,1.15-.4,1.62-.83,0,.21,0-.06.13,0,.07.59-1,1.69-.35,2.19a2.19,2.19,0,0,0,2.33.93c2.16-.25,3.56-2,4.53-3.12,0-.09-.13-.15,0-.18s0,.09,0,.09c.31-.37,1.71-1.8,2.19-.7,0,.05-.06.08,0,.17a.22.22,0,0,0,.13,0,10,10,0,0,0,.4,1.8c-.06-.06-.17-.06-.18,0s.22,0,.18.09c-.25,0,0,0,0,.09a5.35,5.35,0,0,1,0,.92c.14,1.58.44,2.87.44,4.44,0,1,0,1.9,0,2.91,0,.59.07,1.24,0,1.84a10.09,10.09,0,0,0-.22,1.36c0,.7,0,1.46-.09,2.16a7,7,0,0,1-.62,3,.22.22,0,0,1-.3-.09c.09-.1,0-.19,0-.35l-.06,0a12.17,12.17,0,0,0,.13-1.4c0-.18,0-.22,0-.43,0-.93,0-1.82-.78-2.31s-1.55.31-1.87.76a5.77,5.77,0,0,0-.79,1.52c-.08,0-.09.05-.17.05.13.32-.21.26,0,.49-.29.1-.22.76-.46.67v0l-.05,0c.05-.19-.07-.2-.09-.31.14-.11.12-.61.09-.75-.27-.56.33-2-.18-2.68-.15,0-.11,0-.26,0-.62-.58-1.65,0-2,.52,0,0,.17-.13,0-.17-.23.35-.51.59-.7.88-.05-.08.13-.15,0-.18a.72.72,0,0,0-.05.31s-.06-.06-.13,0c0,.28-.2.27-.31.43s-.09.44-.17.53-.09-.07-.14,0-.22.64-.44.53a.5.5,0,0,1-.74.35c.09-.59-.08-1.86,0-2.68,0,0,.22-.93.27-.7,0-.42.2-.79.13-1.19a4,4,0,0,0-.31-.92,1.42,1.42,0,0,0-2.11-.49c-.2.14-.54.58-.48.62-.17-.08-.29.22-.31.31-.15-.09,0,0,0,.08-.22,0-.17.19-.27.4s-.32.47-.44.7c-.22.45-.24,1-.48,1.32-.12.16-.37.15-.44.31s.08.14,0,.18-.42.19-.62.22c-.26-.39-.1-1.21-.31-1.5,0,0,0,.1,0,.09a12.6,12.6,0,0,1,.22-2.9c0-.09-.12-.17,0-.27-.27-.42-.21-1.33-.5-1.68h0c-.05-.47-.37-.57-.44-1.27a4,4,0,0,0-.31-.27c-.83-.88-1.82-.42-2.33.44v.22a4.35,4.35,0,0,0-.7,2,14.59,14.59,0,0,0-.31,1.67c-.17.14,0,.3,0,.57s-.26.24-.31.44c0-.19-.19.08-.22.14a1.89,1.89,0,0,0-.26-.44,2,2,0,0,0-.09-1.19c0-.05-.12-.58-.19-.55l0,.06a.16.16,0,0,1,0-.06c.08-.19,0-.42.15-.46-.05-.16-.15,0-.22-.09.16-.07.33-.12.22-.35,0,.06,0,.16-.05.17,0-.19,0-.44.13-.26-.22-.35,0-.57,0-.88.05,0,.07.06.09,0a.3.3,0,0,1-.13-.09,2.72,2.72,0,0,0-.14-1.45s0,.1,0,.09c0-.17.1-.34,0-.18a3.36,3.36,0,0,0-.49-1.49c.07,0,.07-.21,0-.18,0,.22-.06-.09-.09-.13a1.75,1.75,0,0,0-1-.75c-.84-.05-1.3,1.05-1.67,1.59,0-.09.13-.15,0-.18a9.3,9.3,0,0,0-1.1,2.37c-.08,0-.18.06-.22.14,0-.09,0-.1-.09-.05,0-.16-.08-.19,0-.35a.94.94,0,0,0-.31-.17c.12,0,.05-.05,0-.09a9.73,9.73,0,0,0-.17-1.76c0-.05,0-.7-.27-.79a1.4,1.4,0,0,0-.39-1.1A1.64,1.64,0,0,0,376,277c-.9-.06-1.3.87-1.59,1.45,0,0,0-.09,0-.09s0,.25-.13.13c-.05.09.13.15,0,.18s-.45.51-.71.66c0-.17-.23-.15-.17-.48,0,0-.08,0-.09-.05a19,19,0,0,0-.75-2.2c-.36-.77-1.84-1.17-2-.26-.32.09-.35.49-.48.66,0,0,.06-.07,0-.09s-.09.32-.22.4-.15-.14-.13-.05.19.12.09.13c-.19-.16-.28,0-.49.09a9.09,9.09,0,0,1-.26-1.45c-.08,0,0-.48-.22-.61a2.81,2.81,0,0,0-1.36-2.55c-.77.17-1,.74-1.41,1.23-.05-.2-.24.18-.35,0s.07,0,.08-.09c-.18,0-.11-.16-.21,0v-.44c-.26-.55-.15-1-.58-1.41a1.16,1.16,0,0,0-1.89.31c-.23,0-.08.19-.22.09s0,.17-.08.17-.21-.08-.31.05a.39.39,0,0,0-.13-.4c0-1.43-.74-2.85-2.25-1.93-.12.13-.29.57-.39.44a.43.43,0,0,1-.13.26c-.19-.14-.13-.12-.27-.22,0,.11.09.14,0,.18.05-.35-.34-.65-.18-.62,0-.08,0-.1-.13-.09a3.94,3.94,0,0,1-.31-.48c-.66-.47-1.78-.47-1.89-1.49a.38.38,0,0,1-.22-.27c-.05,0-.12,0-.13,0-.14-.44-1.19-.87-1.54-1.23,0-.06-.05-.07,0-.22-.43-.35-.84-1.09-1.54-1.5,0-.25-.5-.47-.66-.66,0,0,.06-.07,0-.09a2.11,2.11,0,0,0-.83-.52c.18-.19,0,0-.05-.05s-.48-.83-.61-.66c-.26-.46-.6-.49-.84-.83,0,0,.07.06.09,0-.26,0-.34-.39-.57-.53,0,.08.06.11,0,.13s0-.25-.09-.31-.19-.11-.26,0c0-.21-.33-.39-.44-.62.21.36-.19,0-.09-.13-.62-.24-.83-.9-1.41-1.18a2.06,2.06,0,0,0-1.67-1.06,2.21,2.21,0,0,0-.13,1.23,1.65,1.65,0,0,0,0,1.41c.11.23.35.37.48.53a6.75,6.75,0,0,1,.88,1.67c.8,1.61,2.07,3,2.73,4.44.42.58.86,1.15,1.3,1.72-.81.41-1,1.34-1.32,1.91,0,0,0,.07,0,.08a.2.2,0,0,1,0-.08c0-.08-.16-.16-.16-.07-.08-.35.13-.78,0-1,0,0,0,.23-.08.14.11-.35.31-.83,0-1.08.27-.3-.29-.91-.16-1a.55.55,0,0,0-.28-.34c.05,0,.11,0,.05-.08s-.07.11-.16,0c.07-.1,0-.28,0-.08-.07-.14,0-.28-.1-.09-.1-.07,0-.23-.1-.19s-.39-.29-.6-.28c-.88.2-1,1-1.16,1.38,0,0,0,.2,0,.26s-.1.14-.21.06c.07.09.12.11.06.22-.22-.13-.23-.46-.43-.62.19,0,.12-.35-.05-.37,0,0,.11,0,.11-.06a4.67,4.67,0,0,0-.87-2.08,2,2,0,0,0-.64-.61,1.7,1.7,0,0,0-1.3,1.47.63.63,0,0,1-.36,0c.17-.12-.28-.39,0-.3a2.35,2.35,0,0,0-2.51-1.68c-.1,0-.19-.29-.37-.3,0-.18-.08-.19-.11-.29-.1.09-.4-.46-.52-.32-.22-.34-.8-.28-1.46-.66,0,0,.06,0,.1,0-.26-.07-.23-.17-.35-.36-.29.22-.13.4-.43.58,0-.05,0-.25-.07-.21s0,.28-.09.2a3.78,3.78,0,0,1,.05-.83c-1.13-.12-2.08-.86-3.16-1.13-.26-.28-.63-.31-1-.58-.05,0-.15.08-.2,0a2.33,2.33,0,0,0-.84-.44c0-.15-.44-.4-.42-.22-.07-.15-.13-.25-.14-.08-.06-.18,0-.13-.18-.15,0,0,.07,0,.06-.08a4.36,4.36,0,0,1-1.3-.67h0l-.08-.06,0,0-.1-.06h0a6.18,6.18,0,0,1-.94-.66c0,.05.07.11,0,.14s-.09-.38-.18-.15a.25.25,0,0,1,0-.17c-.31.12-.62-.55-1-.44.07-.18-.14.08-.22-.13-.19.09-.05.54-.2.36,0,.38.06,1.1.34,1.27a.16.16,0,0,0-.1.1c.6.9,1.36,1.95,1.74,2,.09.28.39.47.54.65,0,0,0,0,0,0s.22.17.28.14a8,8,0,0,0,2.09,1.92,10.12,10.12,0,0,0,1.73,1.51c.71.11,1.24,1,2.07,1.33.14.06.29.06.42.12.48.23,1.2.95,1.52.87.37.31.9.1,1.24.53,0,.49.72,1.15,1.26,1.32a.3.3,0,0,0,.14-.13c.12.27.69.11.87.23a3.65,3.65,0,0,0-1.05,1.08s0-.05,0,0c-.07.24-.07.59-.13.87.87,1.75,2.77.32,4.29.07-.57.43-1.42.78-1.74,1.4,0,.08-.11.51-.07.43-.47.88,1.26,1.75,1.75,1.45-.84.33-.61.73-.49,1.22,0,.06-.07.12-.06.18a1.3,1.3,0,0,0,.62.77c-.09.09.12.09.13.23,1.36.94,3.06.42,4.56.47.38.25.87.13,1.29.25-.62.49-1.31.08-2.13.61-.2-.2-.79.23-.78,0-.39.18-.45.46-.75.66a.92.92,0,0,1,0,.49c0-.05,0-.13-.06-.12s.18.73.11.59a1.85,1.85,0,0,0,.42.58,3.64,3.64,0,0,0,3.4,1,7.67,7.67,0,0,0,1.79.17c-.12.23-.81.27-.58.22-.42-.18-.71.07-1.15.18-.91.21-1.9-.06-2.68.5-.31.22-.42.72-.6.93.06.12.18.17.17.31-.17,0,.35,1,.48,1,.21.37.8.57,1.27.77.29.12.53.29.74.35.59.14,1.32-.1,2,0a3.39,3.39,0,0,0,1.34.17c.5.18,1.31-.15,1.77-.16-.17.69-.89.52-1.53.88a20.54,20.54,0,0,1-2.3,1.2,2.3,2.3,0,0,0-1.37.79c-.12.36.15.91.16,1.22.07.08.19,0,.26,0s-.22.06-.17.14a2.46,2.46,0,0,0,1.27.86,6.61,6.61,0,0,0,1.82.31,7.69,7.69,0,0,0,1.72-.23,6.9,6.9,0,0,0,1.9-.39,6.42,6.42,0,0,1,1.95-.46c-.06.55-.73.61-1.18.79-.14.06-.25.17-.38.21s-.25,0-.36,0c-.56.13-1,.69-1.59.57a15.91,15.91,0,0,0-2,.9,1.8,1.8,0,0,0-.07,1.79c.44.79,2,1.06,2.76,1.3-.27.24-.6.32-.75.56s0,.42-.15.28c-.05.28.15.58.05.73a5.09,5.09,0,0,0,4.23,2.45,6.13,6.13,0,0,0,2.24.23c.91-.07,1.89-.41,2.85-.45a6.74,6.74,0,0,0,1.59-.11c.64-.18,1.07-.38,1.53-.13-.05-.1.13-.08.14,0-.41.28-.47.74-.85,1-1,.71-2.54.58-3.4.85a.71.71,0,0,1-.21,0,.24.24,0,0,0-.14.12,9.51,9.51,0,0,0-2.65.09,2.11,2.11,0,0,0-1.78,1.32c.3.76.25,1,.56,1.4,0-.06,0-.27.09-.2l.06.12c-.05,0-.07,0-.12,0,.48,1,2.05,1.48,3.06,1.84a4.21,4.21,0,0,0,1.43.07,1.41,1.41,0,0,1,.46.1,11.4,11.4,0,0,0,3.87-.8c.24-.09.62-.33.49-.11.18-.14.58-.07.7-.09.31-.05,1-.44.8-.18a2.27,2.27,0,0,1,1.68-.41c-.06.05,0,0,.08.05a8.12,8.12,0,0,1-1.4,1c-.3.12-.7.11-1.08.24a6.7,6.7,0,0,1-1.38.4c-.25,0-.46,0-.67.06s-.79.09-.82-.05a1.22,1.22,0,0,1-.75.11c-.94.31-2,0-3,.4a3.25,3.25,0,0,0-1.23.79h0c-.39-.36-1.49,0-1.45.4-.24.08-.8.88-.7,1a4.05,4.05,0,0,0-.58.78l.05,0c-.22.29-.19.46-.44.66,0,0,.11-.17,0-.17-.11.22-.17.16-.13.43-.14,0-.5.53-.27.62-.23-.05,0,.11-.17.09,0,.12.09.09.09.17-.25,0-.2.3-.22.36s-.13-.06-.14,0,.11,0,.09.08-.1-.07-.13,0c.15,0-.15.28.09.27-.05.11-.19.13-.22.26a1.06,1.06,0,0,1-.4.57,13.6,13.6,0,0,1-1.62,2,5,5,0,0,1-1.28.48c0-.06-.12-.09-.13-.18.17,0,.23-.59.4-.79,0,0,.11,0,.13,0a15.48,15.48,0,0,1,1.18-2.06c.26-.29.54-.51.8-.8a3.25,3.25,0,0,1,.74-1.18,6.83,6.83,0,0,1,.62-1.5c-.09-.32.18-.4.13-.61a.3.3,0,0,1-.09.13c.06-.34.26-.19.18-.53.19.14.07-.37.13-.48s.15-.06.18-.13-.06-.18-.05-.27.23-.33.22-.53-.05-.06,0-.13a2.32,2.32,0,0,0,0-1.1c0,.05,0,.13,0,.13s.13-.24,0-.3,0,.12-.05.13a2.63,2.63,0,0,0-.22-.66c-.57-.76-1.67.17-2.06.44.09.17-.07.07-.05.26a3.47,3.47,0,0,0-1.1,1.37c-.06.09-.1-.06-.13,0a2.35,2.35,0,0,1-.88,1.05c.11.19-.14.19-.13.4-.8.73-1.31,2-2.81,1.58.11-.43.19-.79.39-.92,0-.18,0-.26.18-.31,0-.17,0-.32.13-.31-.08-.3.36-.5.4-.74a10.49,10.49,0,0,0,1.69-2.08.05.05,0,0,1-.07,0c.36,0,.22-.51.44-.4a.57.57,0,0,1,.14-.39c0-.27-.17.24-.22.08s.18-.39.3-.17c0-.12-.08-.09-.08-.18a9.62,9.62,0,0,0,.52-.83c-.05,0-.07-.05-.09-.09s.13,0,.14,0c.13-.62.69-1.32.7-2.15a1.92,1.92,0,0,0,.26-1.06,1.35,1.35,0,0,0-1-1.14c-.83.06-1.26.73-1.63,1.1-.47.11-.6.6-.92.79s-.46.68-.66.79a.29.29,0,0,0,0,.14c-.31-.07-.42.65-.7.65-.1.42-.65.74-.84,1.1,0-.05.08-.1,0-.13-.08.17-.19.4-.31.4-.14.41-1.31.61-1.75.35.14-.8.59-1.05.74-1.8.09,0,.09-.06.14-.09a2.6,2.6,0,0,1,1.14-1.89,4,4,0,0,0,.44-.35c.05-.08,0-.36.17-.27.05-.16-.14-.08-.17-.17.14,0,.13.07.22.08.14-.36.28-.36.17-.57.1,0,.13-.07.14-.08.18-.23.72-1.85.08-2.51-1.42-.45-2.14.54-3,1.23-.32.25-.7.5-.84.62-.4.31-.83.76-1.27.39.42-.75.76-1.81,1.36-2.24a1.22,1.22,0,0,0,.49-.62c-.06,0-.13,0-.14,0,.36.1.37-.46.44-.44-.09,0,.06-.37.18-.4s-.16.27,0,.18.21-.31.13-.4c0,.07,0,.16-.09.14.11-.24.1-.33.31-.49.27-.76.85-2.54-.44-2.81-1.21,0-1.72.81-2.38,1.41-.26.24-.59.43-.7.88a1.79,1.79,0,0,1-1.54.48c.31-.51.8-.84,1-1.5,0,.06,0,.13,0,.14a12.07,12.07,0,0,0,.7-1.39s0,0,0,0a3.45,3.45,0,0,0,.49-1.76,2.31,2.31,0,0,0-.22-2.37,1.38,1.38,0,0,0-1.46.3,21.79,21.79,0,0,1-1.45,1.67c-.09-.08-.09.13,0,.09-.38.1-.52.68-1,.4.14-.22.36-.47.35-.71,0,0,0,.09,0,.09.11-.43.44-.77.58-1.18.05-.17,0-.52.22-.49,0-.05,0-.29,0-.31s0,.12,0,.09-.11-.29.05-.13c-.16-.38.21-.05,0-.44.16,0,.08-.19,0-.22.21,0,.1-.53,0-.66.23,0,.16-.39.31-.7-.19-.26,0-.79-.35-1a.55.55,0,0,0-.44-.58c-.61-.08-1,.59-1.32.84a7.48,7.48,0,0,0-.75.7s.09,0,.09,0c-.2.06-.28.06-.22.22-.53,0-.33-1.07-.31-1.32,0,0,0,.11.05.09.12-.26-.12-.67.08-.58a.8.8,0,0,0,0-.39s.05,0,.09,0c-.06-.57.05-1.16-.31-1.49.21,0,0-.16,0-.27s-.14.09-.18,0c.07,0,.11,0,.14,0-.16-.1-.31-.56-.49-.36,0-.12.08-.08,0-.17a1.55,1.55,0,0,0-1.54.92s-.35,0-.44-.09,0-.47-.08-.26c.06-.07.16-.53,0-.31.13-.21-.16-.5-.27-.7a.94.94,0,0,0-1-.62,1.28,1.28,0,0,0-.88.62c0-.08.07-.11,0-.13s-.13.19-.22.26c0-.24,0-.12-.13-.09-.06-.14,0-.61-.13-.44,0-.13.13-.19,0-.3-.1.06,0,.1-.05.13.1-.43-.23-.65-.52-1,0,0,.08,0,.08,0-.29-.35-.95-.3-1.23-.66-.15-.2-.12-.48-.26-.75-.25.07-.09-.41-.26-.22,0-.11,0-.3-.09-.13a1.79,1.79,0,0,0-1.19-.84c-.25-.3-.44-.79-.88-1,0-.06,0-.16,0-.17-.35-.17-.51-.51-.88-.71a.73.73,0,0,0-.53-.53c0-.21-.23-.24-.26-.44-1.35-.76-1.94-1.74-3.26-2.5-.07-.15-.2-.24-.26-.4-.12,0-.09-.07-.18,0,.08-.08,0,0,0-.17-.73-.33-.89-1-1.71-1.19-.12-.25-.42-.54-.7-.48.08-.16-.53-.47-.53-.27-.08-.08-.08,0-.05-.17-.15,0-.67-.07-.44.08-.12,0-.08-.08-.17-.08-.31.38-.08.9-.22,1.27a6.42,6.42,0,0,0,1.49,2.24c.29.59.65,1.2,1,1.72a7.58,7.58,0,0,1,1.23,1.93,14.22,14.22,0,0,1,2.07,2.73c.58.38.87,1.38,1.54,1.85.39.27.9.32,1.05.74a4.75,4.75,0,0,1,.05.53,2,2,0,0,0,1.67,1.5c-.08,0,0,.05,0,.13-.18.12-.45.13-.53.31s.05.12,0,.13-.08-.06-.13,0-.11.41-.09.35a2.35,2.35,0,0,0-.13,1.27c.28.7,1.72.76,2.64.62,0,0,0-.09,0-.09.25,0,.37-.07.62,0,.17-.2.65-.07.75.09s.08.15,0,.3a1.69,1.69,0,0,0-2.07.75c-.08.24.16.37,0,.48,0-.1,0-.16-.09-.17-.4,1.06.65,1.64,1.63,1.76-.54.16-.68.91-.93,1.23a1.89,1.89,0,0,0,.27,1.1,4,4,0,0,0,1.89.83c1.47.14,3.37-.34,4.61,0a1.5,1.5,0,0,0-.3.4c-1.28.49-4.58-.16-4.36,1.67-.05,0,0-.08-.08-.09a.88.88,0,0,0,0,1.06,4.22,4.22,0,0,0,3,1.27c1.21.09,2.67-.06,3.91.05.19.15-.07.46.09.43-1.44.4-3.5.12-5,.75-.15.14-.2.39-.44.44-.14.26-.1.69-.35.84-.07,1.55,1.9,2.23,3.12,2.37,1.95.23,3.75-.35,5.32,0,.12,1.42-2,.88-3.26.88a15.69,15.69,0,0,0-2.11.31c-.81.11-1.52.62-1.36,1.41,0-.16-.08,0-.13-.14,0,.19-.2.59-.09.8.58,1.05,2.36,1.76,4.05,1.93,2,.2,3.36.35,5.1.48,0,.09.17,0,.13.18-1.89,1.07-5.07,1.05-7.12,1.8-.75.06-.77.85-1.1,1.32a1.52,1.52,0,0,0,.3,1.1,6.61,6.61,0,0,0,3.83,1.32c2.3.13,4.79-.47,6.9-.18-.1.18,0,0,.09.09-.36.24-.35.37-.66.62a13.94,13.94,0,0,1-2.59.22l-.44-.05a15.38,15.38,0,0,0-5.5.35,2.07,2.07,0,0,0-.57,1.28c-.45.22-.06,1.24.44,1.63a11.43,11.43,0,0,0,2.55,1.1,12.15,12.15,0,0,0,4.31.7c2.33-.07,4-.49,6,.09-.13,0-.05.06,0,.17a2.92,2.92,0,0,1-1.45.66,7.44,7.44,0,0,0-1.1.35c-.84.24-1.41.28-2.2.58-1.34.49-3.07.5-4,1.27a5.68,5.68,0,0,0-.92,1.63c.36,2.46,4.79,1.74,6.55,1.23,1.24-.1,2.18-.32,3.43-.31,1.05,0,3.32-.21,3.78.62-.4.18-.63.6-.88.83s-.62.21-1.19.35c-.39.1-.75.28-1.14.4a8.9,8.9,0,0,0-2.29.61c-.62,0-1.2.34-1.8.4s-1.26.52-1.93.66a8.4,8.4,0,0,0-1.81.62,1.72,1.72,0,0,0-1.18,1.49c-.1-.05-.29.51-.27.62.23,1.06,1.36,1.54,2.95,1.58a14.37,14.37,0,0,0,3.3-.4,14.54,14.54,0,0,0,4.92-.92,7.82,7.82,0,0,1,2.24-.48c1.55-.13,3.36-.46,3.79,1.18.12.05.14.14.21.13-.29.3-.82.41-1.09.71,0,0-.1.32-.14.35s-.08-.05-.08,0,.05.12,0,.13-.08-.06-.09,0a3.34,3.34,0,0,1-.39.49c-.36.25-.88.36-1.28.66s-.47.57-.88.66c-.06,0,0,.17-.09.17a7.8,7.8,0,0,0-1.93,1.06c-1.57.93-3.52,1.41-4.79,2.72.07.23-.23.37-.18.71-.12-.12-.18.52-.17.57.09,1.08,1.77,1.34,2.77,1.32a7.2,7.2,0,0,0,1.23-.18,16.37,16.37,0,0,0,3.73-1.36,11,11,0,0,1,1.5-.75,9.55,9.55,0,0,0,1.67-.75,6.22,6.22,0,0,1,2-.61,14,14,0,0,1,1.54-.31c1.44-.09,1.49.94,2.28,1.58,0,.22.21.14.13.4.08,0,.19-.13.22,0a10,10,0,0,0-2.15,2,.6.6,0,0,0-.53.26c-.18-.15-.83.38-.66.18-.13,0-.19.17-.3.22s0-.09,0-.09c-.21,0-.85.32-1.36.44a1.26,1.26,0,0,0-.31.13,8.64,8.64,0,0,1-1,.13c0,.13-.06.11-.09.18a5.9,5.9,0,0,0-2.11.35c-.48.11-1,.22-1.4.35a3.85,3.85,0,0,0-1,.66c-.17.13-.21.29-.35.44.07-.08-.13,0,0,.09-.1-.09-.05,0-.13,0-.06.52-.06,1.21.39,1.45-.13,0,.13,0,0,.18,1.93,1.1,5.18,1.06,7.65.22a10.56,10.56,0,0,0,2.16-.84,4.8,4.8,0,0,1,.7-.39,14.26,14.26,0,0,1,2-.13c.67-.15,1.16-.75,1.8-.57.21.05.31.25.58.43a16.92,16.92,0,0,0,1.4,1c-.09.13.64.77.84,1a.55.55,0,0,0-.09.29s-3.76,1.35-4.49,1.71c-.07-.17-.14.18-.15,0-.12,0,0,.12-.09.17-.24-.18-.41.13-.57.2.14-.06-.46,0-.46.18,0-.19-.33,0-.07,0l-1.72.39s.25-.08.18,0c-.24,0-.41-.14-.42.09-.12,0-.2,0-.14-.12-.24,0-.17.13-.35.2-.17-.26-.44.13-.62,0-.08,0,0,.1-.06.15-.5,0-1,.08-1.46.09-.12.27-.54,0-.57.26,0-.05,0-.13-.08-.11.11.12,0,.19-.12.14s.11-.07.08-.12l-.7.3a1.8,1.8,0,0,0-1.15,1.87c.21.37.3.37.49.74a3.19,3.19,0,0,0,1.79.59s-.07,0,0,.09a4.1,4.1,0,0,0,1.22,0c.41.34.91-.07,1.2.16.07,0,0-.1.12-.14.28.27.88,0,.91,0s1.11.1,1.26-.22c.18.14.51-.06.64-.24.11.2,1.86-.28,2.8-.43a17.08,17.08,0,0,0,2.82-.8c.53-.39,1.07-.67,1.2-1.23a.79.79,0,0,0,.31-.18c-.12-.08.13-.16.13-.26s-.19-.09-.09-.09.15-.2.27-.31c.28,0,.34,0,.61,0s.26.3.53.3c0,.16.63.48.44.62.1,0,.49.26.48.53,0,0,0-.05.09-.05.27,1.25,1.41,2.21,1,4,0,0-.05,0-.09,0a35.22,35.22,0,0,0-.61,4.79c-.09,0-.09.06-.13.09-.12.53-.11,1.31-.22,1.76s-.09,1.26-.18,1.54c.05-.14-.23.51,0,.61-.22,0-.17.46-.09.36-.15.13,0,.23,0,.3s-.14.37-.17.53c-.37,2.05-.26,5-.57,6.64-.05,0-.05,0-.09,0a5.83,5.83,0,0,1,0,1.1s0-.09,0-.09a35,35,0,0,0-.2,3.51l1.44,1.56c0-.41.05-.81.08-1.2.09-1.17.27-2.09.35-3.17a17.48,17.48,0,0,0-.18-2.15,26.57,26.57,0,0,1,0-4.37,1,1,0,0,1,0-.3c0,.1,0,.2,0,.3a.12.12,0,0,0,.05.1c.09-.21,0-.49.13-.44,0-.12-.09-.09-.09-.17.24-.13.07-.36.09-.53.09-.71.3-1.56.44-2.42s.34-2,.44-2.86c.09,0,0-.16.13-.17a27.22,27.22,0,0,1,.88-4.18c0,.07,0,.15.09.13.33-.64,1.24-.7,1.8-1a8.94,8.94,0,0,1,2.29-.26c.37.24-.57,1-.62,1.54-.06,0,0-.08-.09-.09.12.12,0,.57-.17.39,0,.23,0,.44-.18.53s.06.09.09.13a1.13,1.13,0,0,0,.35,1.37,6,6,0,0,1,1.63.35,5.78,5.78,0,0,0,.88,2.9c0-.05,0-.13,0-.13.06,1.48,1.29,1.79,1.89,2.72.39.07.56.36.75.62h.18c0,.14.18.14.17.31.82.43,1.92,1.27,3.08.66.61-.76.37-1.61.13-2.55-.08,0-.09.06-.13.08s.13-.18,0-.22-.36-.86-.66-1.14c0,.08.07.11,0,.13a11.46,11.46,0,0,0-.66-1v0s0,0,0-.09l0,.07c0-.18-.15,0-.17-.15.17,0,0-.23-.05-.05a1.07,1.07,0,0,0-.26-.39c0-.14.13-.4-.05-.44,0,0,0,.08,0,.08a.34.34,0,0,1,0-.26c-.09,0-.09.06-.14.09a.72.72,0,0,0,.05-.31c-.09,0-.09.06-.13.09-.06-.17,0-.44-.09-.26,0-.09.05-.1,0-.18s-.11.06-.13,0c-.24-.52-.27-1.26-.48-1.8,0,0,0,.05-.09,0,0-.43-.65-.62-.53-.88,0,.09.24-.09.31-.17s-.11,0-.09-.05.12,0,.13,0a1.26,1.26,0,0,0,.13-.22c.1-.15.27-.4.31-.39s.14-.3.22-.31c-.11-.9-.77-1.26-1.41-1.63.83-.06,2.71-.8,3.43.13.42,1.29,2,1.38,2.47,2.64.71.84,1.17,1.93,2.19,2.46,1.05,1,2.45,1.69,3.57,2.64a3.2,3.2,0,0,0,2.24.09,1.83,1.83,0,0,0,.53-2c-.23-.13-.12-.38-.27-.53,0,0,0,.09,0,.09-.11-.46-.47-.68-.57-1.15-.7-.52-.85-1.07-1.54-1.62.05,0,.07.06.09,0a.32.32,0,0,1-.27-.31c-.46-.35-1.34-.88-1.45-1.36-.2,0-.64-.58-.7-.4-.08-.24-.17.06-.27-.13.16,0,.07-.28.22-.13,0-.3,0-.51-.13-.75,0,.07,0,.16,0,.18,0-.15,0-.28.09-.31-.06-.14-.13,0-.14-.13.25-.36-.3-1-.48-1.41a4.44,4.44,0,0,1,1.36-.18,2.22,2.22,0,0,1,1.1,1.41c.39.47,1,.72,1.28,1.32,1.35,1.16,2.66,2.38,4,3.56a4.33,4.33,0,0,0,3.74,1.41,1.49,1.49,0,0,1,.57-.31c.14-.18.33-.25.3-.57s0-.25,0-.62c0,.05,0,.13,0,.13-.07-.26,0-.28,0-.44-.12.07-.28-.69-.49-.94v0s0,0-.05-.07l.05.05c0-.18-.23-.08,0-.2-.51-.2-.43-.6-.84-.83.18,0,0-.19,0-.22s0,.12,0,.13a4,4,0,0,0-.66-.92c-.09-.13,0-.23-.13-.09a7.38,7.38,0,0,0-.57-.75s0,.09-.05.09,0-.09.05-.18c-.22.07-.3-.43-.57-.61,0,0-.14,0-.18,0s-.11-.3,0-.22c-.1-.11-.24-.07-.31-.22s-.29-.54-.35-.36c-.06-.18-.12-.53-.18-.26a3,3,0,0,0-.53-.83c.08-.2-.12-.74-.26-.71.07.08.21.31.13.4,0-.22-.27-.46-.18-.66,0,.07.09.19.09.09s-.07-.34,0-.36a.89.89,0,0,1,1,.62,14.29,14.29,0,0,1,2.37,2.77,6,6,0,0,0,.62.88,7.17,7.17,0,0,0,4,2.37,2.12,2.12,0,0,0,1.41-.3v-.18c.56-.08.6-1.2.48-1.8-.11.08-.14-.29-.09-.31s0,.12.09.13c.06-.14.09,0,.22-.09.55.33,1.95,1.07,2.68.44-.08,0-.1,0-.09-.13s.19-.08.36,0a3.7,3.7,0,0,0,.13-1.89c-.07,0-.23.05-.22-.05.4-.07,0-.56,0-.75.33.12.57.6,1,.84,0,.06-.05.06,0,.13a7.31,7.31,0,0,0,2.64,1.63c.31.1,1.26.3,1.32-.22,0,.1-.17,0-.18,0,.23,0,.32-.09.48-.14.66-.91-.05-2.09-.39-2.9.07.05.16.3.26.18-.23-.1.14-.05.22,0,.33.18.79,1.19,1,1.49.17.09.37.14.4.35.54.37,1.73.6,2.24,0-.05-.14-.11,0-.17-.09.95-.38.76-1.55.48-2.33a1.6,1.6,0,0,1-.35-1c0,.18.13.21.17.35,0-.07,0-.16.05-.18a5.06,5.06,0,0,0,.53.27,1.88,1.88,0,0,0,.61.75,3.92,3.92,0,0,0,1.14,1c.71.32,2,.73,2.55.05-.05,0-.1,0-.08-.09.45.08.44-.76.7-1.06-.23-.21,0-.48-.13-.61.12.12,0-.07.13-.09.73.3,2.46.56,2.81-.13,0,.05-.06.07,0,.09a1.19,1.19,0,0,0,.22-1.32c.06,0,.09.07.09,0s-.2,0-.13-.13c.18.15,0-.2.09-.17.42.09,1.66.55,2.15,0,0-.09-.12.06-.13-.09.23,0,.27-.14.44-.17.09-.25,0-.6.26-.8s.88,0,1.28-.08a11.2,11.2,0,0,0,1.32-.57c.8-.32,1.73-.46,2.15-.93.18,0,.29-.12.49-.13.05-.18.23-.23.44-.26.06-.23-.06-.23,0-.36a1.54,1.54,0,0,0,1-.66c-.06,0-.13,0-.14,0,.16,0,.51-.17.4-.26.07,0,.16,0,.18-.05.72-1.15,1.88-1.93,2.63-3,0,.06-.07.07-.08.13.66-.73,2,.65,2.77-.17-.12,0-.21.06-.27-.05,1-.11.49-1.32.79-1.85.66.34,1.56,1.08,2.47.62,0-.06-.17,0-.18-.09.19,0,.26-.12.44-.13.11-.32.12-.85.26-1a6.78,6.78,0,0,0,2.33.18c.43,0,.86.11,1.28.13,2.3.07,4.57-.7,7-.66,0,0,0-.09,0-.09s0,.1.05.09c1.4-.43,3.43-.29,4.61-1.06a.65.65,0,0,1-.39,0,1.46,1.46,0,0,0,1.27-1.18s-.05,0,0-.09a13.78,13.78,0,0,0-2.07-.4c-.16,0-.28-.17-.44-.22-.39-.11-.82,0-1.23-.13-.1,0-.17-.15-.26-.18s-.43,0-.66,0a18.83,18.83,0,0,0-3.3-.7,4.78,4.78,0,0,1-1.36-.05c-.1,0-.05.13-.13.13v-.17a21,21,0,0,0-2.55-.09c-.76.12-1.1.78-1.41.44a6.16,6.16,0,0,0,0-1.71c-.1,0-.24,0-.22-.27-1-.38-1.66.47-2.2,1.06,0,0-.05-.05-.09,0a2.61,2.61,0,0,0-.44.7c-.27,0-.21.29-.31.44-.45-.34.19-1.09,0-1.58,0,.05,0,.12,0,.13.08-1.35-1.05-1.73-1.76-1.14,0,0,0,.1-.05.13s-.36.18-.3.39c-.17-.07-.24.28-.27.49a1.38,1.38,0,0,0-.48,1.54.17.17,0,0,1-.13-.05c0,.35-.41.36-.62.53-.27-.47.23-.66.35-1,0,0,0-.45.14-.44-.07-.09-.05-.49,0-.35.06-.18-.1-.63,0-.48,0-.43-.12-.82-.17-1.23-.21-.06-.15-.19-.35-.4a3.65,3.65,0,0,0-2.11.75c-.14.35-.22.33-.49.22.09-.16,0,0,0-.09.2-.2-.11-.72-.05-.92a3.79,3.79,0,0,1-.39-.31,3.57,3.57,0,0,0-3.39,1.49,22.16,22.16,0,0,1-1.8,1.63c-.17.15-.33.32-.53.26.16,0,.08-.1.22-.13-.11-.09-.14.12-.3,0a1.11,1.11,0,0,1,.39-1.05c-.24-.09-.24.28-.39.13.35-.22.74-.72.65-1.1a5.8,5.8,0,0,0,1.06-2.42c0-.06-.08,0-.09-.09-.15-2-2.39-.43-2.94.22,0,0,.06-.06,0-.08a2.93,2.93,0,0,1-.75.83c0,.14-.05.2-.18.26a2,2,0,0,0-.61.36c-.11.11-.15.28-.27.39-.38.39-.84.71-1.14,1,.05-.18-.14-.09-.22-.26.1-.19.09-.55.18-.7-.11.11-.21.47-.36.39a6.39,6.39,0,0,0,1.19-3.82s0,.05.05,0c-.07-.16-.19-.17-.27-.39-1.83-.3-2.81.91-3.56,2,.06-.21.18-.37.13-.48-.1.13,0-.05-.09,0,0,.21-.1.19-.35,0,0-.29.11-.22,0-.44-.12.1-.09.34-.22.44a4.86,4.86,0,0,0,.57-1.89c-.19-.1-.07-.47-.26-.66a2.37,2.37,0,0,0-2.59.79,8.87,8.87,0,0,0-2.73,2.42c-.62.62-1.54,1-1.93,1.62.1-.17.22-.3.22-.39-.06.07-.26,0-.09.17-.08,0-.24-.07-.13-.17-.09,0-.1.05-.18,0,0-.17,0-.27,0-.4,0,.06,0,.11-.09.09a.13.13,0,0,1,.22-.09c0-.42.17.05.09-.3a1.61,1.61,0,0,0,.7-1.06.33.33,0,0,0,.26-.44c-.15-.06-.16.24-.22.13a11.59,11.59,0,0,1,.93-1.18c.21-.79,1.05-1.41.92-2.11.27-.17-.08-.39,0-.93-.22,0-.2-.32-.35-.44h-1c-.27.3-1,.38-1.05.66-.06,0-.06-.05-.14,0-.26.5-.91.6-1.23,1,0,0,.11,0,.09,0-.5.08-.61.75-.92.88,0,.08.13.18,0,.22s0-.12-.05-.13c-.24.25-.3.58-.48.79,0,0-.09,0-.13,0s-.08.24-.13.31-.08-.06-.09,0-.21.33-.35.44-.82.45-.75.71a2.28,2.28,0,0,0-.64.58s0,0,0,0c-.31.19-.65.73-1.14.62-.33-.08-.32-.43-.38-.69a0,0,0,0,0,0,0c-.15-.32.09-.63-.05-.84.14-.17.48-.19.22-.39.31.13.19-.31.4-.27a1.26,1.26,0,0,1,.35-.7,2.13,2.13,0,0,0,.27-.35c.21-.31.45-.21.22-.44.14,0,.06.14.17.13.09-.37.54-.74.44-.79.18-.07.13-.51.4-.49.05-.13-.07-.1-.09-.17a.3.3,0,0,1,.18,0c.1-.34.46-.58.43-.92.09.21.16-.23.18-.26s.13,0,.13,0a6.6,6.6,0,0,0,.44-1.19,2.94,2.94,0,0,0,.13-1.72c-.23,0-.12,0-.08-.13a.22.22,0,0,0-.14.05l-.13-.27a1.6,1.6,0,0,0-1.62.4c-.69.38-1.6.51-2,1.23-.33,0-.6.45-.85.55,0,0,.06-.06,0-.07-.21.22-.61.84-.75.71-.13.27-.58.37-.52.7-.37.15-.56.7-.81.86,0,0,0-.06,0-.07s.05.2,0,.26,0-.08,0-.08c-.08.46-.68.86-.52,1-.17.09,0,.1-.22.14-.37.86-1.19,1.14-1.41,2-.32,0-.31.46-.62.62a1.43,1.43,0,0,1-1.27-.13c0-.14,0-.5.13-.49-.13-.1,0-.18,0-.17-.11-.23,0-.69-.17-.84h.17c.15-.45.46-.82.58-1.23.26.06.51-.62.48-.92.06,0,.07.05.13,0-.06-.27.26-.79.31-.7.06-.14.2-.27,0-.27,0-.09.07-.09.13,0,0-.14,0-.09.05-.18s-.09,0-.09,0,.1,0,.18-.09-.13-.24,0-.31c0,.32.14-.22,0-.31.34-.07.41-1.19.18-1.58a.19.19,0,0,1,.13.05c0-.43-.14-.63-.18-1.06-.06,0-.16,0-.17,0-.24-1.37-1.77-.45-2.07-.18.08.11-.08.35-.18.44,0-.12.19-.22,0-.31-.14.62-.75,1-.66,1.67a1.09,1.09,0,0,0-.92.75c0-.17.09-.23.13-.35a.43.43,0,0,0-.22.48c-.15-.09-.26.29-.4.22.12,0,0,.16,0,.22s-.09-.07-.18,0c.05.29-.49.51-.39.66-.29.36-.68.8-.66,1.1-.06,0,0-.08-.09-.09s0,.22-.05.27-.11,0-.13,0,.08.09.09.17c-.17-.05-.36.44-.35.57-.09-.08-.34.19-.27.27h0s0-.08,0-.08l0,.08h0a2.71,2.71,0,0,0-.48,1c0-.07-.06-.12-.09,0s-.08.7-.26.57a.12.12,0,0,0,0,.17,1.64,1.64,0,0,1-.84.13c-.06-.09,0-.24-.13-.08-.08-.49-.36-1.36.09-1.85,0,0,0,.1,0,.09.06-.17.06-.24,0-.27.1,0,.05-.12.13-.13s-.12.14.05.13c0-.2,0-.27.08-.39a.13.13,0,0,0,.09.13c.18-.25.28-1,.35-.62.09-.11-.05-.27.09-.17-.12-.12,0-.26,0-.35s.05,0,.09,0-.2.22,0,.22c.12-.46,0-.41.35-.75-.11,0-.19-.14,0-.18-.07.08,0,.1.09.09-.08-.1.19-.26,0-.31a5.08,5.08,0,0,0,.74-2.11c-.06-.25.08-1.08-.35-1.32,0-.05.08,0,.09-.08-.18-.1-.19-.12-.22-.36-.23,0-.36-.16-.57-.22-.93-.21-1.36.29-1.85.58-.19.35-.27.81-.61,1v.39a6.76,6.76,0,0,0-1.81,2.47s-.07-.11-.08,0,.05.1.08.13-.22.36-.17.44c-.13-.07-.32.33-.22.49-.16-.16-.15.38-.27.13-.08.06.09.23-.08.26,0-.05.06-.07,0-.09-.12.26-.15.54-.44.71a.23.23,0,0,0,0,.17c-.37.16-.44.74-.7,1.06.08,0,0,.31-.09.17.16.95-1.89.76-2.46.44.18.07,0-.22.13-.22s0,.13,0,.14c.05-.26.21-1.07.05-.79-.06-.14.15-.23,0-.27-.46-.57-.05-1.41-.09-2.2a4.28,4.28,0,0,1,0-1.71s0,.09.05.09c.07-.18-.12-.09-.14-.18s.05-.13.14-.13-.07.11,0,.13a7.3,7.3,0,0,1,.66-1.89c-.12-.06,0-.41.08-.26,0-.28,0-1,.14-.84.05-.19-.21-.29,0-.44,0,.37.11-.28,0-.31s0,.11-.09.09a.88.88,0,0,0-.3-.77s.07.11,0,.11c-.06-.19-.22-.28-.27-.48-.95-.35-1.59.51-2.11.75-.1.13,0,.22-.13.3s.06-.06,0-.08c0,.25-.33.29-.44.43s.05.13,0,.14-.08-.05-.13,0c-.22.21-.21.52-.39.79,0,0-.09,0-.14,0a3.3,3.3,0,0,0-.52,1.14c-.15.5-.15,1.08-.31,1.54,0,0,0-.11,0-.09-.19.28-.19,1.29-.4,1.28,0,.39-.19,1-.18,1.49-.13.11-.5.14-.52.62-.57.24-.29,2.08-.27,2.46a12.88,12.88,0,0,1-2.59.66,14.66,14.66,0,0,1-3,.75c.26-.17.27-.82.27-1.1,0,.07,0,.16-.05.17a.42.42,0,0,1,.05-.17.5.5,0,0,0,.09-.44c.16.13,0-.12,0-.13.12-.56.41-1.26.62-1.89a17.59,17.59,0,0,1,1.27-3.21c.11-.34.57-1.15.79-1.76.11-.29.56-1.07.71-1.37s.25-.78.39-1c0,0,.19-.05.22-.08a10.33,10.33,0,0,0,.53-1.19c.06,0,.06.05.13,0,.26-.33.33-.81.57-1.14.08-.1.23-.12.31-.22.24-.3.28-.69.48-1,0,0,.11,0,.14,0,.25-.19.55-1.07.61-1.14s.12,0,.13,0,0-.12,0-.18.32-.33.44-.52.15-.28.22-.4,0,0,.13-.13.19-.49.36-.79.27-.31.3-.49c.07,0,.08.07.14.09,0-.19.09-.3-.05-.35a.26.26,0,0,0,.13-.35c.12,0,.09-.08.18,0a1.55,1.55,0,0,1,.35-.79c0,.07-.16.27-.09.3.29-.59.37-.84.66-1.4a1.09,1.09,0,0,1-.17.44c.22.11.07-.1.13-.18s.38-.24.31-.4c0,0,0,.09-.05.09.11-.36.4-.45.49-.7.22.07.39-.26.61-.31a4.36,4.36,0,0,0,.44,2.29c.49.41,1.19.29,1.67.61.25.17.4.61.71.93a9.92,9.92,0,0,0,.79.61,4.22,4.22,0,0,0,1.58,1.28,2.3,2.3,0,0,0,1.19.92.56.56,0,0,0,.52.26,3.06,3.06,0,0,0,2.77.05c-.11,0-.15.06-.22-.05a1.2,1.2,0,0,1,.4,0c.39-.43.19-1.53.18-1.8,0,.05,0,.12-.05.13-.16-.45-.24-1.4-.61-1.36,0-.09.13-.15,0-.18-.37-.26-.47-.77-.84-1.1,0,0,0,.11,0,.09-.21-.13-.29-.49-.53-.7,0,0-.14,0-.18,0-.21-.14-.31-.45-.61-.49,0-.13-.05-.16-.05-.26s-.16,0-.26,0c-.05-.42-.47-.52-.66-.7-.42-.4-.34-1.14-.53-1.54,0,.13.08.3,0,.31a4.18,4.18,0,0,0-.35-.92,3.46,3.46,0,0,1,1.15-.22c.72.45.86,1.43,1.45,2,.23.24.58.3.79.57,0,.06,0,.16.09.22.38.42.86.75,1.23,1.14.13.15.2.37.35.53.41.45,1.18.71,1.63,1.14.22.23.7.61,1,.49-.1.17.24.13.48.22.84.31,2.21.66,2.81-.18-.19-.16,0,0,.05,0s.27-.27.31-.35a2,2,0,0,0-.09-1.49.17.17,0,0,0-.13,0c.11-.15-.06-.3-.14-.4,0,.11.16.19.05.22-.1-.42-.49-.6-.71-.88,0,0,.09,0,.09.05,0-.27-.55-.47-.75-.88,0,.07.07.11,0,.13-.11-.36-.4-.38-.48-.7-.24,0,.13.13,0,.17a1.07,1.07,0,0,0-.66-.57c0-.06.05-.07,0-.13-.36,0-.26-.42-.62-.4.11-.05-.09-.24-.12-.18v0h0c-.25-.24-.76-.42-.93-.61.32-.53.21-1.45.74-1.67a3.4,3.4,0,0,1,.84.93c-.05.2.16.16.13.35a18.82,18.82,0,0,1,3.17,4.39.86.86,0,0,1,.26.14c.11.09.18.29.31.39a4.71,4.71,0,0,0,2.72,1.1,2,2,0,0,0,1.24-.44c-.19-.1.13-.09,0-.31.75-.38.6-1.68.13-2.28-.12.08-.11-.26-.13-.31s0,.09,0,.09c-.05-.18,0-.14,0-.18-.43-.25-.44-.74-.65-1l0,.05s0,0-.06-.08a.18.18,0,0,0-.07,0c.05,0,.06,0,.07,0l0,0a3.52,3.52,0,0,1-.59-1,4.32,4.32,0,0,1-1-1.27c-.37-.12-.43-.92-.4-1.59,1.06-.2,1.65,1.19,2,1.85.12.21.15.47.26.66.22.37.58.59.75,1s.18.6.31.92c.88,1.11,1.92,2.48,4,2.11.08-.19.46-.32.44-.48a.23.23,0,0,1-.14.13c.15-.21-.31.08-.35,0a1,1,0,0,0,.71-1.5.53.53,0,0,0,0-.39,5.41,5.41,0,0,0-.8-1.9c0-.05.08,0,.09-.08a8.77,8.77,0,0,1-.75-.93s0,.09,0,.09c.09-.18,0-.28,0-.13-.06-.13-.06-.4-.13-.26-.05,0-.13-.16-.07-.21-.13-.17-.22-.43-.37-.45.06-.16-.17-.62,0-.8,0,.06,0,.13,0,.14a.47.47,0,0,1,.62-.31,11.63,11.63,0,0,1,1.19,1.14,2.73,2.73,0,0,1,.57,1c.94,1.06,1.54,3,3.38,3.26a2.17,2.17,0,0,0,1.85-.53c-.19,0,0-.06,0-.09-.22-.17-.32.23-.62.13a2.71,2.71,0,0,0,.75-.52c0,.11-.12.16-.17.26.18,0,.14-.21.3-.22s-.19.15,0,.22c.1-.18.12-.09.13,0,0-.1.19,0,.27,0,.82.44,2.06,1.28,3.07.74-.05-.07-.26,0-.26-.13,1.13.07.52-1.17,1-1.58,1,.1,1.12,1.13,1.84,1.41a1.27,1.27,0,0,0,1.41-.27c-.25-.07-.22.1-.4,0,1.49-.1.63-2,.8-2.68,0-.06-.08,0-.09-.09s.11-.29,0-.35,0-.33-.09-.49c.11,0,.13-.13.26-.13.86.3.83,1.06,1.41,1.85.13.17.29.27.4.44.44.69,1.06,1.63,1.75,1.1,0,0-.05,0,0-.09h.26a4.26,4.26,0,0,0,.75-1.41,10.05,10.05,0,0,0,0-1.76c.09,0,.24.09.44.09a8.28,8.28,0,0,1,1,1.36c.71.94,3,1.86,3.82,1.23-.17,0-.35.12-.44,0a1,1,0,0,0,.84-1.41c-.1-.21-.43-.63-.4-.88-.15.22,0-.14-.22,0-.08-.4-.13-.24-.3-.66,0,.12.21,0,.22.05s.27.3.26.57c.23,0-.12-.18,0-.22,0,.27.26.32.44.48a3.25,3.25,0,0,0,1.59.88c.66.1,1.47,0,1.62-.44-.07,0-.22.13-.26,0,1.25-.38.17-1.55,0-2.41,0,0,.05,0,.09-.05a11.22,11.22,0,0,0,2.2,1c.52.08,1.4,0,1.36-.37,0,.06-.21.07-.31,0a2.88,2.88,0,0,0,.84-.48,2.55,2.55,0,0,0-.62-2c.46.09,1.88.9,2.68.22-.06,0-.22.05-.22-.05.43-.13,1-.41,1-.87a1.34,1.34,0,0,0-.32-.76h0c-.11-.22-.21-.21-.13-.49a2.44,2.44,0,0,0,1.89-.48c.07.2.12-.07.31,0,1.93-1,4.17-1.24,6.55-1.71a21.75,21.75,0,0,1,3.61-.22,17.63,17.63,0,0,0,2.72-.22c.17-.07.7-.15.84-.4-.11,0-.17.08-.18-.09C477.51,298.25,477.89,298.14,477.9,297.86Zm-60.63-16.58c-.14-.07-.15-.29-.35-.3C417,280.82,417.23,281.15,417.27,281.28Zm-6,1.1c.16,0,.17.1.3.09-.06.13-.15-.08-.26,0,0,0,.3.24.31,0,0,.19.43.36.48.4.27.18.5.38.84.66-.5-.26-1.12-.76-1.71-1.08C411.23,282.46,411.25,282.44,411.25,282.38Zm-3.43-21.76s.12,0,.13-.09-.2.08,0,.18.07-.16.17-.18a4.52,4.52,0,0,1,1.85,1.1,1.32,1.32,0,0,0-1.37.09,2.1,2.1,0,0,0-.87-.44C407.8,261.14,407.78,260.87,407.82,260.62Zm-24.36-75.8c-.34.39-1.16-.12-1.41-.22C382.36,184.6,382.93,184.75,383.46,184.82Zm-1.1,4.35a12.47,12.47,0,0,1,3.08.57C384.42,190.16,383.37,189.32,382.36,189.17Zm5.45,18.51c-.6-.17-1.34-.9-2.2-.61,0,0,0,0,0,0s.05,0,.09,0a3,3,0,0,0-1.5-.75c-.75-.81-2.13-1-2.68-2,.61.15,1.19.5,1.89.7s1.52.12,2,.49c1.11.26,2,1.07,3.17,1.36a5.76,5.76,0,0,1,1.58.44C389.09,207.12,388.78,208,387.81,207.68Zm-6.94,54.48c0,.06-.14,0-.14.09s.16-.06.14.13c-.14-.06-.51.25-.53.17-.29-.07.05,0,.22-.13a.17.17,0,0,0-.18-.17,7.61,7.61,0,0,0,0-1.24c-.1,0,0,.16,0,.22s.09-.57,0-.79c.22-.12.33-.34.57-.44C381.9,260.35,380.69,261.45,380.87,262.16Zm17.05,10c-.05,0-.06-.08-.13-.09s.06.1,0,.18c-.06-.12-.35.21-.14.22-.1,0-.26.07-.17.26-.15-.05-.33.08-.22.14-.29.25-.8.44-1.19.79-.25-.13-.3.19-.48.26,0-.06.08-.07.09-.13-.21,0-.34.25-.4.31-.24-.23.09-.6.26-.84a1.62,1.62,0,0,0,.4-.61c.29,0,.5-.64.75-.66v-.18c.55-.25.57-1,1.4-1C398.33,271.28,398.06,271.78,397.92,272.18Zm4.8-4c-.12-.17.08-.19,0-.35a.4.4,0,0,0-.13.44c-.17,0-.14-.25-.05-.31a.22.22,0,0,1-.13,0,3.4,3.4,0,0,0-.26-.92c0-.06-.09,0-.13-.05-.21-.2-.22-1.07-.4-.88-.06-.07,0-.24,0-.39-.05,0-.05.1-.13.09-.13-.24-.25-.64-.53-.57-.25-.61-1.65-.68-1.76.08-.15-.26-.2.27-.26.44a2.06,2.06,0,0,0-.18,1.15c.19.83.42,1.23.09,1.71,0,.05.21.08,0,.09,0,0,0,0-.05,0a5.55,5.55,0,0,1-.26-.83c-.05,0,0,.08,0,.13s-.15-.32,0-.26c-.3-.37-.19-1.14-.44-1.54.16.3,0-.23,0-.4-.05,0,0,.08,0,.13,0-.24-.13-.33-.05-.57a8.09,8.09,0,0,0-.79-1.67c-.07-.09-.11,0-.17-.13s-.21-.46-.44-.4c-.54-.65-1.56.13-1.9.62,0,.06,0,.12.05.13s-.18,0-.13.26a.11.11,0,0,1-.09-.08c-.13.23-.6.31-.66.35a7.44,7.44,0,0,1-.4-1.28c-.35-.82-1-1.49-1.89-.88-.08.06-.08.2-.26.22,0,.05,0,.08,0,.09-.24.33-.54.47-.61,1-.47.11-.35.88-.71,1,0,.06.11,0,.18,0a2.58,2.58,0,0,0-.66,1.59c-.06-.07-.17-.07-.13.08-.25,0-.22-.37-.4-.48,0-.05.09,0,.09-.09s-.1-.16-.09-.3c-.14.52-.1-.49-.17-.71.17.19.08-1,0-1.32,0,0,0,.06,0,.09a1.06,1.06,0,0,0,0-.7c0-.26-.09-.24-.09-.53-.41-.71-.49-1.24-1.23-1.54A1.75,1.75,0,0,0,386.1,262c-.06-.06-.17-.06-.18,0s.05,0,.05,0,0,.23-.14.13c0,.07,0,.08.09.09a1.79,1.79,0,0,0-.75,1.49H385c0-.68-.16-2-.22-3,.42-.79,1.26-1.15,1.76-1.85a.24.24,0,0,0,.18.05,1.76,1.76,0,0,0,1.71,1.36,2.45,2.45,0,0,0,1.81-1.27c-.16.15,0,0,0-.14s0,.06,0,.09,0-.14.13-.13c-.16,0-.13-.09.05-.18,0,.26.36-.73.57-.7,0-.14,0-.27.13-.17-.06-.22.28-.32.53-.36a10.09,10.09,0,0,0,.13,2c.32.8,1.81,1.12,2.29.35.12.11.25-.11.35-.3.28-.1.52-.25.79-.36s.77.42,1.19.53a2.07,2.07,0,0,0,2.19-.66c.2.06.1-.17.27-.13-.09-.15.17-.47.31-.4,0-.09-.13-.14-.05-.22s.05,0,0,.08c.43-.34.3-.67.69-1-.05-.15,0,.12-.14.05.23-.17.29-.58.79-.58,1.17,1.94,1.15,4.67,1.81,7.17,0,0,0,.16.13.13-.07,0,0,.26,0,.31h0s0,0,0,0a11.49,11.49,0,0,1,.26,1.54c0,.25.24.62.05.57.06.11.15.3,0,.31s.08,0,.13,0A5.31,5.31,0,0,1,402.72,268.14Zm-55,6.89c-.41.1-1,.3-1.23.12a13.67,13.67,0,0,1,1.55-.45c.07-.08.16.26.14.07C348.32,275,347.65,275.17,347.7,275Zm101.05,66.18c-.06.13-.3.08-.48.09,0-.07,0-.17,0-.18C448.4,341.09,448.55,341.27,448.75,341.21ZM434.9,338h-.22c0,.15.23,0,.31.13s-.08.24-.18.13.13,0,.13-.08-.18,0-.26-.05-.05-.09,0-.17C434.8,338,434.87,337.75,434.9,338Zm-.7,5.14c.4,0,.86-.17.92-.39s-.16,0-.22,0c.52-.12.73-.93.75-1.37,0-.11-.25,0-.18-.13h.18v-.53c-.08.17-.12,0-.18-.13s.08,0,.13,0-.09-.07-.17-.08c-.14-.22.22-.23,0-.44.14-.11.28.16.27.35,0,0,0-.05,0-.09.28.21.23.67.44,1a8,8,0,0,0,.92,1.06s0,.07,0,.09c.58.63,1.77,1.28,2.55.65,0,0,0,0,.05.05s-.08-.13.13-.09c-.12-.09-.2-.06-.35,0a1.15,1.15,0,0,0,.66-.53l0-.06c-.05,0,0-.14,0,0l0,0s.26-.32.22-.27c.7,0,1.09.89,2,1,.24,0,.77.12,1-.13,0,0,0-.12,0-.13s.28.08.18-.18a.17.17,0,0,0,.13,0c-.15-.09,0-.12.09,0s-.06-.08,0-.08c-.21-.12-.25.31-.58.21.36-.08.52-.43.75-.57-.12,0,0-.14,0-.22.15.2.05-.05.18.05,0-.08-.06-.1-.05-.18s.1.14.09,0c.22,0,.32.06.49.09s.13.54.26.48c-.05.14.11.34-.18.31v.22c-.4.06-.54.39-1,.44a10.3,10.3,0,0,0-1.94,1.14,4.29,4.29,0,0,0-2.42,1.05c-.77-.06-1.53.1-2.11.09-.05,0,0,.05,0,.05-.2.09-.34-.1-.61,0,0-.07,0-.13-.05-.14.16.09.29-.74.05-.65.26-.14-.09-.41.09-.53,0-.05,0,0,0,0s-.14-.3-.26-.4a.67.67,0,0,0-.27-.57c-1.05-.07-1.43.71-1.84,1.14.05-.17-.32-.2-.18-.57-.08,0,0,.15-.09.18C434.21,344,434,343.38,434.2,343.14Zm-.79-10h0a4.54,4.54,0,0,1,.48-.39.91.91,0,0,1-.48.39h-.09C433.33,333.11,433.4,333.12,433.41,333.16Zm-3.52,7.43c0-.54-.18-1.5-.27-2.15,0-.1-.06.05-.13,0,.16-.11,0-.48-.08-.66.09,0,.09,0,.17,0,.44,0,.94,1,1,1.76a16.24,16.24,0,0,0,2.37,3.12c.09-.1.13,0,.27,0-.05.09-.16,0-.22,0a1.91,1.91,0,0,0-1,.75,8.49,8.49,0,0,0-1.15,1.1c-.17.26-.15.56-.39.75-.08-.17.15-.13.13-.36-.27.09-.24.47-.53.44s-.07-.19-.31-.22c.1-.11.07-.39.18-.74-.24.05,0,.16-.35.13.62-.43.82-1.9-.18-2.07C430.29,342.05,429.89,341.31,429.89,340.59Zm-5-.17c.08-.05.23.12.31-.09.09.13.33.1.48.18a5.59,5.59,0,0,0,2.16,2.33c-.32.16-.37.6-.8.66,0,0,0,.08.09.08-.39.19-.43.59-1,.62a.25.25,0,0,0,.05-.13c-.27,0-.14.33-.36.35a3.18,3.18,0,0,0,0-2.37c-.23-.33-1-.32-1.36-.14A2.34,2.34,0,0,0,424.92,340.42Zm-5.85-5.37c0,.13-.05.27,0,.4,0,.37.31.66.39,1.06s0,.88.27,1.09c.34.95.46,2.29,1.23,3a11.87,11.87,0,0,0,.83,1.54,8.71,8.71,0,0,0,1.24.79c0,.17-.1.17-.09.31-.13-.06.08-.15,0-.26-.22.3-.37.59-.57.83,0,0-.06-.07,0-.08-.14,0,0,.09,0,.17-.2,0,0,.07-.14.22s-.05-.08,0-.09-.12.38-.26.58-.16.06-.18.08.1.23-.09.14c0,.15,0,.1.05.26a.55.55,0,0,0-.27.53,2.7,2.7,0,0,0-.44.52v0c-.05.28-.59.42-.6.86,0,0,0,0,0-.05a.81.81,0,0,0-.31.67c-.07-.16-.27.05-.36.13-.06-.08-.12-.1-.17,0,0-.09-.36-.61-.09-.84,0-.05-.08,0-.13,0,.25-.25.17-.71.35-1.1,0,0,.12,0,.13,0s-.11-.12-.09-.27.07,0,.14,0c-.08-.23.26-.46.13-.83a4.13,4.13,0,0,0,.26-2.59c-.28-.59-.66-.78-1.62-.53.1-1-.11-1.91,0-2.68,0-1.9-.93-3.12-.92-4.66C418.23,333.31,419,334.2,419.07,335.05Zm-3.65,8.18c.38-.08.68.37.75.31-.07.6-.69,1-.61,1.93-.19-.06,0,.23-.14.22.16,0-.09.31-.13.49.38-.69.09.26-.26.31a.61.61,0,0,0-.13.35c-.09.07-.09,0-.18,0s0,0,0,0a.88.88,0,0,1-.13.49c-.13,0,.06-.12,0-.22a9.25,9.25,0,0,0-.44,1.1c-.13-.06-.32,0-.31-.36a.11.11,0,0,0-.08.13,3,3,0,0,1-.14-.74c.09.18.14-.07.14-.22-.05.05-.11,0-.05,0s0,0,0-.05.07.07.13.05a6.69,6.69,0,0,1,.57-1.54c.14,0-.05.12,0,.17.28-.11.17-.15.31-.35,0,0-.15-.13-.14,0s0,0,0,0v-.09s0,.1.14.09c0-.34.33-.69.22-.88.17,0,.17-.48.13-.49A3.09,3.09,0,0,1,415.42,343.23Zm-6.86,3.12c.58-1,.5-3,.71-4.3.51-.22,1.65,0,1.85-.62a.21.21,0,0,1-.14,0c0-.07.08-.1.18-.08.11-.19.27-.71.39-1,0,0,.07.06.09,0a.12.12,0,0,0-.09-.13c.06-.13.21,0,.05-.17,0-.06.15-.06.17-.14-.16-.08,0-.16.05-.26s-.1-.05-.09-.13,0,0,.09,0c-.15-.7.08-.79-.13-1.49a.29.29,0,0,1-.14,0c.18-.1.07-.45-.08-.48.09-.13.08-.18,0-.35-.1.13-.08-.1-.14-.27l0-.09a.36.36,0,0,1,0,.09c.06.06.09-.13-.08-.13.08,0,.11-.12.09-.26s0,.11-.05.17c-.12-.17.07-.4,0-.66-.09,0,0,.19,0,.27s0-.34,0-.49c-.06.23-.15,0,0-.09a1.56,1.56,0,0,1-.22-1.09c-.12,0-.15-.45-.22-.66-.05,0,0,.05-.05.08s-.06-.2.05-.13c0-.08-.13-.11-.09-.26a.25.25,0,0,1-.13,0c0-.1.08-.06.08-.13s-.06.05-.13,0a2,2,0,0,1,.4-1.24c.06-.05.24,0,.22-.13,1-.25,1,.74,1.32,1.54.21.62.7.91.83,1.32a28.82,28.82,0,0,0,1.59,6.24c.05.16.23.37,0,.58-.3-.11-.11-.27-.31-.44-.64-.55-1.69.25-2.37.92-.25.25-.35.53-.62.61a1,1,0,0,1-.48.62c.13.07-.14.2,0,.26-.13,0-.13.27-.22.4s-.09,0-.18.13-.05.33-.13.49-.15.08-.17.13c-.14.33-.07.75-.36.79,0,0,0,.08.09.09-.31.17-.36,1.18-.75,1.27.09.08,0,.16,0,.27s0-.06,0-.09c-.38.49-.27,1.21-.66,1.67,0,.08.1.11.09.22s-.11.09-.22.09,0-.17-.05-.18,0,.15,0,.22A5.13,5.13,0,0,1,408.56,346.35Zm-7.16,2.38c.1,0,0,.19,0,.22.13-.06.1-.28.13-.44-.06,0,0,.11,0,.17s0-.35.08-.22c0-.28.2-.59.09-.83,0-.06,0,0,.09,0s-.12-.33,0-.22c0-.07,0-.17,0-.18.27-.26,0-1.28.48-1.58-.08-.48.1-.22,0-.53.05,0,0,.09.09.09a2.24,2.24,0,0,1,.09-.35c-.19.21,0-.36.08-.22,0-.1,0-.14-.13-.13a4.4,4.4,0,0,0,.35-2.16c-.06-.31-.42-.55-.3-.88.1.1.47-.08.43-.13,1.27-.46.66-3.23.53-4.66,0-.07-.08,0-.09,0s0-.21-.08-.44h.13c0-.11-.15-.08-.13-.22.07.06.1,0,.08-.09s0-.11-.13-.13c.14-.14-.06-.14.09-.18,0-.07-.14,0-.09-.17.28.15-.14-.4.09-.4a3.56,3.56,0,0,1-.35-1.85c0,.13.08,0,.08-.07a0,0,0,0,0,0,0c.34-.73.07-1.53,1.18-1.41.56.07.84.65,1.1,1.32.19.5.5,1,.71,1.54s.35,1.34.61,2c0,.08.15.14.18.22.12.35,0,.76.13,1.1s.51.84.57,1.28c.18-.11-.05.06.13,0-.25.09-.44.23-.7.31-.06,0,0,.11,0,.18-.57.14-.71.93-1.06,1.14.1.11,0,.25-.13.26.07.1,0,.35,0,.09a2.05,2.05,0,0,0-.22.62c-.14-.14-.14.35-.31.52,0,.08.1,0,.09,0,.16.08-.07.2-.13.09,0,.13,0,.08,0,.22-.15-.24,0,.34-.18.17-.11,1-.6,2.31-.75,3.26.19.22-.66,2.21-.79,3.25-.05.4,0,1-.22,1.06.12.69-.64.75-1.27.92-.18-.13.06-.68-.22-.7,0,0,0-.08.09-.09s-.19-.3-.09-.4A1.29,1.29,0,0,1,401.4,348.73ZM388,295.48c-.23-.14.27-.3.22-.39s.05,0,.05,0,.08-.15.22-.13a5.11,5.11,0,0,1,1.36-1.59c.63-.53.87-1,1.8-1.09.46.37,0,1.21-.22,1.45s-.29.08-.39.17-.25.49-.27.27a4.79,4.79,0,0,1-1.71.83.87.87,0,0,1-.75.27s0,.1-.13.08,0,.06,0,.13-.12.07-.27.14c0-.09,0-.15-.08-.18S388,295.49,388,295.48ZM373.39,287c0-.11.2-.17.13-.17.57-.32,1.18-1.06,2-1.1,0,.11.09.11.17.13-.65.26-1.12.69-1.8.92,0-.09.08-.06.09-.13-.15,0-.17.13-.18.26-.24,0-.29.13-.4.23s0-.2-.13-.18S373.4,287,373.39,287Zm-19.62-13.46c-.68.65-1.06,1.7-1.84,1.85a3.69,3.69,0,0,0,.31-1.72c.29-.31.2-.4.24-.66l0,0c0-.16.05-.18.11-.26s-.19-.22.11-.36c-.05-.22,0-.5,0-.9a2.58,2.58,0,0,0-.11-.42,5.59,5.59,0,0,1,.9.68,1.1,1.1,0,0,0,.59,1.46Zm.46,5.45c.37-.4.2-.76.3-1.21,0,0,.06.09.08.06a12.83,12.83,0,0,0,1.2-2,9.07,9.07,0,0,0,2,.09c0-.06,0-.11.08-.09a10.51,10.51,0,0,0-.85.91,5.61,5.61,0,0,0-.86.48C355.43,277.85,355.15,278.87,354.23,279Zm3.63,2.33c-.37.66-1.11,1.78-1.78,1.62.08,0,.07-.08,0-.1a13.22,13.22,0,0,0,2.27-3.83,6,6,0,0,0,1.85-.14,1.7,1.7,0,0,1,.88-.31c.12,0,.24-.17.4,0a4.94,4.94,0,0,0-1.49.95l-.08-.07C358.65,279.49,358.33,280.52,357.86,281.36Zm1.09,6.16c.42-.52.36-1.3.67-1.91s.88-1.09.86-1.72c0,0,.06,0,.1,0-.12-.32.24-.9.19-1.31-.1-.07-.08.13-.18.05s.09-.09.2-.11.11-.22,0-.2,0,.13-.06.09.11-.21-.06-.32h0a7.14,7.14,0,0,0,4.24-.72c0,.14.11.09.13.18s-.26.08-.09.17c-.07,0-.16,0-.18,0a6.74,6.74,0,0,1-1.15.75,2,2,0,0,0-1.89,1.19,14.29,14.29,0,0,0-1.36,2.74,3.92,3.92,0,0,1-.1.46A1.43,1.43,0,0,1,359,287.52Zm3.78,9.06c-.12,0-.28,0-.41,0s-.53.19-.78.22c-.57.07-1.16-.22-1.56,0a2.22,2.22,0,0,0-1.4-.09c.09-.21.62-.29,1.07-.43s.64-.26,1-.36a12.43,12.43,0,0,1,3.23-.41C363.92,295.93,363.45,296.43,362.73,296.58Zm2.69-8.57c-.42,1-.9,2.13-1.16,2.95,0,0,0,0,0,0a2.67,2.67,0,0,0-.2.46s0-.09,0-.08c-.14.3-.76.63-1,.47.23-.56.23-1.32.44-1.94a.18.18,0,0,0-.09.1c0-.15,0-.28.11-.16a11.28,11.28,0,0,1,.48-1.42s.09,0,.1,0c.1-.26.07-.58.15-.83a8.61,8.61,0,0,0,.28-1.05,2.52,2.52,0,0,1,.12-.42c.06-.17,0-.38,0-.51s-.1,0-.12,0c.21,0,.15,0,0-.08a8.42,8.42,0,0,0,.87,0c1.74-.13,3.18-1.24,4.66-1.49-.16.11,0,.23-.18.35,0-.1.13-.14,0-.13a2.16,2.16,0,0,1-.84.83c0,.11-.08.14,0,.22-.08-.07-.05,0-.17,0-.08.4-.39.58-.57.88-.06-.11.17-.14,0-.18-.08.12-.26.37-.09.36a1,1,0,0,0-.37.34l0,0C367,285.93,365.51,287.37,365.42,288Zm1.24,37.11c-.63.78-.87,1.77-1.67,2.37,0,.2-.07.34-.22.4.05,0-.15.38-.17.39-.27.2-.68.16-1,.4s-.36.59-.62.75c-.43,0-.31-.21-.43-.35a1.49,1.49,0,0,1-.27-1.24c0,.06,0,.32.05.18-.05-.93.78-2.12.74-2.95.2.06,0-.34.22-.39,0,.05-.08.1,0,.13.05-.21.21-.32.27-.53-.08,0-.12.07-.14,0,.13-.08.14-.27.31-.3,0-.11-.08-.1,0-.22.35-.35.4-.88.66-1.32,0-.14.42-.74.35-.88a11.08,11.08,0,0,0,1-2.38c0-.06-.08,0-.09-.09.2.08.24-.19.15-.27l-.06,0,.06,0a.13.13,0,0,1,.11,0,10.64,10.64,0,0,0,.44-5c0,.06,0,.13,0,.14-.13-.8-.7-1.23-1.41-.88s-1,1.4-1.32,1.76c.12.32-.23.56-.31.83-.09-.06.06-.11,0-.13s.09.49-.22.7c.06-.17.14-.28.09-.44-.11.25-.15.78-.35.79.17.61-.54,1.33-.75,2.07-.33.14-.29.65-.57.84-.05.49-.41.78-.57,1.27-.07,0-.08,0-.14,0,.09.14-.08.41-.08.22a1,1,0,0,1-.35.62c.07,0,.1,0,.08.13s-.21.29-.35.39a3.43,3.43,0,0,1-1.58.62c-.17-.15-.17-.7-.09-1,0,.07,0,.36,0,.22s-.06-.22,0-.39c.35-.14.09-.07.09-.35a.29.29,0,0,0,.22,0c-.05-.16,0-.34.09-.17-.13-.27.12-.14,0-.31.13,0,.26-.51.18-.71.19-.15.24-.83.48-1.18.12.11.68-.88.57-1a1.54,1.54,0,0,0,.4-.66,12.33,12.33,0,0,0,1.1-2.15s.14.13.13,0-.13-.15,0-.13.07.1.08,0,.28-.51.09-.7a3.32,3.32,0,0,0,.44-1.19s-.09,0-.09,0c.31-.08.18-.58.4-.75-.17-.2.27-.72,0-.62a2.5,2.5,0,0,0,.18-.87s0-.09,0-.16a.57.57,0,0,0,.34.21c.81.84,1.87.76,2.88,1,.36.08.71.27,1,.3a10.85,10.85,0,0,0,3.58-.6,11.74,11.74,0,0,0,2.16-.52s0-.08,0-.1c.44,0,.61-.27,1.11-.36s1.39-.16,2-.28,1.06-.13,1.44.36a4.48,4.48,0,0,1-1.46,1.35c0-.18-.15,0-.2-.09-.55.26-1,.08-1.54.39a9.65,9.65,0,0,0-4,.49,1.59,1.59,0,0,0-1.27,1.89c.05,0,.09,0,.12,0s-.07,0-.1,0c.68,1.55,2,1.78,3.12,2.16,1.86.25,4.26-.37,6.37-.81,1.05-.22,2.78-1.11,3.42-.16.06.05.18-.1.23,0-.34.31-.68.37-1,.65s-.35.73-.75,1-.53.27-.7.38c-.34.2-.6.48-.92.7-.53.36-1.27.43-1.69,1-.11-.07-.29.08-.4,0s0,.05,0,.08c-.29.05-.93.21-1,.38-.08,0-.1-.05-.18,0,.09.24-.57.18-.66.48-.23-.18-.16.16-.49,0,0,.08-.05.09,0,.17a5.34,5.34,0,0,0-1.5.83,2.64,2.64,0,0,0-.47.44.43.43,0,0,1-.13-.09c.4-.21,0-1.33-.26-1.63-.32,0-.44-.2-.84-.13a2.84,2.84,0,0,0-1,.7,3.89,3.89,0,0,0-.83.84c-.05.07-.06.29-.14.39s-.12,0-.13.05c-.08.17,0,.41-.17.35-.13.43-.52.8-.62,1.1a.22.22,0,0,0-.13,0c-.37.29-.42.78-.66,1.15C367,324.91,366.77,325,366.66,325.12Zm28.8,6.9a9.55,9.55,0,0,1,1.28.13c.76.42,1,1.32,1.84,1.67a4.25,4.25,0,0,1-.19,2.39l0,0h0l0,.05c-.05,0,0,0,0-.05v0s0,0,0-.06,0,.09-.08.09a.12.12,0,0,0,.13.09c-.19.12-.11-.07-.18-.13s-.47-.36-.61-.49a1.12,1.12,0,0,1-.05-.13c-.15-.18-.46-.29-.61-.57.08.3-.29-.31-.22-.31a4.59,4.59,0,0,1-.62-.88c.08.07-.15-.42,0-.61-.07-.14-.18,0-.09-.22,0,0,0,.05,0,.09s0-.29-.14-.4c-.1,0,.1.13.05.26C395.77,332.63,395.33,332.28,395.46,332Zm-5.54,1.63a1.6,1.6,0,0,1,1-.22v.35a.12.12,0,0,0-.17,0c0,.07.05,0,.13,0s0,.33-.13.26c0,.69-.5,1.67,0,2.38.32.41,1.27.11,1.94.39.52.22.34.82.88,1a2.34,2.34,0,0,0,.61.75,1.72,1.72,0,0,0,.88,1.23,5.15,5.15,0,0,0,2.95,2,3.19,3.19,0,0,0,1.27,0c.29-.08.54-.28.75-.35s.19-.21.39-.22c-.13.16.16,0,.31,0-1.35.44-2,2-2.59,3,0,.11-.38,1-.18.3a1.6,1.6,0,0,0-.57.88s.08.06.09.05a11.54,11.54,0,0,0-.7,1.36c-.06.23.1.47-.05.7.13.05.16.62.09.93-.19-.14-.32.1-.44.17a5.53,5.53,0,0,1-.4,3.52s.06,0,.09,0a3.28,3.28,0,0,1-2.5,1.1c.11-.21.14-.5.3-.66,0,0-.1,0-.08-.13.21-.27,0-.87.08-1.19,0,0-.06,0-.08,0,.2-.3.23-1.05.57-1.36-.21-.1.15-.34-.09-.4,0-.1.2,0,.13-.13.22,0-.12.13.05.22a6.22,6.22,0,0,0,.3-.62c-.13.07-.18.24-.26.36-.08-.22.22-.45.35-.49s-.06,0-.13,0,.12-.34.22-.26a1,1,0,0,1,.35-.92c-.05-.12-.25,0-.18.13-.19-.07,0-.2.05-.31.12.21.36-.18.26-.31s.18,0,.05-.09c.06-.09.12.05.17-.08s-.05,0-.13,0c.2-.16.24-.53.35-.66s0,0-.13,0c.07-.06.08-.24.18-.14,0-.1-.08-.09-.05-.22-.14.13-.14.52-.39.4.2-.08.28-.27.3-.53.13,0,.12-.06.22,0s-.18-.08,0-.09c-.11-.18-.1.13-.22.09.13-.23.09-.51.36-.66,0-.11-.09.08-.14.09s.05-.57.22-.66c0-.08-.12-.11-.08-.27a1.89,1.89,0,0,0-.18-1.67c0-.08-.15,0-.18-.08-.14-.41-.82-.48-1.18-.44-.87.09-1.47,1-1.94,1.45-.71,1.21-1.75,2.08-2.06,3.69-.09.08-.08,0-.22,0s.15,0,.17.09,0,.16-.09.22,0-.14,0-.22c-.28.12-.3.87-.22,1s-.11,0-.07-.07c-.29.21.05.54-.19.5.19.15-.19.3,0,.62-.18-.25,0,.37-.22.35.08,0,.14.25,0,.13,0,.21,0,.35-.09.49.22.07-.14.19.13.17-.49.32-1.41.39-1.27,1.19a.21.21,0,0,0-.14,0c0,.12.09.15,0,.08-.36.95.19,1.62.44,2.42,0,.05.08,0,.13.05a5.44,5.44,0,0,1-2.15.52,15.46,15.46,0,0,0-1.85.62,12,12,0,0,1-2.11.35c-.28,0-.55.13-.66-.17,0,0,0,.05,0,.08a12.47,12.47,0,0,1,.4-3.29c0-.07,0,0,0,0,.29-.87.4-1.9.62-2.84h.13c-.19-.06.11-.11,0-.22a10.8,10.8,0,0,0,.48-2.37c.05-.23.32-.51.22-.75.08,0,.12,0,.13-.09-.11.12-.13-.1,0,0,0-.81.3-.92.22-1.63.31-.14.14-.76.48-.88.1-.82.61-1.7.66-2.33.18,0,.46-1.14.62-1.62.05,0,0,.08,0,.13s-.05-.15,0-.27,0,.06,0,.09a14.71,14.71,0,0,0,.66-1.85c.34-.35.38-1,.75-1.45.16-.19.17-.71.26-.88s.26-.14.14-.35c0,0,0,.06,0,.09.33-.21.43-.75.79-1A6.38,6.38,0,0,1,389.92,333.65Zm1.06-8.36c-.17-.15-.08.19-.09.22s-.12.07-.13.09c-.18.34-.27.93-.49,1.15-.23,1.14-.84,2.82-1.09,4.17-.28.14-.09.71-.4,1.15.17,0,0,0,0,.13s.14-.18.18-.05c-.4.31-.82.77-1.14,1a.79.79,0,0,0-.05.36c-.19,0-.35.22-.22.26-.32.13-.15.4-.39.44.05,0,0,.07,0,.13-.15,0-.19.08-.26.13.1.08,0,.18-.05,0a.23.23,0,0,0,.05.17c-.19-.12-.42.54-.27.49-.12,0-.08.2-.17,0,0,.32-.22.34-.18.66-.05,0-.06-.06-.13,0-.09.74-.42,1.45-.53,2.11.15-.06.13-.36.18-.4s0,.52-.13.44a2.69,2.69,0,0,1-.36,1.1c0-.21.06-.23.09-.4-.2,0-.11.45-.26.36,0,.13.24.19.09.3,0-.1,0-.16-.09-.17s.08.15-.05.09c0,.15.18.05.14.22-.25.28-.26,1.1-.53,1.18.09.05,0,.26,0,.31-.06-.13.14-.24,0-.22-.06.41-.17.45-.18.62s-.05.7-.35.88c.24,0,0,.15.14.3-.13,0-.09.08-.18,0a7.65,7.65,0,0,0-.48,1.76c-.16-.1,0,.05-.05.09s-.15.15-.17.22,0,.24,0,.35a.8.8,0,0,0-.14.09,5.92,5.92,0,0,0-.22.75,11.82,11.82,0,0,0-.3,1.58c-.25.06-.3.81-.4,1.27-.27,1.23-.95,2.88-1.05,3.52-.15-.12-.12.21-.27.22,0,0,.19.12.09.13a23.7,23.7,0,0,1-3.21-3.38,1.68,1.68,0,0,0-.53-.49c-.49-1.07-1.77-1.74-2-3.25.62-.63,1.55-.92,1.86-1.69a.09.09,0,0,0,.08.11c.65-.47,1.58-.88,1.93-1.5a16,16,0,0,0,1.59-1.36c-.07-.17.23-.35.39-.44.05-.35.76-.7,1.06-1.19,0,0-.07,0-.05,0a1.83,1.83,0,0,1,.4-.35c.18-.15.38-.52.61-.71s.51-.79.8-1.09c0,0,.1,0,.13,0s.1-.23.17-.31a4.38,4.38,0,0,0,1-1.06h.13c0-.08-.06-.08-.09-.13.25,0,.31-.49.36-.62l.08.05a2.82,2.82,0,0,0,0-.7c0-.42.19-.93-.18-1.37-.05-.74-.86-.71-1.67-.7a2.94,2.94,0,0,0-1.71,1.32c-.56.59-1.34,1-1.89,1.54-.32.08-.45.34-.75.44a2.07,2.07,0,0,1-1.45,1.18c-.33.52-1,.93-1.1,1.5-.06,0-.07-.05-.13,0-.24.59-1,.68-1.19,1.32-.08,0-.1.05-.17,0a.17.17,0,0,0,0,.13c-.26.17-.09.24-.53.57-.14-.1-.36-.13-.48-.26-1.08-.16-1,.56-1.32,1.14,0-.05,0-.12,0-.13-.15.21-.24.47-.4.66-.09,0-.38,0-.22.09,0-.08,0,0,0,.07-.11,0-.22.08-.23-.11.06,0,0,.07.09.08-.42-.86-1.52-1.16-1.23-2.28.15,0,.21-.22.18-.22s-.11.23-.14.13.07-.2.14-.26-.11.12.08.08c.12-.26.35-.26.44-.7.1.06.11,0,.18,0s-.18-.17-.09-.18.05,0,.09,0,0,.12,0,.13-.06-.12,0-.22c.11.14,0-.32.26-.13.21-.5.22-1.15.49-1.28,0-.24.29-.32.22-.44.11-.14-.16.11-.13,0,.26-.11.41-.26.35-.53.32.06.09-.5.44-.39.06-.12-.05-.15-.05-.27s.09.07.18.05c.21-.42.95-1.25.92-1.54.26.07.06-.53.4-.53-.05,0,.05-.32.17-.31,0,0-.05.08,0,.09.16-.35.06-.42.31-.61-.09-.36.65-.94.49-1.19a13.94,13.94,0,0,0,1.14-2.29c-.06,0-.11,0-.09-.08.1.1.1-.05.18-.09s-.06-.09-.09-.13a2.69,2.69,0,0,0,.17-2.38c0-.08-.19-.05-.22-.17-.1-.43-.82-.54-1.27-.36a5.82,5.82,0,0,0-1.19,1.06,8.59,8.59,0,0,0-.79,1.36,1.11,1.11,0,0,0-.39.62s0,0,0,0c-.23.07-.21.41-.35.57s-.08-.06-.09,0,.05.11,0,.13-.18.07-.22.13-.13.41-.26.57-.21.09-.26.18a.45.45,0,0,0-.05.26c-.25,0-.28.45-.44.44,0,.34-.69.89-.77,1.26,0,0,0,0,0,0l0,.05v0a.08.08,0,0,1,0,0,16.24,16.24,0,0,1-1,1.36,7.14,7.14,0,0,0-.73.86s0,0,0,0c-1.11.23-.94,1.16-1.71,1.54a3.1,3.1,0,0,1-.8-1.15s0,.09,0,.09c0-.63-.14-1.7.35-2-.11-.06-.07-.46,0-.26-.11-.35.11,0,0-.35,0,0,.05,0,.08,0-.13-.36.31-.69.09-1.14.22,0,.2-.27.22-.49s.4-.49.35-.74c.2-.14.36-.41.27-.53.08,0,.14,0,.17-.09-.26.09,0-.12.05-.09s-.06-.12,0-.13,0,.09,0,.09a2.38,2.38,0,0,0,.13-.57c.16,0-.11.16.05.17,0-.21.22-.1.08-.26.2,0,.14-.25.31-.26-.14-.1-.12.08-.17,0a1.88,1.88,0,0,1,.57-.71c-.11,0-.14,0-.18,0s.07-.07.18,0c-.11-.14.11-.43.17-.27-.09-.21,0-.31.14-.26-.14-.25.31-.9.44-.92-.07,0-.05-.1-.09-.13a3,3,0,0,0,.66-1.46,2,2,0,0,0,.52-1.23.58.58,0,0,0,.1-.12,1,1,0,0,0,.09.17c.52.72,1.4.72,2.33.71.22,0,.25,0,.44,0a18.37,18.37,0,0,0,1.89-.25l.2,0a5.75,5.75,0,0,1,1.17,0c1,.13,2-1,2.87-1.36,0,0-.08,0-.1,0,1.12-.64,2.08-1.4,3.21-2.2.65-.47,1.78-1.26,2.08-.68.05,0,.11-.07.14,0,.16.33.64.34.87.78a.21.21,0,0,1,.2,0,3.87,3.87,0,0,0-1,1,1.43,1.43,0,0,1-.29.76c-.95,1.22-2.69,2.19-3.78,3.45a5.08,5.08,0,0,0-.76,1.82.5.5,0,0,0,0,.71c-.23.08.14.34-.13.42.37,1.16,2.06,1.07,2.82.57a7.25,7.25,0,0,0,3.16-2.47c.45-.39.84-.85,1.33-1.23.94-.73,1.22-1.78,2.28-2.44a4.83,4.83,0,0,1,.84.18.21.21,0,0,1,0,.06c.09.12.17,0,.22.13A17.38,17.38,0,0,0,391,325.29Zm9.71-19.17c0,.09.08.11,0,.18s0-.1,0-.09a18.29,18.29,0,0,1-1.1,3c.08,0,0,.15.09.17-.14,0-.09.26-.26.27.17,0,0,.32-.09.17,0,.08.13.15,0,.18s-.06-.12-.09-.05c.11.41-.45,1-.44,1.45,0,0-.08-.05-.09,0-.41.53-.79,1.94-1.32,2.37-.06.5-.75,1.2-.92,1.72-.09,0-.32.27-.18.31-.31.25-.43.85-.74,1.23,0,0,0-.09-.05-.09.13.23-.15.37-.26.53,0,0,.1,0,.09,0s-.17.08-.22.13-.2.49-.4.66c0,0-.18,0-.09.09,0-.05.08-.1.09,0a3.28,3.28,0,0,0-.66,1c-.07-.13-.21.12-.13.13s.05-.06.09-.08a1.38,1.38,0,0,1-.22.35c-.05-.11.19-.16,0-.22a8.5,8.5,0,0,1-.57,1c0-.11.23-.21.09-.31a23.32,23.32,0,0,0-1.15,2.37H392c0-.08-.1-.15-.18-.14s.13-.09.05-.18c-.35.1-.71-.54-1.1-.65,0,.08.11.07.06.12s-.26-.6-.47-.6c0,0,.06.11,0,.14-.28-.4-.83-.57-.95-.83-.18.09-.1-.08-.22,0,0-.14,0-.15-.06,0-.05-.29-.52-.21-.83-.7a6.83,6.83,0,0,1,.54-1.49c-.13-.19-.1-.45.06-.44a.23.23,0,0,1-.09-.25s0,.07.08,0a2.31,2.31,0,0,0-.19-1c.09-.29.36-.52.35-.84.07.14.23-.4.12-.42.05.06,0,.13-.06.08.15-.23.42-.68.21-.81.26-.16.24-.51.31-.72s.15-.15.17-.24c.07-.26,0-.56.21-.82-.14-.14-.05,0,0-.15s0-.09-.1-.2.08,0,.14,0c-.1-.06,0-.2-.09-.2a.25.25,0,0,1,0,.07s0,.09-.05.11l.05-.11s0-.05,0-.06h0a2,2,0,0,0,0-.6c0-.27.09-.65.07-.79s-.11,0-.12,0a1.89,1.89,0,0,1,0-.47,3.19,3.19,0,0,0-.37-1.05s0,.07,0,.1c-.08-.3-.45-.35-.63-.42a.33.33,0,0,1-.12-.13c-.58-.15-1.25.35-1.74.95a3.36,3.36,0,0,0-.72,2.34c-.18.25-.14.57-.37.8a9.83,9.83,0,0,1-1.34,3.43.19.19,0,0,0,.1-.1c.1.1-.29.21-.07.24,0,0,0-.06,0,0a.25.25,0,0,1-.17.14.41.41,0,0,0-.22-.23c0,.07.09.14,0,.18-.14-.26-.38-.64-.48-.79.74-1.11,1.2-2.31,1.89-3.43.1,0,.19-.17.25-.28.12.09.05.21.18.15s-.12-.09.06-.08c-.08-.18-.13,0-.18-.06s.11,0,.21-.06c0-.3.07-.57,0-.87-.36-.19-.55-.85-.23-.88.21-.37.21-1,.39-1.41.1-.23.34-1,.05-.73a.79.79,0,0,0,0-.77,8,8,0,0,0-2.79,1.12c-.38.31-.82.65-1.17,1-.55.55-.68,1.26-1.1,1.55-.11.08-.5.28-.83.5-.53.35-.78.23-.89-.07-.11.17-.09-.25-.25-.26.08,0,.14-.47,0-.42a14.17,14.17,0,0,0,.83-1.7c.43-1.12,1.35-2.24,1.71-3.38a5.89,5.89,0,0,0,.49-1.77c-.06,0-.14.09-.18.05s.26,0,.24-.13,0-.13,0-.2l-.18-.05c.25,0,0-.11.15-.18s-.09.2.05.17c0-.16.12-.55-.06-.47a1.6,1.6,0,0,1,.12-.51c0-.26-.22-.39,0-.75a2.94,2.94,0,0,1-.17-.6s.08.06.08.05c-.11-.35-.38-.61-.23-.78a1.69,1.69,0,0,0-1-.79c-.35.13-.66.08-.95.27s-.47.76-.81,1c-.06.11.1.07,0,.14-.35.67-1,1.25-1.33,2-.11.23-.11.53-.23.77a14.66,14.66,0,0,1-.91,1.55c-.08,0-.1-.08-.19,0s.13.08,0,.18a13.74,13.74,0,0,0-1.51.72c-.31-.15-.08-.16-.33-.52.22-.54.5-1.06.67-1.62-.07-.1,0-.16,0-.27.18-.09.14-.31.2-.46a13,13,0,0,0,1-2.14s0,0,0,0a10.09,10.09,0,0,0,.4-1.37s-.07-.09-.06-.12c.17-.57.36-.75.17-1.24.33-.54,0-1.37.15-2-.09-.19-.16-1-.45-1.11,0-.15.07-.25-.13-.33,0,0,0,.08,0,.1-.07-.13-.24-.15-.14-.27-.08.08-.26-.08-.19-.15s.05.07.08.05c-.23-.23-.66,0-.83-.15a5,5,0,0,0-1.86,1.82s.1,0,.1,0a6.82,6.82,0,0,0-1.19,2.24c.16-.05-.14.18,0,.14,0,0,0-.06,0,0a.22.22,0,0,1-.06.18c0-.05,0-.09,0-.08a5.9,5.9,0,0,1-.15.73c-.16-.3-.06.2-.07.24s-.11.07-.13.12,0,.19,0,.26a1.87,1.87,0,0,1-1.52,1.07c0-.07-.23-.36,0-.51a.58.58,0,0,1,.08-.59c.15-.3.05-.67.19-.76s-.19-.06-.08-.15c.16.06.12-.86.1-1,0,0,.09,0,.08,0,.2-.82,1-1.61.95-2.67l.11-.06c0-.09-.18-.07-.08-.15.11.18,0-.09.15-.09a23,23,0,0,1-.07-2.61.52.52,0,0,1-.06-.57c-.13-.05-.2-.22,0-.14-.11-.25,0-.12-.17-.21.07-.09.11-.35-.07-.41,0,0,0,.06,0,0s0-.08.12-.06c-.1-.15,0-.26-.19-.25.17-.11-.08-.62-.17-.51-.05-.19,0-.08,0-.23s-.09,0-.14-.08,0-.1,0-.17c-.42-.37-.72-.66-1.35-.37-.82.38-1.37,2-1.53,2.89a5.89,5.89,0,0,1-.29.76c-.06.23-.11.89-.18,1.14s-.15.24,0,.3c-.19.52-.61,1.54-1.52,1.53,0-.16.09-.22,0-.18,0-.16,0-.18.09-.1,0-.12-.08-.23.08-.14-.12-.3.31-.6.11-.81.28-.19.18-.59.22-1,0,0,0,.07.08.05s0-.29-.13-.23c0-.13.15,0,.18-.14.13-.82,1-1.87.84-2.77.08,0,.13-.53.12-.74,0,.06-.14.07-.18,0s0,0,0-.06.08.09.14.07a2.45,2.45,0,0,0,.08-.39c-.21,0,0,.31-.17.24s.16-.29.23-.33c-.09,0-.24,0-.13-.13,0,.08,0,.12.11.1-.11-.1,0-.13,0-.2s-.11.09-.18.05.29-.41,0-.36a2.63,2.63,0,0,0,.05-.49,3.09,3.09,0,0,0,1.16.08c.79-.07,1.76-.57,2.2-.3a.48.48,0,0,0,.09.44c-.06,1.7,1.94,1.72,3.43,1.58s2.29-1.48,3.73-1.67c.23-.24.68-.27,1-.44.22.08.31.12.35.22s-.1.31-.17.53c0,0,.08,0,.08,0s-.22.14-.17.09,0,.13-.05.17-.17,0-.22.09,0,.18,0,.22-.31.11-.4.18-.11.23-.26.35-.47.19-.53.48c0,0,0-.08,0-.09-.08.19-.15.21-.26.44,0,0,0-.05,0-.08-.46.23-.61.77-.88,1.18,0,0,0-.08,0-.08-.92,2.12,1.2,2.53,2.68,2.11a9.35,9.35,0,0,0,3.3-1.9,1.17,1.17,0,0,1,.66-.61c.11-.26.76-.38,1.05-.62,0,.09.15,0,.13.14s0,.19,0,.3c-.23.13-1.1.74-1,.93-.11.05-.14,0-.17,0-.06.29-.59.55-1,.92,0,0,0-.08-.05-.08s0,.05,0,.17c-.42.09-.59.45-.92.75,0-.06.18-.13,0-.18a1.48,1.48,0,0,1-.3.4c-.07.09-.18.32-.14.18a1.86,1.86,0,0,0-.57,1.71c.49,1.71,3.56.75,4.8.44.07.33-.14.56-.14.88,0,1.34,1.3,1.56,2.6,1.67a7.46,7.46,0,0,0,3.73-.79,4.89,4.89,0,0,1,1.5-1,4.82,4.82,0,0,1,.57-.62s.14,0,.18,0c.32-.21.81-.64,1.32-1s.92-.83,1.62-.57c.2.22,0,.58,0,.66a.21.21,0,0,1,.13-.13c-.17.1.06.17,0,.26,0-.15-.28.19-.22.27-.22,0-.18.2-.44.13-.45.62-1.34.8-2,1.23-1.19.39-2.46.77-2.86,1.5,0-.05-.07-.11-.09-.05,0,.31-.22.65-.22,1,0,.48.4.67.57,1a4.16,4.16,0,0,0,1.76.66,7.62,7.62,0,0,0,4.62-1.14c0-.18.32-.24.31-.35.5-.45,1.34-.7,2-1.19.4-.31.72-.94,1.18-.92,0-.08-.06-.11,0-.13s.41.24.4.13c.16.18.3.81,0,1a29.72,29.72,0,0,1-.88,3.65s0,.35-.17.31A13.09,13.09,0,0,1,400.69,306.12Zm32.63,2.25c-.1-.07.05-.13-.09-.18s0,.17.06.21c-.18,0-.19-.32-.28-.47l-.22-.4a2.69,2.69,0,0,0-.26-.44c-.06-.06-.11,0-.18,0a.56.56,0,0,0,0-.13c-.08-.1-.39-.36-.31-.58-.17,0-.15-.13-.26-.17.16-.25.05,0,.09-.31.07.06.25,0,.44,0a1.42,1.42,0,0,0,.79.62A3,3,0,0,1,433.32,308.37ZM352.49,273a.25.25,0,0,0,0,.08A.11.11,0,0,0,352.49,273Zm11.76,18v0S364.24,291,364.25,291Z"/></svg>