<svg id="Layer_1" data-name="Layer 1" xmlns="http://www.w3.org/2000/svg" viewBox="0 0 716.16 266.78"><defs><style>.cls-1,.cls-2{fill:#061d41;}.cls-2{fill-rule:evenodd;}</style></defs><title>blå_logo</title><path class="cls-1" d="M238.78,244h11.35v1H240v10.46h9.23v1.06H240v7h-1.18Z"/><path class="cls-1" d="M256.76,242.81h1.11v20.7h-1.11Z"/><path class="cls-1" d="M270.92,263.74a6,6,0,0,1-2.4-.49,6.49,6.49,0,0,1-1.93-1.32,6.12,6.12,0,0,1-1.31-6.67,6.18,6.18,0,0,1,8-3.24,5.85,5.85,0,0,1,1.92,1.31,6,6,0,0,1,1.28,1.93,6.25,6.25,0,0,1,.46,2.37,6.17,6.17,0,0,1-.46,2.36,6,6,0,0,1-1.28,1.94,6.2,6.2,0,0,1-1.92,1.32A5.9,5.9,0,0,1,270.92,263.74Zm0-1a5.1,5.1,0,0,0,2-.38,4.56,4.56,0,0,0,1.54-1.08,4.94,4.94,0,0,0,1-1.62,5.85,5.85,0,0,0,0-4,4.79,4.79,0,0,0-1-1.61,4.65,4.65,0,0,0-1.54-1.06,4.92,4.92,0,0,0-2-.38,5.06,5.06,0,0,0-2,.38,4.78,4.78,0,0,0-1.57,1.06,4.84,4.84,0,0,0-1,1.61,6,6,0,0,0,0,4,5,5,0,0,0,1,1.62,4.68,4.68,0,0,0,1.57,1.08A5.24,5.24,0,0,0,270.92,262.73Z"/><path class="cls-1" d="M282.1,251.81h1.2l3.1,8.43c.06.15.11.31.16.47s.09.32.13.47.1.34.14.49c0-.15.08-.31.14-.49s.08-.31.13-.47a2.72,2.72,0,0,1,.19-.47l3.5-8.55H291l3.56,8.52.18.47a3.38,3.38,0,0,1,.16.48q.09.25.15.48a1.83,1.83,0,0,1,.11-.48c0-.16.08-.31.13-.48s.1-.32.16-.47l3.09-8.4h1.15l-4.53,11.93h-.29L291.36,255a3.68,3.68,0,0,1-.17-.44c-.06-.17-.11-.31-.15-.45a2.37,2.37,0,0,1-.11-.46l-.12.46c0,.14-.08.28-.13.45a3.76,3.76,0,0,1-.15.44l-3.62,8.72h-.28Z"/><path class="cls-1" d="M306.06,257.89a5.64,5.64,0,0,0,.39,1.95,4.59,4.59,0,0,0,1,1.53,4.37,4.37,0,0,0,1.54,1,5.46,5.46,0,0,0,2,.36,4.93,4.93,0,0,0,4.1-1.83l.75.66a5.77,5.77,0,0,1-2,1.57,6.44,6.44,0,0,1-2.86.61,6.33,6.33,0,0,1-2.5-.48,5.71,5.71,0,0,1-1.94-1.3,5.83,5.83,0,0,1-1.25-1.94,6.35,6.35,0,0,1-.44-2.36,6.44,6.44,0,0,1,.44-2.37,6.08,6.08,0,0,1,3.11-3.25,5.47,5.47,0,0,1,2.33-.49,5.64,5.64,0,0,1,2.39.49,5.1,5.1,0,0,1,1.82,1.35,6,6,0,0,1,1.15,2,7.2,7.2,0,0,1,.37,2.48Zm9.26-.92a5.38,5.38,0,0,0-.37-1.69,4.06,4.06,0,0,0-.88-1.41,4.15,4.15,0,0,0-1.4-1,5.31,5.31,0,0,0-3.71,0,4.23,4.23,0,0,0-1.41.93,4.66,4.66,0,0,0-1,1.41,5.89,5.89,0,0,0-.49,1.75Z"/><path class="cls-1" d="M323.18,251.81h1.12l0,2.35a4,4,0,0,1,1.39-1.93,3.38,3.38,0,0,1,2-.65,3.51,3.51,0,0,1,2.12.59l-.54.9a2.26,2.26,0,0,0-.66-.34,3.1,3.1,0,0,0-1.06-.15,3,3,0,0,0-1.22.26,2.91,2.91,0,0,0-1,.79,4.07,4.07,0,0,0-.72,1.34,5.9,5.9,0,0,0-.27,1.87v6.67h-1.12Z"/><path class="cls-1" d="M349.3,263.74a5.83,5.83,0,0,1-1.68-.23,5.25,5.25,0,0,1-1.35-.63,4.28,4.28,0,0,1-1-.94,5.22,5.22,0,0,1-.68-1.13l1-.43a4.43,4.43,0,0,0,1.36,1.69,3.83,3.83,0,0,0,2.37.66,3.37,3.37,0,0,0,2.13-.61,1.94,1.94,0,0,0,.79-1.62,2.19,2.19,0,0,0-.21-1,2.1,2.1,0,0,0-.62-.68,4.06,4.06,0,0,0-1-.51l-1.41-.47a12.76,12.76,0,0,1-1.4-.46,4.52,4.52,0,0,1-1.15-.64,2.8,2.8,0,0,1-.77-.94,2.67,2.67,0,0,1-.29-1.31,2.62,2.62,0,0,1,.27-1.18,2.8,2.8,0,0,1,.75-.93,3.34,3.34,0,0,1,1.1-.6,4.08,4.08,0,0,1,1.38-.22,3.89,3.89,0,0,1,2.26.62,4.86,4.86,0,0,1,1.46,1.62l-.86.51a3.86,3.86,0,0,0-1.14-1.24,2.91,2.91,0,0,0-1.72-.5,2.77,2.77,0,0,0-1.78.52,1.68,1.68,0,0,0-.66,1.36,2.34,2.34,0,0,0,.14.86,1.6,1.6,0,0,0,.5.62,4.27,4.27,0,0,0,.94.5c.38.15.86.31,1.43.48a13.84,13.84,0,0,1,1.5.52,5.12,5.12,0,0,1,1.24.7,3.16,3.16,0,0,1,.84,1,2.82,2.82,0,0,1,.32,1.38,3,3,0,0,1-1,2.33A4.37,4.37,0,0,1,349.3,263.74Z"/><path class="cls-1" d="M363,263.74a2.64,2.64,0,0,1-1.91-.78,3.47,3.47,0,0,1-.78-2.55v-7.65h-1.84v-.95h1.84V245.7h1.11v6.11h3.39v.95h-3.39v7.62a3,3,0,0,0,.42,1.82,1.37,1.37,0,0,0,1.16.53,2,2,0,0,0,1.16-.26,3.64,3.64,0,0,0,.7-.6l.72.69a4.21,4.21,0,0,1-1,.83A3.08,3.08,0,0,1,363,263.74Z"/><path class="cls-1" d="M376.44,263.74a4.7,4.7,0,0,1-3.56-1.38,5.51,5.51,0,0,1-1.34-4v-6.56h1.12v6.5a5.22,5.22,0,0,0,.9,3.29,4.25,4.25,0,0,0,5.77,0,5.22,5.22,0,0,0,.9-3.29v-6.5h1.12v6.56a5.51,5.51,0,0,1-1.34,4A4.72,4.72,0,0,1,376.44,263.74Z"/><path class="cls-1" d="M393.79,263.74a5.7,5.7,0,0,1-4.16-1.77,5.78,5.78,0,0,1-1.2-1.93,6.61,6.61,0,0,1-.43-2.41,6.43,6.43,0,0,1,.43-2.39,5.64,5.64,0,0,1,3-3.22,5.69,5.69,0,0,1,2.32-.47,5.27,5.27,0,0,1,3,.86,5.72,5.72,0,0,1,1.91,2.18V242.81h1.12v20.7h-1.12l.06-2.93a5.51,5.51,0,0,1-2,2.27A5.38,5.38,0,0,1,393.79,263.74Zm.14-1a5.19,5.19,0,0,0,2-.38,4.6,4.6,0,0,0,1.55-1.08,4.78,4.78,0,0,0,1-1.62,6.17,6.17,0,0,0,0-4,4.64,4.64,0,0,0-1-1.61,4.7,4.7,0,0,0-1.55-1.06,5,5,0,0,0-2-.38,4.73,4.73,0,0,0-2,.38,4.45,4.45,0,0,0-2.47,2.67,6.35,6.35,0,0,0,0,4,4.71,4.71,0,0,0,1,1.62,4.44,4.44,0,0,0,1.51,1.08A4.89,4.89,0,0,0,393.93,262.73Z"/><path class="cls-1" d="M408.15,247.71a1,1,0,0,1-.66-.26.88.88,0,0,1-.29-.69.9.9,0,0,1,.29-.67.94.94,0,0,1,1.32,0,.9.9,0,0,1,.29.67.88.88,0,0,1-.29.69A1,1,0,0,1,408.15,247.71Zm-.54,4.1h1.11v11.7h-1.11Z"/><path class="cls-1" d="M421.57,263.74a6,6,0,0,1-2.4-.49,6.49,6.49,0,0,1-1.93-1.32,6.12,6.12,0,0,1-1.31-6.67,6.18,6.18,0,0,1,8-3.24,5.85,5.85,0,0,1,1.92,1.31,6,6,0,0,1,1.28,1.93,6.25,6.25,0,0,1,.46,2.37,6.17,6.17,0,0,1-.46,2.36,6,6,0,0,1-1.28,1.94,6.2,6.2,0,0,1-1.92,1.32A5.9,5.9,0,0,1,421.57,263.74Zm0-1a5.1,5.1,0,0,0,2-.38,4.56,4.56,0,0,0,1.54-1.08,4.94,4.94,0,0,0,1-1.62,5.85,5.85,0,0,0,0-4,4.79,4.79,0,0,0-1-1.61,4.65,4.65,0,0,0-1.54-1.06,4.92,4.92,0,0,0-2-.38,5.06,5.06,0,0,0-2,.38A4.78,4.78,0,0,0,418,254a4.84,4.84,0,0,0-1,1.61,6,6,0,0,0,0,4,5,5,0,0,0,1,1.62,4.68,4.68,0,0,0,1.57,1.08A5.24,5.24,0,0,0,421.57,262.73Z"/><path class="cls-1" d="M5.7,165.68H28.88v2H8.1V189.1H27v2.16H8.1v14.22H5.7Z"/><path class="cls-1" d="M44.1,165.68h2.4v37.76H65.64v2H44.1Z"/><path class="cls-1" d="M95,206A21,21,0,0,1,87,204.46,19.28,19.28,0,0,1,76.2,193.9a22.28,22.28,0,0,1,0-16.63A19.28,19.28,0,0,1,87,166.71a21.85,21.85,0,0,1,15.86,0,19.28,19.28,0,0,1,10.83,10.56,22.28,22.28,0,0,1,0,16.63,19.28,19.28,0,0,1-10.83,10.56A21,21,0,0,1,95,206Zm0-2.16a18.31,18.31,0,0,0,7.16-1.38,17.07,17.07,0,0,0,9.46-9.57,20.17,20.17,0,0,0,0-14.51,17.07,17.07,0,0,0-9.46-9.57,19.29,19.29,0,0,0-14.33,0,17.09,17.09,0,0,0-9.45,9.57,20.17,20.17,0,0,0,0,14.51,17.09,17.09,0,0,0,9.45,9.57A18.36,18.36,0,0,0,95,203.79Z"/><path class="cls-1" d="M154.72,205.48h-2.81l-8.34-11.41a21.83,21.83,0,0,1-5,.53H133v10.88h-2.4v-39.8h8a19.66,19.66,0,0,1,7,1.14,13.91,13.91,0,0,1,4.94,3.11,12.4,12.4,0,0,1,2.93,4.59,16.48,16.48,0,0,1,1,5.68,15.25,15.25,0,0,1-2.11,7.93,12.51,12.51,0,0,1-6.44,5.24Zm-16.37-12.93a17.82,17.82,0,0,0,6.37-1,11.14,11.14,0,0,0,4.25-2.73,10,10,0,0,0,2.35-4,15.44,15.44,0,0,0,.71-4.69,15.73,15.73,0,0,0-.71-4.72,9.75,9.75,0,0,0-2.35-4,11.64,11.64,0,0,0-4.25-2.73,17.56,17.56,0,0,0-6.37-1H133v24.82Z"/><path class="cls-1" d="M171,165.68h2.4v39.8H171Z"/><path class="cls-1" d="M201,206a17.48,17.48,0,0,1-5-.65,13.48,13.48,0,0,1-3.8-1.79,12.43,12.43,0,0,1-2.75-2.53,14.21,14.21,0,0,1-1.82-2.93l2-1a18.91,18.91,0,0,0,1.64,2.57,10,10,0,0,0,2.28,2.17,12.15,12.15,0,0,0,3.13,1.52,13.51,13.51,0,0,0,4.19.58,11.88,11.88,0,0,0,3.66-.55,9.16,9.16,0,0,0,3-1.61,8,8,0,0,0,2.05-2.55,7.31,7.31,0,0,0,.76-3.38,8,8,0,0,0-2-5.62,19.47,19.47,0,0,0-6.13-4.11l-3.68-1.7a25.07,25.07,0,0,1-3.65-2,12,12,0,0,1-2.56-2.23,8.51,8.51,0,0,1-1.55-2.69,10.14,10.14,0,0,1-.53-3.37,9,9,0,0,1,.76-3.73,8.08,8.08,0,0,1,2.1-2.81,9.76,9.76,0,0,1,3.1-1.76,11.33,11.33,0,0,1,3.79-.61,13,13,0,0,1,3.56.45,10.65,10.65,0,0,1,2.8,1.23,9.79,9.79,0,0,1,2.16,1.83,17.09,17.09,0,0,1,1.64,2.16l-1.86,1.23a12.54,12.54,0,0,0-3.12-3.42,8.28,8.28,0,0,0-5.14-1.44,7.6,7.6,0,0,0-5.44,1.85,6.42,6.42,0,0,0-2,4.9,8.53,8.53,0,0,0,.38,2.66,6,6,0,0,0,1.23,2.08,9.8,9.8,0,0,0,2.13,1.76,27.6,27.6,0,0,0,3.15,1.7l3.68,1.7a20.81,20.81,0,0,1,7.18,5,10.22,10.22,0,0,1,2.33,6.88,9.61,9.61,0,0,1-.9,4.22,9.46,9.46,0,0,1-2.46,3.2,11.34,11.34,0,0,1-3.72,2.05A14.72,14.72,0,0,1,201,206Z"/><path class="cls-1" d="M235.84,167.73H223.2v-2h27.68v2H238.24v37.75h-2.4Z"/><path class="cls-1" d="M425.77,165.68h2.4v37.76h19.14v2H425.77Z"/><path class="cls-1" d="M474.17,165.22h.71L491,205.48h-2.46l-3-7.72h-22l-3,7.72h-2.4Zm10.48,30.49L475.7,173a10,10,0,0,1-.44-1.14c-.14-.41-.27-.82-.38-1.21a7.77,7.77,0,0,1-.36-1.29,6.87,6.87,0,0,1-.35,1.29c-.11.39-.24.8-.38,1.21a10,10,0,0,1-.44,1.14l-9,22.76Z"/><path class="cls-1" d="M529.66,205.48h-2.81l-8.34-11.41a21.76,21.76,0,0,1-5,.53h-5.63v10.88h-2.4v-39.8h8a19.64,19.64,0,0,1,7,1.14,13.91,13.91,0,0,1,4.94,3.11,12.4,12.4,0,0,1,2.93,4.59,16.25,16.25,0,0,1,1,5.68,15.25,15.25,0,0,1-2.11,7.93,12.47,12.47,0,0,1-6.44,5.24Zm-16.37-12.93a17.82,17.82,0,0,0,6.37-1,11.14,11.14,0,0,0,4.25-2.73,10,10,0,0,0,2.35-4,15.44,15.44,0,0,0,.71-4.69,15.73,15.73,0,0,0-.71-4.72,9.75,9.75,0,0,0-2.35-4,11.64,11.64,0,0,0-4.25-2.73,17.56,17.56,0,0,0-6.37-1h-5.4v24.82Z"/><path class="cls-1" d="M555.12,206a17.41,17.41,0,0,1-5-.65,13.41,13.41,0,0,1-3.81-1.79,12.66,12.66,0,0,1-2.75-2.53,14.16,14.16,0,0,1-1.81-2.93l2-1a18.91,18.91,0,0,0,1.64,2.57,10.31,10.31,0,0,0,2.29,2.17,12,12,0,0,0,3.13,1.52,13.44,13.44,0,0,0,4.18.58,11.88,11.88,0,0,0,3.66-.55,9.21,9.21,0,0,0,3-1.61,8,8,0,0,0,2-2.55,7.31,7.31,0,0,0,.76-3.38,8,8,0,0,0-2-5.62,19.36,19.36,0,0,0-6.13-4.11l-3.67-1.7a25.07,25.07,0,0,1-3.65-2,12.1,12.1,0,0,1-2.57-2.23A8.51,8.51,0,0,1,545,177.5a10.15,10.15,0,0,1-.52-3.37,8.88,8.88,0,0,1,.76-3.73,7.84,7.84,0,0,1,2.1-2.81,9.6,9.6,0,0,1,3.09-1.76,11.37,11.37,0,0,1,3.79-.61,12.93,12.93,0,0,1,3.56.45,10.72,10.72,0,0,1,2.81,1.23,10,10,0,0,1,2.15,1.83,16.19,16.19,0,0,1,1.64,2.16l-1.86,1.23a12.35,12.35,0,0,0-3.11-3.42,8.31,8.31,0,0,0-5.15-1.44,7.59,7.59,0,0,0-5.43,1.85,6.42,6.42,0,0,0-2,4.9,8.25,8.25,0,0,0,.38,2.66,5.79,5.79,0,0,0,1.22,2.08,10.3,10.3,0,0,0,2.13,1.76,27.6,27.6,0,0,0,3.15,1.7l3.68,1.7a20.81,20.81,0,0,1,7.18,5,10.17,10.17,0,0,1,2.33,6.88,9.49,9.49,0,0,1-3.35,7.42,11.29,11.29,0,0,1-3.73,2.05A14.64,14.64,0,0,1,555.12,206Z"/><path class="cls-1" d="M596.68,206a10,10,0,0,1-5.8-1.52,12,12,0,0,1-3.57-3.75l1.93-1.28a9.19,9.19,0,0,0,3.08,3.25,8,8,0,0,0,4.3,1.14,7.56,7.56,0,0,0,5.44-2q2.12-2,2.11-6.24V165.68h2.4v30a12.18,12.18,0,0,1-.76,4.48,9.47,9.47,0,0,1-2.08,3.22,8.27,8.27,0,0,1-3.13,2A11.64,11.64,0,0,1,596.68,206Z"/><path class="cls-1" d="M642.27,206a21,21,0,0,1-7.93-1.49,19.28,19.28,0,0,1-10.83-10.56,22.28,22.28,0,0,1,0-16.63,19.28,19.28,0,0,1,10.83-10.56,21.85,21.85,0,0,1,15.86,0A19.28,19.28,0,0,1,661,177.27a22.28,22.28,0,0,1,0,16.63,19.28,19.28,0,0,1-10.83,10.56A21,21,0,0,1,642.27,206Zm0-2.16a18.36,18.36,0,0,0,7.17-1.38,17.09,17.09,0,0,0,9.45-9.57,20.17,20.17,0,0,0,0-14.51,17.09,17.09,0,0,0-9.45-9.57,19.29,19.29,0,0,0-14.33,0,17.07,17.07,0,0,0-9.46,9.57,20.17,20.17,0,0,0,0,14.51,17.07,17.07,0,0,0,9.46,9.57A18.31,18.31,0,0,0,642.27,203.79Z"/><path class="cls-1" d="M681.72,172.94a7.27,7.27,0,0,1-.58-.82c-.2-.31-.39-.6-.59-.88s-.41-.62-.64-.93a9.24,9.24,0,0,0,.06,1.05c0,.31.06.64.08,1s0,.65,0,1v32.19h-2.22V165.22h.7l25.46,33c.2.27.39.55.59.85s.39.57.58.84a11.29,11.29,0,0,0,.65.94l-.12-1.05a7.66,7.66,0,0,1-.06-1V165.68h2.22V206h-.7Z"/><path class="cls-2" d="M413,147.79c0-.37-.55-.51-1-.75-.07,0-.14-.19-.22-.22s-.38,0-.57,0-.17-.15-.27-.18-.43,0-.61,0a4.88,4.88,0,0,1-.49-.22,5.32,5.32,0,0,0-1.53-.09c0-.06,0-.06,0-.13a25,25,0,0,0-7.74-.18c-.75.09-1.39.59-2.15.53a4.32,4.32,0,0,0-1.41,1c-.29-.4-.28-1-.79-1.36-1.49,0-1.48,1.22-2.16,1.8-.46-.17-.45-1.13-1-1.19a2.13,2.13,0,0,0-.79.35c-.15.11-.34.53-.39.35-.15.4-.52,1.22-.36,1.5-.33.33-.3.73-.66.75-.14-.66-.21-1.82-1-2.11-.65.15-1.22.39-1.37,1.05-.08,0-.08.13-.22.09-.3.67-.54,1.39-.88,2,0-.08,0,0-.08.05a2.69,2.69,0,0,1-.09-.4s0,.12,0,.13c-.06-.25-.14-.78-.22-1.14,0,.06,0,.16-.05.17,0-.39-.4-1.05-.53-.92-.54-.53-1.37.12-1.62.64a.28.28,0,0,1-.05.11.54.54,0,0,1,.05-.11c0-.05,0-.11-.05-.11-.11.24-.44,1.06-.52.88-.3.73-.57,1.71-.88,2.28a.29.29,0,0,0-.14,0,9,9,0,0,0-.37-3.06v0c-.2-.24-.2-.44-.49-.48s-.85.54-.8.26c-.32.55-.59.41-.88,1.14,0,0,0-.12,0-.13-.29.57-.44,1.29-.7,1.89,0-.06,0-.16-.05-.17a4.22,4.22,0,0,1-.83,1.58c-.27,0-.19-.28-.35-.35-.06.11.12.18,0,.22a1.72,1.72,0,0,1-.14-.84c.07,0,.08-.05.14,0-.05-.12-.16-.26,0-.35,0,.08-.13.18,0,.22a2.45,2.45,0,0,1,.48-.83c0-.27.2-.42.25-.69,0-.06,0-.14,0-.15s.09.05.09,0c.22-.32,0-.78,0-1.14a2.94,2.94,0,0,0-2.77,1.06c0-.09.13-.15,0-.18-.8,1-1.45,1.68-2.15,2.59-.32-.24.17-.56,0-.66.06,0,.08.07.17,0,.07-.29.23-.38.22-.62.17,0,.27-.53.22-.74a2.11,2.11,0,0,0,.35-1.41s-.07,0-.08,0-.12-.53.08-.18a.83.83,0,0,0-.08-.44,5.09,5.09,0,0,0-2,.27c-.17.08-.3.29-.49.39s-.6.57-.48.44c-.37.23-.58.77-.84.75a.22.22,0,0,0,.05.13,6.75,6.75,0,0,0-1.63,1.45c-.06-.11.18-.14.05-.17-.1.18-.19.16-.27.3,0-.14-.13,0-.22,0-.1-.23.07-.34,0-.57.09.1.5-.53.22-.26,0-.12.17-.1.22-.18s-.12,0-.13,0c.24-.09.22-.52.44-.57-.09-.29.26-.37.13-.53.06,0,.06.06.13,0,.18-.89,1-1.82.66-2.68,0-.08-.15-.14-.17-.22s.08,0,0-.09a.27.27,0,0,1-.13-.35c-.67-.49-.95.11-1.58.44s-1.14.84-1.59,1.1c0,0,.09,0,.09,0-.28.05-.35.35-.53.39.09.15-.43.44-.57.75,0-.08.07-.11,0-.13-.19.23-.18.74-.44.83.08.08-.15.51-.22.31,0,.12.09.09.09.18s-.06.17-.17.17.24-.22,0-.22c-.4.72-.65,1.05-1.06,1.76-.55-.48-.18-1.36.05-1.81.09-.27.14-.38.22-.61,0,.08-.07.11,0,.13s.11-.21,0-.22c.06-.15,0-.2.13,0a7.48,7.48,0,0,1,.57-1.58,1.24,1.24,0,0,1,.31-.79c-.1-.09,0-.53,0-.22a3.53,3.53,0,0,0-.35-1.59c-2.31-.43-3.11,1.66-4.26,2.82.05,0,0,.07,0,.13a.5.5,0,0,0-.26.57c-.22,0-.45.55-.4.79-.19,0,0,.25-.22.22.14.27-.21.67-.22,1.06-.06-.14-.28.29-.31.48-.05,0-.06-.06-.13,0-.14.2-.17.73-.35.74,0,.19,0,.21-.18.49,0,0,.08-.1,0-.13a.78.78,0,0,1-.35.39c-.11-.08-.17-.53-.35-.53,0-.07.11,0,.09-.13s-.21-.17-.09-.31c-.05,0-.12,0-.13,0s0-.42,0-.66.29-.55.35-.83c.4-1.68.35-3.77-.35-4.84-.34-.19-.56-.39-1-.26-.88.24-1.4,1.77-1.89,2.15,0,.39-.32.57-.4.92,0,0-.07-.1-.08,0a.7.7,0,0,1-.14.44c0-.07-.08-.19-.08-.09s0,.13-.09.18c-.09.42-.31,1.09-.31,1.32,0,0,0-.09,0-.09a2.32,2.32,0,0,0-.27,1.23c-.12,0-.26.32-.22.53-.29,0-.2.66-.48.79a1.29,1.29,0,0,1-.35,1.05c-.05-.14-.24-.42-.31-.26,0-.08.05-.1,0-.18-.33-.05-.33-.5-.35-.74,0,0-.07-.34,0-.4s0,.09,0,.09c0-.26,0-.08.09-.22a12.88,12.88,0,0,0,.18-1.54,16.49,16.49,0,0,0,.26-1.89c0-.19,0-.22,0-.44,0-.93,0-1.81-.71-2.33s-1.55.27-1.89.7a5.34,5.34,0,0,0-.83,1.5c-.08,0-.1.05-.18,0,.12.33-.22.25,0,.48-.3.1-.24.76-.48.66,0,.09.05.1,0,.18-.19.09-.36.79-.4,1.06a.28.28,0,0,0,.05.22c-.21,0-.12.19-.05.26-.14,0-.13.07-.17.13.13.05-.16,1.25-.05,1.28-.5.35-.68,2-1,2.41,0,.09.06.09.08.14s-.08,0-.22,0-.06.14.05.22c-.22.06-.31.2-.7.17-.18-.41-.06-1.11-.31-1.45a16.16,16.16,0,0,0,.35-3.82c-.07,0-.15,0-.13-.09.3-.12-.21-.66-.09-.88-.13,0-.23-.19-.13-.35-.16,0-.2-.21-.27-.35-.28,0-.32-.32-.52-.4a1.31,1.31,0,0,0-1.54.66c0-.08.13-.15,0-.18-.09.3-.25.57-.4.57a1.79,1.79,0,0,1-.39.75c-.38.52-.41,1.74-1,2.11-.22-.06-.2-.59-.35-.57,0,.07.16.18,0,.22-.14-.24-.21-.55-.57-.57a1,1,0,0,0-.09-.26,1.17,1.17,0,0,0-1.32.48c-.35,0-.25.48-.61.48,0,.22-.15.21-.09.44-.24,0-.19.28-.26.44-.14-.14-.06.17-.22.13a7.54,7.54,0,0,0-.44,2.2,3.43,3.43,0,0,0-.58,2.46c.07,0,.16,0,.14.09a5.37,5.37,0,0,1-2,.31c.07-.05,0-.71.18-.62-.07-.25.1-.21,0-.44.16,0,.13-.2.09-.3a9.27,9.27,0,0,0,.48-1.85s.06,0,.09,0-.08-.09,0-.22.07.07.09,0c.22-.68.63-2.65.7-3,0,.05-.07-.33.09-.17a7.66,7.66,0,0,1,.57-2.12.34.34,0,0,1-.09.14,1.68,1.68,0,0,0,.27-.88.94.94,0,0,0,.22-.79c.23-.12.06-1.28.13-2.07.11-1.41.45-2.94.61-4.49.23-2.24.35-4.7.79-7a1.89,1.89,0,0,0,.44-.26c-.09,0-.09-.07,0-.14s.1.08.22.05a1.76,1.76,0,0,0,.44,1.23c.42.68.86.38,1.8.62.76.18,1.16,1.29,1.8,1.4.9,1,4.34,1.9,5.06.49-.06-.2-.13.08-.22-.05a1.32,1.32,0,0,0,.53-1.84c1.34.09,2.71.33,3.43-.49-.1-.08.17-.17,0-.31.35-.07.3-.55.44-.83.1.06-.08.14.09.13a1.05,1.05,0,0,1,.26-.13c1,.24,3,1.09,3.56-.13.31,0,.23-.46.44-.58a2.18,2.18,0,0,0-.3-1.45c.15,0,.12-.26,0-.17s.05.11,0,.13,0-.09-.09,0,.09-.11.09-.22-.26-.19-.14-.27c.05.16.16.33.31.27a5,5,0,0,0,1.81,1.05c.66.51,2.35.55,2.68-.17-.08,0-.19.12-.22,0s.29-.09.39-.18c-.26-.05.27-.09,0-.18h.13c0-.08,0-.09,0-.17.1.09.05,0,.13,0a4,4,0,0,0-.09-1s0,.09,0,.09c0-.86-1.28-1.61-1.41-2.46.07,0,.08,0,.14,0,0,.22.9.36.83.79.13,0,.15.11.27.13a3.13,3.13,0,0,0,.48.62,5.43,5.43,0,0,0,1.32.83l.22.13a3.22,3.22,0,0,0,1.23.58c.6.07,1.35-.1,1.55-.52,0,0-.1.06-.1,0s.22-.19.35-.27a1.8,1.8,0,0,0-.09-1.09c0-.12,0-.4-.17-.36a.16.16,0,0,0,0-.26c-.14-.37-.69-1.16-1.1-2.11.48-.1,1,.37,1.27.79.6.77,2.7,3.06,4.18,1.85,0-.18-.3.12-.35-.09.61-.05.72-.53.83-1a7.34,7.34,0,0,0-.83-2.42c.16,0,.3.23.39.18.29.53.73.91,1.06,1.41.82.38,2.6,1.91,3.52.79-.17-.05-.28.11-.31-.05.27,0,.48-.23.61-.22,0-.3.28-.7.05-.92.15-.57-.48-1,0-1.23-.11.14,0,0,0,0s.16.27.27.36a6.74,6.74,0,0,0,2.19,1.1c.62.08,1.13-.12,1.15-.44,0,.05-.19.15-.22,0,.91-.32.87-1.42.39-2.16.06.12.15.09.27,0-.1.09,0,.09.13.09a2.91,2.91,0,0,0,.39.48c.81.63,2.94,1.6,3.92.4-.19,0-.3.13-.49,0,.43,0,.58-.33.84-.53a2.52,2.52,0,0,0-.13-1.18c.6.11,2.31.43,2.46-.31,0,0-.08,0-.09,0,1.11-.39.29-1.9-.09-2.46.59.23,2.71.54,3.11-.2,0,0,0,0,0,0a1.41,1.41,0,0,0,0-2.25,1,1,0,0,0,1-.44c0,.12.16,0,.17,0s.29-.48.62-.7.63-.33.57-.53c.3.21.32-.43.57-.26,0-.16.12-.2.18-.13a3.89,3.89,0,0,1,.88-1.19s-.09,0-.09,0c.25-.09.14,0,.31-.09-.06,0-.11,0-.09-.09s.06.06.13,0c.77-.91,2.12-2.24,3-3.47v-.26a4.06,4.06,0,0,0,.93-1.67H400c.14-.6.95-1.78.48-2.29.11,0,.11-.12,0-.13a29.31,29.31,0,0,1-3,1.49c-.28.36-.8.49-1,1a14.87,14.87,0,0,0-2.85,2.15c-.5.42-1,.73-1.41,1.06a4.89,4.89,0,0,1-.7.48c-.13.07-.45.16-.31.27-.34-.09-.48.59-.53.26,0,.13-.16.15,0,.26-.07,0-.08,0-.14,0-.06.94-1,.66-1.58,1.06-.15.11-.25.38-.45.47,0,0,.06-.06,0-.07a1.71,1.71,0,0,0-.48.79c-.59.21-1.43.18-1.63.79-.1-.11-.08.06-.22,0,0,.34-.4.37-.48.66,0,0-.05,0-.09,0,0-.24.09-1.08-.09-.75-.06-.5,0-1.24-.35-1.36,0,0,.05,0,.09,0s-.1-.08-.18-.09v-.22a.86.86,0,0,0-1.14.22c-.11-.21-.29.29-.44.44s-.19,0-.22.08c-.3.4-.42,1-.66,1.37h-.17c-.16-.27-.19-.69-.4-1.1-.07.19.19.24,0,.31-.05-.38-.31-.54-.53-.75-.6-.08-.78.41-1.14.44,0,.22-.33.36-.4.66-.05-.11.1-.21,0-.22s0,.47-.09.57c0-.07,0-.16,0-.18,0,.27-.19.43-.22.71-.27-.06-.22.86-.75.83-.16-.6-.39-1.19-.48-1.62-.19-.09-.39-.55-.75-.62a2,2,0,0,0-1.27,1s0-.08,0-.09-.06.44-.13.27c-.13.49-.27.57-.39,1,0,0,0-.07.08-.08-.47.69-.6,1.28-1.23,1.75-.17-.23,0-1.15-.09-1.4.15.08.12-.15.05-.22s.08,0,.09,0a4,4,0,0,0-.05-1.76c-.09.06-.14-.32-.26-.48-.19,0-.25-.15-.4-.18-.78-.14-1.29.53-1.62.79,0,.35-.38.43-.36.71-.23,0-.41.64-.65.75-.05.27-.19.49-.22.7-.1-.05,0,0-.09-.09-.14.32-.63.92-.49,1.1,0,.07-.19.07-.26.13a10.15,10.15,0,0,1-.09-1.63c-.18-.34-.21-.83-.39-1.18-.21-.1-.39-.5-1-.35-.29.1-.59.43-.79.48s0,.06,0,.18c-.29.1-.48.63-.62.61,0,.2,0,.18-.13.22a.83.83,0,0,1-.4.66c.12.29-.28.3-.08.4-.44.33-.53,1.39-.93,1.67-.33-.12-.07-1.13-.26-1.54,0,0,0,0,.09-.09-.1,0-.1-.11-.09-.22s.05,0,.09,0c-.1-.19,0-.29,0-.44a3,3,0,0,0-.27-1.09c0-.13.06-.45-.08-.18-.06-.11.09-.21,0-.22-.44-.77-1.45-.42-2,.26a3.85,3.85,0,0,0-.74,1.28c0-.05-.48.44-.36.53,0-.06,0-.13,0-.14,0,.18-.09.21-.13.31,0-.06,0-.16-.05-.17-.17.2-.46.62-.75.44-.08-.11,0-.05.05-.14s-.11.06-.13,0a2.7,2.7,0,0,0-.66-1.8c-2.25.1-2.92,1.71-3.56,3.23,0-.13.11-.15,0-.29s.07,0,.09-.08c-.14-.06,0,.14-.18.08.14.28-.15.09-.09.18s.11.13,0,0a.22.22,0,0,0,0,.13c-.07,0-.15,0-.08.09a1.1,1.1,0,0,1-.35.79c.1-.24-.26.18-.13.22s.1-.23.13-.13c-.15.22-.1.4-.31.57,0-.07-.15-.13,0-.17s0,0,0,.09.15-.16.08-.22-.25.5-.39.3c0,.11.08.1,0,.22s-.36.34-.52.18c-.11.06.07.13-.05.18-.36,0-.06-.49-.22-.75,0,.06,0,.16,0,.17a8.87,8.87,0,0,0,.13-2.9c-.08-.64-.55-1.88-1.63-1.49-1.28.87-1.87,2.43-2.33,4.13,0-.3.19-.49.09-.62.11,0,.16-.21.09-.22,0,.22,0,0-.09,0s0,.49-.13.48a2.38,2.38,0,0,1-.13.84s-.05-.09-.05-.09c-.19.93.16,2-.31,2.51,0-.25-.36-.71-.21-.66-.12-.2-.25-.37-.38-.55v0a18.24,18.24,0,0,0-.6-1.81c-.08-.17-.14-.18-.23-.38-.4-.83-.79-1.63-1.66-1.78s-1.29.93-1.39,1.47a5.13,5.13,0,0,0-.09,1.71c-.08,0-.07.08-.14.11.25.24-.09.33.18.46-.23.21.11.78-.15.8,0,.06.06.07.09.1-.13.11-.38.64-.25.69a2.86,2.86,0,0,0,.48,1.49c-.32.15-.47.47-.79.62-1.18-1.27-3,.29-3.3,1.14-.06,0-.07,0-.13,0-.23.63-.32,1.09-1.27,1.19a19.93,19.93,0,0,1-.86-4.46c-.05,0,0-.26,0-.33,0,.11,0,.22,0,.33l0,0c.07-.44-.19-.5-.09-.8,0,.06,0,.13.05.14,0-.19-.16-.22-.05-.4a25.6,25.6,0,0,1-.35-3.87c-.05-.64-.35-1.47-.31-1.85a3.1,3.1,0,0,0-.08-.61c-.16-1.8-.53-3.49-.58-5.19-.09-.06-.12-.31,0-.13,0-.27-.15-.83.05-.92.09.17.1,0,.17-.09.36,0,.51.32.75.44a8,8,0,0,0,2.64,1.14,3.29,3.29,0,0,0,2.8-1.15c-.07.06-.19.1-.21,0,.42-.17.51-.69.75-.79.06-.17-.12-.08-.09-.22.23,0,.2-.66,0-.79.17,0,.11.18.22.22s0-.11.09-.09c.9.26,3,1,3.69-.13,0-.23-.21.19-.3,0,1-.21.91-1.76.17-2.24,0,0,.05,0,.05-.09-.19-.19-.28-.22-.49-.4s-.12-.2-.17-.26c-.3-.35-1-.53-.93-1,.13.07-.09.2.09.18,0,0,0-.13,0-.13a8.24,8.24,0,0,0,4.67,1.71c.73,0,1.81,0,2-.61-.14.11.12-.11,0-.09s-.16.18-.18.09a1.23,1.23,0,0,0,.57-1.68c-.06-.1-.13.08-.17,0s.1,0,.09-.09a4.72,4.72,0,0,0-2.29-1.76c0-.08-.19-.18-.09-.22s.14.12.27.18.67.31.7.31c.2-.05,0,0,.09,0a5.9,5.9,0,0,0,1.84.49,2.8,2.8,0,0,0,2.51-.71c0-.18.13-.11.09-.26-.08.05-.27.22-.35.13a1.78,1.78,0,0,0,.74-.75c-.14,0,0-.19,0-.39a4,4,0,0,0-.7-.93c-.65-.56-1.61-.72-2.2-1.32.24,0,.42-.06.48.09.53-.05,1.09.61,1.89.79,1.06.25,2.54-.13,2.64-.66.13.13.15-.1.13-.13-.21.12-.34.28-.61.18.6-.08,1.24-.65.87-1.28-.18-1.35-1.67-1.4-2.41-2.19,1.31,0,3.79,1.1,4.83,0,.05.1.44-.27.44-.44-.13.12-.45.42-.57.26,1-.25,1.12-1.23.4-1.89s-1.86-.65-2.11-1.23c1.34.23,4,.95,5-.35-.13,0-.16.18-.22,0,1.49-.5-.08-2-.79-2.42.52-.06,1.12.08,1.67,0a4.57,4.57,0,0,0,1.32-.61c.1-.12-.14,0-.18-.13a1.16,1.16,0,0,0,.79-.84,3.77,3.77,0,0,0-1.14-1.36c.88,0,1.46-.66,1.89-.84,0-.2-.12.07-.09-.13.31-.12.4-.46.62-.66.11-.79-.71-1.28-1.5-1.45a6.52,6.52,0,0,0,2.07-1.89,2,2,0,0,0-.22-1.06h.13c-.1-.27.14-.32.22-.61.35-.17.62-1,.66-1.36.14,0,.09-.47.18-.66.17-.39.41-.87.52-1.23-.16-.69.73-1.92.53-2.77.11,0,.14-.07.18-.14a14.36,14.36,0,0,1,.61-2.15c-.05,0-.12,0-.13,0a.24.24,0,0,0,.18,0c.26-1.41,1.06-2.93.79-4.62-1.74.49-2.36,2-3.12,3.39-.48.66-.69,1.19-1.1,1.67,0,0,.08,0,.09,0-.35.19-.4.88-.62,1.15-.09.11-.13,0-.09.22-.17-.12-.25.36-.17.48-.28.07-.33.94-.62,1.06,0,.1.09.22,0,.13,0,.1.08.09,0,.22-.25.13-.29.85-.61,1,0,0,0,.39-.09.22-.11.12.08.29-.05.4,0,0,0-.09,0-.09a5,5,0,0,0-.22,1.06c-.29-.06-.53.72-.7.52-.15.25-.36,1-.44,1a1.78,1.78,0,0,1-.14,1c-.27-.37-1.76-1.18-2.17-.31,0-.05.06-.13,0-.13a3.87,3.87,0,0,0-.22,1.93c-.14,0-.16,0-.09.09a5.67,5.67,0,0,0-.92-.66c-.66-.08-1.11.58-1,.66-.3.11-.36.63-.35.79-.31.15,0,1.82-.31,2.07a1.31,1.31,0,0,0-1.58-.66c-.37.49-.8.81-.75,1.63-.18.1-.15.06-.09.26-.08,0-.11-.06-.13,0,.18.21-.23.38,0,.48-.18.22,0,.59-.05,1.06,0,0,0,0,.05,0s0,.37-.18.39.21.17.09.22c-.51-.42-.78-1.09-1.76-1a1.91,1.91,0,0,0-.79,1.63c-.1,0-.16,0-.18.17s.08,0,.09,0-.24.83-.09.61a3,3,0,0,0,0,1.52c0-.08-.05.17-.17.11s-.12-.46-.18-.27c-.46-.56-.53-1.7-1.45-1.75,0-.07.05-.08,0-.14-1,0-1.35,1.08-1.41,1.76-.14,0-.13.07-.17.13s.09,0,.13-.08a.78.78,0,0,1-.09.39c0-.06,0-.16,0-.17-.12.26,0,.52,0,.88l-.09,0a3.25,3.25,0,0,0-.09.57,8.46,8.46,0,0,0,.39,2.2c.07.35,0,.69.14,1-.16,0-.16.12,0,0-.12.06,0,.22-.05.22s-.26-.24-.17-.13.22.15.08.22c-.44-.4-.22-.86-.57-1.23.16.1.09,0,.09,0a8.87,8.87,0,0,0-.44-1.1c-.14-.28-.47-.52-.61-.75,0,0,0-.07,0-.09a1.31,1.31,0,0,0-1.85.09c-.25.32-.19.85-.35,1.05s-.18,0-.09.18a.3.3,0,0,1,.09-.13c-.13.34-.11.14-.05.39-.07,0-.13,0-.17,0,.12.11,0,.14,0,.27s0,.38-.05.66c0,.46.18,1.06.14,1.36,0,0,0,.07,0,.22a3.25,3.25,0,0,1,.13,1.12s0-.06.05-.06c0,.15,0,.34-.14.39a1.83,1.83,0,0,0,0-.57s0,.12,0,.13c0-.37-.15-.55-.14-.75-.11.16-.06-.35-.17-.08-.19-.45-.32-.92-.71-1,.21,0-.21-.45-.26-.48a1.15,1.15,0,0,0-1.67.17c-.36.45-.34,1.06-.53,1.5,0,0-.07-.11-.09,0,.15,0,0,.09,0,.13s.16,0,.18,0h-.18c-.38,1.43.28,2.81,0,4.61,0,0,.09,0,.09,0s-.1,0-.18.09c0-.11-.08-.1,0-.22-.14.06-.13,0-.22-.09s.09,0,.09,0c-.21,0-.2-.29-.31-.26.16-.17-.1-.35-.13-.57s.07-.17,0-.26-.11,0-.13-.09.08-.59-.09-.35a5.1,5.1,0,0,0-.31-1.32s0,0,0,0a1.45,1.45,0,0,0-2.42-1c-.21.76-.53,1.24-.66,1.89,0-.05,0-.13,0-.13a.38.38,0,0,1-.13.31c.16,0-.21.56-.05.7-.08,0-.09.06-.13.09-.51-.09-.65-.63-1.14-.57-.21,0-.65.44-.84.65,0,0,.05.12.05.14s-.17.06-.22.13c-.2.23-.29.7-.4.66.11.07,0,.29-.09.31.1-.07.1-.35,0-.27-.07.33,0,.31-.09.57,0-.08.14-.14,0-.17-.37.36-.31,1.15-.74,1.45.06-.26-.1-.1-.09-.09-.32-.35-.31-1.18-.4-1.89-.11,0-.18-.3,0,0v-.27c-.31,0,0-.29-.13-.35s-.26-.58-.09-.66a1.69,1.69,0,0,1-.35-1s0-.33-.05-.39c0,.09-.12,0-.13,0h.18c0-.16-.24-.22,0-.3,0-.08-.21,0-.22-.09a16.17,16.17,0,0,1-.5-4.22h0s0,0,0,0v0c1.83.29,5.13,1.44,6.39-.22a.3.3,0,0,1-.13-.09,1.06,1.06,0,0,0,.35-1.58c.55-.12,1.32.13,1.89-.09.22-.08.38-.42.48-.35-.08,0,0,0,.05-.09s-.27.06-.31,0a1.13,1.13,0,0,0,.79-1c.05-1-1.16-1.41-1.54-2,.3.26.56.1.66.44,0,0,.51.11.53.35H345c.84.9,3.7,1.17,4.3.13-.09-.13-.21.19-.3,0a2.43,2.43,0,0,0,.7-.61c.11-1.39-1-1.78-1.67-2.55-.11,0-.14-.08-.22,0,.09-.1-.08-.18-.13-.27.93.45,3.37,1.7,4.35.36-.21-.08-.3.19-.44,0a2,2,0,0,0,.79-.44,2.08,2.08,0,0,0-.78-2,.35.35,0,0,0,.12.07s.14-.11.18-.09,0,.11,0,.13a4.28,4.28,0,0,0,1.67.44,2.78,2.78,0,0,0,2.38-.75c-.12-.14-.26.22-.4,0,1-.24.85-1.64.13-2.07,1.05.21,3,.2,3.37-.62-.06,0-.18,0-.16,0a1.35,1.35,0,0,0,.84-1.32,4,4,0,0,0-1.32-1.14c-.42-.17-1-.14-1.23-.49,1.42.24,3.24.81,4-.26,0,0-.2.08-.26,0a1.28,1.28,0,0,1,.35-.09c0-.23.41-.32.44-.61s-.19-.38-.35-.66-.34-.69-.49-.93c-.17,0-.24-.11-.35-.17a4.39,4.39,0,0,0,3.17,0s-.05,0-.05-.09c.15.14.14-.09.27-.09.07-.15-.15,0-.13-.13.25-.27.75-.46.79-.84.07-.74-1.19-1.37-1.76-1.67.08,0,0-.14.13-.13a3.74,3.74,0,0,0,2.51-.61c0-.15-.14,0-.09-.18.46-.08.55-.53.79-.83.07-1-1-.92-1.36-1.5.08,0,.1,0,.17,0,0-.18-.11.05-.13-.13.08,0,.26.06.27,0-.28,0,0-.06.08-.13a3.18,3.18,0,0,0,.49-.49c.14-.18.2-.56.35-.52.11-.45.42-.7.53-1.15.2-.12.49-.37.44-.61.06,0,.07,0,.13,0a17,17,0,0,1,1.58-2.73.3.3,0,0,0,0-.18c.19,0,.36-.28.3-.43.39,0,.58-.94.62-1s.08.1.09.09.05-.29.13-.44.46-.55.62-.79a9.31,9.31,0,0,1,.83-1.63,5.34,5.34,0,0,0,.22-.61c.38-.83.91-1.85.66-2.64-.07,0-.15,0-.13-.09a2.63,2.63,0,0,0-1.67,1,34.08,34.08,0,0,0-2.9,3.3c-.87.42-1.18,1.4-1.85,2-.32.12-.37.44-.53.7s-.56.77-.79,1.1c-.63.42-.68,1.25-1.05,2a1,1,0,0,0-1.13.68s0,0,0,0-.07.1-.14,0a6.58,6.58,0,0,1-.35,1c-.09.42,0,.79-.13,1s-.42.18-.62.35c0,0,0,.22-.17.22s.09,0,.09,0c-.4.08-.42.84-.62.84.1.3,0,.15,0,.22s-.05.52-.31.53c0-.09,0-.1-.09,0-.09-.42-.16-.32-.26-.66-.13-.11-.7-1-1.41-.88-.38.09-.64.72-.82,1,0,0,0,0,0,0-.33.21-.12,1-.31,1.23,0,.22.27,1.05.05,1.37-.16-.23-.54-.71-1-.75-.7-.6-1.56.31-1.45,1-.2,0-.22.39-.18.62-.05,0-.07-.07-.09,0a10.8,10.8,0,0,1,.09,2.85c-.3-.1-.41-.45-.35-.83-.38-.8-.37-1.93-1.67-1.89-.51.36-1.15.81-1.1,1.58-.19,0-.19.49-.13.62s-.11-.06-.13,0c-.1.72.17,2.24.08,2.82,0,0,0-.09,0-.09s0,.17,0,.22c-.87-.52-.66-2.58-2.07-2.47a2,2,0,0,0-.66.27c-.51.35-.55,1.19-.7,1.93,0,0,0-.08,0-.08a2,2,0,0,1-.35,1c-.46-.64-1.37-1.67-2.25-1-.12.39-.45.56-.57.88a4.94,4.94,0,0,0-.17,1.19c-.06,0-.07-.06-.14,0-.13.29.08.63.09.88s-.1.28-.09.44c.06.62.36,1.3.18,1.72-.38-.33-.6-1.11-1-1.5-.13-.12-.23-.37-.35-.48-1.12-1-1.88.32-1.94,1.32,0-.06,0-.13,0-.14-.21.72-.06,1.79-.35,2-.34-.51-.82-1.57-1.67-1.59-.33,0-.82.27-.8.66-.21.08-.32.64-.48.93.05,0,.1,0,.09.08-.33.43-.06,1.19-.22,1.85a.8.8,0,0,1-.35.13c-.28-.87-1.14-2.13-2.2-1.4-.1.16-.22.47-.31.39,0,.23-.19.18-.09.35,0,0-.4.13-.22.18-.18,0-.15.29-.26.09,0,.22-.09.13-.13.35-.1-.12,0-.47-.13-.22,0-.17.1-.34-.05-.18,0-.12.09-.08.09-.17a.3.3,0,0,1-.13-.09,46.65,46.65,0,0,1-.84-5.32c-.06,0-.15-.22,0-.26a.15.15,0,0,0,.17.17,10.64,10.64,0,0,1,2.64.79,2.78,2.78,0,0,0,2.38-.57c-.07-.21-.21.15-.31,0,.14-.06.29-.2.39-.17,0-.24.41-.39.49-.71s-.17-.82-.27-1.18a1.15,1.15,0,0,0,1.06-.49c-.14,0-.22.15-.26,0,1.08-.29.6-1.77,0-2.25,1,.06,3.1,1.29,3.67,0-.06,0-.18,0-.16,0,1-.24.63-1.72,0-2.06V78c-.24.1-.3-.26-.53-.3.91-.06,2-.28,2.33-.93.37-.28,1.1.07,1.63.31a2.35,2.35,0,0,0,2.55,0c-.06-.11-.22,0-.22,0a1.33,1.33,0,0,0,.26-2.24,2.94,2.94,0,0,0,2.11-.53,20.28,20.28,0,0,0,2.07-.74c.06-.11-.13-.19,0-.22a.11.11,0,0,0,.13.13c0-.09.12-.09.13-.18s-.1.06-.13,0c.18-.07.09,0,.22,0,.08-.16,0-.08-.09-.17.28,0,.45-.49.62-.31.37-.48,1.08-.65,1.49-1,0-.23.61-.56.84-.79-.1-.06-.17.11-.18,0,.36-.17,1.07-.88,1.5-1.06a.31.31,0,0,1,.17-.31c0,.09,0,.1.09.05a3,3,0,0,1,.81-.77l0,0c.28-.11.59-.77.71-.62.17-.35.46-.46.57-.84.19,0-.11.23.09.14.28-.34.71-.9,1.09-1.28-.09,0,.06-.11,0-.22.14-.18.49-.32.66-.61,0,0-.07-.05,0-.09.25-.3.63-.57.92-.93s.43-.72.66-1,.67-.81.88-1.19.46-1,.31-1c.27-.17.23-.8,0-1-.2,0-.27.07-.48,0-.17.21-.49.28-.66.48a20.36,20.36,0,0,0-4,2.82,30.91,30.91,0,0,0-2.95,2.24,3.05,3.05,0,0,0-1.18,1,7.68,7.68,0,0,0-1.67.84c0-.05.06-.07,0-.09-.31.17-.39.6-.75.75s-.77.07-1.1.26c-.17.09-.22.34-.4.26-.07.26-.63.6-.48.66a.67.67,0,0,0-.35.53c-.14,0-.14.08-.22,0,0,.09.06.09.09.13-.12,0-.09-.07-.18,0,.11-.35-.52-.93-.44-1-.3-.08-.35-.34-.57-.36a2.88,2.88,0,0,0-1,.49c-.08.08-.1.33-.18.39s-.12,0-.13,0,0,.34-.09.13c-.15.14-.13.65-.3.62a1.77,1.77,0,0,1-.31.79c.08-.15,0,0-.09,0-.09-.22-.2-.59-.31-.66.12-.17-.09-.15,0-.35-.13,0,0-.08-.17-.13a1.08,1.08,0,0,0-1.85-.22c-.12.13-.13.37-.26.57s-.4.25-.27.48a.77.77,0,0,0-.22.66c-.05,0-.06,0-.13,0a.66.66,0,0,1-.31.66c-.27-.74-1-1.54-1.8-1a3.12,3.12,0,0,0-1.14,2.42c-.23.23-.11,1-.53,1.14,0,0,.05.08,0,.09-.29-.39-.34-.93-.7-1.19a1.24,1.24,0,0,0-1.9,1c-.29.42-.13,1.3-.26,1.94-.16-.07,0,.15-.13.13-.41-.57-.89-1.27-1.8-1.19a2.64,2.64,0,0,0-.62,1.63c0-.08,0-.4,0-.27,0,.28-.15.65-.18.88,0,0-.08,0-.09,0a0,0,0,0,1,0,.09c-.29-.27-.72-.86-1.1-.92-.94-.15-1,1.36-1.62,1.57,0,0,0,0-.05,0h.05s-.11-.13-.09,0,.11.13,0,.39c-.49-1.31-.77-3.24-1.14-4.26a7.73,7.73,0,0,0,1.93,0c.46-.35,1.3-.06,1.58-.57-.11,0-.27.13-.35,0a1.16,1.16,0,0,0,.71-.44c.11-.72-.49-1.08-1-1.54.05,0,0,0,0-.09a1.56,1.56,0,0,0,1.18-.52c.74-.43,1.75-.93,2.51-1.46,0-.08-.13-.14,0-.17s0,.08.09.09c.58-.61,1.3-.86,1.63-1.34,0,0-.09,0-.09,0,.16,0,.18-.3.31-.17,0,.09-.14-.07-.05.09s.28-.18.13-.27c.19,0,.25-.31.4-.22-.06.12-.21.15-.26.27.37-.16.28-.71.79-.71,0-.07-.07-.11,0-.13s0,.08.08.09c.1-.27.1-.22.27-.31A.3.3,0,0,1,340,67c.1-.16.15.15.22,0-.23-.11.11-.17.22-.26s.45-.65.61-.66c0,0,0-.07,0-.13a17.85,17.85,0,0,0,1.58-2.29h.13c0-.21.18-.3.09-.48a14.4,14.4,0,0,0,1.63-4.13,8,8,0,0,0,.79-2,4.85,4.85,0,0,0,.66-3.65.39.39,0,0,1-.18-.18,1.14,1.14,0,0,0-.48.05,17.37,17.37,0,0,0-2.11,1.93c-.45.39-.74,1-1.14,1.23a.72.72,0,0,0,0,.31c-.15.22-.43.33-.48.66a4.57,4.57,0,0,0-.88,1.27c-.34.19-.5.79-.75.93,0,.58-.73,1-.88,1.58-.27.18-.49.58-.79.83-.12.11-.25.16-.35.27s-.27.24-.22.44c-.31.09-.39.78-.84.88-.09.06.06.1,0,.13-.28.09-.46.43-.57.57s-.24.14-.31.22c-.24.29-.33.66-.62.88s-1.08.35-1.4.79c-.07.09-.44.33-.57.49s0,0-.14.13-.45.41-.61.52-.53.53-.75.66a4.06,4.06,0,0,1-.53.4c0,.22-.11.18-.22.35,0-.11-.14-.24-.17-.35-.12-.39-.53-1.1-1.06-1.06s-.43.52-.83.8a.39.39,0,0,1-.09.26c0-.13-.28-.08-.35,0-.06-.24-.07-.68-.18-.53,0-.18.1-.47,0-.22.09-.34,0-.86.17-1,0,.21.26-.12.22.08.34-.27.32-.46.71-.66,0,0-.09,0-.09,0a2.18,2.18,0,0,0,.53-.35s-.09,0-.09,0a4.49,4.49,0,0,0,1-1.1,11.61,11.61,0,0,0,1.8-1c0-.08-.06-.08-.09-.13a5.38,5.38,0,0,0,1.72-.88c0-.07-.13-.07-.18-.13.2,0,.2,0,.22.09.13-.13,0-.1.22-.18s-.15,0-.13-.13a.34.34,0,0,1,.31,0c-.06-.33.5-.3.61-.66.12.12.07-.12.18,0,.12-.06-.08-.18,0-.22.09.17.27-.31.44-.44s0,.06.09,0,0-.28.18-.22-.17.11-.05.13.13-.1.18-.17-.22,0-.18-.09c.15,0,.45-.29.4-.44.08.07.15.12.22,0s-.13,0-.13,0c.24,0,.17-.33.39-.27.27-.56.93-1.31,1.28-2.06a.22.22,0,0,0,.17,0,.23.23,0,0,0,0-.17c.27-.11.28-.49.48-.75.08-.1.24-.15.31-.27s.14-.37.27-.57.52-.61.35-.83c.12,0,.3-.23.13-.31a2.56,2.56,0,0,0,.44-2.64c-.53-.35-1.28.08-1.72.35a27,27,0,0,1-2.77,2.2c-1,1.06-2.51,1.71-3.29,3a18.14,18.14,0,0,0-1.81,1.49c-.16.14-.39.27-.61.44-.42.32-.75.91-1.19,1-.67.16-1.21-.16-1.71.22-.17-.08-.08-.26-.22-.26-.07-.52-.21-1.21.09-1.34a.18.18,0,0,1-.05-.07c.36-.13.63-.75,1-.83-.14-.17.23-.3.18-.4,0,.05.07.11.09,0,0-.28.39-.48.61-.66a.17.17,0,0,0-.13,0c.14-.17.27-.09.22-.27,0,0,0,.07-.09.09.06-.22.55-.12.36-.34h0c0,.13-.08.06-.09,0h.1c.26,0,.55-.23.52-.45.2,0,.05.07.13.09s.39-.24.13-.31c.43.1.57-.34.88-.48.06-.11-.2-.11,0-.18s0,.12.13.13.07-.16.13-.22c.11.09.71-.36.82-.59,0,0,0,0,0,0,.06-.27.19-.14.36-.39,0,0-.11.17,0,.17s.05-.19.08-.35c.28-.11.57-.38.58-.62.73-.51.79-1.49,1.53-1.93.39-.66.79-1.29,1.15-2,0-.12-.09-.09-.09-.17.08.08.21-.11.26-.22a7.13,7.13,0,0,0,.53-2.42c-.05,0-.12,0-.13-.05h.13c-.08-.37-.08-.82-.35-1a2.54,2.54,0,0,0-2,.79c-.36.34-.58.69-.88,1s-.7.48-.79.87a1.41,1.41,0,0,0-.7.66c-.31.09-.43.37-.71.49-.75,1.08-2,1.84-2.72,2.81-.06,0-.06-.05-.13,0a2.21,2.21,0,0,1-2.42.92c0-.14-.11-.62.17-.7,0,0-.06.07,0,.09s0-.17.05-.18a.25.25,0,0,0,.22,0c0-.22.34-.21.31-.39-.15.07-.21.18-.31.13.22-.18.58-.15.31-.26.36-.23.55-.69.79-.71-.06,0-.06-.12,0-.13s-.07.13.08,0-.06,0-.08-.13c.29-.11.15-.08.35-.09s-.15,0-.13-.13.18-.2.3-.08c0-.09-.06-.09-.08-.14A2.26,2.26,0,0,0,329,49.79a.73.73,0,0,1-.36.31c.21-.15.49-.64.71-.49,0-.08,0-.09,0-.17.24.13.37-.19.57-.22s-.06-.18.05-.27c0,.11.1.11.13.18.09-.26.57-.37.57-.57-.07.08-.21.11-.26,0,.2,0,.26-.23.35-.05,0-.17.35-.19.44-.39s-.16.05-.18,0,.31,0,.4-.22c-.08,0-.15.14-.18,0a12.88,12.88,0,0,0,2.55-3.91s-.08,0-.08,0a1.14,1.14,0,0,0,0-1.37c.2-.14-.08,0,0-.3-1.95-.68-2.9,1-4.13,1.62-.47.79-1.41,1.12-1.89,1.89-.59.37-1,.87-1.59,1.28a9.18,9.18,0,0,1-1.71.17c.13-.06.2-.13.13-.3.09,0,.06.12.18.08.17-.29.46-.2.57-.52-.08,0-.18.13-.22,0,.66-.34,1-1.08,1.45-1.41,0,.06-.18.13,0,.18.18-.16,0-.19.13-.31,0,.18.87-.51.7-.57a10.18,10.18,0,0,1,1-.93s-.05,0-.05-.09c.36-.08.35-.53.71-.61,0-.08,0-.1,0-.18a5.31,5.31,0,0,0,1.23-1.84c.12,0,.06-.13.22-.18.27-.8,1.25-1.79.58-2.86-.08,0-.12.07-.14,0s.08,0,.09-.08-.08-.16-.13-.22c-1-.34-1.62.19-2.37.74a19.64,19.64,0,0,0-1.46,1.41,18.93,18.93,0,0,1-2.19,1.93,2.33,2.33,0,0,1-1.54.18,1,1,0,0,0,.55-.48s0-.05,0-.09a.29.29,0,0,1,0,.09.09.09,0,0,0,.06,0c.12-.18.14-.09.05-.22.25-.26.73-.48.7-.88.32-.13.41-.5.7-.66,0,0-.05,0,0-.09a.17.17,0,0,1,.13,0c0-.22.18-.32.4-.49.27-.61,1-.91,1.23-1.67a4.05,4.05,0,0,0,.83-1.27c.12-.24.26-.39.4-.62a4.56,4.56,0,0,0,.44-1.32,1.89,1.89,0,0,0,.09-.83c-.21-.29-.22-.82-.71-.88s-.65.25-1.05.31c-.68.94-1.72,1.53-2.38,2.5-.88.59-1.31,1.84-2.68,1.81,0-.06-.07,0-.09-.09a.45.45,0,0,1,.49-.35c.05-.14,0-.12-.05-.22.49-.22.63-1,1-1.15,0,.09-.12.09-.14.18.13,0,.15-.15.22-.22s-.12,0-.13,0c.18-.05.2,0,.09-.14a4.4,4.4,0,0,0,1.05-1.1s0-.13,0-.17.25-.2.31-.31,0-.16,0-.22c.14-.34.71-.88.44-1.1.24-.1.26-.51.4-1-.05,0-.13,0-.13,0a.29.29,0,0,0,.17,0,2.9,2.9,0,0,0-.57-2.25c-.72-.15-1.05.21-1.49.44A15.86,15.86,0,0,0,322.26,31c-.68.44-.93,1.54-2.2,1.24.29-.14.31-.2.4-.4.18.12.32-.21.26-.22.1-.09,0,0,.13,0v-.26c.5-.39.73-1.06,1.32-1.36a5.47,5.47,0,0,1,.75-1.23c.2-1.12.7-1.94-.05-2.91-.18,0-.17.11-.13-.08h-.57c-.55.2-.81.71-1.32,1-.56.5-1.15,1.4-2.12,1.25,0,0,0,0-.08,0l.08,0a.13.13,0,0,0,0-.1c.07,0,.11.06.13,0s-.05-.07-.05-.14c.23-.24.54-.39.75-.74,0,0,0-.13,0-.13.19-.25.51-.41.71-.66,0-.05-.06-.12-.05-.14s.15-.05.18-.08a4.59,4.59,0,0,0,.35-.66c.07-.19,0-.43.09-.62s.11-.06.13-.13c.11-.42.13-1.76-.26-2.07a2.68,2.68,0,0,0-2.12.75c.18-.15,0-.22.14-.31-.1-.06-.17.12-.18,0a3.27,3.27,0,0,0,1.1-3.16c-.6-.41-1.59,0-2.11.35a.48.48,0,0,1-.66.26c0-.24.35-.7.31-1.32,0-.28-.17-.95-.35-.7.13-.31-.48-.56-.66-.84a1.08,1.08,0,0,0,.08-.52s0,.08,0,.08A1.31,1.31,0,0,0,316.1,16c.26-.11-.24-.26,0-.4-.16-.12-.15-.43-.39-.48.22,0-.11-.16-.09-.27.24-.43-.09-1-.18-1.27,0,0,0,0-.08,0,.08-.21-.17-.44-.27-.61a5.3,5.3,0,0,0-.7-1.85,1.24,1.24,0,0,0-.27-.88c.11-.1,0-.21,0-.35s-.17.11-.18,0l.14-.13a.25.25,0,0,0-.18-.13c.09-.07,0-.26,0-.27s-.05.07-.09.09.09-.31,0-.13c.11-.15.13-.2.13-.31s-.13-.2-.18-.44c0,0,.09,0,.09.05,0-.24-.37-1.36-.22-1.41s-.72-1.05-.7-1.54c-.06-.11-.13.08-.18,0h.09c-.26-.41-.29-1.21-.83-1.54-.62.32-.53,1.27-.71,1.62a3.68,3.68,0,0,1,0,1.06,6.11,6.11,0,0,0,.13.7c0,.41-.26.88,0,1.32a27.73,27.73,0,0,0,.18,4.93c.14,0,.12.55.08.35a1.54,1.54,0,0,1,.09.52c-.05.5,0,1.16,0,1.5a10.25,10.25,0,0,1,.57,2.11c-.07,0-.07.24,0,.22,0,.22.4.55.66.88-.63.3-1.88.52-1.45,1.45,0,0-.13,0-.13,0,.37,1.29,2,1.55,3,1.89-.46.27-1,0-1.41,0a1.51,1.51,0,0,0-1.45.88c-.45,2.15,2.77,2.38,4.14,2.81-1.27.32-2.93-.74-4.05.18,0,.3-.2.71,0,.92-.08.89.82,1.55,1.49,2a.93.93,0,0,0,.75.49c-.11.17.06-.05,0,.13.93.2,2.22.28,3.08.44-.08,0-.09,0,0,.08-1.37.11-3.15-.65-4.36,0-.27.36-.19.77-.3,1.14.11,0,.14.12.17.22s-.11-.26-.17-.13c.07,1,1.29,1.84,2.33,2.33a1.83,1.83,0,0,0-1.41.53c0,.36.07.54-.05.83.22,1.28,1.15,1.85,1.9,2.6-.64,0-1.25-.3-1.59.09-.19.22-.12.61-.17.92,0,0,0-.09-.05-.09.08.39-.06,1.23.27,1.32a4,4,0,0,0,1.67,1.89,2.74,2.74,0,0,0,1.4.93,12.61,12.61,0,0,0,3.87,1.18c.42.37,1,.39,1.45.66a5.09,5.09,0,0,1-2.85-.39c-.4-.14-.84-.13-1.23-.27a8.73,8.73,0,0,0-1.94-.75c-.45-.28-1.51-.93-2.2-.52-.33.19-.38.71-.48,1,0,0,.09,0,.09,0-.25.29.16.82,0,1.1.24.26.37.7.62,1,.59.71,1.61,1.06,2.15,1.8.44.14.7.47,1.23.53-.1,0,.27.19.4.22a18.92,18.92,0,0,1,2.55.57s-.1,0-.09,0a5.9,5.9,0,0,1,.66.13,9.6,9.6,0,0,0,1.49.8c.7.17,1.31.14,1.63.61-.6,0-1.06.35-1.58.26-.22,0-.43-.23-.66-.3s-.79-.12-1.14-.22a4.06,4.06,0,0,0-1.76-.4c-.07-.12-.32-.07-.35-.22-1.14-.27-2.69-1.19-4.05-1.54-1-.25-1.57.16-1.41,1.23,0,0-.08,0-.08,0-.14.43.31,1.18.57,1.54-.33.09-.59-.1-.84,0s-.11.53-.35.61c.05.26-.21.53,0,.88a3.13,3.13,0,0,0,.39,2s0-.1,0-.09A9.1,9.1,0,0,0,314.3,58a8.34,8.34,0,0,0,.53.79,9.39,9.39,0,0,0,3.69,2.72,6.61,6.61,0,0,0,1.8.49c.09.17.44.09.58.22,0,0,0-.1,0-.09.48.12,1.15,0,1.58.13.86.15,1.69.85,2.9.84,0,.12.51.19.62.13a1.32,1.32,0,0,1,.4,1.14c-.31-.26-1.33-.58-1.76,0-1.85-.17-3.14-.91-5.15-.92a5.81,5.81,0,0,0-1.76-.84v-.13c-.7-.28-1.28-.79-1.93-1-.06,0-.21,0-.26,0s.05-.08,0-.09a2.67,2.67,0,0,0-1.23-.48c.09-.1,0,0-.05-.13-1.52-.48-2.68-1.33-4.13-1.89a2.74,2.74,0,0,0-1.63,0c-.24.28-.1.8-.08,1.14-.06,0,0-.08-.09-.09a5,5,0,0,0,1,2,13.64,13.64,0,0,0,1.1,1.06c.55.54.94,1.24,1.71,1.49,0,.08,0,.11.14.09a19.93,19.93,0,0,0,3.29,2.29c.25.14.47.38.66.48.42.21,1,.28,1.28.57a11.22,11.22,0,0,0,3.21.88s0-.1,0-.09a12,12,0,0,0,2,.58s0-.1,0-.09c1.32.11,2.38,1.18,4,.74.12.2.44,0,.62.09.4.2.46.81.51,1.27h0s0,.09,0,.13c-.08-.13-.08-.09,0-.13h0c-.65-.54-1.93-.34-1.92.54-.18-.06-.12.46-.17.57a.14.14,0,0,0-.09-.14c0,.27-.2.36-.31.53-.26-.25-.39-.63-.75-.79a.07.07,0,0,0,.05-.09c-.31-.08-.61-.47-1-.52s-.58.22-.92.48c-.2.49-.21,1.06-.4,1.36-.13-.14-.38-.17-.48-.35a2.77,2.77,0,0,0-2.55.53c-.81-.24-2.11-.57-2.77-.09a6.38,6.38,0,0,0-1.45,0c-.74.09-1.19.65-1.81.66-.38,0-.84-.14-1.31-.18-1.29-.1-2.89.13-4.31,0l-.49,0c-1.12-.08-2.25-.22-3.25-.22-1.76,0-4.06,0-4.57,1.1,0,.09.09.14.13.22a.33.33,0,0,0-.18.17c.71,1.41,2.57,1.9,4.18,2.16a21,21,0,0,0,4.62,1.23s0,0,0,.08a13.84,13.84,0,0,1,2.16.27,38.15,38.15,0,0,0,8.88.13,4.51,4.51,0,0,1,1.41-.26c1.54-.24,2.6-.89,4.66-.62-.07.16.15,0,.13.13-.18.17-.17.66-.27.79,0,0,0-.14,0-.13-.56,1.9,2,2,2.81,1.1-.05-.11.24-.26.31-.39a.43.43,0,0,1-.13-.09c.22,0,.17-.33.4-.35,0,.06-.17.18-.05.22,0-.16.15-.14.18-.18-.14,0-.15-.17-.05-.26s-.09.16.05.22a1.41,1.41,0,0,1,1.1-.62c.42.22.58.93.66,1.36.2.2.15.52.26.84.32.91.95,2.44.4,3.12-.08-.1,0-.28-.05-.31-.37-.28-1.22-1.37-1.89-.57a4.32,4.32,0,0,1-.39.84c.07.06.08.43,0,.44s.13-.15,0-.18c-.26.34-.24,1-.48,1.32a.25.25,0,0,0,.13,0c0,.07,0,.18-.09.22,0-.23-.19-.29-.26-.44s.07.06.09,0,0-.11-.05-.18c-.58-.65-.89-2.34-2-2.42a.68.68,0,0,0-.79.53c-.11-.12-.18.15-.09.22-.12-.11-.18.31-.22.39s0-.1,0-.08c-.19.4-.16.87-.44,1,0-.19-.16-.23-.14-.44-.37,0-.23-.51-.48-.66,0,0,.1,0,.09,0-.26-.62-.86-1.56-1.63-1.54-.55,0-.94.44-1.14,1.1,0,0-.12,0-.13,0a1,1,0,0,1-.71.48c.18-.1-.13-.34.05-.31,0-.15-.2,0-.18-.17a.12.12,0,0,0,.13-.09c-.19-.18-.08-.36-.13-.53s-.36-.58-.39-.79a2.72,2.72,0,0,0-1.67-.57c-.89.56-.83,1.71-1.46,2.51.05-.08-.19-.06-.22-.09a11.32,11.32,0,0,0-1-1.63c-.16-.11-.21.07-.09-.13a1.62,1.62,0,0,0-1.32-.4c-.25.08-.29.41-.53.49-.07.22-.07.36-.22.44v.31c-.37.06-.21.66-.44.87a1.67,1.67,0,0,0-.26-.17s.09,0,.09,0c-.71-.48-.87-1.87-2.51-1.75-.37.47-.33.64-.66,1.1.06,0,.11,0,.09.08-.25.11-.31.57-.48.62-.37-.32-.41-.71-.84-1,.05,0,.13,0,.13,0-.38-.61-1.72-1.54-2.33-.84-.21.25-.53,1-.35,1.19-.19,0-.16.14-.18.4-.1,0-.09.08-.22,0,.11-.11-.29-.11-.3-.35a3.64,3.64,0,0,0-1.54-.4c-.9-.12-1.48-.84-2.51-.75a13.44,13.44,0,0,0-3.43-1c-1.8-.47-3.8-1.11-5.45-1.58-.78-.22-1.48-.56-2.07-.09,0,.55,0,.88.22,1.15a12,12,0,0,0,4.4,3.56c.2.37.64.39,1,.57a17.12,17.12,0,0,0,2.2,1.19,13.32,13.32,0,0,0,3.16,1c.51.71,2,.43,2.55.88-.06,0,0,.08-.09.09s-.06-.12-.08,0,.07.3,0,.3c.14.36.16.67.4.84.59.42,1.38-.1,2.11-.31s1.08.08,1.63.09.85-.19,1.36-.22,1.09.38,1.67.44a19.46,19.46,0,0,0,2.42-.26,2.73,2.73,0,0,0,.88.26c.77.08,1.7-.46,1.93.09-.11,0-.1.27,0,.13s0-.11.09-.13c.07.26-.25.27-.05.3a1.51,1.51,0,0,0-.31,1.06c.05,1,.74,1.19,1.72,1.06s1.86-1.1,2.59-1.46a.47.47,0,0,1,.22.4s-.05,0-.09,0c.2.53.18,1,.58,1.27a1.74,1.74,0,0,0,1.8-.17c.15-.11.42-.47.66-.58,0-.21,0-.31.09-.39s-.08.13,0,.17a2.69,2.69,0,0,1,.31-.44c0,.06-.08.1,0,.14.23-.38.65-.9,1.1-.58,0,0,0,.06,0,.09s0,.26-.13.22a7.38,7.38,0,0,0-.05,1.15c.19,1.22,1,1.6,2.16,1a1.12,1.12,0,0,1,.92-.44c0,.74-.1,1.8.66,2.15a3.21,3.21,0,0,0,2.55-1c-.11-.23.22-.25.27-.44s-.11,0-.14,0,.22,0,.22,0,.29-.52.36-.79c.05.11-.14.19,0,.17-.08-.23.25-.14,0-.26.35-.14.75-.78,1.19-.35a8.69,8.69,0,0,1,.7,2,45.64,45.64,0,0,1,1,4.79c.19.21.23.57.4.79,0-.18-.09-.21,0-.35a20,20,0,0,1,.48,3.78,1.83,1.83,0,0,0-.17-.7c-.12.26-.16.54-.44.44,0-.18-.53-.62-.66-.79.13,0,0-.1,0-.18s-.11.06-.13,0a1.37,1.37,0,0,0-.44-.57,3.27,3.27,0,0,0-2.29-1.28c-.08.17-.21,0-.13.22-.56.33-.38,1.09-1,1.58-.43-.35-.71-.94-1.36-.92s-1.11.89-1.19,1.36c0-.06.05-.22-.05-.22-.19.39-.25,1.13-.52,1.41a.11.11,0,0,1,.08.13c-.1-.18-.19.1-.26-.09s.07-.1.09,0c0-.1-.24-.26-.31-.31s.05-.07.05-.13-.14,0-.18,0c0-.54-.51-.72-.79-1.32-.11,0-.1-.08-.22,0-.24-.45-.89-.49-1.58-.48-.2.19-.44.32-.49.66h-.13c-.12.33-.11.94-.26.88a2.72,2.72,0,0,0-.18,1.63c-.06,0-.13-.18-.18,0s.26.36.22.53c-.09-.09,0-.16-.08-.26s-.32-.31-.27-.22c-.18-.28-.08-.82-.22-.58-.07-.08,0-.31-.13-.13,0-1.24-1.25-2.79-2.55-1.89-.16.46-.51.72-.62,1.23,0,0,0-.12,0-.13-.42.43-.34,1.22-.61,1.72.08,0,.08-.06.13-.09-.08.22,0,.32-.05.44,0-.17-.07-.37-.22-.44.06,0,.11,0,.09-.09-.29-.24-.12-.12-.31-.35.06,0,.11,0,.09-.09s0-.19-.17-.18c0,0,.06,0,.08-.08s-.12,0-.13,0a14.3,14.3,0,0,0-.61-1.71.29.29,0,0,0-.14,0c-.06-.78-1.21-1.72-2.06-1.05a.25.25,0,0,0,0,.13c-.37.14-.39.63-.53,1-.09-.06.06-.11,0-.13-.51.66-.22,1.79-.62,2.46-.05-.25-.2-.41-.17-.75-.19,0-.09-.08-.18-.22a6.41,6.41,0,0,1-.61-1.27,8.3,8.3,0,0,0-.62-1.23,1.89,1.89,0,0,0-1.58-.88c-.89.1-.89,1.35-1.32,1.84-.13.15-.28,0-.13.22-.11.06-.18-.13-.22,0s.15.2,0,.22c-.56-1-1.05-2.42-2.86-2.37-.48.31-.35,1.14-.57,1.36,0,0,0-.1,0-.09a2.81,2.81,0,0,1-.48.84c-.05-.43-.56-.69-.75-1.28-.12,0-.17-.22-.27-.13.07-.23-.4-.45-.52-.48-.2-.42-1.09-.56-1.85-.44-.34.24-.41.91-.4,1.36-.07,0,0-.12-.08-.13-.11.28-.45.5-.4.79-.47-.55-.93-1.68-2-1.49-.54.09-.61.85-.79,1.23-.15-.06-.38.14-.53.22,0-.24,0,0-.09,0-.25-.42-.43-1.12-.79-1.28a1.33,1.33,0,0,0-1.8-.66,15.16,15.16,0,0,0-2.47-2.59c-.47-.17-.61-.67-1-.92-.13,0-.08,0-.22,0-.07-.39-.73-.39-.7-.75-.16-.06-.32-.2-.44-.18.09-.05-.15-.31-.26-.17,0-.11-.07-.14-.09-.22A12.5,12.5,0,0,1,287.79,92a1.64,1.64,0,0,0-1.63-.79c-.24.34,0,.84.09,1.19-.1,0-.05-.13-.13-.13-.08.19-.13.44,0,.57-.07.52.63,1.48.88,1.84.73,1.08,1.56,2.43,2.15,3.43.12,0,.16.08.22.14-1.44-.4-2.8-.63-4.44-.93-1.26-.42-2.9-.47-4.13-.92-.52,0-1.38-.14-1.76.22a.91.91,0,0,0,0,.35c.07,0,.1.14.13.22-.14,0-.12.12-.22.13,0,.67.63,1.09,1.06,1.32,2.92,1.59,6,3.3,9.76,3.87,1.05.16,1.77,1,2.81,1.06,0,.1-.09.26,0,.35-.22.08-.23.39-.22.7s.29.22.48.4.24.36.36.48c.41.44,1.75.17,2.15.44-.52,2,1.69,2,2.9,1.23a.23.23,0,0,1,.4-.09c-.18-.09,0,.06,0,.13-.25,0-.23.23-.26.27-.18-.25,0,.28-.27.26,0,.36-.34.71-.17,1.32.16.07.1.12.22.27,1.32.74,2.45-.15,3.3-.58.08,0,.63-.24.57-.26s.09.13.09.13-.1-.12,0-.13.1.11.18.13a2.45,2.45,0,0,0-1.19,1.91c0-.09-.11-.16-.09,0-.13.1.07,0,0,.05-.19.25,0,.56.09.79a2,2,0,0,0,1.5.26c1.37.17,2.57-1.66,3.65-1-.36.45-1.41,1-1.37,2-.09-.09-.15.36-.08.53s.59.49.92.53a4.31,4.31,0,0,0,3.08-1.15c.24,0,.5-.23.92-.13a.59.59,0,0,1-.4.71c.09,0-.11.28-.17.17-.31.54-1,.91-1.06,1.54-.08,0-.14,0-.17.09s.1,0,.08.09a.19.19,0,0,0-.17.08.17.17,0,0,0,.13,0c0,.06-.05.07,0,.13-.2-.05-.13.54-.09.75.87.89,3,.51,3.92,0,.27-.16.56-.56.92-.36,0-.11-.08-.13,0-.17,0,.18-.07.21,0,.35s-.06-.06-.13,0-.16.24,0,.3c0-.14.09-.14.13-.22a.79.79,0,0,1-.18.31c0-.09,0-.14-.13-.13-.12.2-.07.29-.09.44-.07,0,0-.12-.08-.13.11.47-.25.5-.31,1a0,0,0,0,0-.09,0c.16,0,.1.29,0,.26.06-.14,0-.31-.09-.22.15.12-.07.17-.09.18s0,.15.09.17c-.22,0-.28.86-.09,1.28,1,.77,2.62.33,3.74-.13a4.07,4.07,0,0,1,.53-.57c.13,0,.5-.11.31-.22.11,0,.17-.12.3-.14s0,.27.05.27.16-.18.17-.09a9.79,9.79,0,0,1-1.18.92c0-.06.18-.14,0-.13,0,.3-.22.13-.27.31s.13-.17.22,0c-.18,0-.13.19-.26.22s.18-.2,0-.18c-.08.55-.4.59-.4,1.15,0,.83.75,1.14,1.45,1.23,2.47.31,3.87-1.66,5.68-2,0,.07.12,0,.13.09s.13.38-.05.48c0-.06.06-.23,0-.22.06.25-.26.32,0,.4H322c-.26.74-1.09,1.16-1.49,1.62.08.2-.26.1-.18.58-.18,0-.22.37-.17.61s.58.66.88.75a4.1,4.1,0,0,0,2.94-.4,3.65,3.65,0,0,0,1.15-1.05c.19,0,.18-.17.26-.27s-.11.06-.13,0c.47,0,.58-.82,1.23-1,.17-.47.58-.5,1-.61.1.09.13.41-.05.26.15.18-.17.28-.09.39l0,0s0,0,0,0h0a6.47,6.47,0,0,1-.74,1.11c.07.09,0,.12,0,.26-.09-.07-.06,0-.18,0a3.21,3.21,0,0,0-.22,2.33,1.9,1.9,0,0,0,1.89.48c.53-.38,1.16-.4,1.63-.83,0,.21,0,0,.13,0,.06.59-1,1.69-.35,2.2a2.19,2.19,0,0,0,2.33.92c2.16-.25,3.56-2,4.53-3.12,0-.08-.13-.15,0-.18s0,.09,0,.09c.32-.37,1.72-1.79,2.2-.7,0,.06-.06.08,0,.17a.25.25,0,0,0,.13,0,10.15,10.15,0,0,0,.39,1.8c-.05-.06-.16-.06-.17,0s.22,0,.17.09c-.25,0,0,0,0,.09a6.25,6.25,0,0,1,.05.92c.13,1.58.43,2.87.44,4.44,0,1,0,1.91-.05,2.91,0,.59.08,1.24,0,1.84a11.78,11.78,0,0,0-.22,1.37c0,.69,0,1.45-.08,2.15a7.07,7.07,0,0,1-.62,3,.23.23,0,0,1-.31-.08c.09-.11,0-.2.05-.36l-.06,0c.07-.52.13-1.17.13-1.39s-.05-.22-.06-.44c0-.93,0-1.81-.77-2.31s-1.55.32-1.87.76a5.49,5.49,0,0,0-.79,1.52c-.08,0-.1.06-.17,0,.12.32-.22.26,0,.49-.3.1-.22.76-.47.67,0,0,0,0,0,0l-.06,0c.06-.19-.07-.19-.08-.31.14-.11.12-.61.08-.75-.26-.55.34-2-.17-2.68-.16,0-.11,0-.27,0-.62-.58-1.65,0-2,.53,0-.06.18-.14.05-.18-.24.35-.51.59-.71.88,0-.08.13-.15,0-.18s-.07.17,0,.31-.06-.06-.13,0c0,.28-.21.27-.31.44s-.1.43-.18.52-.08-.07-.13,0-.23.64-.44.53a.51.51,0,0,1-.75.35c.1-.58-.07-1.86.05-2.68,0,0,.21-.92.26-.7,0-.42.21-.78.13-1.19a3.3,3.3,0,0,0-.31-.92,2.29,2.29,0,0,0-1.49-.75,2.22,2.22,0,0,0-.62.26c-.2.14-.53.58-.48.62-.16-.08-.28.22-.31.31-.14-.08,0,0,0,.09-.22,0-.16.18-.26.39s-.32.47-.44.7c-.22.45-.24,1-.48,1.32-.13.16-.37.15-.44.31s.08.14-.05.18-.41.19-.61.22c-.27-.39-.1-1.21-.31-1.5,0,0,0,.1,0,.09a12.11,12.11,0,0,1,.22-2.9c0-.09-.13-.17,0-.27-.28-.42-.21-1.33-.51-1.68h0c-.06-.47-.38-.57-.44-1.27-.1-.11-.22-.17-.31-.27-.84-.88-1.82-.42-2.33.44v.22a4.23,4.23,0,0,0-.7,2,12.69,12.69,0,0,0-.31,1.67c-.18.14,0,.3,0,.57s-.26.24-.3.44c0-.19-.19.08-.22.14a1.92,1.92,0,0,0-.27-.44,2,2,0,0,0-.08-1.19s-.12-.58-.19-.54l0,.06s0-.06,0-.06c.08-.19,0-.43.14-.47,0-.15-.14,0-.22-.09.17-.07.33-.12.22-.35,0,.06,0,.16,0,.17,0-.19,0-.44.13-.26-.23-.35,0-.57,0-.88,0,0,.06.07.08,0a.3.3,0,0,1-.13-.09,2.71,2.71,0,0,0-.13-1.45s0,.1,0,.09c0-.17.1-.34-.05-.18a3.26,3.26,0,0,0-.48-1.49c.07,0,.07-.21,0-.18,0,.22-.06-.08-.09-.13a1.74,1.74,0,0,0-1-.75c-.83-.05-1.29,1.05-1.67,1.59,0-.08.13-.15,0-.18a9.21,9.21,0,0,0-1.1,2.38.38.38,0,0,0-.22.13c0-.08,0-.1-.09-.05,0-.16-.07-.19,0-.35a.78.78,0,0,0-.31-.17c.13,0,.05,0,.05-.09a9,9,0,0,0-.18-1.76c0-.05,0-.7-.26-.79a1.38,1.38,0,0,0-.4-1.1,1.62,1.62,0,0,0-1.23-1.1c-.89-.06-1.3.87-1.58,1.45,0,0,0-.09-.05-.09s0,.25-.13.13c0,.09.13.15,0,.18s-.45.52-.7.66c0-.17-.23-.15-.18-.48,0,0-.08,0-.09-.05a19,19,0,0,0-.74-2.2c-.37-.77-1.84-1.17-2-.26-.32.09-.35.5-.48.66,0,0,.06-.07,0-.09s-.09.32-.22.4-.15-.14-.14-.05.2.12.09.14c-.18-.17-.27,0-.48.08a9,9,0,0,1-.27-1.45c-.07,0,0-.48-.22-.61a2.77,2.77,0,0,0-1.36-2.55c-.76.18-1,.74-1.41,1.23,0-.2-.23.19-.35,0s.08,0,.09-.09c-.19,0-.12-.16-.22,0v-.44c-.25-.55-.15-1-.57-1.41a1.16,1.16,0,0,0-1.89.31c-.23,0-.08.19-.22.09s0,.17-.09.17-.2-.08-.31,0a.38.38,0,0,0-.13-.4c0-1.43-.74-2.85-2.24-1.93-.12.13-.29.57-.4.44a.43.43,0,0,1-.13.26c-.19-.14-.12-.12-.26-.22,0,.11.08.14-.05.18.06-.35-.34-.64-.17-.62,0-.08,0-.1-.13-.09a3.94,3.94,0,0,1-.31-.48c-.67-.46-1.79-.47-1.89-1.49a.36.36,0,0,1-.22-.27c-.05,0-.13,0-.13,0-.14-.44-1.19-.87-1.54-1.23,0-.06-.06-.07-.05-.22-.43-.35-.83-1.09-1.54-1.5,0-.25-.5-.47-.66-.66,0,0,.06-.07.05-.08a2.1,2.1,0,0,0-.84-.53c.18-.18,0,0,0,0s-.49-.82-.62-.66c-.25-.46-.6-.48-.83-.83.05,0,.07.06.09,0-.27,0-.35-.39-.58-.53,0,.08.07.11,0,.13s0-.25-.08-.3-.2-.12-.27,0c0-.2-.33-.39-.44-.61.22.35-.18,0-.09-.14-.62-.24-.82-.9-1.4-1.18a2.09,2.09,0,0,0-1.67-1.06,2.12,2.12,0,0,0-.13,1.23,1.58,1.58,0,0,0,0,1.41c.1.23.35.37.48.53a7.3,7.3,0,0,1,.88,1.67c.8,1.61,2.07,3,2.72,4.44.42.58.86,1.15,1.3,1.72-.8.41-1,1.34-1.32,1.91,0,0,0,.07,0,.08l0-.08c0-.08-.16-.16-.15-.07-.09-.35.12-.77,0-1,0,0,0,.23-.07.14.1-.35.31-.83,0-1.08.28-.3-.28-.91-.15-1a.6.6,0,0,0-.29-.34c.05,0,.11,0,.06-.08s-.08.11-.16,0,0-.28,0-.07c-.07-.14-.06-.29-.1-.1-.11-.07,0-.23-.11-.19s-.39-.29-.6-.28c-.88.2-1,1-1.15,1.38,0,0,0,.2,0,.26-.09-.09-.1.14-.22.06.08.09.13.11.07.22-.23-.13-.23-.45-.43-.62.19,0,.12-.35-.06-.37,0,0,.12,0,.12-.06a4.82,4.82,0,0,0-.88-2.08,1.78,1.78,0,0,0-.63-.6,1.7,1.7,0,0,0-1.31,1.46.59.59,0,0,1-.35,0c.16-.12-.28-.38,0-.29A2.37,2.37,0,0,0,276,115c-.09,0-.18-.29-.36-.3,0-.18-.08-.19-.11-.29-.1.09-.4-.45-.52-.32-.22-.33-.81-.28-1.46-.66,0,0,.06,0,.09,0-.25-.07-.23-.17-.34-.36-.29.22-.13.4-.43.58,0,0,0-.25-.07-.21s0,.28-.09.2a3.26,3.26,0,0,1,0-.83c-1.13-.12-2.08-.86-3.17-1.13-.25-.28-.63-.31-1-.57-.06,0-.16.07-.2,0a2.6,2.6,0,0,0-.84-.44c0-.15-.45-.4-.42-.22-.08-.15-.13-.25-.14-.08-.06-.18,0-.13-.19-.15,0,0,.08,0,.06-.08a4.32,4.32,0,0,1-1.29-.67h0l-.09-.06,0,0-.09-.06h0a6.33,6.33,0,0,1-.94-.65s.07.1,0,.13-.08-.38-.18-.15a.23.23,0,0,1,0-.17c-.32.12-.63-.55-1-.44.06-.18-.15.08-.22-.13-.19.1-.06.55-.21.36,0,.38.07,1.11.34,1.27a.21.21,0,0,0-.09.1c.59.9,1.35,2,1.74,2,.09.27.38.46.54.64,0,0,0,0,0,0s.22.17.28.15a8.36,8.36,0,0,0,2.1,1.91,9.7,9.7,0,0,0,1.72,1.51c.71.11,1.25,1,2.07,1.33.14.06.3.06.42.12.48.23,1.21.95,1.53.87.37.31.9.1,1.23.53,0,.49.73,1.15,1.27,1.32a.27.27,0,0,0,.13-.13c.13.27.69.12.88.23a3.41,3.41,0,0,0-1.05,1.08s0,0,0,0c-.06.24-.06.59-.13.87.87,1.75,2.78.32,4.3.07-.57.43-1.43.78-1.75,1.4,0,.08-.1.51-.06.43-.48.88,1.25,1.75,1.74,1.46-.83.32-.6.72-.49,1.21,0,.06-.07.12-.05.18a1.27,1.27,0,0,0,.62.77c-.09.09.12.09.12.23,1.36.94,3.06.42,4.56.47.38.25.87.13,1.29.25-.62.49-1.3.08-2.12.61-.2-.2-.8.23-.79,0-.39.18-.44.46-.74.66a.91.91,0,0,1,0,.49s0-.12-.06-.12c.05.16.18.73.12.59a1.84,1.84,0,0,0,.41.58,3.64,3.64,0,0,0,3.4,1,7.28,7.28,0,0,0,1.8.17c-.13.23-.82.27-.58.22-.43-.18-.71.08-1.16.18-.9.21-1.89-.06-2.68.5-.3.22-.41.72-.59.93.06.12.18.17.16.31-.16,0,.35,1,.49,1,.2.37.8.56,1.27.76a6.66,6.66,0,0,0,.74.35c.58.14,1.32-.1,2,0a3.13,3.13,0,0,0,1.35.17c.5.18,1.31-.15,1.76-.16-.17.69-.89.52-1.52.88a21.44,21.44,0,0,1-2.3,1.2c-.54.19-1.05.29-1.37.79-.13.36.14.91.16,1.22.06.08.18,0,.25,0s-.22.06-.17.14a2.5,2.5,0,0,0,1.27.86,6.61,6.61,0,0,0,1.82.31,7.77,7.77,0,0,0,1.73-.23,7.21,7.21,0,0,0,1.89-.38,5.94,5.94,0,0,1,2-.46c-.05.54-.72.6-1.17.78a3.72,3.72,0,0,1-.39.21c-.1,0-.24,0-.35,0-.57.12-1,.68-1.59.56a16.74,16.74,0,0,0-2,.9,1.8,1.8,0,0,0-.08,1.79c.44.79,2,1.06,2.76,1.3-.26.24-.59.32-.74.56s0,.42-.15.28c-.05.28.15.58,0,.73a5.1,5.1,0,0,0,4.24,2.45,6.3,6.3,0,0,0,2.23.24c.92-.08,1.89-.42,2.86-.46a6.25,6.25,0,0,0,1.59-.11c.63-.18,1.07-.38,1.53-.13-.05-.1.12-.08.13,0-.4.28-.46.74-.85,1-1,.7-2.53.57-3.39.84a.83.83,0,0,1-.22,0,.22.22,0,0,0-.13.12,9.51,9.51,0,0,0-2.65.09,2.13,2.13,0,0,0-1.79,1.32c.31.76.26,1,.56,1.4,0-.06,0-.27.09-.2l.07.12c-.06,0-.08,0-.12,0,.47,1,2.05,1.48,3.05,1.84a4,4,0,0,0,1.44.07,1.46,1.46,0,0,1,.46.11,11.56,11.56,0,0,0,3.86-.81c.24-.09.63-.33.49-.11.19-.13.58-.06.71-.09.31,0,1-.44.8-.18a2.25,2.25,0,0,1,1.67-.41c-.05,0,0,0,.09,0a8.83,8.83,0,0,1-1.41,1c-.29.12-.69.1-1.07.23a6.89,6.89,0,0,1-1.38.4l-.67.06c-.23,0-.8.09-.83-.05a1.18,1.18,0,0,1-.74.11c-.94.31-2,0-3,.4a3.13,3.13,0,0,0-1.22.8h0c-.4-.36-1.49,0-1.45.4-.25.08-.8.88-.71,1a4.56,4.56,0,0,0-.58.77l.06,0c-.22.29-.2.46-.44.66,0,0,.1-.17,0-.17-.12.22-.17.16-.14.44-.14,0-.49.52-.26.61-.24-.05,0,.11-.18.09,0,.12.09.09.09.18-.25,0-.19.29-.22.35s-.12-.06-.13,0,.1,0,.09.08-.1-.07-.13,0c.14,0-.16.28.08.27,0,.11-.19.13-.22.26a1.09,1.09,0,0,1-.39.57,13.68,13.68,0,0,1-1.63,2,4.73,4.73,0,0,1-1.27.48c0-.06-.12-.09-.14-.18.18,0,.23-.59.4-.79,0,0,.12,0,.13,0a15.54,15.54,0,0,1,1.19-2.06c.26-.29.54-.51.79-.8a3.5,3.5,0,0,1,.75-1.18,6.76,6.76,0,0,1,.61-1.5c-.09-.32.18-.4.14-.61a.43.43,0,0,1-.09.13c.05-.34.25-.19.17-.53.19.14.08-.37.14-.48s.15-.06.17-.13-.06-.18,0-.27.22-.33.22-.53-.06-.06,0-.13a2.31,2.31,0,0,0,0-1.1c0,.06,0,.13,0,.14-.05-.14.13-.25,0-.31s0,.12,0,.13a3.11,3.11,0,0,0-.22-.66c-.57-.76-1.68.17-2.07.44.09.17-.06.07,0,.26a3.47,3.47,0,0,0-1.1,1.37c-.06.09-.11-.06-.13,0a2.5,2.5,0,0,1-.88,1.06c.11.18-.14.18-.13.39-.8.73-1.31,2-2.82,1.58.11-.43.19-.79.4-.92,0-.18,0-.26.17-.31,0-.17,0-.32.14-.3-.09-.31.35-.51.39-.75a10.27,10.27,0,0,0,1.7-2.08.05.05,0,0,1-.07,0c.35,0,.21-.51.44-.4a.53.53,0,0,1,.13-.39c0-.27-.17.24-.22.08s.18-.39.31-.17c0-.12-.09-.09-.09-.18.24-.24.41-.72.53-.83-.05,0-.07-.05-.09-.09s.12,0,.13,0c.13-.63.7-1.33.71-2.16a1.91,1.91,0,0,0,.26-1,1.37,1.37,0,0,0-1-1.15c-.82.06-1.25.74-1.62,1.1-.47.11-.6.6-.93.79s-.45.68-.66.79a.2.2,0,0,0,.05.14c-.31-.07-.43.65-.71.66-.1.42-.65.73-.83,1.1,0-.06.08-.1,0-.14-.08.17-.2.4-.31.4-.14.41-1.31.62-1.76.35.14-.8.6-1.05.75-1.8.08,0,.09-.06.13-.09a2.65,2.65,0,0,1,1.14-1.89,2.26,2.26,0,0,0,.44-.35c.06-.07,0-.36.18-.27,0-.16-.15-.08-.18-.17.14,0,.14.07.22.09.14-.37.28-.37.18-.58.09,0,.12-.07.13-.08.18-.23.73-1.85.09-2.51-1.42-.45-2.14.54-3,1.23-.32.25-.7.51-.84.62-.4.31-.83.76-1.28.39.43-.75.77-1.81,1.37-2.24a1.21,1.21,0,0,0,.48-.62c-.05,0-.12,0-.13,0,.35.1.37-.46.44-.44-.1,0,.06-.36.17-.39s-.15.26,0,.17.22-.31.13-.39,0,.15-.09.13c.12-.24.11-.33.31-.49.28-.76.86-2.54-.44-2.81-1.21.05-1.72.81-2.37,1.41-.27.24-.6.43-.7.88a1.79,1.79,0,0,1-1.54.48c.31-.51.8-.84,1-1.49,0,.05,0,.12.05.13a11.2,11.2,0,0,0,.69-1.39s0,0,0,0a3.31,3.31,0,0,0,.48-1.76,2.26,2.26,0,0,0-.22-2.37,1.37,1.37,0,0,0-1.45.3c-.49.58-1,1.25-1.45,1.68-.1-.08-.1.12,0,.08-.39.1-.52.68-1.06.4a1.52,1.52,0,0,0,.36-.7s0,.08,0,.08c.11-.43.43-.77.57-1.18.06-.17,0-.52.22-.49,0,0,0-.28.05-.3s0,.11,0,.08-.11-.29,0-.13c-.15-.38.22,0,0-.44.16,0,.08-.19.05-.22.21,0,.1-.53,0-.66.23,0,.16-.39.3-.7-.18-.26,0-.79-.35-1a.53.53,0,0,0-.44-.57c-.61-.09-1,.58-1.32.83a7.29,7.29,0,0,0-.74.7s.08,0,.08,0c-.2.07-.27.06-.21.22-.53,0-.34-1.07-.31-1.32,0,0,0,.11,0,.09.12-.26-.11-.67.09-.57a1.2,1.2,0,0,0,0-.4s0,0,.08,0c-.05-.57.05-1.16-.3-1.49.21,0,0-.16,0-.26-.11,0-.14.08-.18,0,.06,0,.11,0,.13,0-.15-.1-.31-.56-.48-.35,0-.12.07-.09,0-.18a1.54,1.54,0,0,0-1.54.92c-.05,0-.36,0-.44-.08s0-.48-.09-.27c.07-.06.16-.53,0-.31.13-.21-.16-.5-.26-.7a.94.94,0,0,0-1-.62,1.28,1.28,0,0,0-.88.62c0-.08.06-.11,0-.13s-.14.19-.22.26c0-.23,0-.12-.13-.09-.06-.14,0-.61-.14-.44,0-.13.13-.18,0-.3-.09.06.06.1,0,.13.09-.43-.24-.65-.53-1,0,0,.09,0,.09,0-.3-.35-1-.3-1.23-.66-.15-.2-.12-.48-.27-.75-.24.07-.09-.41-.26-.22,0-.11,0-.3-.09-.13a1.78,1.78,0,0,0-1.18-.84c-.26-.29-.45-.79-.88-1,0-.06,0-.16-.05-.17-.34-.17-.5-.51-.88-.71a.71.71,0,0,0-.52-.52c0-.22-.23-.25-.27-.44-1.34-.77-1.93-1.75-3.25-2.51-.08-.15-.2-.24-.27-.4-.12,0-.08-.07-.17,0,.07-.08,0,0,0-.17-.73-.33-.89-1-1.72-1.19-.12-.25-.42-.54-.7-.48.09-.16-.53-.46-.53-.27-.08-.08-.08,0,0-.17-.16,0-.68-.06-.44.09-.12,0-.09-.09-.18-.09-.31.39-.07.9-.22,1.27a6.58,6.58,0,0,0,1.5,2.24,16.69,16.69,0,0,0,1,1.72,7.58,7.58,0,0,1,1.23,1.93,14.18,14.18,0,0,1,2.06,2.73c.59.38.88,1.38,1.54,1.85.4.27.91.33,1.06.74a3.23,3.23,0,0,1,0,.53,2,2,0,0,0,1.67,1.5c-.07,0,0,0,0,.13-.17.12-.44.13-.53.31s.06.12.05.13-.09-.06-.13,0-.11.41-.09.35a2.2,2.2,0,0,0-.13,1.28c.28.7,1.71.75,2.63.61,0,0,0-.09.05-.09.25,0,.36-.07.61,0,.17-.2.65-.07.75.09s.08.15,0,.3a1.7,1.7,0,0,0-2.07.75c-.09.24.16.37,0,.49,0-.1,0-.17-.08-.18-.4,1.06.65,1.65,1.62,1.76-.54.16-.68.91-.92,1.23a1.89,1.89,0,0,0,.26,1.1,4.06,4.06,0,0,0,1.89.83c1.47.14,3.38-.34,4.62,0a1.78,1.78,0,0,0-.31.4c-1.28.49-4.58-.16-4.35,1.67-.06,0,0-.08-.09-.09a.9.9,0,0,0,.05,1.06,4.15,4.15,0,0,0,3,1.27c1.22.09,2.68-.06,3.92.05.18.15-.08.46.09.44-1.45.39-3.5.11-5,.74-.15.15-.19.39-.44.44-.13.26-.1.69-.35.84-.07,1.55,1.91,2.23,3.12,2.37,2,.23,3.76-.35,5.32,0,.13,1.42-2,.88-3.25.88a15.45,15.45,0,0,0-2.11.31c-.81.11-1.52.62-1.36,1.41,0-.16-.08,0-.14-.13,0,.18-.2.58-.08.79.57,1,2.36,1.76,4,1.93,2,.2,3.36.35,5.1.48,0,.09.17,0,.13.18-1.88,1.07-5.06,1-7.12,1.8-.74.06-.76.85-1.1,1.32a1.57,1.57,0,0,0,.31,1.1,6.59,6.59,0,0,0,3.83,1.32c2.3.13,4.79-.47,6.9-.18-.11.18.05,0,.09.09-.36.25-.35.37-.66.62a14.12,14.12,0,0,1-2.6.22l-.44-.05a15.33,15.33,0,0,0-5.49.36,2,2,0,0,0-.57,1.27c-.45.22-.06,1.25.43,1.63a11.63,11.63,0,0,0,2.55,1.1,12.22,12.22,0,0,0,4.31.7c2.34-.07,4.06-.49,6,.09-.13,0-.05.06-.05.17a2.88,2.88,0,0,1-1.45.66,6.44,6.44,0,0,0-1.1.36c-.84.23-1.41.28-2.2.57-1.33.49-3.07.5-3.95,1.27a5.48,5.48,0,0,0-.93,1.63c.36,2.46,4.8,1.74,6.56,1.23,1.23-.1,2.18-.31,3.42-.31,1.06,0,3.32-.21,3.79.62-.41.18-.63.6-.88.83s-.62.22-1.19.35c-.4.1-.75.29-1.14.4a8.43,8.43,0,0,0-2.29.62c-.62,0-1.21.33-1.8.39s-1.27.53-1.94.66a8.32,8.32,0,0,0-1.8.62,1.71,1.71,0,0,0-1.19,1.49c-.1-.05-.28.51-.26.62.23,1.06,1.36,1.54,3,1.58a14.28,14.28,0,0,0,3.29-.4,14.36,14.36,0,0,0,4.93-.92,7.82,7.82,0,0,1,2.24-.48c1.54-.13,3.36-.46,3.78,1.18.13,0,.14.14.22.14-.3.29-.82.4-1.1.7a3.62,3.62,0,0,1-.13.35s-.08-.05-.09,0,.05.12.05.13-.08-.06-.09,0-.23.36-.4.48c-.36.25-.87.36-1.27.66s-.47.58-.88.66c-.06,0,0,.17-.09.17a8,8,0,0,0-1.94,1.06c-1.56.93-3.52,1.41-4.79,2.72.08.23-.22.37-.17.71-.12-.12-.18.52-.18.57.09,1.08,1.77,1.34,2.77,1.32a7,7,0,0,0,1.23-.18,16.61,16.61,0,0,0,3.74-1.36,11.53,11.53,0,0,1,1.49-.75,8.58,8.58,0,0,0,1.67-.75,6.31,6.31,0,0,1,2-.61c.53-.1,1.12-.28,1.54-.31,1.45-.09,1.49.95,2.29,1.58,0,.22.21.14.13.4.08,0,.18-.13.22,0a10,10,0,0,0-2.15,2,.62.62,0,0,0-.53.26c-.19-.15-.84.39-.66.18-.13,0-.19.17-.31.22s0-.09,0-.09c-.21,0-.85.32-1.36.44-.2,0-.21.11-.31.13a8.17,8.17,0,0,1-1,.13c-.05.13-.07.11-.09.18a5.87,5.87,0,0,0-2.11.35c-.49.12-1,.22-1.41.35a3.85,3.85,0,0,0-1,.66c-.17.13-.21.29-.35.44.08-.08-.12,0,0,.09-.1-.09-.05,0-.13,0-.05.52-.05,1.21.4,1.46-.13,0,.13,0,0,.17,1.92,1.11,5.17,1.06,7.65.22a11.32,11.32,0,0,0,2.15-.83,4.16,4.16,0,0,1,.71-.4,14.07,14.07,0,0,1,2-.13c.66-.15,1.15-.74,1.8-.57.2.05.31.25.57.44.49.35,1.37,1,1.41,1-.09.13.64.77.83,1a.66.66,0,0,0-.08.29s-3.77,1.35-4.5,1.71c-.07-.17-.13.18-.14-.05-.12.05,0,.12-.09.17-.24-.18-.42.13-.57.2.14-.06-.46,0-.47.18,0-.18-.33,0-.06,0l-1.73.39c.05,0,.26-.07.19,0-.24,0-.41-.14-.43.09-.12,0-.2,0-.14-.12-.23,0-.16.13-.34.2-.17-.26-.44.13-.63,0-.07,0,0,.09-.05.14-.51,0-1,.08-1.46.09-.12.27-.54,0-.58.26,0-.05,0-.13-.08-.11.12.12,0,.19-.11.14s.1-.07.08-.11c-.28.12-.5.19-.71.29a1.79,1.79,0,0,0-1.14,1.87c.2.37.3.38.48.74a3.22,3.22,0,0,0,1.8.59s-.07.05-.05.09a4.11,4.11,0,0,0,1.22,0c.41.34.92-.07,1.21.16.07,0,.05-.1.11-.14.29.27.88,0,.92,0s1.1.1,1.26-.21c.18.13.51-.07.63-.25.12.2,1.86-.28,2.81-.43a17.08,17.08,0,0,0,2.82-.8c.53-.39,1.06-.67,1.2-1.23.11-.05.24-.08.3-.18-.11-.08.13-.16.14-.26s-.2-.09-.09-.09.14-.2.26-.31c.29,0,.34,0,.62,0s.25.3.52.31c0,.15.63.48.44.61.11,0,.49.27.49.53,0,0,0-.05.09,0,.27,1.24,1.41,2.2,1,4-.05,0-.06,0-.09-.05a37.3,37.3,0,0,0-.62,4.79c-.08,0-.08.06-.13.09-.11.53-.1,1.31-.22,1.76s-.09,1.26-.17,1.54c0-.14-.24.52-.05.62-.22,0-.16.45-.09.35-.14.13,0,.23,0,.3s-.15.37-.18.53c-.36,2.05-.25,5-.57,6.64,0,0-.05,0-.08,0a6.61,6.61,0,0,1-.05,1.1s0-.09.05-.09a34.87,34.87,0,0,0-.21,3.51l1.45,1.56c0-.41,0-.81.07-1.2.09-1.17.28-2.09.36-3.17a19.68,19.68,0,0,0-.18-2.15,27.72,27.72,0,0,1,0-4.37,1,1,0,0,1,0-.3c0,.1,0,.2,0,.3a.16.16,0,0,0,0,.1c.09-.21,0-.49.14-.44,0-.12-.09-.09-.09-.17.23-.12.06-.35.09-.53.09-.71.3-1.56.44-2.42s.33-2,.44-2.86c.09,0,0-.16.13-.17a27.22,27.22,0,0,1,.88-4.18c0,.07,0,.15.08.13.34-.64,1.25-.7,1.81-1a8.92,8.92,0,0,1,2.28-.26c.38.24-.56,1-.61,1.54-.06,0,0-.08-.09-.09.12.12,0,.57-.18.39,0,.23,0,.44-.17.53s.06.09.09.13a1.11,1.11,0,0,0,.35,1.37,5.9,5.9,0,0,1,1.62.35,5.88,5.88,0,0,0,.88,2.9c0-.05,0-.12.05-.13.06,1.48,1.29,1.79,1.89,2.72.39.07.55.36.75.62h.17c0,.14.19.14.18.31.82.43,1.91,1.27,3.08.66.6-.76.37-1.61.13-2.55-.09,0-.09.06-.13.09s.12-.19,0-.22-.37-.87-.66-1.15c0,.08.06.11,0,.13a11.74,11.74,0,0,0-.67-1s0,0,0,0,0-.05-.05-.08l0,.06c0-.18-.14,0-.17-.15.17,0,0-.23,0,0a1.09,1.09,0,0,0-.27-.39c0-.14.14-.39,0-.44,0,0,0,.08-.05.09a.38.38,0,0,1,0-.27c-.09,0-.09.06-.13.09s.07-.17,0-.31-.08.06-.13.09c-.05-.16.06-.44-.09-.26,0-.09.05-.1.05-.18s-.12.07-.14,0c-.24-.52-.26-1.26-.48-1.8,0,0,0,.05-.09,0,0-.42-.65-.62-.52-.88,0,.09.24-.09.3-.17s-.1,0-.08,0,.12,0,.13,0a1.26,1.26,0,0,0,.13-.22c.1-.15.27-.4.31-.39s.14-.3.22-.31c-.11-.9-.77-1.25-1.41-1.63.83-.06,2.71-.8,3.43.13.41,1.29,2,1.38,2.46,2.64.71.85,1.18,1.93,2.2,2.46,1.05,1,2.44,1.69,3.56,2.64a3.15,3.15,0,0,0,2.24.09,1.8,1.8,0,0,0,.53-2c-.23-.13-.11-.38-.26-.53,0,0,0,.09-.05.09-.11-.46-.46-.68-.57-1.14-.69-.53-.84-1.08-1.54-1.63,0,0,.07.06.09,0A.32.32,0,0,1,337,208c-.47-.35-1.34-.88-1.45-1.36-.2,0-.64-.58-.71-.4-.08-.24-.17.06-.26-.13.15,0,.07-.28.22-.13,0-.3,0-.51-.13-.75,0,.07,0,.16-.05.18,0-.15,0-.27.09-.31s-.13,0-.13-.13c.25-.36-.31-1-.48-1.41a4.35,4.35,0,0,1,1.36-.18,2.22,2.22,0,0,1,1.1,1.41c.39.47,1,.72,1.27,1.32,1.36,1.16,2.66,2.38,4,3.56a4.33,4.33,0,0,0,3.74,1.41,1.57,1.57,0,0,1,.57-.31c.14-.18.34-.25.31-.57s0-.25,0-.62c0,.06,0,.13,0,.14-.07-.27,0-.28,0-.44-.11.07-.28-.7-.48-.95v0s0,0-.05-.07,0,0,.05.05c0-.17-.24-.08-.05-.2-.5-.2-.42-.6-.83-.83.17,0,0-.19,0-.22s0,.12,0,.13a4,4,0,0,0-.66-.92c-.09-.13,0-.23-.14-.09a5.29,5.29,0,0,0-.57-.75s0,.09,0,.09,0-.09,0-.18c-.22.07-.29-.43-.57-.61,0,0-.14,0-.18,0s-.11-.3,0-.22c-.1-.11-.23-.07-.31-.22s-.29-.54-.35-.35c-.06-.19-.11-.54-.17-.27a3.4,3.4,0,0,0-.53-.83c.07-.2-.12-.73-.27-.71.07.08.22.31.14.4,0-.22-.28-.46-.18-.66,0,.07.09.19.09.09s-.07-.34,0-.35a.9.9,0,0,1,1,.61,14.64,14.64,0,0,1,2.37,2.77,5.86,5.86,0,0,0,.61.88,7.2,7.2,0,0,0,4,2.37,2.08,2.08,0,0,0,1.4-.3v-.18c.56-.08.6-1.2.49-1.8-.11.08-.14-.29-.09-.31s0,.12.09.13c.05-.14.09,0,.22-.09.54.34,1.94,1.08,2.68.44-.08,0-.1,0-.09-.13s.19-.08.35,0a3.5,3.5,0,0,0,.13-1.89c-.06,0-.22.05-.22,0,.4-.07,0-.56.05-.74.33.11.57.6,1,.83,0,.06-.06.06,0,.13a7.27,7.27,0,0,0,2.63,1.63c.32.11,1.26.3,1.32-.22,0,.1-.16,0-.17,0,.23,0,.32-.09.48-.14.66-.91-.05-2.09-.4-2.9.08.05.17.3.27.18-.24-.1.14-.05.22,0,.32.18.78,1.19,1,1.49.17.09.36.14.39.36.55.36,1.74.59,2.25,0,0-.14-.11,0-.18-.09.95-.38.77-1.55.49-2.33a1.66,1.66,0,0,1-.36-1c0,.18.14.22.18.35,0-.06,0-.16,0-.17s.34.14.53.26c.08.31.42.56.62.75a3.66,3.66,0,0,0,1.14,1c.71.32,2,.73,2.55,0-.05,0-.1,0-.09-.09.46.08.45-.76.71-1-.24-.22,0-.49-.14-.62.12.12,0-.07.14-.09.73.3,2.45.56,2.81-.13,0,0-.06.07,0,.09a1.19,1.19,0,0,0,.22-1.32c.05,0,.09.07.09,0s-.2,0-.14-.13c.18.15,0-.2.09-.17.43.09,1.67.55,2.16,0,0-.09-.12.07-.14-.09.23,0,.28-.14.45-.17.08-.25,0-.6.26-.79s.87,0,1.27-.09a8.77,8.77,0,0,0,1.32-.57c.81-.32,1.74-.46,2.16-.93.18,0,.28-.12.48-.13.06-.18.24-.23.44-.26.06-.23-.05-.22,0-.35a1.62,1.62,0,0,0,1-.66c-.05,0-.12,0-.13,0,.15,0,.5-.17.4-.26.06,0,.16,0,.17,0,.73-1.15,1.89-1.93,2.64-3,0,.06-.07.07-.09.13.67-.73,2,.65,2.77-.17-.11,0-.2.06-.26,0,1-.11.48-1.32.79-1.84.65.33,1.56,1.07,2.46.61,0-.06-.17,0-.18-.09.2,0,.26-.12.44-.13.11-.32.12-.85.27-1a6.54,6.54,0,0,0,2.33.18c.43,0,.85.11,1.27.13,2.31.07,4.58-.7,7-.66,0,0,0-.09.05-.09s0,.1,0,.09c1.4-.43,3.43-.28,4.62-1.06a.68.68,0,0,1-.4,0,1.47,1.47,0,0,0,1.28-1.18s-.05,0-.05-.09a13.89,13.89,0,0,0-2.06-.4c-.16,0-.29-.17-.44-.22-.39-.11-.83,0-1.23-.13-.1,0-.18-.15-.27-.18s-.43,0-.66,0a18.72,18.72,0,0,0-3.29-.7,4.86,4.86,0,0,1-1.37-.05c-.1,0-.05.13-.13.14v-.18a20.85,20.85,0,0,0-2.55-.09c-.75.12-1.1.78-1.41.44a5.8,5.8,0,0,0,0-1.71c-.1,0-.24,0-.22-.27-1-.38-1.66.48-2.2,1.06,0,0,0-.05-.09,0a2.9,2.9,0,0,0-.44.7c-.27,0-.2.29-.3.44-.45-.34.18-1.09,0-1.58,0,0,0,.12-.05.13.08-1.34-1.05-1.73-1.76-1.14,0,0,0,.1,0,.13s-.36.18-.31.39c-.17-.07-.23.28-.26.49a1.38,1.38,0,0,0-.48,1.54.2.2,0,0,1-.14-.05c0,.35-.41.36-.61.53-.27-.47.22-.66.35-1,0,0,0-.45.13-.44-.06-.09,0-.49.05-.35,0-.18-.11-.63,0-.48,0-.43-.12-.82-.18-1.23-.21-.06-.15-.19-.35-.4a3.71,3.71,0,0,0-2.11.75c-.13.36-.21.33-.48.22.09-.15,0,0,0-.09.2-.2-.1-.72,0-.92a3,3,0,0,1-.4-.31,3.56,3.56,0,0,0-3.38,1.49,24,24,0,0,1-1.8,1.63c-.18.16-.34.32-.53.27.16,0,.08-.1.22-.14-.11-.08-.15.12-.31,0a1.11,1.11,0,0,1,.4-1c-.24-.09-.25.28-.4.13.35-.22.75-.72.66-1.1a5.93,5.93,0,0,0,1.06-2.42c0-.06-.08,0-.09-.09-.16-2-2.4-.43-2.95.22,0,0,.07-.06,0-.08a2.79,2.79,0,0,1-.75.83c0,.14-.05.2-.17.27a1.85,1.85,0,0,0-.62.35c-.1.11-.14.28-.26.39-.39.39-.84.71-1.14,1,0-.18-.14-.09-.22-.26.09-.19.09-.55.17-.7-.11.11-.2.47-.35.39a6.51,6.51,0,0,0,1.19-3.82s0,0,0,0c-.07-.16-.19-.17-.26-.39-1.83-.3-2.81.91-3.56,2,0-.21.18-.37.13-.48-.11.14,0-.05-.09,0,0,.21-.11.2-.35,0,0-.28.11-.22,0-.44-.12.1-.1.34-.22.44a5,5,0,0,0,.57-1.89c-.19-.1-.08-.47-.26-.66a2.39,2.39,0,0,0-2.6.79,8.83,8.83,0,0,0-2.72,2.42c-.63.62-1.55,1-1.94,1.62.1-.17.22-.3.22-.39-.06.07-.25,0-.09.17-.07,0-.23-.07-.13-.17-.08,0-.1.05-.17,0,0-.17,0-.27-.05-.39,0,.05,0,.1-.09.08a.12.12,0,0,1,.22-.08c0-.43.17,0,.09-.31a1.62,1.62,0,0,0,.71-1.06.33.33,0,0,0,.26-.44c-.15,0-.16.24-.22.14a9.69,9.69,0,0,1,.92-1.19c.21-.79,1.06-1.41.93-2.11.27-.16-.09-.39,0-.93-.23,0-.21-.32-.36-.43h-1c-.28.29-1,.37-1.06.65-.05,0-.06,0-.13,0-.26.5-.91.6-1.23,1,0,0,.1,0,.09,0-.51.08-.61.75-.93.88,0,.08.13.18,0,.22s0-.12,0-.13a7.28,7.28,0,0,0-.48.79s-.09,0-.14,0-.07.24-.13.31-.07-.06-.09-.05a4.4,4.4,0,0,1-.35.44c-.25.21-.82.45-.75.71a2,2,0,0,0-.63.59s0,0,0,0c-.31.19-.65.73-1.14.62-.33-.08-.32-.43-.39-.69l0,0c-.14-.32.09-.63,0-.84.13-.17.48-.19.22-.39.31.13.18-.31.4-.27a1.29,1.29,0,0,1,.35-.7,1.77,1.77,0,0,0,.26-.35c.21-.31.45-.21.22-.44.14,0,.06.14.18.13.08-.37.53-.73.44-.79.18-.07.13-.51.39-.48,0-.14-.07-.11-.09-.18a.3.3,0,0,1,.18,0c.1-.34.47-.58.44-.92.08.21.15-.22.18-.26s.13,0,.13,0a7.49,7.49,0,0,0,.44-1.19,3.12,3.12,0,0,0,.13-1.72c-.24,0-.13,0-.09-.13a.17.17,0,0,0-.13.05l-.13-.27a1.61,1.61,0,0,0-1.63.4c-.68.38-1.59.52-2,1.23-.32,0-.59.45-.84.56,0,0,.05-.06,0-.08-.21.22-.62.84-.75.71-.13.27-.58.37-.53.7-.37.15-.55.7-.8.86a.05.05,0,0,0,0-.07c-.09.11,0,.2-.05.27s0-.09,0-.09c-.09.46-.68.86-.53,1-.17.08,0,.09-.22.13-.37.86-1.18,1.14-1.41,2-.31,0-.31.46-.61.61a1.46,1.46,0,0,1-1.28-.13c0-.14,0-.5.14-.48a.1.1,0,0,1,0-.18c-.11-.23,0-.69-.18-.84h.18c.15-.45.46-.82.57-1.23.27.06.52-.62.48-.92.07,0,.08.05.14,0-.07-.27.26-.79.3-.7.06-.14.21-.26.05-.27,0-.09.07-.09.13,0,0-.14,0-.09,0-.18s-.08,0-.08,0,.09,0,.17-.09-.13-.24,0-.31c0,.32.15-.22.05-.3.33-.07.41-1.2.17-1.59a.17.17,0,0,1,.13.05c0-.43-.14-.62-.17-1.06-.07,0-.16,0-.18,0-.24-1.37-1.77-.45-2.06-.18.07.11-.09.35-.18.44,0-.12.18-.22,0-.31-.14.62-.74,1-.66,1.67a1.11,1.11,0,0,0-.92.75c0-.17.1-.23.13-.35a.46.46,0,0,0-.22.48c-.14-.09-.26.29-.39.22.12,0-.05.16-.05.22s-.09-.07-.17,0c0,.29-.49.51-.4.66-.28.36-.68.8-.66,1.1-.06,0,0-.08-.09-.09s0,.22,0,.27-.12,0-.13,0,.08.09.09.17c-.18,0-.37.44-.36.58-.08-.09-.33.18-.26.26h0s0-.08,0-.08a.2.2,0,0,1,0,.08h0a2.57,2.57,0,0,0-.48,1c0-.07-.06-.12-.09,0s-.09.7-.26.57a.1.1,0,0,0,0,.17,1.65,1.65,0,0,1-.84.14c-.06-.1,0-.24-.13-.09-.08-.49-.37-1.35.09-1.85,0,0,0,.1,0,.09.06-.17.06-.24,0-.26.1,0,0-.13.13-.14s-.13.14,0,.14c0-.21,0-.28.09-.4a.12.12,0,0,0,.09.13c.18-.25.28-1,.35-.61.08-.12-.06-.28.09-.18-.12-.12,0-.26,0-.35s.05,0,.09,0-.2.22,0,.22c.11-.46,0-.41.35-.75-.11,0-.2-.14-.05-.17-.06.07,0,.1.09.08-.07-.1.19-.26,0-.31a5,5,0,0,0,.75-2.11c-.07-.25.07-1.08-.35-1.31,0-.06.07,0,.08-.09-.18-.1-.18-.12-.21-.35-.23,0-.36-.17-.58-.22-.92-.22-1.35.28-1.84.57-.19.35-.27.81-.62,1v.39a6.62,6.62,0,0,0-1.8,2.47c0-.05-.07-.11-.09-.05s.05.1.09.13-.23.36-.18.44c-.12-.06-.32.33-.22.49-.15-.16-.14.38-.26.13-.09.06.09.23-.09.26,0,0,.07-.06,0-.08-.11.25-.14.53-.44.7,0,.08,0,.14.05.17-.38.16-.44.74-.71,1.06.09,0,0,.31-.09.18.16.94-1.88.75-2.46.44.19.06,0-.23.13-.22s0,.12.05.13c.05-.26.21-1.07,0-.79-.05-.14.15-.23.05-.27-.47-.57-.05-1.41-.09-2.2a4.11,4.11,0,0,1,0-1.71s0,.09,0,.09c.07-.17-.11-.09-.13-.18s.05-.13.13-.13-.06.11,0,.13a7.69,7.69,0,0,1,.66-1.89c-.11-.06,0-.41.09-.26-.05-.28,0-1,.13-.84.06-.19-.2-.29,0-.44,0,.37.11-.28,0-.31s0,.11-.09.09a.91.91,0,0,0-.3-.77s.07.11,0,.11c-.06-.19-.22-.28-.26-.48-1-.35-1.6.52-2.11.75-.11.14,0,.22-.13.3s.06-.06,0-.08c0,.25-.34.29-.44.44s.05.12,0,.13-.08-.05-.13,0c-.23.21-.21.52-.4.79,0,0-.09,0-.13,0a3.23,3.23,0,0,0-.53,1.14c-.14.5-.15,1.08-.31,1.54,0,0,0-.11,0-.09-.18.28-.19,1.29-.39,1.28,0,.39-.19,1-.18,1.49-.13.11-.5.14-.53.62-.56.24-.28,2.08-.26,2.46a13,13,0,0,1-2.6.66,14.57,14.57,0,0,1-3,.75c.25-.17.26-.82.26-1.1,0,.07,0,.16,0,.17a.43.43,0,0,1,0-.17.5.5,0,0,0,.09-.44c.17.13,0-.12,0-.13.11-.56.41-1.26.61-1.89a17.57,17.57,0,0,1,1.28-3.21c.11-.34.56-1.15.79-1.76.1-.28.56-1.07.7-1.36s.26-.79.4-1c0,0,.19-.05.22-.08a12.28,12.28,0,0,0,.52-1.19c.06,0,.07.06.14,0,.26-.32.33-.81.57-1.14.07-.1.23-.12.31-.22.23-.3.27-.69.48-1,0,0,.11,0,.13,0,.25-.19.55-1.07.62-1.14s.11,0,.13,0,0-.12,0-.18.32-.33.44-.52.15-.28.22-.4,0,0,.13-.13.18-.49.35-.79.28-.31.31-.49c.06,0,.07.08.13.09,0-.19.1-.3,0-.35a.26.26,0,0,0,.13-.35c.12,0,.09-.08.18,0a1.47,1.47,0,0,1,.35-.79c0,.08-.17.27-.09.3.29-.58.37-.84.66-1.4a1,1,0,0,1-.18.44c.23.11.08-.1.13-.18s.39-.24.31-.39c0,0,0,.08,0,.08.11-.36.4-.45.48-.7.22.08.4-.26.62-.31a4.34,4.34,0,0,0,.44,2.29c.49.41,1.18.29,1.67.61.25.17.4.61.7.93s.58.41.79.61c.52.5.84,1,1.59,1.28a2.28,2.28,0,0,0,1.18.92.62.62,0,0,0,.53.27,3.09,3.09,0,0,0,2.77,0c-.11,0-.15.06-.22,0a1,1,0,0,1,.4-.05c.38-.43.19-1.53.17-1.8,0,.05,0,.12,0,.13-.17-.45-.25-1.4-.62-1.36,0-.08.13-.15,0-.18-.36-.26-.46-.76-.83-1.1,0,0,0,.11-.05.09-.21-.13-.29-.49-.52-.7,0,0-.14,0-.18,0-.22-.14-.32-.44-.62-.49,0-.13,0-.16,0-.26s-.16,0-.26,0c-.05-.43-.48-.53-.66-.71-.42-.39-.34-1.13-.53-1.54-.05.13.07.31,0,.31,0-.38-.26-.59-.35-.92a3.66,3.66,0,0,1,1.14-.22c.72.45.86,1.43,1.45,2,.24.24.58.3.79.57.05.06,0,.16.09.22.39.42.86.75,1.23,1.14.14.15.21.37.35.53.41.45,1.18.71,1.63,1.15.23.22.7.6,1,.48-.1.17.25.13.49.22.83.31,2.21.66,2.81-.18-.19-.16,0,0,0,0a3.3,3.3,0,0,0,.31-.35,2,2,0,0,0-.09-1.49c-.06,0-.09,0-.13,0,.12-.15,0-.3-.13-.4,0,.11.15.19,0,.22-.1-.42-.48-.6-.7-.87,0,0,.09,0,.09,0,0-.27-.56-.47-.75-.88,0,.08.07.11,0,.13-.12-.36-.4-.37-.48-.7-.24,0,.13.13,0,.17a1,1,0,0,0-.66-.57c0-.06.06-.07,0-.13-.35,0-.25-.42-.61-.39.1-.06-.09-.25-.13-.19s0,0,0,0h0c-.25-.23-.75-.42-.93-.61.33-.53.22-1.45.75-1.67a3.57,3.57,0,0,1,.84.93c-.05.21.16.16.13.35a18.5,18.5,0,0,1,3.16,4.39,1.1,1.1,0,0,1,.27.14c.11.09.17.29.3.39a4.72,4.72,0,0,0,2.73,1.1,2,2,0,0,0,1.23-.44c-.19-.1.14-.09,0-.31.76-.38.6-1.68.13-2.28-.11.08-.11-.26-.13-.31s0,.09,0,.09c-.06-.17,0-.14,0-.18-.43-.25-.43-.74-.64-1l0,.05c-.05,0-.05,0-.06-.07a.21.21,0,0,0-.08-.06c.05,0,.07,0,.08.06l0,0a3.52,3.52,0,0,1-.59-1,4.52,4.52,0,0,1-1.06-1.27c-.37-.11-.43-.91-.39-1.58,1.05-.2,1.65,1.18,2,1.84.12.22.15.47.27.66.22.37.58.59.74,1s.18.6.31.92c.88,1.11,1.93,2.48,4,2.11.09-.19.47-.32.44-.48a.21.21,0,0,1-.13.13c.14-.21-.32.08-.35,0a1,1,0,0,0,.7-1.5c.08-.1,0-.27,0-.39a5.28,5.28,0,0,0-.79-1.89c0-.06.08,0,.09-.09a7.67,7.67,0,0,1-.75-.93s0,.09,0,.09c.08-.18,0-.28-.05-.13,0-.13,0-.4-.13-.26,0,0-.13-.16-.06-.21-.13-.17-.23-.43-.38-.45.07-.16-.16-.62,0-.79,0,0,0,.12.05.13a.46.46,0,0,1,.61-.31,10.69,10.69,0,0,1,1.19,1.14,2.6,2.6,0,0,1,.57,1c.94,1.06,1.54,3,3.39,3.26a2.18,2.18,0,0,0,1.85-.53c-.2,0,0-.06,0-.09-.23-.17-.32.23-.62.13a3,3,0,0,0,.75-.52c0,.11-.13.16-.18.26.18,0,.15-.2.31-.22s-.19.15-.05.22c.1-.18.13-.09.14,0,0-.1.18,0,.26,0,.83.44,2.06,1.28,3.08.74-.06-.07-.26,0-.27-.13,1.14.07.52-1.17,1-1.58,1,.1,1.12,1.13,1.85,1.41a1.28,1.28,0,0,0,1.41-.27c-.26-.07-.22.1-.4,0,1.49-.09.62-2,.79-2.68,0-.06-.08,0-.09-.09s.12-.29,0-.35,0-.33-.09-.49c.12,0,.14-.13.27-.13.85.3.83,1.06,1.41,1.85.12.17.29.27.39.44.44.69,1.07,1.63,1.76,1.1,0,0-.05,0,0-.09h.26a4.16,4.16,0,0,0,.75-1.41,10,10,0,0,0-.05-1.76c.1,0,.25.09.44.09a7.75,7.75,0,0,1,1,1.36c.72.95,3,1.86,3.83,1.24-.18,0-.35.11-.44-.05a1,1,0,0,0,.84-1.41c-.1-.21-.44-.63-.4-.88-.16.22,0-.14-.22,0-.09-.4-.13-.24-.31-.65.06.11.22-.05.22,0s.27.3.27.57c.22,0-.12-.18,0-.22,0,.27.26.32.44.48a3.22,3.22,0,0,0,1.58.88c.66.1,1.48,0,1.63-.44-.08,0-.22.13-.27,0,1.26-.38.18-1.55,0-2.41.05,0,.06,0,.09-.05a11.78,11.78,0,0,0,2.2,1c.53.08,1.4,0,1.37-.37,0,.06-.21.07-.31,0a2.7,2.7,0,0,0,.83-.48,2.6,2.6,0,0,0-.61-2c.45.09,1.87.9,2.68.22-.07,0-.23,0-.22,0,.43-.13,1-.42,1-.88a1.41,1.41,0,0,0-.32-.76h0c-.12-.22-.22-.21-.13-.48a2.5,2.5,0,0,0,1.89-.49c.06.2.11-.07.3,0,1.93-1,4.18-1.24,6.56-1.71A22.83,22.83,0,0,1,409,149a16.68,16.68,0,0,0,2.73-.22c.16-.07.7-.15.83-.4-.11,0-.17.08-.17-.09C412.61,148.18,413,148.07,413,147.79Zm-60.63-16.58c-.15-.07-.15-.28-.36-.3C352.07,130.75,352.33,131.08,352.38,131.21Zm-6,1.1c.16,0,.17.1.31.09-.06.13-.15-.08-.26,0,0,0,.29.24.3,0,.05.19.44.36.49.4.26.19.5.39.83.66-.5-.26-1.11-.76-1.71-1.08C346.34,132.39,346.35,132.37,346.35,132.31Zm-3.43-21.76s.12,0,.13-.09-.19.08,0,.18.07-.16.18-.18a4.4,4.4,0,0,1,1.84,1.1,1.3,1.3,0,0,0-1.36.09,2.15,2.15,0,0,0-.88-.44C342.91,111.07,342.88,110.8,342.92,110.55Zm-24.36-75.8c-.34.39-1.16-.12-1.4-.22C317.47,34.54,318,34.69,318.56,34.75Zm-1.09,4.35a11.81,11.81,0,0,1,3.07.58C319.53,40.09,318.47,39.25,317.47,39.1Zm5.45,18.51c-.61-.17-1.35-.9-2.2-.61,0,0,0,0,0,0s.05,0,.08,0a3.05,3.05,0,0,0-1.49-.75c-.76-.81-2.14-1-2.68-2,.61.15,1.19.5,1.89.7s1.52.12,2,.49c1.1.26,2,1.07,3.17,1.36a5.76,5.76,0,0,1,1.58.44C324.19,57.05,323.88,57.89,322.92,57.61ZM316,112.09c0,.06-.13,0-.13.09s.15-.06.13.13c-.14-.06-.5.25-.53.17-.28-.07.05,0,.22-.13,0-.06,0-.16-.17-.17a7.53,7.53,0,0,0-.05-1.23c-.09,0,0,.15,0,.22s.09-.58,0-.8c.21-.12.33-.34.57-.44C317,110.28,315.79,111.38,316,112.09Zm17.06,10c-.06,0-.07-.07-.13-.08s.05.09,0,.17c-.05-.11-.34.21-.13.22-.11,0-.27.07-.18.26-.14-.05-.32.09-.22.14-.29.25-.8.44-1.18.79-.25-.13-.3.19-.49.26,0-.06.08-.07.09-.13a.76.76,0,0,0-.39.31c-.24-.23.08-.6.26-.84s.36-.37.4-.61c.29,0,.5-.63.74-.66v-.18c.55-.25.57-1,1.41-1A2,2,0,0,1,333,122.11Zm4.79-4c-.12-.17.08-.19.05-.35a.42.42,0,0,0-.14.44c-.16,0-.13-.25,0-.31a.25.25,0,0,1-.13,0,3.87,3.87,0,0,0-.27-.92c0-.06-.08,0-.13,0-.21-.2-.22-1.07-.39-.87-.06-.08,0-.25,0-.4,0,0,0,.1-.13.09-.12-.24-.25-.64-.53-.57-.24-.61-1.65-.68-1.76.08-.14-.26-.2.27-.26.44a2.06,2.06,0,0,0-.17,1.15c.18.83.42,1.23.08,1.71,0,0,.21.08,0,.09,0,0,0,0,0,0a3.72,3.72,0,0,1-.26-.83c-.06,0,0,.08,0,.13s-.14-.32,0-.26c-.29-.37-.18-1.14-.44-1.54.16.3,0-.23,0-.4-.06,0,0,.08,0,.13,0-.24-.13-.33,0-.57a9.61,9.61,0,0,0-.79-1.67c-.08-.09-.12,0-.18-.13s-.2-.46-.44-.4c-.54-.65-1.55.13-1.89.62,0,.06,0,.12,0,.13s-.17,0-.13.27c0,0-.08,0-.09-.09-.12.23-.6.31-.65.35a6.66,6.66,0,0,1-.4-1.28c-.35-.82-1-1.49-1.89-.88-.08.06-.09.2-.26.22,0,.06,0,.08,0,.09-.24.33-.54.47-.62,1-.47.11-.34.88-.7,1,0,.06.11,0,.18,0a2.52,2.52,0,0,0-.66,1.59c-.07-.06-.17-.07-.14.09-.24,0-.21-.38-.39-.49,0,0,.09,0,.09-.09s-.11-.16-.09-.3c-.15.52-.1-.49-.18-.71.18.19.09-1,0-1.32,0,0,0,.06,0,.09a1,1,0,0,0,0-.7c0-.26-.09-.24-.08-.53-.41-.71-.49-1.24-1.24-1.54A1.75,1.75,0,0,0,321.2,112c-.06-.06-.16-.06-.17,0s0,0,0,0,0,.23-.13.13c0,.07,0,.08.09.09a1.76,1.76,0,0,0-.75,1.49h-.22c0-.68-.16-2-.22-3,.41-.79,1.26-1.15,1.76-1.84a.29.29,0,0,0,.17,0,1.77,1.77,0,0,0,1.72,1.36,2.43,2.43,0,0,0,1.8-1.27c-.15.15,0,0,0-.13s0,0,0,.08,0-.14.13-.13c-.16,0-.13-.09,0-.17.05.25.37-.74.57-.71,0-.14,0-.27.14-.17-.06-.22.27-.32.52-.36a10.09,10.09,0,0,0,.13,2c.33.8,1.82,1.12,2.29.35.12.11.26-.11.35-.3.29-.1.52-.25.79-.35s.78.41,1.19.52a2.08,2.08,0,0,0,2.2-.66c.19.06.09-.17.26-.13-.08-.14.17-.47.31-.39,0-.1-.12-.15,0-.22s0,0,0,.07c.44-.34.31-.67.69-1-.05-.15,0,.12-.13,0,.23-.17.29-.58.79-.58,1.17,1.94,1.14,4.67,1.8,7.17.05,0,0,.16.13.13-.06,0,0,.26,0,.31h0a11.74,11.74,0,0,1,.27,1.54c0,.25.23.62,0,.57.06.11.16.3,0,.31,0,0,.08,0,.13,0C337.87,117.13,338,117.57,337.82,118.07Zm-55,6.89c-.41.1-1,.3-1.24.12a13.28,13.28,0,0,1,1.56-.45c.06-.08.15.26.14.07C283.42,124.93,282.75,125.1,282.81,125Zm101.05,66.18c-.06.13-.31.08-.49.09,0-.07,0-.17,0-.18C383.5,191,383.65,191.2,383.86,191.14ZM370,187.93h-.22c0,.15.22,0,.3.13s-.07.24-.17.14.13,0,.13-.09-.19,0-.26-.05-.06-.09-.05-.17C369.91,187.92,370,187.68,370,187.93Zm-.71,5.15c.41,0,.86-.18.93-.4s-.16,0-.22,0c.52-.12.73-.93.74-1.37,0-.11-.24,0-.17-.13h.17v-.53c-.07.17-.11,0-.17-.13s.07,0,.13.05c0-.14-.1-.08-.18-.09-.14-.22.22-.23.05-.44.13-.11.27.16.26.35,0,0,0,0,.05-.09.28.21.22.67.44,1a7.3,7.3,0,0,0,.92,1.06s0,.07,0,.09c.57.63,1.76,1.28,2.55.66,0,0,0,0,0,0s-.07-.13.13-.09c-.11-.09-.2-.06-.35,0a1.12,1.12,0,0,0,.66-.53.14.14,0,0,0,0-.06c-.05,0,.05-.14,0,0l0,0,.22-.27c.7,0,1.08.89,2,1,.25,0,.77.12,1-.13,0,0,0-.11,0-.13s.27.08.17-.18a.19.19,0,0,0,.13.05c-.15-.09,0-.12.09-.05s-.05-.07,0-.08c-.2-.12-.24.31-.57.22.36-.09.51-.44.74-.58-.12,0,0-.14,0-.22.15.2.05-.05.17.05,0-.08,0-.09,0-.18.06.06.09.14.09,0a1.14,1.14,0,0,1,.48.09c.06.16.13.54.26.48,0,.14.12.34-.17.31V193c-.4.06-.55.39-1,.44a10.54,10.54,0,0,0-1.93,1.14,4.2,4.2,0,0,0-2.42,1.06c-.77-.07-1.54.09-2.11.08-.05,0,0,0,0,0-.2.09-.35-.1-.62,0,0-.06,0-.13,0-.13.16.08.29-.74,0-.66.27-.14-.09-.41.09-.53,0-.05,0,0,0,0s-.14-.3-.27-.4a.66.66,0,0,0-.26-.57c-1.06-.07-1.44.71-1.85,1.14.06-.17-.31-.2-.17-.57-.08,0,0,.15-.09.18C369.31,194,369.14,193.32,369.3,193.08Zm-.79-10h0c.17-.13.31-.28.48-.39a.87.87,0,0,1-.48.39h-.09A0,0,0,0,1,368.51,183.1ZM365,190.53a20.37,20.37,0,0,0-.26-2.16c0-.1-.07,0-.13,0,.15-.11,0-.48-.09-.66.1,0,.1,0,.18,0,.43,0,.94,1,1,1.76a16.29,16.29,0,0,0,2.38,3.12c.09-.1.12,0,.26,0-.05.1-.15,0-.22,0a1.91,1.91,0,0,0-1,.75,7.88,7.88,0,0,0-1.14,1.1c-.17.26-.15.56-.4.75-.08-.17.16-.13.13-.36-.26.09-.23.47-.52.44s-.08-.18-.31-.22c.09-.1.07-.39.17-.74-.24.05,0,.16-.35.13.62-.43.83-1.9-.17-2.07C365.39,192,365,191.24,365,190.53Zm-5-.18c.08,0,.22.12.3-.09.1.13.34.11.49.18a5.56,5.56,0,0,0,2.15,2.33c-.32.16-.37.6-.79.66,0,0,0,.08.09.09-.39.18-.43.58-1,.61a.22.22,0,0,0,0-.13c-.26,0-.14.33-.35.35a3.13,3.13,0,0,0-.05-2.37c-.23-.33-1-.32-1.36-.14A2.42,2.42,0,0,0,360,190.35ZM354.18,185c0,.12-.06.26-.05.39,0,.37.31.66.4,1.06s0,.88.26,1.1c.34,1,.46,2.28,1.23,3a11.78,11.78,0,0,0,.84,1.53,10.39,10.39,0,0,0,1.23.8c0,.16-.09.16-.09.3-.13-.06.08-.15.05-.26-.23.3-.38.59-.57.84,0,0-.06-.08-.05-.09s0,.09,0,.17,0,.07-.13.22-.06-.08,0-.09-.13.38-.27.58-.16.06-.17.08.1.23-.09.14c0,.15,0,.1,0,.26a.55.55,0,0,0-.26.53,2.8,2.8,0,0,0-.45.52v0c-.05.29-.59.43-.61.86a0,0,0,0,1,0-.05.83.83,0,0,0-.32.67c-.06-.15-.26.05-.35.13-.06-.08-.12-.1-.18,0s-.35-.61-.08-.84c0-.05-.08,0-.14,0,.26-.25.18-.71.36-1.1,0,0,.11,0,.13,0s-.12-.12-.09-.26.07,0,.13,0c-.08-.24.27-.47.13-.84a4.13,4.13,0,0,0,.27-2.59c-.28-.58-.67-.78-1.63-.53.11-1-.11-1.91,0-2.68,0-1.9-.92-3.11-.92-4.66C353.33,183.24,354.09,184.14,354.18,185Zm-3.65,8.17c.38-.08.68.37.75.31-.08.6-.7,1-.62,1.94-.18-.07,0,.22-.13.22.15,0-.1.3-.13.48.37-.69.08.26-.27.31a.69.69,0,0,0-.13.35c-.09.08-.09,0-.17,0s0,0,0,0a1.09,1.09,0,0,1-.13.49c-.13,0,.05-.11,0-.22a7.82,7.82,0,0,0-.44,1.1c-.13-.06-.33,0-.31-.36a.14.14,0,0,0-.09.14,3.89,3.89,0,0,1-.13-.75c.09.18.13-.07.13-.22,0,0-.11,0,0,0s0,0-.05-.05.07.07.14.05a6.26,6.26,0,0,1,.57-1.54c.13,0,0,.12,0,.18.29-.12.18-.16.31-.36,0,0-.14-.13-.13,0s0,0,0,0v-.09s0,.1.13.09c0-.34.33-.69.22-.88.17,0,.17-.48.13-.49A3.07,3.07,0,0,1,350.53,193.16Zm-6.86,3.13c.58-1,.49-3,.7-4.31.52-.22,1.66,0,1.85-.62,0,0-.07,0-.13,0s.07-.1.17-.08c.11-.19.27-.71.4-1,0,0,.07.06.09,0a.13.13,0,0,0-.09-.13c.06-.13.2,0,0-.17.05-.06.15-.06.18-.14-.17-.08,0-.16,0-.26s-.1-.05-.08-.13,0,0,.08,0c-.15-.7.08-.79-.13-1.49a.22.22,0,0,1-.13,0c.18-.09.07-.45-.09-.48.09-.13.08-.18.05-.35-.1.13-.08-.1-.14-.27a.26.26,0,0,1,0-.09.36.36,0,0,1,0,.09c.06.07.09-.13-.08-.13.07,0,.11-.12.08-.26-.06,0,0,.11,0,.17-.12-.17.06-.4,0-.66-.1,0,0,.19,0,.27s0-.34,0-.49c-.06.23-.15,0,0-.09a1.55,1.55,0,0,1-.22-1.09c-.12,0-.14-.45-.22-.66,0,0,0,0,0,.08s-.07-.2,0-.13c0-.08-.12-.11-.09-.26a.22.22,0,0,1-.13,0c0-.09.09-.06.09-.13s-.07,0-.13,0c.07-.5.08-1,.39-1.23.07-.06.25,0,.22-.14,1-.24,1,.74,1.32,1.54.22.62.71.91.84,1.32A29.4,29.4,0,0,0,350,191.4c.05.16.23.37.05.58-.31-.1-.11-.27-.31-.44-.64-.55-1.69.25-2.38.92-.25.25-.35.53-.61.62a1,1,0,0,1-.49.61c.13.08-.13.2,0,.26-.12,0-.12.27-.22.4s-.08,0-.17.13-.05.33-.13.49-.16.08-.18.13c-.14.33-.06.75-.35.79,0,0,0,.08.09.09-.31.17-.36,1.18-.75,1.27.09.08,0,.16,0,.27s0-.06,0-.09c-.38.49-.27,1.21-.66,1.67,0,.08.09.11.08.22s-.11.09-.22.09,0-.17,0-.18,0,.15,0,.22A5,5,0,0,1,343.67,196.29Zm-7.17,2.37c.11,0,0,.19,0,.22.13-.06.1-.28.14-.44-.06,0,0,.11-.05.18s0-.36.09-.22c0-.29.2-.59.09-.84,0-.06,0,0,.09,0s-.13-.33,0-.22c0-.07,0-.17,0-.18.27-.25,0-1.28.48-1.58-.09-.48.09-.22,0-.53,0,0,0,.09.09.09s0-.22.09-.35c-.19.21,0-.36.09-.22,0-.1,0-.14-.13-.13a4.52,4.52,0,0,0,.35-2.16c-.06-.31-.43-.55-.31-.88.11.1.48-.08.44-.13,1.27-.46.66-3.23.53-4.66,0-.07-.08,0-.09,0s0-.21-.09-.44h.13c0-.1-.15-.08-.13-.22.08.06.1,0,.09-.09s0-.11-.13-.13c.14-.14-.06-.14.09-.18,0-.07-.14,0-.09-.17.28.15-.14-.4.09-.4a3.46,3.46,0,0,1-.36-1.84c0,.12.08,0,.09-.08v0c.35-.72.07-1.53,1.19-1.41.55.07.84.65,1.1,1.32.19.5.49,1,.7,1.54s.36,1.34.62,2c0,.09.15.15.17.22.12.35.05.76.14,1.1s.5.85.57,1.28c.17-.11,0,.06.13,0-.25.09-.45.23-.7.31-.06,0,0,.11,0,.18-.56.14-.7.93-1.05,1.14.1.11,0,.25-.14.26.07.1,0,.35,0,.09a2.5,2.5,0,0,0-.22.62c-.14-.14-.14.35-.3.52,0,.08.1,0,.08,0,.16.08-.07.2-.13.09,0,.13,0,.08,0,.22-.15-.24,0,.35-.17.17-.11,1-.61,2.31-.75,3.26.18.22-.67,2.21-.79,3.25-.05.41,0,1-.22,1.06.11.69-.65.75-1.28.92-.18-.13.06-.68-.22-.7,0,0,0-.08.09-.09s-.18-.3-.09-.4A1.31,1.31,0,0,1,336.5,198.66Zm-13.36-53.24c-.23-.15.27-.31.22-.4s0,0,0,0,.08-.15.22-.13a5.21,5.21,0,0,1,1.36-1.58c.64-.54.88-1,1.81-1.1.46.37,0,1.21-.22,1.45s-.29.08-.4.17-.24.49-.26.27a4.6,4.6,0,0,1-1.72.83c-.24.18-.44.34-.74.27-.05,0-.05.1-.14.08s0,.06,0,.14-.11.06-.26.13c0-.08,0-.15-.09-.18S323.08,145.42,323.14,145.42ZM308.5,137c0-.11.2-.17.13-.17.56-.32,1.17-1.06,2-1.1,0,.12.09.11.18.13-.65.26-1.13.69-1.81.92,0-.09.09-.06.09-.13s-.17.13-.17.27c-.24,0-.29.12-.4.22s0-.2-.13-.18S308.51,136.9,308.5,137Zm-19.63-13.46c-.68.66-1.05,1.7-1.84,1.85a3.57,3.57,0,0,0,.31-1.72c.3-.31.21-.4.24-.65l0,0c0-.16.05-.18.11-.26s-.2-.22.1-.36c0-.22.05-.5,0-.9a1.84,1.84,0,0,0-.1-.42,6.07,6.07,0,0,1,.9.68,1.1,1.1,0,0,0,.58,1.46Zm.47,5.45c.37-.39.2-.76.29-1.21,0,0,.06.09.08.06a12.83,12.83,0,0,0,1.2-2,9.11,9.11,0,0,0,2,.09c0-.06,0-.11.09-.09a9.15,9.15,0,0,0-.85.91,4.8,4.8,0,0,0-.86.48C290.54,127.78,290.25,128.81,289.34,129Zm3.62,2.33c-.37.66-1.1,1.79-1.77,1.62.07,0,.06-.07,0-.1a12.79,12.79,0,0,0,2.27-3.83,5.8,5.8,0,0,0,1.86-.14,1.7,1.7,0,0,1,.88-.31c.11,0,.23-.17.39,0a5.06,5.06,0,0,0-1.49.95l-.07-.07C293.76,129.42,293.44,130.45,293,131.29Zm1.1,6.16c.41-.52.35-1.3.66-1.91s.88-1.09.87-1.72t.09,0c-.11-.32.25-.9.2-1.31-.11-.07-.08.13-.18.05s.09-.09.19-.11.12-.22,0-.19,0,.12-.06.08.1-.21-.07-.32h0a7.12,7.12,0,0,0,4.23-.72c0,.14.11.09.13.18s-.26.08-.09.17c-.06,0-.16,0-.17,0a7.17,7.17,0,0,1-1.15.75,2,2,0,0,0-1.89,1.19,14.29,14.29,0,0,0-1.36,2.74c-.05.1,0,.31-.1.46A1.46,1.46,0,0,1,294.06,137.45Zm3.77,9.06c-.11,0-.27,0-.41,0s-.52.19-.78.22c-.56.07-1.15-.22-1.55,0a2.17,2.17,0,0,0-1.4-.08c.08-.22.61-.3,1.06-.44s.64-.26,1-.36a12.33,12.33,0,0,1,3.23-.41C299,145.86,298.55,146.36,297.83,146.51Zm2.7-8.57c-.42,1-.9,2.13-1.16,3,0,0,0,0,0,0a3.76,3.76,0,0,0-.2.46s0-.09,0-.08c-.14.3-.77.63-1,.47.24-.56.23-1.32.45-1.94a.16.16,0,0,0-.1.1c0-.14.05-.28.12-.16a9.88,9.88,0,0,1,.48-1.42s.08,0,.1,0c.1-.26.07-.58.14-.83a5.83,5.83,0,0,0,.28-1,2.37,2.37,0,0,1,.13-.42c.06-.17-.05-.37,0-.51-.05,0-.1,0-.12,0,.2,0,.14,0,0-.08a8.42,8.42,0,0,0,.87,0c1.75-.13,3.18-1.24,4.67-1.49-.17.11-.05.23-.18.35,0-.1.12-.14,0-.13a2.3,2.3,0,0,1-.84.83c0,.11-.08.14,0,.22-.09-.07-.06,0-.18,0-.08.4-.39.58-.57.88-.06-.11.18-.14,0-.17s-.26.36-.09.35a1,1,0,0,0-.37.34l0,0C302.09,135.86,300.61,137.3,300.53,137.94Zm1.24,37.11c-.64.78-.87,1.77-1.67,2.37,0,.2-.07.34-.22.4.05,0-.16.38-.18.39-.26.21-.67.16-1,.4s-.36.59-.62.75c-.43,0-.31-.2-.44-.35a1.52,1.52,0,0,1-.26-1.23c0,.05,0,.31,0,.17,0-.93.79-2.12.75-2.94.2.06,0-.35.22-.4,0,0-.08.1,0,.13.05-.21.2-.32.26-.53-.07,0-.11.07-.13,0s.13-.27.31-.3c0-.11-.08-.1-.05-.22.35-.35.4-.88.66-1.32,0-.14.43-.74.35-.88a10.14,10.14,0,0,0,1-2.38c0-.05-.07,0-.09-.08.21.07.25-.2.15-.28a.08.08,0,0,1-.06,0,.06.06,0,0,1,.06,0,.22.22,0,0,1,.12,0,10.61,10.61,0,0,0,.44-5s0,.12-.05.13c-.12-.8-.69-1.23-1.4-.88s-1,1.4-1.32,1.76c.11.32-.23.56-.31.83-.1-.06.06-.1,0-.13,0,.12.08.49-.22.7.06-.17.14-.28.08-.44-.1.25-.15.78-.35.8.17.6-.53,1.32-.74,2.06-.33.14-.29.65-.58.84,0,.49-.41.78-.57,1.27-.06,0-.07.06-.13,0,.08.14-.08.42-.09.22a.88.88,0,0,1-.35.62c.08,0,.1,0,.09.13s-.21.29-.35.4a3.53,3.53,0,0,1-1.59.61c-.17-.15-.17-.7-.08-1,0,.07,0,.36,0,.22s-.07-.22,0-.39c.35-.14.09-.07.08-.35a.28.28,0,0,0,.22,0c-.05-.16,0-.34.09-.17-.13-.27.13-.14,0-.31.13,0,.26-.51.17-.7.19-.16.25-.84.49-1.19.11.11.68-.88.57-1a1.63,1.63,0,0,0,.39-.66,11.68,11.68,0,0,0,1.1-2.15s.15.13.14,0-.14-.14-.05-.13.07.1.09,0,.28-.51.09-.7a3.44,3.44,0,0,0,.44-1.19s-.09,0-.09,0c.3-.08.18-.58.39-.75-.16-.2.28-.72.05-.61a2.38,2.38,0,0,0,.17-.88,1.57,1.57,0,0,1,0-.16.6.6,0,0,0,.34.21c.82.85,1.88.76,2.89,1,.36.08.7.27,1,.3a10.55,10.55,0,0,0,3.58-.6,11.85,11.85,0,0,0,2.17-.52s0-.08,0-.1c.45,0,.62-.27,1.11-.35s1.39-.17,2-.29,1.06-.13,1.45.36a4.42,4.42,0,0,1-1.47,1.35c.06-.18-.15,0-.2-.09-.55.26-1,.08-1.54.39a9.67,9.67,0,0,0-4,.49,1.61,1.61,0,0,0-1.27,1.9c.05,0,.1,0,.12,0s-.06,0-.1,0c.68,1.55,2,1.78,3.13,2.16,1.86.25,4.26-.37,6.36-.81,1.06-.22,2.79-1.11,3.42-.16.06.06.18-.1.24,0-.34.31-.69.38-1,.65s-.36.73-.76,1a6.51,6.51,0,0,1-.69.38c-.34.2-.6.48-.92.7-.54.36-1.27.43-1.7,1-.11-.07-.28.08-.39,0a.25.25,0,0,1,0,.08c-.28.05-.93.21-1,.38-.08,0-.09,0-.18,0,.1.24-.56.18-.66.48-.23-.18-.16.16-.48,0,0,.08-.06.09-.05.18a5.21,5.21,0,0,0-1.5.82,3.06,3.06,0,0,0-.46.44.3.3,0,0,1-.13-.09c.39-.2,0-1.33-.27-1.63-.31,0-.44-.2-.83-.13a2.75,2.75,0,0,0-1,.7,3.72,3.72,0,0,0-.84.84,3.62,3.62,0,0,1-.13.4s-.12,0-.13,0,0,.41-.18.35c-.12.43-.51.8-.61,1.1a.29.29,0,0,0-.14,0c-.36.29-.42.78-.65,1.15C302.07,174.84,301.88,174.92,301.77,175.05Zm28.8,6.9a11.63,11.63,0,0,1,1.27.13c.76.42,1,1.32,1.85,1.67a4.24,4.24,0,0,1-.2,2.39l0,0h0v0c-.05,0,0,0,0,0v0a.08.08,0,0,1,0,0c-.05,0,0,.08-.09.08a.12.12,0,0,0,.13.09c-.19.12-.11-.07-.17-.13a7.66,7.66,0,0,0-.62-.48,1,1,0,0,1,0-.14c-.16-.18-.47-.29-.62-.57.09.3-.28-.31-.22-.31a5,5,0,0,1-.61-.88c.08.07-.15-.42-.05-.61-.06-.14-.18,0-.08-.22-.05,0,0,.05-.05.09s0-.29-.13-.4.1.13,0,.27C330.88,182.56,330.44,182.21,330.57,182ZM325,183.58a1.58,1.58,0,0,1,1-.22v.35a.13.13,0,0,0-.18,0c0,.07.06,0,.14,0s0,.33-.14.26c0,.7-.49,1.67.05,2.38.31.41,1.27.11,1.93.39s.34.82.88,1a2.27,2.27,0,0,0,.62.75,1.67,1.67,0,0,0,.88,1.23,5.16,5.16,0,0,0,2.94,2,3.24,3.24,0,0,0,1.28,0c.28-.08.53-.28.74-.35s.2-.21.4-.22c-.13.16.15,0,.31,0-1.35.44-2,2-2.6,3,0,.11-.37,1-.17.3a1.55,1.55,0,0,0-.57.88s.08.06.08,0a13.29,13.29,0,0,0-.7,1.36c-.06.23.1.47,0,.7.12.05.16.62.08.93-.19-.14-.31.1-.43.17a5.6,5.6,0,0,1-.4,3.52s.05,0,.09,0a3.32,3.32,0,0,1-2.51,1.1c.11-.21.14-.5.31-.66,0,0-.1,0-.09-.13.22-.27,0-.87.09-1.18,0,0-.06,0-.09,0,.21-.3.24-1.05.57-1.36-.21-.1.16-.33-.09-.4,0-.1.2,0,.14-.13.21,0-.12.13,0,.22.1-.19.14-.25.31-.61-.14.07-.18.23-.27.35-.07-.21.22-.45.36-.49,0-.06-.06,0-.14,0s.13-.34.22-.26a1,1,0,0,1,.36-.92c-.06-.12-.26,0-.18.13-.2-.07,0-.2,0-.31.13.21.37-.18.27-.31s.18,0,0-.09c.07-.09.13.05.18-.08s-.06,0-.13,0c.2-.16.24-.53.35-.66s-.06,0-.13,0,.07-.24.17-.13c0-.11-.08-.1,0-.22-.14.12-.15.51-.4.39a.55.55,0,0,0,.31-.53c.12,0,.11-.06.22,0s-.18-.08,0-.09c-.12-.18-.1.13-.22.09.13-.23.08-.51.35-.66,0-.1-.09.08-.13.09s0-.57.22-.66c0-.08-.12-.11-.09-.26a1.88,1.88,0,0,0-.17-1.68c0-.08-.15,0-.18-.08-.14-.41-.83-.48-1.19-.44-.86.09-1.47,1-1.93,1.45-.71,1.21-1.75,2.09-2.07,3.69-.08.08-.08,0-.22,0s.15,0,.18.09-.05.16-.09.22,0-.14,0-.22c-.28.12-.31.87-.22,1s-.11,0-.07-.07c-.29.21.05.54-.19.51.18.14-.2.29-.05.61-.17-.25,0,.38-.22.35.09,0,.14.25,0,.14,0,.2,0,.34-.09.48.22.07-.14.19.14.17-.49.32-1.41.39-1.28,1.19a.22.22,0,0,0-.13,0c0,.12.08.15,0,.09-.36.95.18,1.61.44,2.41,0,.06.08,0,.13,0a5.62,5.62,0,0,1-2.16.53,14.13,14.13,0,0,0-1.84.61,12,12,0,0,1-2.11.35c-.28,0-.56.13-.66-.17,0,0,0,.05,0,.08a12.06,12.06,0,0,1,.4-3.29c0-.07,0,0,0,0,.28-.87.4-1.9.62-2.84h.13c-.2-.06.11-.11-.05-.22a10.23,10.23,0,0,0,.49-2.37c.05-.23.31-.51.22-.75a.12.12,0,0,0,.13-.09c-.11.12-.13-.1,0,0-.05-.81.31-.92.22-1.63.31-.14.14-.76.49-.88.09-.82.6-1.7.66-2.33.18,0,.45-1.14.61-1.62,0,0,0,.08,0,.13s0-.15,0-.27,0,.06.05.09a17.08,17.08,0,0,0,.66-1.84c.33-.36.37-1,.75-1.45.16-.19.17-.72.26-.88s.26-.15.13-.36c0,0,0,.06.05.09.33-.21.42-.75.79-1A6,6,0,0,1,325,183.58Zm1.05-8.35c-.17-.16-.07.18-.08.22l-.14.08c-.18.34-.27.93-.48,1.15-.23,1.14-.84,2.82-1.1,4.17-.28.14-.09.71-.39,1.15.16,0,0,0,0,.13s.14-.18.17,0c-.39.32-.82.77-1.14,1a.91.91,0,0,0,0,.35c-.19,0-.35.22-.22.26-.32.13-.15.4-.4.44.05,0,.05.07.05.13-.15,0-.19.08-.27.13.11.08,0,.18,0,.05a.23.23,0,0,0,0,.17c-.18-.12-.42.54-.26.49-.12,0-.08.2-.18,0,.05.32-.22.34-.17.66-.06,0-.06-.06-.14,0-.08.74-.41,1.45-.52,2.11.15-.06.13-.36.17-.4s0,.52-.13.44a2.83,2.83,0,0,1-.35,1.1c0-.21.05-.23.09-.39-.21,0-.11.44-.27.35,0,.13.25.19.09.3,0-.1,0-.16-.09-.17s.09.15,0,.09c0,.15.18,0,.13.22-.25.28-.26,1.1-.53,1.18.1,0,0,.26,0,.31-.06-.12.14-.24,0-.22-.07.41-.18.45-.18.62s-.06.7-.35.88c.23,0,0,.15.13.3-.12,0-.09.08-.18,0a8.19,8.19,0,0,0-.48,1.76c-.15-.1,0,.05,0,.09s-.16.16-.18.22,0,.24,0,.35-.12.06-.13.09a5.92,5.92,0,0,0-.22.75,11.89,11.89,0,0,0-.31,1.58c-.25.07-.29.81-.39,1.28-.28,1.22-1,2.87-1.06,3.51-.15-.12-.12.21-.26.22,0,0,.19.12.08.13A24.87,24.87,0,0,1,313,199.1a1.51,1.51,0,0,0-.52-.48c-.49-1.08-1.77-1.75-2-3.26.62-.63,1.54-.92,1.86-1.69a.09.09,0,0,0,.07.11c.65-.47,1.59-.88,1.94-1.5a13.8,13.8,0,0,0,1.58-1.36c-.06-.16.24-.35.4-.44,0-.35.76-.69,1.05-1.19,0,0-.06,0,0,0a1.64,1.64,0,0,1,.39-.35c.19-.14.38-.52.62-.7s.5-.8.79-1.1c0,0,.11,0,.13,0s.1-.23.18-.31a4.38,4.38,0,0,0,1-1.06h.13c0-.08-.06-.08-.09-.13.25,0,.3-.49.35-.61s.09,0,.09,0c.06-.22-.05-.45,0-.7,0-.42.18-.93-.18-1.37-.05-.74-.87-.71-1.67-.7a3,3,0,0,0-1.72,1.32c-.55.59-1.33.95-1.89,1.54-.31.08-.44.34-.74.44a2.09,2.09,0,0,1-1.45,1.18c-.33.52-1,.93-1.1,1.5-.07,0-.08-.05-.14,0-.24.59-1,.68-1.18,1.32-.09,0-.1.05-.18,0a.17.17,0,0,0,.05.13c-.26.17-.1.24-.53.58-.15-.11-.36-.14-.49-.27-1.07-.16-1,.56-1.32,1.15,0-.06,0-.13,0-.14a7.23,7.23,0,0,1-.4.66c-.09,0-.38,0-.21.09,0-.08,0,0,.05.07-.12,0-.22.08-.23-.11.06,0,0,.07.09.08-.43-.86-1.52-1.16-1.23-2.28.15.05.21-.22.17-.22s-.1.24-.13.13.06-.2.13-.26-.1.12.09.08c.11-.26.35-.26.44-.7.1.06.11,0,.18,0s-.19-.16-.09-.18.05,0,.09,0,0,.12,0,.13-.06-.11,0-.22c.11.14,0-.32.26-.13.2-.5.22-1.15.48-1.28,0-.24.29-.32.22-.44.11-.14-.15.11-.13,0,.27-.11.42-.26.35-.53.33.06.09-.5.44-.39.06-.12,0-.15,0-.26s.08.06.17,0c.22-.42,1-1.25.93-1.54.25.08.06-.53.39-.53,0,0,.06-.32.18-.3,0,0-.06.07,0,.08.15-.35.05-.42.31-.61-.09-.36.65-.94.48-1.19a12.52,12.52,0,0,0,1.14-2.29c-.05,0-.1,0-.08-.08.1.1.09,0,.17-.09s-.06-.09-.09-.13a2.65,2.65,0,0,0,.18-2.38c-.05-.08-.19-.05-.22-.17-.11-.42-.82-.53-1.28-.36a5.5,5.5,0,0,0-1.18,1.06,8.27,8.27,0,0,0-.79,1.36,1.13,1.13,0,0,0-.4.62s0,0,0,0c-.22.07-.21.41-.35.57s-.08-.06-.09,0,.06.11.05.13-.18.07-.22.13-.13.41-.27.57-.21.09-.26.18a.55.55,0,0,0,0,.26c-.26,0-.28.45-.44.44,0,.34-.7.9-.78,1.26,0,0,0,0,0,0l0,.05a.06.06,0,0,0,0,0v0c-.33.46-.68,1-1,1.35a7.32,7.32,0,0,0-.74.86s0,0,0,0c-1.12.23-.94,1.16-1.72,1.54a3,3,0,0,1-.79-1.15s0,.1,0,.09c0-.63-.14-1.7.35-2-.12-.06-.07-.46,0-.26-.1-.35.11,0,0-.35.05,0,.05,0,.09,0-.14-.36.3-.69.09-1.14.21,0,.2-.27.22-.48s.4-.5.35-.75c.2-.14.36-.41.26-.53.08,0,.15,0,.18-.09-.27.09,0-.12,0-.09s-.05-.12,0-.13,0,.09,0,.09a2.38,2.38,0,0,0,.13-.57c.15,0-.11.16,0,.17,0-.21.23-.1.09-.26.19,0,.14-.24.31-.26-.14-.1-.13.08-.18,0a2,2,0,0,1,.57-.71c-.11,0-.13,0-.17,0s.07-.06.17,0c-.1-.14.11-.43.18-.26-.09-.22,0-.32.13-.27-.13-.25.31-.9.44-.92-.06,0-.05-.1-.09-.13a3,3,0,0,0,.66-1.45,2,2,0,0,0,.53-1.24,1.25,1.25,0,0,0,.09-.12l.1.17c.51.73,1.4.72,2.32.72.22,0,.26,0,.44,0a16.37,16.37,0,0,0,1.9-.25l.19,0a5.85,5.85,0,0,1,1.18,0c1,.13,2-1,2.86-1.36,0,0-.08,0-.1,0a36.69,36.69,0,0,0,3.21-2.2c.65-.46,1.79-1.25,2.08-.68.05,0,.11-.07.14,0,.16.34.64.34.87.78a.24.24,0,0,1,.2,0,4.19,4.19,0,0,0-1,1,1.41,1.41,0,0,1-.28.76c-1,1.22-2.7,2.19-3.78,3.45a4.91,4.91,0,0,0-.76,1.82.5.5,0,0,0,0,.71c-.23.08.15.35-.12.42.37,1.16,2.06,1.07,2.81.57a7.14,7.14,0,0,0,3.16-2.47c.45-.39.85-.85,1.34-1.23.93-.73,1.22-1.77,2.27-2.44a4.75,4.75,0,0,1,.85.18l0,.06c.09.12.16,0,.22.13A16.93,16.93,0,0,0,326.08,175.23Zm9.72-19.17c0,.08.07.1,0,.17s0-.1,0-.09a19.24,19.24,0,0,1-1.1,3c.08,0,0,.15.08.17-.13,0-.09.26-.26.27.18,0,0,.32-.09.17,0,.08.13.15,0,.18,0-.07-.06-.12-.09-.05.11.41-.44,1-.43,1.46,0,0-.08-.06-.09,0-.41.54-.79,1.94-1.32,2.38-.07.49-.76,1.19-.92,1.71-.09,0-.32.28-.18.31-.31.25-.44.85-.75,1.23,0,0,0-.09,0-.09.12.23-.16.37-.27.53,0,0,.11,0,.09,0s-.16.08-.22.13-.19.49-.39.66c0,0-.18,0-.09.09,0,0,.07-.1.09,0a3.11,3.11,0,0,0-.66,1.05c-.08-.12-.22.12-.13.14s0-.07.08-.09a1.15,1.15,0,0,1-.22.35c0-.11.19-.15,0-.22a10.28,10.28,0,0,1-.57,1c0-.11.22-.21.08-.31a23.19,23.19,0,0,0-1.14,2.37,1.47,1.47,0,0,1-.21,0c0-.08-.1-.15-.18-.14s.14-.09.06-.18c-.36.1-.71-.54-1.11-.65,0,.08.11.07.06.12s-.25-.59-.47-.59c0,0,.07.1,0,.13-.29-.4-.83-.57-1-.83-.17.09-.09-.08-.22,0,0-.14,0-.15,0,0-.05-.29-.53-.21-.84-.7a8.05,8.05,0,0,1,.54-1.49c-.12-.18-.1-.45.07-.44-.08-.08-.13-.14-.09-.25s0,.07.08.06a2.49,2.49,0,0,0-.19-1c.08-.29.36-.52.34-.84.07.14.23-.4.13-.42s0,.14-.06.08c.15-.23.42-.68.21-.81.25-.16.23-.51.31-.72s.14-.15.17-.24c.07-.26,0-.56.2-.82-.13-.14,0,0,0-.15s0-.09-.11-.2c.05,0,.08,0,.14,0s0-.2-.08-.2a.64.64,0,0,0,0,.07.09.09,0,0,1-.06.12s0-.09.06-.12a.06.06,0,0,1,0-.06h0a1.74,1.74,0,0,0,0-.6c0-.27.1-.65.07-.79s-.11,0-.11,0a1.51,1.51,0,0,1,0-.47,3.44,3.44,0,0,0-.37-1s0,.08,0,.1c-.08-.3-.44-.35-.62-.41a.31.31,0,0,1-.13-.14c-.57-.15-1.25.35-1.73,1a3.43,3.43,0,0,0-.73,2.34c-.18.25-.14.57-.37.8a9.62,9.62,0,0,1-1.33,3.43.18.18,0,0,0,.09-.1c.1.1-.28.22-.07.24,0,0,0-.06,0,0a.27.27,0,0,1-.17.14.43.43,0,0,0-.23-.23c0,.07.1.14.05.18-.14-.26-.38-.64-.48-.79.74-1.11,1.2-2.3,1.89-3.43.09,0,.19-.17.24-.28.12.1.06.21.19.15s-.12-.09.05-.08c-.07-.18-.13,0-.18-.06s.11,0,.22-.06c0-.3.06-.57,0-.87-.36-.19-.56-.85-.23-.88.2-.37.21-1,.38-1.41.11-.23.34-1,.06-.73a.79.79,0,0,0,0-.76,7.67,7.67,0,0,0-2.79,1.11,14.19,14.19,0,0,0-1.17,1c-.56.55-.69,1.26-1.11,1.55-.1.08-.49.28-.83.5-.52.35-.77.24-.88-.06-.12.16-.09-.26-.25-.27.07,0,.14-.46,0-.42a14.17,14.17,0,0,0,.82-1.7c.44-1.12,1.36-2.24,1.71-3.38a5.61,5.61,0,0,0,.49-1.77c-.06,0-.13.09-.17,0s.25,0,.23-.13c-.12,0,0-.13,0-.2l-.18-.05c.25,0,0-.1.16-.18s-.09.2,0,.18c0-.17.12-.56,0-.48a1.35,1.35,0,0,1,.12-.51c0-.25-.22-.39,0-.75a3.66,3.66,0,0,1-.18-.6s.08.06.08.05c-.11-.35-.37-.61-.22-.78a1.71,1.71,0,0,0-1-.79c-.36.13-.67.08-1,.27s-.46.76-.81,1c0,.1.1.06,0,.13-.36.67-1,1.26-1.33,2-.12.23-.11.53-.23.77-.28.56-.6,1-.91,1.55-.08,0-.11-.08-.2,0s.13.08.05.18a13.74,13.74,0,0,0-1.51.72c-.32-.15-.09-.15-.34-.52a16.33,16.33,0,0,0,.68-1.62c-.08-.1,0-.16-.05-.27.17-.09.13-.31.2-.46a14.93,14.93,0,0,0,1-2.14s0,0,0,0a9.87,9.87,0,0,0,.41-1.37s-.07-.09-.06-.12c.16-.57.35-.75.17-1.24.33-.54,0-1.37.15-2-.09-.19-.16-1-.46-1.11,0-.15.07-.25-.12-.33,0,0,0,.08,0,.1-.08-.13-.25-.15-.15-.27-.08.08-.25-.08-.18-.15s0,.07.08.05c-.23-.23-.67,0-.83-.14a5.09,5.09,0,0,0-1.87,1.81s.1,0,.1,0a6.87,6.87,0,0,0-1.18,2.24c.15-.05-.14.19,0,.14,0,0,0-.06,0,0a.24.24,0,0,1-.05.18s0-.09,0-.08c0,.26-.14.48-.15.73-.17-.3-.07.2-.07.24s-.12.07-.14.12,0,.19,0,.26a1.88,1.88,0,0,1-1.52,1.08c0-.08-.22-.37,0-.52a.59.59,0,0,1,.07-.59c.16-.3.06-.67.19-.75s-.18-.07-.08-.16c.17.06.13-.86.1-1,0,0,.1,0,.08,0,.21-.82,1.05-1.61,1-2.67l.12-.06c0-.09-.19-.07-.09-.15.12.18,0-.09.16-.09a20.84,20.84,0,0,1-.07-2.61.5.5,0,0,1-.06-.57c-.13,0-.2-.22,0-.14-.1-.25,0-.12-.16-.21.06-.09.11-.35-.07-.41,0,0,0,.06,0,0s0-.08.11-.06c-.1-.15,0-.26-.18-.25.17-.11-.09-.62-.18-.51-.05-.19,0-.08,0-.23s-.09-.05-.14-.07,0-.11,0-.18c-.43-.37-.73-.66-1.35-.37-.83.39-1.38,2-1.54,2.89a4.81,4.81,0,0,1-.28.76c-.07.23-.11.89-.18,1.14s-.15.24,0,.3c-.19.52-.61,1.54-1.52,1.53,0-.15.08-.22-.05-.18,0-.16,0-.18.1-.1,0-.12-.08-.23.07-.14-.12-.3.31-.59.11-.81.28-.19.19-.58.22-1,0,0,.05.07.08.05s0-.29-.12-.23c0-.13.14,0,.17-.14.13-.82,1-1.86.85-2.77.08,0,.12-.53.11-.74,0,.06-.14.07-.18,0s.05,0,0-.06.08.09.14.07a2.46,2.46,0,0,0,.09-.39c-.22,0,0,.31-.17.24s.15-.29.22-.32c-.09,0-.24,0-.12-.14,0,.08,0,.12.1.1-.11-.1,0-.13,0-.2s-.11.09-.17,0,.29-.41,0-.36a3.87,3.87,0,0,0,.05-.49,2.9,2.9,0,0,0,1.16.08c.78-.07,1.76-.57,2.19-.3a.54.54,0,0,0,.09.44c-.06,1.7,1.95,1.72,3.43,1.58s2.3-1.48,3.74-1.67c.23-.24.67-.26,1-.44.22.08.31.12.35.22s-.1.31-.18.53c0,0,.09,0,.09,0s-.23.14-.18.09,0,.14,0,.17-.18,0-.22.09,0,.19,0,.22-.31.11-.4.18-.12.23-.26.35-.48.19-.53.48c0,0,0-.08-.05-.08-.07.18-.15.21-.26.43,0,0,0-.05,0-.08-.45.23-.6.77-.87,1.18,0,0,0-.08,0-.08-.92,2.12,1.2,2.53,2.68,2.11a9.31,9.31,0,0,0,3.3-1.89,1.18,1.18,0,0,1,.66-.62c.12-.26.76-.38,1.06-.62,0,.09.14,0,.13.14s-.05.19-.05.3c-.23.13-1.09.74-1,.93-.11.05-.14,0-.18,0-.05.29-.58.55-1,.93,0,0,0-.09,0-.09s0,.05,0,.17c-.42.09-.59.45-.92.75,0-.06.17-.13,0-.18a1.4,1.4,0,0,1-.31.4c-.07.09-.18.32-.13.18a1.81,1.81,0,0,0-.57,1.71c.49,1.71,3.55.75,4.79.44.08.33-.14.56-.13.88,0,1.34,1.3,1.57,2.59,1.67a7.39,7.39,0,0,0,3.74-.79,4.66,4.66,0,0,1,1.5-1,4.19,4.19,0,0,1,.57-.62s.13,0,.17,0c.32-.21.81-.63,1.32-1s.93-.84,1.63-.58c.19.22,0,.59,0,.66a.26.26,0,0,1,.14-.13c-.18.1.06.17-.05.27,0-.16-.28.18-.22.26-.21,0-.18.2-.44.13-.44.62-1.34.8-2,1.23-1.18.39-2.45.77-2.85,1.5,0,0-.08-.11-.09,0,0,.31-.22.65-.22,1,0,.48.39.67.57,1.06a4.05,4.05,0,0,0,1.76.65,7.55,7.55,0,0,0,4.62-1.14c.05-.17.31-.24.3-.35.5-.45,1.35-.7,2-1.19.41-.31.72-.94,1.19-.92,0-.08-.07-.11,0-.13s.4.24.39.13c.17.18.31.81.05,1a31.67,31.67,0,0,1-.88,3.65s0,.35-.18.31A14.07,14.07,0,0,1,335.8,156.06Zm32.62,2.24c-.09-.07.05-.13-.08-.18s0,.17.05.21c-.18-.05-.19-.32-.27-.47s-.19-.34-.22-.4a3.54,3.54,0,0,0-.27-.44c-.06-.05-.11,0-.17,0a.56.56,0,0,0,0-.13c-.08-.1-.39-.36-.31-.57-.17,0-.16-.14-.27-.18.16-.25.05,0,.09-.31.07.06.26,0,.44,0a1.41,1.41,0,0,0,.79.62A3,3,0,0,1,368.42,158.3ZM287.6,122.9a.29.29,0,0,0,0,.09A.1.1,0,0,0,287.6,122.9Zm11.75,18,0,0S299.35,140.92,299.35,140.93Z"/></svg>
