<svg id="Layer_1" data-name="Layer 1" xmlns="http://www.w3.org/2000/svg" viewBox="0 0 816.86 315.72"><defs><style>.cls-1{fill:#072040;}</style></defs><title>Artboard 2</title><path class="cls-1" d="M342.45,161.87c-.18-1.48-.25-3-.56-4.44a38.6,38.6,0,0,0-1.48-4.17c-4.49-1.85-4.56-2.18-.21-6-3.17-.67-5.92-.47-5.62-5.68.19-3.32-4.24-7.19-7.13-10.33-3.17-3.45-7-6.29-10.45-9.52-2.16-2-4.1-4.32-6.14-6.49l.89-.87,23.89,11.3-4.58-10.27,1.43-.92c2.22,2.08,4.5,4.11,6.66,6.25,4.11,4.07,8.34,7.67,14.18,9.38,3.26,1,6,3.57,9,5.47.51.33,1.24,1.24,1.31,1.18,4.38-3.53,3.77,1.26,5.12,3.08l3.84-3.4c.87,2.84,1.55,5.07,2.2,7.17l2.57-4.09,1.49-.06,2.09,8.16,4.67-3.3c.5,1.78,1,3.56,1.28,4.6l11.16-1.33c-.24-4.88-.5-10.21-.77-15.54-3.53,1.58-6.37,3.78-9.24,3.82-2,0-4-3-6.2-4.82l-4.9.68c-.14-1-.27-2-.45-3.34-4.66,2.52-7-.69-10-3.9-2.61-2.78-6.62-4.23-10-6.35-2.93-1.86-5.71-4-8.71-5.71-3.76-2.18-7.66-4.11-11.51-6.15l-7.14-3.78c.18-.59.37-1.18.55-1.77l10.15,1.29-2.53-6.41,1.15-.83c2.49,2.06,5,4.06,7.47,6.18,2.64,2.3,5.33,2.77,9,2.33,4.51-.55,9.23.61,13.66,1.78,3.67-.08,7.35-.08,11-.27,4.15-.22,8.29-.62,12.95-1l-2.22-9.93c-3.27,4.66-6.14,2.7-9.24,1-1.07-.59-2.79.13-4.12-.16-6.15-1.33-12.05-3.11-18.59-3.36-4.89-.19-9.66-4.55-14.38-7.24-.93-.53-1.4-1.88-2.84-3.94a54.21,54.21,0,0,1,5.53,1.24c7.37,2.69,14.86,3.21,22.69,2.53,4.74-.4,9.62,1,14.45,1.45,1.18.12,2.94.25,3.45-.39.64-.82.27-2.43.37-4.36-2.64,1.24-4.78,4.14-6.49,0-.2-.49-2.73.11-4.17,0q-10.81-.95-21.61-2a3.62,3.62,0,0,1-1.71-1,10.42,10.42,0,0,1-1.26-2l30.81-2.27c.15-.66.29-1.31.44-2-8.4-2-16.86-3.8-21-11.89l.91-1.57,7.54,2.52c-5.51-9.53-5.38-13.77-1-14-.61-3.2-1.46-6.48-1.81-9.81-.71-6.79-1.35-13.6-1.64-20.43a111.18,111.18,0,0,1,.81-19.45c1.25,3.65,2.12,7.49,3.84,10.9,2.81,5.57,6.24,10.84,9.27,16.3a39.9,39.9,0,0,1,2,5.34l2.5-1.2,1.19.87L382,37.36l5.47-3.83,1.6,1.22-5.53,9,6.93-4.83,1.15.64c-.35,1.75-.7,3.51-1.08,5.4l3.81-1.25c.65,8.15-6.82,10.7-10.2,15.78.31.36.62.73.92,1.1l14-10.94c.51,5.34-2.26,8.14-4.64,10.75s-5.51,4.59-7.92,7.33c9.73-.71,11.53-11.09,18.73-16.1.14,13.27-10.53,18.83-17.36,26.77l.9.88c6.05-2.88,12.16-5.64,18.13-8.68,6.42-3.26,12.71-6.79,19.88-10.64-3.14,7.15-8.19,11.72-14.11,15.21-2.8,1.66-4.71,5-9.1,4.44-1.47-.19-3.35,3.44-5.19,5.16s-3.89,3.26-5.85,4.88l-1.24-1c.11,1.29.23,2.57.47,5.39,16.58-9.63,31.66-19.58,42.15-35.49l1.32,1a20.37,20.37,0,0,1-.88,3.33c-2.57,5.68-4.68,11.66-8,16.86-2.8,4.4-6.76,8.2-10.73,11.67a96.26,96.26,0,0,1-12.44,8.62,95.15,95.15,0,0,1-8.93,4.36c.27,1.45.74,4,1.16,6.28,4.33-2.42,8.76-4.51,12.72-7.27,2.27-1.59,3.59-4.49,5.69-6.42,3.9-3.57,8.21-6.71,12.06-10.34a46,46,0,0,0,5.95-7.41c1.81-2.61,3.3-5.45,4.93-8.18l1.49.66a76.08,76.08,0,0,1-1.87,7.39c-2.28,6.43-4,13.23-7.38,19-3.06,5.27-8.4,9.16-12,14.18-3.46,4.8-9.25,5.38-13.49,8.68-1.19.93-3.72.14-6.12.14l2.21,18.34,5.39-2.87c.41-2.31.84-4.8,1.28-7.29l1.72-.84,2.51,4.11,4.28-6.67c.94,2.59,1.46,4,2,5.37,3.24-3.93,3.23-3.68,11.88-3.59,2.74,0,5.51-1.69,8.78-2.78l.65.88c11.24-.23,20.85-3.94,28.31-12.58l.92,1.29c-.12.74,0,1.69-.39,2.17-5.19,6-9.93,12.51-15.93,17.55-3,2.52-8.33,2.16-12.55,3.32-2.58.7-5,1.84-7.57,2.71-2.24.78-4.56,1.35-6.78,2.21-4.63,1.78-9.16,3.88-13.86,5.44-1.51.5-3.52,0-5.15-.54a29.42,29.42,0,0,1-4.91-2.69c-1.5,8.62-2.92,16.83-4.17,24L406,158.2c.71,3.72,1.12,5.85,1.55,8.07l4.58-9.37,1.74.42c.21,2.17.42,4.33.65,6.64,1.51-2.52,3-5,4.48-7.53l1.56.39c.24,2.31.48,4.62.69,6.6l5.9-7.16,1.5.82c-.1,1.53-.2,3-.3,4.53l5.55-4.31c.17,2.23.28,3.54.32,4.06a48,48,0,0,0,7-.05c8.51-1.32,16.95-3.16,25.48-4.16,4.72-.55,9.59.17,14.39.32l.05,2.31c-1.64.25-3.27.6-4.91.75-5.45.51-10.57,1.38-14.9,5.46a24,24,0,0,1-9.66,5.73c-3.25.89-7-.09-10.89-.27-1.45,3.34-5.35,1.37-8.41,2.19-4.93,1.33-6.33-2.26-8.43-5.28.25,2.6.45,4.85.66,7.11l-4.74-.25c-1.74,3.78-8.22,4.54-14.47,1,.24,1.72.46,3.22.68,4.72-4,.81-4,.81-12.74-6.36-3,5.4-6.13,10.72-9,16.14a50.63,50.63,0,0,0-2.32,6.24c3.7.66,5.46-.55,6.46-3.86s2.67-6.29,4.06-9.43l1.94.52V195.1l1.31.44a54.15,54.15,0,0,1,3.81-5.91,25.66,25.66,0,0,1,4.23-3.39c-.05,1.94,0,3.88-.21,5.81-.07.73-.64,1.42-.36,2.6l6.93-8.76,1.74.55c-.52,3-1,6.08-1.64,9.61,4-2.91,5.55-8.77,12.53-8.73-1.74,3.44-3.17,6.24-4.59,9l.38.52,7.64-6.51,1.29.76-1.34,5c2-.68,4.39-2.08,6.75-2.07,1.72,0,3.44,1.85,5.87,3.29l4.21-2.51c-.19,2.29-.3,3.63-.46,5.6,3.43-3.46,6.79-1.73,10.46-.86,6.89,1.65,13.95,2.59,20.94,3.82.06.63.13,1.25.19,1.88-4.35.67-8.68,1.68-13.05,1.93-6.09.34-10.76,3.06-15.84,6.27-5.65,3.56-11,9-18.77,8.09-4.22,5.32-12,.49-16.41,5.73-.51.62-2.74-.2-4.17-.35l-.66,3.65c-1.38-.29-3.09-.16-4.09-.94-2.71-2.13-5.11-4.63-7.64-7l-1,.73a56,56,0,0,1,4.05,5.21,21.09,21.09,0,0,1,1.53,4.39c-1.63-.22-3.68.1-4.81-.77-3.11-2.39-5.83-5.28-8.71-8l-1.64.63c1.22,4.34,2.43,8.68,3.67,13.1-5.41-.42-10.16-6-10.93-13.79-1.68,2.37-3.27,3.64-3.53,5.13-.85,4.89-1.25,9.86-1.76,14.81a21.64,21.64,0,0,1-.91,5.68c-3.62-9.89,3.69-20.27-.11-29.22-5.45,1.2-9.8,2.4-14.23,3-1.45.19-3.11-1.19-4.68-1.85,1.34-.93,2.57-2.17,4.05-2.72,3.18-1.2,6.48-2.05,9.74-3-.06-.61-.12-1.21-.17-1.82a63.29,63.29,0,0,0-6.89.05c-2.78.31-5.51,1.26-8.28,1.4-1.17.06-2.41-1.22-3.62-1.89,1-.9,1.84-2.13,3-2.63,3-1.31,6.14-2.31,9.23-3.43-.19-.82-.38-1.65-.58-2.48a38.86,38.86,0,0,0-6,.84c-2.7.79-5.21,2.26-7.92,2.94-1.17.29-2.64-.68-4-1.07.74-1.14,1.23-2.65,2.26-3.36,3-2.08,6.25-3.84,9.4-5.73L350,197,343,198c-2.3.34-4.62,1-6.9.91-1.53-.07-3-1.25-4.5-1.93,1.14-1,2.12-2.45,3.46-3,3-1.22,6.27-2,9.33-4.16a80.2,80.2,0,0,1-9,.62c-1.74-.07-3.44-1.07-5.16-1.65a33.83,33.83,0,0,1,4.27-3.33c1.24-.7,2.8-.86,5.21-1.54-4.41-.63-7.86-.91-11.21-1.66-2-.45-4-1.55-2.08-4.23.28-.39.77-.9.68-1.23-1.17-4.53-1.19-4.53,3.54-5.65.14,0,.25-.21.37-.32-2.14-2.08-9,.63-6.86-6.52l-2.68-3.21,2.25-1.83c-1.64-2-4.52-4.06-5.23-6.68-2.52-9.35-9.46-15.91-14.08-23.9-.2-.35,0-.91,0-2.79,3.5,2.78,6.18,5,9,7.1,3.72,2.79,8.14,4.95,11.05,8.4,1.64,1.94,5,2.45,5.35,6.24.11,1.22,4.07,2.68,2.25,6.08l4.58-.65c-1,2.67-1.73,4.7-2.53,6.89l4.29-1.68.94.76c-1.21,2.48-2.41,5-4.14,8.5l7.33-5.7c-.14,2.1,0,4.32-.57,6.32-.47,1.64-1.83,3-2.8,4.53l1.17.93,5.19-6.7,1.29.74c-.08,1.81-.16,3.62-.25,5.54l3.89-3.06-3.17-4.61c1.63-.54,3.25-1.1,4.88-1.63,1-.33,2-.62,3.22-1Zm24.72-6.57,2.1-5.69-6.59,2.07c-.55,3.52-1.05,6.73-1.46,9.31l6-5.79c-.19,4.15-.38,8.3-.56,12.18,1.42-1.89,3.19-4.22,5.23-6.92,4,5.61-.72,9.36-1.66,14.59a35.59,35.59,0,0,1,3.26-3c1.07-.73,2.29-1.78,3.42-1.74,4.27.13,5.72,2.66,4.5,7.26-1.72,6.46-1.72,6.46,2.87,8.42,5.37-7.61,10.06-15.5,11.17-26.67-6.14,8.27-11.72,2.4-17.29,1.31-2-.4-5.23-1.18-5.62-2.48C371.57,154.84,369.41,155.36,367.17,155.3Zm10.34,28.75c-4.09,1.78-7.53,3.71-11.21,4.75-2.82.81-6.24-.43-7.28,3.95-.68,2.81-2.19,5.42-3.33,8.12l1.6.84L367.2,189c1.87,8.61-5.66,12.55-6.05,20.21,4.44-3.69,7.79-6.8,11.5-9.4,1.28-.89,3.46-.49,5.23-.67l1,1.43,4.6-12.52-10.76,8.17C370.21,189.59,377,188.67,377.51,184.05Zm1.34,39.07c1.9-4.17,3.4-8,5.37-11.49.62-1.1,2.53-1.49,3.85-2.2.14,1.51.62,3.08.35,4.52a56.92,56.92,0,0,1-2.06,6.75l1.46.48c1.2-3.86,2.39-7.72,3.48-11.25L380.07,199.4c-2.58,8.46-5,16.36-7.69,25.25Zm-27.66-48.58c-1.8,4.19-3.4,7.91-5,11.64l1.23.55c2-3.62,3.93-7.23,6.57-12.06,3.16,8.12-3.05,13.1-2.52,19.41,2.2-2.17,3.84-4.72,5.79-7,.92-1.07,2.43-2.27,3.7-2.29a11.43,11.43,0,0,0,9.73-5.17c-11.64,1.93-13.25,1.42-13-4.05Zm43.05-59.95c-3.6.55-6.75,1.11-9.93,1.49-2.61.31-5.25.41-7.87.61l.12,1.49,3.19-1.28c.5,1.66.92,3,1.37,4.53,5.36-6.19,9.62,2.4,14.71.66C395.26,119.41,394.65,116.54,394.24,114.59ZM377,203,366.1,214.47l5.56,6.22C373.6,214.24,375.3,208.61,377,203Zm17.76,15.4,1.45.09c1.12-3.56,1.7-7.43,3.49-10.62,2.39-4.26,0-6.81-2.15-9.82-.65,3.35-.38,6.68-.73,9.95C396.41,211.54,395.44,215,394.73,218.44Zm8.21-2.31a54.26,54.26,0,0,1,3.37-5.82c3.33-4.23,3.28-7,.4-10.34Z"/><path class="cls-1" d="M708.2,209.67c0-13.31,9.69-23,23-23.15s23.42,9.88,23.42,23.33c0,13.17-9.88,23.06-23.1,23.13C718,233.05,708.18,223.23,708.2,209.67Zm43.32-.12c-.1-11.61-8.77-20.29-20.23-20.25-11.68,0-20.25,9-20,20.92.2,11.67,8.83,20.09,20.46,20C743.14,230.05,751.61,221.24,751.52,209.55Z"/><path class="cls-1" d="M134.47,210c-.16,13.47-10.24,23.22-23.74,23C97.43,232.72,88,223,88.1,209.5s10.22-23.36,23.64-23C125,186.84,134.62,196.8,134.47,210Zm-3.1,0c.11-11.73-8.27-20.54-19.72-20.75-11.71-.22-20.56,8.54-20.62,20.41-.07,11.6,8.51,20.35,20,20.45S131.26,221.69,131.37,210.06Z"/><path class="cls-1" d="M579.58,221.1c-.23,3.57-.47,7.43-.71,11.3l-1.92-.14V187.15c3.55,0,7.33-.25,11.07,0,8,.64,13.25,4.88,15,11.69,2,7.59-.67,14.43-7.35,19-.39.27-.73.61-1.32,1.1q4.5,6.28,8.93,12.51c-.16.31-.33.62-.5.93a13.6,13.6,0,0,1-3.31-1.39,8,8,0,0,1-2.07-2.78C593.73,221,588.2,217.83,579.58,221.1Zm0-4.29c9.42,1.56,15.94-.37,19-5.51,2.84-4.75,2.47-12.44-.79-16.54-3.59-4.51-11.14-6.24-18.22-4.14Z"/><path class="cls-1" d="M151.36,187.13c4.43,0,8.08-.22,11.69.05,8,.6,13.32,4.79,15.13,11.62a16.81,16.81,0,0,1-6.83,18.84c-.53.37-1,.75-1.88,1.36,1.63,2.23,3.19,4.36,4.74,6.5a23.14,23.14,0,0,1,3.79,6.95c-1-.37-2.3-.48-3.07-1.16a10.57,10.57,0,0,1-2.71-3.55c-3.51-7.78-9.61-9.11-17.87-6.79v11.18l-1.32.39a8.53,8.53,0,0,1-1.57-2.26,10.54,10.54,0,0,1-.1-3Zm3.35,30.12c7.66.29,14.8.88,19.25-6.33,2.72-4.43,2.26-12.24-1-16.06-4.94-5.88-11.51-5.36-18.29-4.88Z"/><path class="cls-1" d="M774,195.19v37.59c-2.84-2.76-3.77-33.45-1.87-46.72,10.37,13.38,20.13,26,29.9,38.57l1.26-.08V187.24l1.81.06v46l-29.77-38.43Z"/><path class="cls-1" d="M558.13,232.78c-.93-1.56-2.28-3-2.72-4.69-.94-3.59-3-4.57-6.53-4.36a124.77,124.77,0,0,1-15.47,0c-3.45-.23-5.19.91-6.16,4.19-.52,1.75-2,3.22-3,4.82l-1.53-1q8.91-22.35,17.84-44.69l1.33-.24q9,22.4,18,44.8Zm-5.73-11.85-11.11-28.34-11.11,28.34Z"/><path class="cls-1" d="M641.74,194.47c-1.12-.92-2.26-1.81-3.35-2.77-3.22-2.82-7.11-3.55-10.65-1.56-2,1.09-3.57,3.88-4.07,6.18-.87,4,1.81,6.51,5.14,8.24,3.54,1.85,7.27,3.37,10.65,5.46,5.91,3.64,7.91,8.61,6.26,14.37-1.57,5.46-6.32,8.62-13.17,8.57-6.6,0-11.94-2.36-14.9-8.58l.86-1.36a15.6,15.6,0,0,1,3.13,2.32c3.71,4.5,8.68,6.14,13.87,4.4,2.85-1,6.27-4,6.93-6.63s-1.19-6.63-3.11-9.12c-1.69-2.18-5-3.15-7.6-4.59a68.94,68.94,0,0,1-6.58-3.52,10.62,10.62,0,0,1-4.25-12.29c1.68-5,5.58-6.82,10.43-7C636.91,186.32,640.73,188.72,641.74,194.47Z"/><path class="cls-1" d="M216.42,222.24c1.85,1.36,3.05,1.89,3.75,2.81,3.55,4.65,8.46,6.37,13.7,4.75a13.77,13.77,0,0,0,7.35-6.35c1.78-3.45.29-7.36-3.11-9.62s-7.1-3.63-10.45-5.77c-2.61-1.66-5.47-3.47-7.13-5.95-3.39-5-1.06-11.88,4.27-14.4,6.51-3.07,14.29-.33,15.85,6.63-1.34-1-2.69-2.05-4-3.06-3.58-2.67-7.83-3.31-11.08-.58-1.94,1.63-2.93,5.43-2.78,8.17.11,1.9,2.58,4.12,4.52,5.39,3.46,2.25,7.46,3.67,11,5.83,5.67,3.46,7.82,8.84,6.19,14.42-1.49,5.1-6.35,8.32-12.8,8.47C223.9,233.16,218.29,229.64,216.42,222.24Z"/><path class="cls-1" d="M34.21,216.06H13.4c-.26,5.88-.5,11.06-.73,16.25l-1.86-.12V187.71h25.5l0,1.45H13.53v24.76H34.31Z"/><path class="cls-1" d="M271.51,232.27c-2-6.68-.6-13.67-.85-20.5-.26-7.1-.06-14.22-.06-21.68l-14.15-.79.13-1.65h31.23l.15,1.66-14.32.73v42.07Z"/><path class="cls-1" d="M690.51,187a21.29,21.29,0,0,1,.72,3.81c0,10.14.09,20.29-.08,30.43-.09,5-1.89,9.25-7,11-4.69,1.56-9.26,1.14-12.94-2.58-.84-.85-1.07-2.31-1.77-3.95,1.46.12,1.9,0,2.05.18,3.25,3.69,7.09,5.59,11.93,3.49S688,223,688,218.73c0-8.82,0-17.63,0-26.44,0-1.7.29-3.4.45-5.1Z"/><path class="cls-1" d="M55.83,187.09c1.49,4.27.49,8.93.67,13.38.19,4.82,0,9.65,0,14.47V230.1H78l0,1.59H53.73V187.4Z"/><path class="cls-1" d="M486.62,232.56v-45.4l1.71,0v42.74h22l0,1.76C502.53,233.54,494.52,231.79,486.62,232.56Z"/><path class="cls-1" d="M198.06,186.87c2.9,2.87,3.19,41.67.72,45.38C197,229.7,196.29,194.24,198.06,186.87Z"/><path class="cls-1" d="M328.73,294.47l4.4-10.11,4.8,9.92,4-9.41,1.27.5-5.09,13.56c-1.83-4-3.19-7-4.83-10.53-1.64,3.56-3,6.47-4.8,10.4l-5.21-13.47,1.18-.54Z"/><path class="cls-1" d="M454,286.16c-1.32-.05-2.64-.18-3.95-.14-3.83.1-5.78,2.63-5,5.86.48,2,3.1,4.56,5,4.83,3.49.5,5.3-2.27,5.19-5.78a24.4,24.4,0,0,0-.92-4.33q.72-5.69,1.45-11.36l.55,0v22c-1.14.24-2.52.44-3.85.81-3.35.92-6.36.58-8.26-2.63s-1.74-6.49,1-9.09S451.05,283.18,454,286.16Z"/><path class="cls-1" d="M362.52,291.76H351.2c1.2,5.54,3.22,6.24,9.56,3.82-1.88,2.76-4.62,3.67-7.63,2.31-3.32-1.49-4.61-4.23-4-7.74s2.9-5.75,6.46-5.82C359.71,284.25,361.82,286.81,362.52,291.76ZM360,290.07l.69-1.53c-1.68-.84-3.38-2.36-5-2.33s-3.27,1.64-4.9,2.56l.58,1.3Z"/><path class="cls-1" d="M317.54,291.38a6.79,6.79,0,0,1-6.86,7,7.07,7.07,0,0,1-7.18-6.8,7.3,7.3,0,0,1,7.22-7.35A7.07,7.07,0,0,1,317.54,291.38Zm-12.27-1.94c.1,5.21,1.83,7.44,5.38,7.45,3.33,0,5.07-2.19,5.1-5.44s-1.62-5.8-5-5.27C308.55,286.53,306.6,288.6,305.27,289.44Z"/><path class="cls-1" d="M488.37,291.49a7,7,0,0,1-7.07,6.89,6.85,6.85,0,0,1-7-6.9,7,7,0,0,1,7.23-7.22A7.2,7.2,0,0,1,488.37,291.49Zm-1,.85L487.3,290c-2.07-1.33-4-3.48-6.25-3.8-3.41-.48-5,2.17-4.94,5.45s2.1,5.77,5.32,5.12C483.62,296.31,485.4,293.88,487.37,292.34Z"/><path class="cls-1" d="M412.6,278.45c.86,2.34,1.71,4.69,2.63,7.21-3.76,1.25-1.57,5.47-1.63,8.74,0,1,2,2.12,3.37,3.4-2.63,1.11-5,.77-5.27-2.81-.36-5.49-.09-11-.09-16.54Z"/><path class="cls-1" d="M402.36,287.06a11.22,11.22,0,0,0-3.13-.94c-.84,0-1.69.7-2.53,1.08a23.54,23.54,0,0,0,1.61,2.64c.26.32,1,.2,1.36.51a27.19,27.19,0,0,1,4.25,4.75c.19.29-2,2.95-3.1,3-2.21.06-4.43-1-6.65-1.55l.67-1.79c.44.26.87.74,1.32.75,2,.07,4,0,6,0-1.19-1.25-2.35-2.54-3.58-3.76s-2.93-2.15-3.56-3.59c-.31-.7,1.2-3.08,2.16-3.27,1.77-.34,3.74.38,5.62.65Z"/><path class="cls-1" d="M435.75,285.2c-.35,4.15,1.84,8.87-2.34,12.13-1.38,1.08-4.89,1.09-6.36.07-4.45-3.11-2.37-8-2.6-12.17l1.28-.18c.14,2.26.33,4.52.42,6.78.1,2.74.92,5.55,4,4.89,1.62-.35,3.22-3.07,3.87-5s.15-4.39.15-6.61Z"/><ellipse class="cls-1" cx="295.16" cy="286.28" rx="0.61" ry="15.8"/><path class="cls-1" d="M274.5,276.17h11.89l0,.85-10.43.46v11.33h9.22l.09,1.22-9.41.51c-.2,2.46-.38,4.68-.55,6.91l-.85,0Z"/><path class="cls-1" d="M369.79,297.56V284.91c1,.47,2,.75,2,1-.23,3.94-.59,7.88-.92,11.82Z"/><path class="cls-1" d="M465.62,297.61V285.17h.89v12.38Z"/></svg>