<svg xmlns="http://www.w3.org/2000/svg" width="330.579" height="127.081" viewBox="0 0 330.579 127.081">
  <g id="Artboard_2" data-name="Artboard 2" transform="translate(-10.81 3.26)">
    <path id="Path_5" data-name="Path 5" d="M320.19,65.466c-.075-.616-.1-1.249-.233-1.848a16.065,16.065,0,0,0-.616-1.736c-1.869-.77-1.9-.907-.087-2.5-1.319-.279-2.464-.2-2.339-2.364.079-1.382-1.765-2.992-2.967-4.3-1.319-1.436-2.913-2.618-4.349-3.962-.9-.832-1.706-1.8-2.555-2.7l.37-.362,9.943,4.7-1.906-4.274.6-.383c.924.866,1.873,1.711,2.772,2.6a13.948,13.948,0,0,0,5.9,3.9,17.086,17.086,0,0,1,3.746,2.277c.212.137.516.516.545.491,1.823-1.469,1.569.524,2.131,1.282l1.6-1.415c.362,1.182.645,2.11.916,2.984l1.07-1.7.62-.025.87,3.4,1.944-1.373c.208.741.416,1.482.533,1.914l4.645-.554c-.1-2.031-.208-4.249-.32-6.468-1.469.658-2.651,1.573-3.846,1.59-.832,0-1.665-1.249-2.58-2.006l-2.039.283c-.058-.416-.112-.832-.187-1.39-1.939,1.049-2.913-.287-4.162-1.623-1.086-1.157-2.755-1.761-4.162-2.643-1.219-.774-2.376-1.665-3.625-2.376-1.565-.907-3.188-1.711-4.79-2.56l-2.972-1.573c.075-.246.154-.491.229-.737l4.224.537-1.053-2.668.479-.345c1.036.857,2.081,1.69,3.109,2.572a4.344,4.344,0,0,0,3.746.97,15.475,15.475,0,0,1,5.685.741c1.527-.033,3.059-.033,4.578-.112,1.727-.092,3.45-.258,5.39-.416l-.924-4.133c-1.361,1.939-2.555,1.124-3.846.416-.445-.246-1.161.054-1.715-.067a43.817,43.817,0,0,0-7.737-1.4c-2.035-.079-4.02-1.894-5.985-3.013-.387-.221-.583-.782-1.182-1.64a22.563,22.563,0,0,1,2.3.516,21.532,21.532,0,0,0,9.443,1.053c1.973-.166,4,.416,6.014.6.491.05,1.224.1,1.436-.162.266-.341.112-1.011.154-1.815-1.1.516-1.989,1.723-2.7,0-.083-.2-1.136.046-1.736,0q-4.5-.4-8.994-.832a1.507,1.507,0,0,1-.712-.416,4.337,4.337,0,0,1-.524-.832l12.823-.945c.062-.275.121-.545.183-.832-3.5-.832-7.017-1.582-8.74-4.949l.379-.653,3.138,1.049c-2.293-3.966-2.239-5.731-.416-5.827-.254-1.332-.608-2.7-.753-4.083-.3-2.826-.562-5.66-.683-8.5A46.273,46.273,0,0,1,330.6-3.26a35.459,35.459,0,0,0,1.6,4.537c1.169,2.318,2.6,4.512,3.858,6.784a16.6,16.6,0,0,1,.832,2.222l1.04-.5.5.362-1.773,3.5,2.277-1.594.666.508-2.3,3.746,2.884-2.01.479.266c-.146.728-.291,1.461-.449,2.247l1.586-.52c.271,3.392-2.838,4.453-4.245,6.568.129.15.258.3.383.458l5.827-4.553c.212,2.222-.941,3.388-1.931,4.474s-2.293,1.91-3.3,3.051c4.05-.3,4.8-4.616,7.8-6.7.058,5.523-4.383,7.837-7.225,11.142l.375.366c2.518-1.2,5.061-2.347,7.546-3.613,2.672-1.357,5.29-2.826,8.274-4.428a13.533,13.533,0,0,1-5.872,6.33c-1.165.691-1.96,2.081-3.787,1.848-.612-.079-1.394,1.432-2.16,2.148s-1.619,1.357-2.435,2.031l-.516-.416c.046.537.1,1.07.2,2.243,6.9-4.008,13.177-8.149,17.543-14.771l.549.416a8.479,8.479,0,0,1-.366,1.386,54.764,54.764,0,0,1-3.33,7.017,23.5,23.5,0,0,1-4.466,4.857,40.06,40.06,0,0,1-5.177,3.588,39.6,39.6,0,0,1-3.717,1.815c.112.6.308,1.665.483,2.614,1.8-1.007,3.646-1.877,5.294-3.026.945-.662,1.494-1.869,2.368-2.672,1.623-1.486,3.417-2.793,5.019-4.3a19.144,19.144,0,0,0,2.476-3.084c.753-1.086,1.373-2.268,2.052-3.4l.62.275a31.666,31.666,0,0,1-.778,3.076c-.949,2.676-1.665,5.506-3.071,7.908-1.274,2.193-3.5,3.812-4.994,5.9-1.44,2-3.85,2.239-5.614,3.613-.5.387-1.548.058-2.547.058l.92,7.633,2.243-1.194c.171-.961.35-2,.533-3.034l.716-.35,1.045,1.711,1.781-2.776c.391,1.078.608,1.665.832,2.235,1.348-1.636,1.344-1.532,4.944-1.494,1.14,0,2.293-.7,3.654-1.157l.271.366A15.16,15.16,0,0,0,371.782,45.2l.383.537c-.05.308,0,.7-.162.9-2.16,2.5-4.133,5.207-6.63,7.3-1.249,1.049-3.467.9-5.223,1.382-1.074.291-2.081.766-3.151,1.128-.932.325-1.9.562-2.822.92-1.927.741-3.812,1.615-5.768,2.264a3.716,3.716,0,0,1-2.143-.225,12.242,12.242,0,0,1-2.044-1.12c-.624,3.588-1.215,7-1.736,9.989l4.154-4.345c.3,1.548.466,2.435.645,3.359l1.906-3.9.724.175c.087.9.175,1.8.271,2.764.628-1.049,1.249-2.081,1.865-3.134l.649.162c.1.961.2,1.923.287,2.747l2.456-2.98.624.341c-.042.637-.083,1.249-.125,1.885l2.31-1.794c.071.928.117,1.473.133,1.69a19.974,19.974,0,0,0,2.913-.021c3.542-.549,7.054-1.315,10.6-1.731a41.226,41.226,0,0,1,5.989.133l.021.961c-.683.1-1.361.25-2.044.312-2.268.212-4.4.574-6.2,2.272a9.988,9.988,0,0,1-4.02,2.385c-1.353.37-2.913-.037-4.532-.112-.6,1.39-2.227.57-3.5.911-2.052.554-2.635-.941-3.509-2.2.1,1.082.187,2.019.275,2.959l-1.973-.1c-.724,1.573-3.421,1.89-6.022.416.1.716.191,1.34.283,1.964-1.665.337-1.665.337-5.3-2.647-1.249,2.247-2.551,4.462-3.746,6.717a21.072,21.072,0,0,0-.966,2.6,2.012,2.012,0,0,0,2.689-1.606,34.41,34.41,0,0,1,1.69-3.925l.807.216V79.3l.545.183a22.525,22.525,0,0,1,1.586-2.46,10.679,10.679,0,0,1,1.76-1.411c-.021.807,0,1.615-.087,2.418-.029.3-.266.591-.15,1.082l2.884-3.646.724.229c-.216,1.249-.416,2.53-.683,4,1.665-1.211,2.31-3.65,5.215-3.633-.724,1.432-1.319,2.6-1.91,3.746l.158.216,3.18-2.709.537.316-.558,2.081a9.1,9.1,0,0,1,2.809-.862c.716,0,1.432.77,2.443,1.369l1.752-1.045c-.079.953-.125,1.511-.191,2.331,1.428-1.44,2.826-.72,4.353-.358,2.868.687,5.806,1.078,8.715,1.59.025.262.054.52.079.782-1.81.279-3.613.7-5.431.8-2.535.142-4.478,1.274-6.593,2.61-2.352,1.482-4.578,3.746-7.812,3.367-1.756,2.214-4.994.2-6.83,2.385-.212.258-1.14-.083-1.736-.146l-.275,1.519c-.574-.121-1.286-.067-1.7-.391-1.128-.886-2.127-1.927-3.18-2.913l-.416.3a23.317,23.317,0,0,1,1.686,2.168,8.777,8.777,0,0,1,.637,1.827c-.678-.092-1.532.042-2-.32a48.711,48.711,0,0,1-3.625-3.33l-.683.262c.508,1.806,1.011,3.613,1.527,5.452-2.252-.175-4.229-2.5-4.549-5.739-.7.986-1.361,1.515-1.469,2.135-.354,2.035-.52,4.1-.733,6.164a9.006,9.006,0,0,1-.379,2.364c-1.507-4.116,1.536-8.436-.046-12.161-2.268.5-4.079,1-5.922,1.249-.6.079-1.294-.5-1.948-.77a8.421,8.421,0,0,1,1.686-1.132c1.323-.5,2.7-.853,4.054-1.249-.025-.254-.05-.5-.071-.757a26.343,26.343,0,0,0-2.868.021c-1.157.129-2.293.524-3.446.583-.487.025-1-.508-1.507-.787a5.463,5.463,0,0,1,1.249-1.095c1.249-.545,2.555-.961,3.841-1.428-.079-.341-.158-.687-.241-1.032a16.174,16.174,0,0,0-2.5.35c-1.124.329-2.168.941-3.3,1.224-.487.121-1.1-.283-1.665-.445.308-.474.512-1.1.941-1.4,1.249-.866,2.6-1.6,3.912-2.385l-.283-.737-2.913.416a15.892,15.892,0,0,1-2.872.379,5.849,5.849,0,0,1-1.873-.8c.474-.416.882-1.02,1.44-1.249A17.4,17.4,0,0,0,321,77.1a33.376,33.376,0,0,1-3.746.258,8.313,8.313,0,0,1-2.148-.687,14.081,14.081,0,0,1,1.777-1.386,11.424,11.424,0,0,1,2.168-.641c-1.835-.262-3.271-.379-4.666-.691-.832-.187-1.665-.645-.866-1.76.117-.162.32-.375.283-.512-.487-1.885-.5-1.885,1.473-2.351.058,0,.1-.087.154-.133-.891-.866-3.746.262-2.855-2.714l-1.115-1.336.936-.762c-.683-.832-1.881-1.69-2.177-2.78-1.049-3.891-3.937-6.622-5.86-9.947-.083-.146,0-.379,0-1.161,1.457,1.157,2.572,2.081,3.746,2.955,1.548,1.161,3.388,2.06,4.6,3.5.683.807,2.081,1.02,2.227,2.6.046.508,1.694,1.115.936,2.53l1.906-.271c-.416,1.111-.72,1.956-1.053,2.868l1.785-.7.391.316c-.5,1.032-1,2.081-1.723,3.538l3.051-2.372a12.808,12.808,0,0,1-.237,2.63,8.175,8.175,0,0,1-1.165,1.885l.487.387,2.16-2.788.537.308c-.033.753-.067,1.507-.1,2.306l1.619-1.274L322.2,66.989c.678-.225,1.353-.458,2.031-.678.416-.137.832-.258,1.34-.416Zm10.288-2.734.874-2.368-2.743.862c-.229,1.465-.437,2.8-.608,3.875l2.5-2.41c-.079,1.727-.158,3.454-.233,5.069.591-.787,1.328-1.756,2.177-2.88,1.665,2.335-.3,3.9-.691,6.072a14.815,14.815,0,0,1,1.357-1.249c.445-.3.953-.741,1.423-.724,1.777.054,2.381,1.107,1.873,3.022-.716,2.689-.716,2.689,1.194,3.5,2.235-3.167,4.187-6.451,4.649-11.1-2.555,3.442-4.878,1-7.2.545-.832-.166-2.177-.491-2.339-1.032-.4-1.378-1.3-1.161-2.235-1.186Zm4.3,11.966a39.411,39.411,0,0,1-4.666,1.977c-1.174.337-2.6-.179-3.03,1.644A22.9,22.9,0,0,1,325.7,81.7l.666.35,4.124-5.29c.778,3.583-2.356,5.223-2.518,8.411,1.848-1.536,3.242-2.83,4.786-3.912.533-.37,1.44-.2,2.177-.279l.416.6,1.915-5.211-4.478,3.4C331.744,77,334.57,76.62,334.782,74.7Zm.558,16.261c.791-1.736,1.415-3.33,2.235-4.782.258-.458,1.053-.62,1.6-.916a7.1,7.1,0,0,1,.146,1.881,23.7,23.7,0,0,1-.857,2.809l.608.2c.5-1.607.995-3.213,1.448-4.682l-4.674-4.383c-1.074,3.521-2.081,6.809-3.2,10.509ZM323.828,70.739c-.749,1.744-1.415,3.292-2.081,4.844l.512.229c.832-1.507,1.636-3.009,2.734-5.019,1.315,3.379-1.269,5.452-1.049,8.078.916-.9,1.6-1.964,2.41-2.913a2.519,2.519,0,0,1,1.54-.953,4.757,4.757,0,0,0,4.05-2.152c-4.845.8-5.515.591-5.41-1.686Zm17.917-24.951c-1.5.229-2.809.462-4.133.62-1.086.129-2.185.171-3.275.254l.05.62,1.328-.533c.208.691.383,1.249.57,1.885,2.231-2.576,4,1,6.122.275C342.169,47.795,341.915,46.6,341.745,45.788Zm-7.175,36.8-4.536,4.774,2.314,2.589C333.155,87.262,333.862,84.919,334.57,82.584Zm7.392,6.409.6.037a23.11,23.11,0,0,1,1.453-4.42c.995-1.773,0-2.834-.895-4.087-.271,1.394-.158,2.78-.3,4.141-.171,1.473-.574,2.913-.87,4.345Zm3.417-.961a22.579,22.579,0,0,1,1.4-2.422c1.386-1.76,1.365-2.913.166-4.3Z" transform="translate(-171.354)" fill="#072040"/>
    <path id="Path_6" data-name="Path 6" d="M708.2,196.154a9.354,9.354,0,0,1,9.573-9.635,9.668,9.668,0,1,1,.133,19.336A9.35,9.35,0,0,1,708.2,196.154Zm18.03-.05a8.373,8.373,0,1,0-8.228,8.6A8.256,8.256,0,0,0,726.229,196.1Z" transform="translate(-407.141 -110.794)" fill="#072040"/>
    <path id="Path_7" data-name="Path 7" d="M107.4,196.275a9.421,9.421,0,0,1-9.88,9.572,9.679,9.679,0,0,1,.42-19.353A9.431,9.431,0,0,1,107.4,196.275Zm-1.29,0a8.358,8.358,0,1,0,0,.025Z" transform="translate(-45.122 -110.777)" fill="#072040"/>
    <path id="Path_8" data-name="Path 8" d="M578.045,201.215c-.1,1.486-.2,3.092-.3,4.7l-.8-.058V187.085c1.477,0,3.051-.1,4.607,0,3.33.266,5.515,2.031,6.243,4.865a6.985,6.985,0,0,1-3.059,7.908c-.162.112-.3.254-.549.458q1.873,2.614,3.717,5.207c-.067.129-.137.258-.208.387a5.66,5.66,0,0,1-1.378-.579,3.331,3.331,0,0,1-.862-1.157C583.934,201.173,581.632,199.854,578.045,201.215Zm0-1.785c3.921.649,6.634-.154,7.908-2.293a6.688,6.688,0,0,0-.329-6.884c-1.494-1.877-4.636-2.6-7.583-1.723Z" transform="translate(-330.516 -111.098)" fill="#072040"/>
    <path id="Path_9" data-name="Path 9" d="M151.323,187.081c1.844,0,3.363-.092,4.865.021,3.33.25,5.544,1.994,6.3,4.836a7,7,0,0,1-2.843,7.841c-.221.154-.416.312-.782.566.678.928,1.328,1.815,1.973,2.705a9.63,9.63,0,0,1,1.577,2.893,4.051,4.051,0,0,1-1.278-.483A4.4,4.4,0,0,1,160,203.982c-1.461-3.238-4-3.792-7.437-2.826v4.653l-.549.162a3.55,3.55,0,0,1-.653-.941,4.386,4.386,0,0,1-.042-1.249Zm1.394,12.536c3.188.121,6.16.366,8.012-2.635a6.449,6.449,0,0,0-.416-6.684c-2.056-2.447-4.79-2.231-7.612-2.031Z" transform="translate(-82.017 -111.102)" fill="#072040"/>
    <path id="Path_10" data-name="Path 10" d="M772.328,189.86V205.5c-1.182-1.149-1.569-13.922-.778-19.445,4.316,5.569,8.378,10.821,12.444,16.053l.524-.033V186.551l.753.025v19.145l-12.39-15.994Z" transform="translate(-443.883 -110.526)" fill="#072040"/>
    <path id="Path_11" data-name="Path 11" d="M537.457,205.942a8.371,8.371,0,0,1-1.132-1.952c-.391-1.494-1.249-1.9-2.718-1.815a51.929,51.929,0,0,1-6.439,0,2.127,2.127,0,0,0-2.564,1.744,9.222,9.222,0,0,1-1.249,2.006l-.637-.416q3.708-9.3,7.425-18.6l.554-.1,7.491,18.645Zm-2.385-4.932-4.624-11.795-4.624,11.795Z" transform="translate(-298.856 -110.964)" fill="#072040"/>
    <path id="Path_12" data-name="Path 12" d="M627.676,189.858c-.466-.383-.941-.753-1.394-1.153a3.718,3.718,0,0,0-4.432-.649,4.109,4.109,0,0,0-1.694,2.572c-.362,1.665.753,2.709,2.139,3.429,1.473.77,3.026,1.4,4.432,2.272,2.46,1.515,3.292,3.583,2.605,5.981-.653,2.272-2.63,3.588-5.481,3.567-2.747,0-4.969-.982-6.2-3.571l.358-.566a6.493,6.493,0,0,1,1.3.966,5.09,5.09,0,0,0,5.773,1.831,4.945,4.945,0,0,0,2.884-2.759c.275-1.095-.5-2.759-1.294-3.8-.7-.907-2.081-1.311-3.163-1.91a28.7,28.7,0,0,1-2.739-1.465A4.42,4.42,0,0,1,619,189.491c.7-2.081,2.322-2.838,4.341-2.913C625.666,186.466,627.256,187.465,627.676,189.858Z" transform="translate(-354.277 -110.824)" fill="#072040"/>
    <path id="Path_13" data-name="Path 13" d="M216.42,201.353a8.73,8.73,0,0,1,1.561,1.169,5.006,5.006,0,0,0,5.7,1.977,5.731,5.731,0,0,0,3.059-2.643,3.089,3.089,0,0,0-1.294-4c-1.415-.941-2.955-1.511-4.349-2.4a9.756,9.756,0,0,1-2.967-2.476,4.16,4.16,0,0,1,1.777-5.993c2.709-1.278,5.947-.137,6.6,2.759-.558-.416-1.12-.853-1.665-1.274-1.49-1.111-3.259-1.378-4.611-.241a4.6,4.6,0,0,0-1.157,3.4c.046.791,1.074,1.715,1.881,2.243,1.44.936,3.1,1.527,4.578,2.426a5.11,5.11,0,0,1,2.576,6c-.62,2.123-2.643,3.463-5.327,3.525C219.533,205.9,217.2,204.433,216.42,201.353Z" transform="translate(-120.036 -110.761)" fill="#072040"/>
    <path id="Path_14" data-name="Path 14" d="M20.549,199.509H11.888c-.108,2.447-.208,4.6-.3,6.763l-.774-.05V187.71H21.423v.6H11.942v10.3h8.649Z" transform="translate(0 -111.489)" fill="#072040"/>
    <path id="Path_15" data-name="Path 15" d="M262.718,206.221c-.832-2.78-.25-5.689-.354-8.532-.108-2.955-.025-5.918-.025-9.023l-5.889-.329.054-.687h13l.062.691-5.96.3v17.509Z" transform="translate(-143.406 -111.454)" fill="#072040"/>
    <path id="Path_16" data-name="Path 16" d="M678.209,187a8.858,8.858,0,0,1,.3,1.586c0,4.22.037,8.445-.033,12.665-.037,2.081-.787,3.85-2.913,4.578a4.913,4.913,0,0,1-5.385-1.074,5.725,5.725,0,0,1-.737-1.644c.608.05.791,0,.853.075,1.353,1.536,2.951,2.327,4.965,1.453s1.906-2.655,1.906-4.432v-11c0-.708.121-1.415.187-2.123Z" transform="translate(-384.512 -111.075)" fill="#072040"/>
    <path id="Path_17" data-name="Path 17" d="M54.6,187.09c.62,1.777.2,3.717.279,5.569.079,2.006,0,4.016,0,6.022v6.309h8.948v.662H53.73V187.219Z" transform="translate(-25.057 -111.127)" fill="#072040"/>
    <path id="Path_18" data-name="Path 18" d="M486.62,206.055v-18.9h.712v17.788h9.156v.733C493.242,206.463,489.908,205.735,486.62,206.055Z" transform="translate(-277.781 -111.168)" fill="#072040"/>
    <path id="Path_19" data-name="Path 19" d="M197.462,186.87c1.207,1.194,1.328,17.343.3,18.887C197.021,204.7,196.726,189.937,197.462,186.87Z" transform="translate(-108.72 -110.999)" fill="#072040"/>
    <path id="Path_20" data-name="Path 20" d="M325.542,288.568l1.831-4.208,2,4.129,1.665-3.916.529.208-2.118,5.644c-.762-1.665-1.328-2.913-2.01-4.383-.683,1.482-1.249,2.693-2,4.328l-2.168-5.606.491-.225Z" transform="translate(-182.416 -167.914)" fill="#072040"/>
    <path id="Path_21" data-name="Path 21" d="M447.545,279.785c-.549-.021-1.1-.075-1.644-.058-1.594.042-2.406,1.095-2.081,2.439a3.179,3.179,0,0,0,2.081,2.01c1.453.208,2.206-.945,2.16-2.406a10.159,10.159,0,0,0-.383-1.8q.3-2.368.6-4.728h.229V284.4c-.474.1-1.049.183-1.6.337-1.394.383-2.647.241-3.438-1.095a2.845,2.845,0,0,1,.416-3.783C445.027,278.773,446.317,278.545,447.545,279.785Z" transform="translate(-252.282 -162.59)" fill="#072040"/>
    <path id="Path_22" data-name="Path 22" d="M354.617,287.421h-4.711c.5,2.306,1.34,2.6,3.979,1.59a2.4,2.4,0,0,1-3.176.961,2.728,2.728,0,0,1-1.665-3.221,2.669,2.669,0,0,1,2.689-2.422C353.448,284.3,354.326,285.361,354.617,287.421Zm-1.049-.7.287-.637c-.7-.35-1.407-.982-2.081-.97s-1.361.683-2.039,1.065l.241.541Z" transform="translate(-197.428 -167.896)" fill="#072040"/>
    <path id="Path_23" data-name="Path 23" d="M309.343,287.206a2.826,2.826,0,0,1-2.855,2.913,2.943,2.943,0,0,1-2.988-2.83,3.038,3.038,0,0,1,3-3.059,2.942,2.942,0,0,1,2.838,2.976Zm-5.107-.807c.042,2.168.762,3.1,2.239,3.1a2.027,2.027,0,0,0,2.123-2.264c.012-1.353-.674-2.414-2.081-2.193A6.559,6.559,0,0,0,304.237,286.4Z" transform="translate(-170.874 -167.838)" fill="#072040"/>
    <path id="Path_24" data-name="Path 24" d="M480.154,287.267a2.913,2.913,0,0,1-2.943,2.868,2.851,2.851,0,0,1-2.913-2.872,2.913,2.913,0,0,1,3.009-3A3,3,0,0,1,480.154,287.267Zm-.416.354-.029-.974c-.862-.554-1.665-1.448-2.6-1.582-1.419-.2-2.081.9-2.056,2.268s.874,2.4,2.214,2.131C478.177,289.273,478.918,288.262,479.738,287.621Z" transform="translate(-270.586 -167.854)" fill="#072040"/>
    <path id="Path_25" data-name="Path 25" d="M411.965,278.45c.358.974.712,1.952,1.095,3-1.565.52-.653,2.277-.678,3.638,0,.416.832.882,1.4,1.415-1.095.462-2.081.32-2.193-1.169-.15-2.285-.037-4.578-.037-6.884Z" transform="translate(-233.933 -164.464)" fill="#072040"/>
    <path id="Path_26" data-name="Path 26" d="M397.579,285.741a4.671,4.671,0,0,0-1.3-.391,3.026,3.026,0,0,0-1.053.449,9.789,9.789,0,0,0,.67,1.1c.108.133.416.083.566.212a11.317,11.317,0,0,1,1.769,1.977c.079.121-.832,1.228-1.29,1.249a10.973,10.973,0,0,1-2.768-.645l.279-.745c.183.108.362.308.549.312.832.029,1.665,0,2.5,0-.5-.52-.978-1.057-1.49-1.565s-1.219-.895-1.482-1.494c-.129-.291.5-1.282.9-1.361a7.525,7.525,0,0,1,2.339.271Z" transform="translate(-223.808 -168.172)" fill="#072040"/>
    <path id="Path_27" data-name="Path 27" d="M428.984,285.112c-.146,1.727.766,3.692-.974,5.048a2.835,2.835,0,0,1-2.647.029c-1.852-1.294-.986-3.33-1.082-5.065l.533-.075c.058.941.137,1.881.175,2.822.042,1.14.383,2.31,1.665,2.035.674-.146,1.34-1.278,1.611-2.081a9.282,9.282,0,0,0,.062-2.751Z" transform="translate(-241.317 -168.317)" fill="#072040"/>
    <ellipse id="Ellipse_1" data-name="Ellipse 1" cx="0.254" cy="6.576" rx="0.254" ry="6.576" transform="translate(128.901 110.669)" fill="#072040"/>
    <path id="Path_28" data-name="Path 28" d="M274.477,276.17h4.949v.354l-4.341.191v4.715h3.837l.037.508-3.916.212c-.083,1.024-.158,1.948-.229,2.876h-.354Z" transform="translate(-153.921 -163.133)" fill="#072040"/>
    <path id="Path_29" data-name="Path 29" d="M369.79,290.175V284.91c.416.2.832.312.832.416-.1,1.64-.246,3.28-.383,4.919Z" transform="translate(-209.575 -168.235)" fill="#072040"/>
    <path id="Path_30" data-name="Path 30" d="M465.62,290.347V285.17h.37v5.152Z" transform="translate(-265.521 -168.387)" fill="#072040"/>
  </g>
</svg>
